<svg xmlns="http://www.w3.org/2000/svg" viewBox="0 0 512 512" width="512" height="512" shape-rendering="geometricPrecision"><defs><filter id="brushedMetal" x="0" y="0" width="100%" height="100%"><feTurbulence type="fractalNoise" baseFrequency="0.4 0.005" numOctaves="4" stitchTiles="stitch" result="noise"/><feColorMatrix type="matrix" values="1 0 0 0 0  0 1 0 0 0  0 0 1 0 0  0 0 0 0.15 0" in="noise" result="coloredNoise"/><feComposite operator="in" in="coloredNoise" in2="SourceGraphic" result="composite"/><feBlend mode="overlay" in="composite" in2="SourceGraphic"/></filter><linearGradient id="metalSheen" x1="0%" y1="0%" x2="100%" y2="0%"><stop offset="0%" stop-color="#2a2e33" stop-opacity="0.8"/><stop offset="10%" stop-color="#484f57" stop-opacity="0.2"/><stop offset="30%" stop-color="#7e8891" stop-opacity="0.4"/><stop offset="50%" stop-color="#2a2e33" stop-opacity="0.6"/><stop offset="80%" stop-color="#555d66" stop-opacity="0.3"/><stop offset="100%" stop-color="#2a2e33" stop-opacity="0.8"/></linearGradient><linearGradient id="boltGrad" x1="0%" y1="0%" x2="0%" y2="100%"><stop offset="0%" stop-color="#8a929b"/><stop offset="100%" stop-color="#1a1c1e"/></linearGradient><linearGradient id="seamShadow" x1="0%" y1="0%" x2="100%" y2="0%"><stop offset="0%" stop-color="#000000" stop-opacity="0.8"/><stop offset="100%" stop-color="#000000" stop-opacity="0"/></linearGradient></defs><rect x="0" y="0" width="512" height="512" fill="#353b42"/><rect x="0" y="0" width="512" height="512" fill="#353b42" filter="url(#brushedMetal)"/><rect x="0" y="0" width="128" height="512" fill="url(#metalSheen)" style="mix-blend-mode: overlay;"/><rect x="128" y="0" width="128" height="512" fill="url(#metalSheen)" style="mix-blend-mode: overlay;" transform="scale(-1, 1) translate(-384, 0)"/><rect x="256" y="0" width="128" height="512" fill="url(#metalSheen)" style="mix-blend-mode: overlay;"/><rect x="384" y="0" width="128" height="512" fill="url(#metalSheen)" style="mix-blend-mode: overlay;" transform="scale(-1, 1) translate(-896, 0)"/><line x1="0" y1="256" x2="512" y2="256" stroke="#15171a" stroke-width="2"/><line x1="0" y1="257" x2="512" y2="257" stroke="#5a636e" stroke-width="1" stroke-opacity="0.5"/><rect x="126" y="0" width="4" height="512" fill="#111314"/><rect x="127" y="0" width="2" height="512" fill="#080808"/><line x1="130" y1="0" x2="130" y2="512" stroke="#6a7580" stroke-width="1" stroke-opacity="0.6"/><rect x="254" y="0" width="4" height="512" fill="#111314"/><rect x="255" y="0" width="2" height="512" fill="#080808"/><line x1="258" y1="0" x2="258" y2="512" stroke="#6a7580" stroke-width="1" stroke-opacity="0.6"/><rect x="382" y="0" width="4" height="512" fill="#111314"/><rect x="383" y="0" width="2" height="512" fill="#080808"/><line x1="386" y1="0" x2="386" y2="512" stroke="#6a7580" stroke-width="1" stroke-opacity="0.6"/><rect x="510" y="0" width="2" height="512" fill="#111314"/><rect x="0" y="0" width="2" height="512" fill="#111314"/><line x1="2" y1="0" x2="2" y2="512" stroke="#6a7580" stroke-width="1" stroke-opacity="0.6"/><g transform="translate(64, 40)"><circle cx="0" cy="0" r="6" fill="#111314"/><circle cx="0" cy="0" r="4" fill="url(#boltGrad)"/><circle cx="0" cy="0" r="2" fill="#111314" opacity="0.5"/></g><g transform="translate(64, 472)"><circle cx="0" cy="0" r="6" fill="#111314"/><circle cx="0" cy="0" r="4" fill="url(#boltGrad)"/><circle cx="0" cy="0" r="2" fill="#111314" opacity="0.5"/></g><g transform="translate(192, 40)"><circle cx="0" cy="0" r="6" fill="#111314"/><circle cx="0" cy="0" r="4" fill="url(#boltGrad)"/><circle cx="0" cy="0" r="2" fill="#111314" opacity="0.5"/></g><g transform="translate(192, 472)"><circle cx="0" cy="0" r="6" fill="#111314"/><circle cx="0" cy="0" r="4" fill="url(#boltGrad)"/><circle cx="0" cy="0" r="2" fill="#111314" opacity="0.5"/></g><g transform="translate(320, 40)"><circle cx="0" cy="0" r="6" fill="#111314"/><circle cx="0" cy="0" r="4" fill="url(#boltGrad)"/><circle cx="0" cy="0" r="2" fill="#111314" opacity="0.5"/></g><g transform="translate(320, 472)"><circle cx="0" cy="0" r="6" fill="#111314"/><circle cx="0" cy="0" r="4" fill="url(#boltGrad)"/><circle cx="0" cy="0" r="2" fill="#111314" opacity="0.5"/></g><g transform="translate(448, 40)"><circle cx="0" cy="0" r="6" fill="#111314"/><circle cx="0" cy="0" r="4" fill="url(#boltGrad)"/><circle cx="0" cy="0" r="2" fill="#111314" opacity="0.5"/></g><g transform="translate(448, 472)"><circle cx="0" cy="0" r="6" fill="#111314"/><circle cx="0" cy="0" r="4" fill="url(#boltGrad)"/><circle cx="0" cy="0" r="2" fill="#111314" opacity="0.5"/></g><path d="M 50,100 L 90,102 M 200,300 L 250,305 M 400,150 L 430,148" stroke="#ffffff" stroke-width="0.5" stroke-opacity="0.15" fill="none"/><path d="M 55,103 L 95,105 M 205,303 L 255,308 M 405,153 L 435,151" stroke="#000000" stroke-width="0.5" stroke-opacity="0.2" fill="none"/><rect x="0" y="0" width="512" height="512" fill="#4d5c6e" fill-opacity="0.1" style="pointer-events:none; mix-blend-mode: overlay;"/></svg>