<svg xmlns="http://www.w3.org/2000/svg" viewBox="0 0 512 512" width="512" height="512">
    

    
    <rect x="0" y="0" width="512" height="512" fill="#282828"/>

    
    <g>
        
        <path fill="#404040" d="M0 0 L125 5 L120 120 L0 125 Z"/>
        <path fill="#454545" d="M127 7 L250 0 L245 115 L122 122 Z"/>
        <path fill="#3D3D3D" d="M252 2 L380 8 L375 110 L247 117 Z"/>
        <path fill="#4A4A4A" d="M382 10 L512 0 L512 115 L377 112 Z"/>

        
        <path fill="#505050" d="M0 127 L120 129 L115 245 L0 250 Z"/>
        <path fill="#404040" d="M122 131 L245 126 L240 240 L117 247 Z"/>
        <path fill="#454545" d="M247 128 L370 123 L365 235 L242 242 Z"/>
        <path fill="#3D3D3D" d="M372 125 L512 120 L512 230 L367 237 Z"/>

        
        <path fill="#4A4A4A" d="M0 252 L110 254 L105 370 L0 375 Z"/>
        <path fill="#505050" d="M112 256 L235 251 L230 365 L107 372 Z"/>
        <path fill="#404040" d="M237 253 L360 248 L355 360 L232 367 Z"/>
        <path fill="#454545" d="M362 250 L512 245 L512 355 L357 362 Z"/>

        
        <path fill="#3D3D3D" d="M0 377 L100 379 L95 512 L0 512 Z"/>
        <path fill="#4A4A4A" d="M102 381 L225 376 L220 512 L97 512 Z"/>
        <path fill="#505050" d="M227 378 L350 373 L345 512 L222 512 Z"/>
        <path fill="#404040" d="M352 375 L512 370 L512 512 L347 512 Z"/>
    </g>

    
    <g stroke="#B0B0B0" stroke-width="2" fill="none">
        
        <path d="M50 80 Q70 60 90 70 T110 90 T130 100"/>
        <path d="M200 30 Q220 10 240 20 T260 40 M240 20 L230 50 Q210 70 190 60"/>
        <path d="M400 60 Q420 40 440 50 L430 80"/>
        <path d="M80 180 Q100 160 120 170 M100 190 L90 220"/>
        <path d="M250 150 Q270 130 290 140 T310 160 T330 170 M290 140 L280 180 Q260 200 240 190"/>
        <path d="M450 160 Q470 140 490 150 L480 180 M460 190 L450 220"/>
        <path d="M70 300 Q90 280 110 290 M100 310 L90 340"/>
        <path d="M200 320 Q220 300 240 310 T260 330 M240 310 L230 350 Q210 370 190 360"/>
        <path d="M400 350 Q420 330 440 340 L430 370"/>
        <path d="M100 450 Q120 430 140 440 M130 460 L120 490"/>
        <path d="M280 430 Q300 410 320 420 T340 440 M300 450 L290 480"/>
        <path d="M460 420 Q480 400 500 410 L490 440 M470 450 L460 480"/>

        
        <path d="M0 60 Q20 40 40 50"/>
        <path d="M480 0 Q460 20 470 40"/>
        <path d="M512 200 Q490 220 480 240"/>
        <path d="M50 512 Q70 490 90 500"/>
        <path d="M0 460 Q20 480 40 470"/>
        <path d="M400 512 Q420 490 440 500"/>
        <path d="M512 30 Q490 50 480 70"/>
        <path d="M0 350 Q20 330 40 340"/>
    </g>

    
    <g fill="#5A6B4C" fill-opacity="0.8">
        <path d="M30 110 Q40 100 50 115 S60 125 50 130 S40 135 30 110 Z"/>
        <path d="M180 10 Q190 0 200 15 S210 25 200 30 S190 35 180 10 Z"/>
        <path d="M300 130 Q310 120 320 135 S330 145 320 150 S310 155 300 130 Z"/>
        <path d="M100 250 Q110 240 120 255 S130 265 120 270 S110 275 100 250 Z"/>
        <path d="M400 200 Q410 190 420 205 S430 215 420 220 S410 225 400 200 Z"/>
        <path d="M50 390 Q60 380 70 395 S80 405 70 410 S60 415 50 390 Z"/>
        <path d="M250 400 Q260 390 270 405 S280 415 270 420 S260 425 250 400 Z"/>
        <path d="M450 380 Q460 370 470 385 S480 395 470 400 S460 405 450 380 Z"/>

        
        <path d="M10 10 Q20 0 30 15 S40 25 30 30 S20 35 10 10 Z"/>
        <path d="M480 10 Q490 0 500 15 S510 25 500 30 S490 35 480 10 Z"/>
        <path d="M10 490 Q20 480 30 495 S40 505 30 510 S20 515 10 490 Z"/>
        <path d="M490 490 Q500 480 510 495 S520 505 510 510 S500 515 490 490 Z"/>
        <path d="M200 500 Q210 490 220 505 S230 515 220 510 S210 515 200 500 Z"/>
        <path d="M500 250 Q510 240 512 255 S510 265 500 270 S490 275 500 250 Z"/>
        <path fill="#6B7C5C" d="M150 70 Q160 60 170 75 S180 85 170 90 S160 95 150 70 Z"/>
        <path fill="#6B7C5C" d="M350 280 Q360 270 370 285 S380 295 370 300 S360 305 350 280 Z"/>
    </g>
</svg>