<svg viewBox="0 0 512 512" xmlns="http://www.w3.org/2000/svg">
  
  

  
  <rect x="0" y="0" width="512" height="512" fill="#202020"/>

  
  
  <path d="M0 0 L180 30 L100 120 L0 80 Z M512 0 L330 20 L400 100 L512 60 Z M0 512 L150 490 L80 400 L0 440 Z M512 512 L360 480 L430 390 L512 420 Z M256 0 L200 80 L300 150 L350 70 Z M0 256 L70 200 L130 300 L60 360 Z M512 256 L440 200 L380 300 L450 360 Z M256 512 L200 432 L300 362 L350 442 Z" fill="#282828"/>
  <path d="M50 50 L120 20 L100 90 L30 110 Z M462 50 L392 20 L412 90 L482 110 Z M50 462 L120 432 L100 502 L30 482 Z M462 462 L392 432 L412 502 L482 482 Z M200 150 L250 130 L230 180 L180 200 Z M312 150 L362 130 L342 180 L292 200 Z M200 362 L250 342 L230 392 L180 412 Z M312 362 L362 342 L342 392 L292 412 Z" fill="#323232"/>
  <path d="M10 10 L80 5 L50 60 L0 40 Z M502 10 L432 5 L462 60 L512 40 Z M10 502 L80 497 L50 452 L0 472 Z M502 502 L432 497 L462 452 L512 472 Z M250 50 L220 10 L280 80 L310 40 Z M50 250 L20 200 L90 280 L120 230 Z M462 250 L492 200 L422 280 L392 230 Z M250 462 L220 422 L280 492 L310 452 Z" fill="#181818"/>

  
  <path d="M10 50 L100 20 L150 70 C180 100, 220 80, 250 120 C280 150, 320 130, 350 170 L400 200 L450 180 L502 210" 
        stroke="#FFD700" stroke-width="4" fill="none" filter="url(#softGlow)"/>
  <path d="M502 460 L410 490 L360 440 C330 410, 290 430, 260 390 C230 360, 190 380, 160 340 L110 310 L60 330 L10 300" 
        stroke="#FFD700" stroke-width="4" fill="none" filter="url(#softGlow)"/>
  <path d="M256 10 L220 80 L180 150 C160 180, 190 220, 220 250 C250 280, 280 260, 310 290 C340 320, 370 300, 390 330 L420 380 L450 450 L480 502" 
        stroke="#FFD700" stroke-width="4" fill="none" filter="url(#softGlow)"/>
  <path d="M10 256 L60 220 L100 280 C130 310, 100 350, 130 380 C160 410, 190 390, 220 420 L250 450 L280 420 L310 450 L340 420 L370 450 L400 420 L430 450 L460 420 L502 450" 
        stroke="#FFD700" stroke-width="4" fill="none" filter="url(#softGlow)"/>
  <path d="M256 502 L280 430 L320 360 C340 330, 310 290, 280 260 C250 230, 220 250, 190 220 C160 190, 130 210, 110 180 L80 120 L50 50 L20 10" 
        stroke="#FFD700" stroke-width="4" fill="none" filter="url(#softGlow)"/>
  
  
  <path d="M120 150 L150 130 L170 160 L140 180 Z" stroke="#FFD700" stroke-width="3" fill="none" filter="url(#softGlow)"/>
  <path d="M380 150 L350 130 L330 160 L360 180 Z" stroke="#FFD700" stroke-width="3" fill="none" filter="url(#softGlow)"/>
  <path d="M180 350 L210 330 L230 360 L200 380 Z" stroke="#FFD700" stroke-width="3" fill="none" filter="url(#softGlow)"/>
  <path d="M330 350 L300 330 L280 360 L310 380 Z" stroke="#FFD700" stroke-width="3" fill="none" filter="url(#softGlow)"/>
  <path d="M50 350 L80 330 L100 360 L70 380 Z" stroke="#FFD700" stroke-width="3" fill="none" filter="url(#softGlow)"/>
  <path d="M462 350 L432 330 L412 360 L442 380 Z" stroke="#FFD700" stroke-width="3" fill="none" filter="url(#softGlow)"/>
  <path d="M256 256 L230 230 L280 280 L256 256 Z" stroke="#FFD700" stroke-width="3" fill="none" filter="url(#softGlow)"/>
</svg>