<svg viewBox="0 0 512 512" xmlns="http://www.w3.org/2000/svg" width="512" height="512">
  <defs>
    <pattern id="sandPattern" x="0" y="0" width="100" height="100" patternUnits="userSpaceOnUse">
      
      <rect x="0" y="0" width="100" height="100" fill="#FCEB9C" shape-rendering="geometricPrecision" />

      
      
      <path d="M-20 20 Q 30 10 80 25 T 120 15" fill="#FDD36E" opacity="0.4" shape-rendering="geometricPrecision" />
      <path d="M-10 50 Q 40 60 90 45 T 110 55" fill="#FDD36E" opacity="0.35" shape-rendering="geometricPrecision" />
      <path d="M-30 80 Q 20 70 70 85 T 100 75" fill="#FDD36E" opacity="0.3" shape-rendering="geometricPrecision" />

      
      <path d="M-20 18 Q 30 8 80 23 T 120 13" fill="#FFF5C2" opacity="0.4" shape-rendering="geometricPrecision" />
      <path d="M-10 48 Q 40 58 90 43 T 110 53" fill="#FFF5C2" opacity="0.35" shape-rendering="geometricPrecision" />
      <path d="M-30 78 Q 20 68 70 83 T 100 73" fill="#FFF5C2" opacity="0.3" shape-rendering="geometricPrecision" />

      
      <circle cx="25" cy="15" r="1.5" fill="#FDD36E" opacity="0.2" shape-rendering="geometricPrecision" />
      <circle cx="70" cy="30" r="1.2" fill="#FFF5C2" opacity="0.2" shape-rendering="geometricPrecision" />
      <circle cx="40" cy="60" r="1.8" fill="#FDD36E" opacity="0.2" shape-rendering="geometricPrecision" />
      <circle cx="85" cy="75" r="1.4" fill="#FFF5C2" opacity="0.2" shape-rendering="geometricPrecision" />
      <circle cx="10" cy="80" r="1.6" fill="#FDD36E" opacity="0.2" shape-rendering="geometricPrecision" />
      <rect x="55" y="5" width="2" height="1.5" fill="#FDD36E" opacity="0.15" shape-rendering="geometricPrecision" />
      <rect x="15" y="90" width="1.5" height="2" fill="#FFF5C2" opacity="0.15" shape-rendering="geometricPrecision" />
      <path d="M5 5 C 7 2 10 3 12 5 S 15 8 13 10 Z" fill="#FDD36E" opacity="0.1" shape-rendering="geometricPrecision" />
      <path d="M90 90 C 92 87 95 88 97 90 S 100 93 98 95 Z" fill="#FFF5C2" opacity="0.1" shape-rendering="geometricPrecision" />
    </pattern>
  </defs>

  
  <rect x="0" y="0" width="512" height="512" fill="url(#sandPattern)" shape-rendering="geometricPrecision" />
</svg>