<svg viewBox="0 0 512 512" xmlns="http://www.w3.org/2000/svg">
  

  
  <rect x="0" y="0" width="512" height="512" fill="#6B5B4B"/>

  
  <path d="M-50 100 C100 50 200 150 250 120 L260 -50 L-50 -50 Z" fill="#7A6A5A" opacity="0.3"/>
  <path d="M562 300 C480 350 350 250 300 320 L280 562 L562 562 Z" fill="#5C4C3F" opacity="0.3"/>
  <path d="M180 -20 C250 30 300 -10 370 -20 L380 -50 L180 -50 Z" fill="#7A6A5A" opacity="0.2"/>
  <path d="M80 562 C150 500 250 540 320 562 L330 580 L80 580 Z" fill="#5C4C3F" opacity="0.2"/>
  <path d="M-30 400 C50 430 150 370 200 400 L210 562 L-30 562 Z" fill="#7A6A5A" opacity="0.25"/>
  <path d="M542 100 C460 140 380 70 330 100 L320 -30 L542 -30 Z" fill="#5C4C3F" opacity="0.25"/>

  
  
  <g transform="translate(50,80) scale(0.6) rotate(20)"> <path d="M0,0 C 10 -25 40 -20 50 0 C 40 25 10 20 0 0 Z" fill="#5A7D4E"/> </g>
  <g transform="translate(150,20) scale(0.7) rotate(-10)"> <path d="M0,0 C 10 -25 40 -20 50 0 C 40 25 10 20 0 0 Z" fill="#7B9E6D"/> </g>
  <g transform="translate(280,60) scale(0.5) rotate(45)"> <path d="M0,0 C 10 -25 40 -20 50 0 C 40 25 10 20 0 0 Z" fill="#5A7D4E"/> </g>
  <g transform="translate(400,10) scale(0.8) rotate(-25)"> <path d="M0,0 C 10 -25 40 -20 50 0 C 40 25 10 20 0 0 Z" fill="#7B9E6D"/> </g>
  <g transform="translate(30,200) scale(0.6) rotate(10)"> <path d="M0,0 C 10 -25 40 -20 50 0 C 40 25 10 20 0 0 Z" fill="#7B9E6D"/> </g>
  <g transform="translate(180,150) scale(0.7) rotate(-30)"> <path d="M0,0 C 10 -25 40 -20 50 0 C 40 25 10 20 0 0 Z" fill="#5A7D4E"/> </g>
  <g transform="translate(350,180) scale(0.5) rotate(60)"> <path d="M0,0 C 10 -25 40 -20 50 0 C 40 25 10 20 0 0 Z" fill="#7B9E6D"/> </g>
  <g transform="translate(480,120) scale(0.7) rotate(-15)"> <path d="M0,0 C 10 -25 40 -20 50 0 C 40 25 10 20 0 0 Z" fill="#5A7D4E"/> </g>
  <g transform="translate(100,300) scale(0.6) rotate(30)"> <path d="M0,0 C 10 -25 40 -20 50 0 C 40 25 10 20 0 0 Z" fill="#8B6D5A"/> </g>
  <g transform="translate(250,250) scale(0.7) rotate(-20)"> <path d="M0,0 C 10 -25 40 -20 50 0 C 40 25 10 20 0 0 Z" fill="#6D5A4B"/> </g>
  <g transform="translate(400,280) scale(0.5) rotate(10)"> <path d="M0,0 C 10 -25 40 -20 50 0 C 40 25 10 20 0 0 Z" fill="#8B6D5A"/> </g>
  <g transform="translate(50,400) scale(0.8) rotate(50)"> <path d="M0,0 C 10 -25 40 -20 50 0 C 40 25 10 20 0 0 Z" fill="#6D5A4B"/> </g>
  <g transform="translate(200,450) scale(0.6) rotate(-40)"> <path d="M0,0 C 10 -25 40 -20 50 0 C 40 25 10 20 0 0 Z" fill="#8B6D5A"/> </g>
  <g transform="translate(350,480) scale(0.7) rotate(25)"> <path d="M0,0 C 10 -25 40 -20 50 0 C 40 25 10 20 0 0 Z" fill="#6D5A4B"/> </g>
  <g transform="translate(450,400) scale(0.5) rotate(-10)"> <path d="M0,0 C 10 -25 40 -20 50 0 C 40 25 10 20 0 0 Z" fill="#8B6D5A"/> </g>
  
  
  <g transform="translate(-10,150) scale(0.6) rotate(10)"> <path d="M0,0 C 10 -25 40 -20 50 0 C 40 25 10 20 0 0 Z" fill="#5A7D4E"/> </g> 
  <g transform="translate(500,220) scale(0.7) rotate(70)"> <path d="M0,0 C 10 -25 40 -20 50 0 C 40 25 10 20 0 0 Z" fill="#7B9E6D"/> </g>
  <g transform="translate(200,-10) scale(0.5) rotate(15)"> <path d="M0,0 C 10 -25 40 -20 50 0 C 40 25 10 20 0 0 Z" fill="#8B6D5A"/> </g>
  <g transform="translate(150,500) scale(0.8) rotate(-50)"> <path d="M0,0 C 10 -25 40 -20 50 0 C 40 25 10 20 0 0 Z" fill="#6D5A4B"/> </g>

  
  <path d="M10 100 C30 90 70 110 90 100" stroke="#4A3B2F" stroke-width="3" fill="none"/>
  <path d="M150 50 C170 40 200 60 220 50" stroke="#4A3B2F" stroke-width="2" fill="none" transform="rotate(15 185 50)"/>
  <path d="M50 300 C70 290 100 310 120 300" stroke="#4A3B2F" stroke-width="2" fill="none" transform="rotate(-20 85 300)"/>
  <path d="M300 10 C320 0 350 20 370 10" stroke="#4A3B2F" stroke-width="3" fill="none" transform="rotate(5 335 10)"/>
  <path d="M400 200 C420 190 450 210 470 200" stroke="#4A3B2F" stroke-width="2" fill="none" transform="rotate(30 435 200)"/>
  <path d="M250 350 C270 340 300 360 320 350" stroke="#4A3B2F" stroke-width="3" fill="none" transform="rotate(-10 285 350)"/>
  <path d="M100 480 C120 470 150 490 170 480" stroke="#4A3B2F" stroke-width="2" fill="none" transform="rotate(20 135 480)"/>
  <path d="M450 450 C470 440 500 460 520 450" stroke="#4A3B2F" stroke-width="3" fill="none" transform="rotate(-25 485 450)"/>
  
  
  <path d="M-10 250 C10 240 40 260 60 250" stroke="#4A3B2F" stroke-width="2" fill="none" transform="rotate(10 25 250)"/>
  <path d="M500 50 C520 40 550 60 570 50" stroke="#4A3B2F" stroke-width="3" fill="none" transform="rotate(0 535 50)"/>
  <path d="M10 500 C30 490 60 510 80 500" stroke="#4A3B2F" stroke-width="2" fill="none" transform="rotate(5 45 500)"/>
  <path d="M400 -10 C420 -20 450 0 470 -10" stroke="#4A3B2F" stroke-width="2" fill="none" transform="rotate(10 435 -10)"/>
  <path d="M50 0 C70 -10 100 10 120 0" stroke="#4A3B2F" stroke-width="2" fill="none" transform="rotate(0 85 0)"/>
  <path d="M510 350 C530 340 560 360 580 350" stroke="#4A3B2F" stroke-width="3" fill="none" transform="rotate(-15 545 350)"/>
  <path d="M-20 480 C0 470 30 490 50 480" stroke="#4A3B2F" stroke-width="2" fill="none" transform="rotate(25 15 480)"/>
</svg>