<svg xmlns="http://www.w3.org/2000/svg" viewBox="0 0 512 512">
  
  
  <rect x="0" y="0" width="512" height="512" fill="#4F6F4F"/>

  
  <path d="M0 0 L0 100 C50 60 120 30 180 0 Z" fill="#5C4033"/>
  <path d="M512 0 L512 120 C460 80 400 40 330 0 Z" fill="#5C4033"/>
  <path d="M0 512 L0 410 C70 470 140 490 220 512 Z" fill="#5C4033"/>
  <path d="M512 512 L512 390 C450 440 380 480 300 512 Z" fill="#5C4033"/>
  
  <path d="M100 200 C130 170 180 180 210 210 C240 240 190 270 160 250 C130 230 70 230 100 200 Z" fill="#7A5C4B"/>
  <path d="M300 100 C330 70 380 80 410 110 C440 140 390 170 360 150 C330 130 270 130 300 100 Z" fill="#7A5C4B"/>
  <path d="M50 350 C80 320 130 330 160 360 C190 390 140 420 110 400 C80 380 20 380 50 350 Z" fill="#5C4033"/>
  <path d="M350 400 C380 370 430 380 460 410 C490 440 440 470 410 450 C380 430 320 430 350 400 Z" fill="#7A5C4B"/>
  <path d="M200 40 C230 10 280 20 310 50 C340 80 290 110 260 90 C230 70 170 70 200 40 Z" fill="#5C4033"/>


  
  
  <path d="M10 120 C20 110 30 130 20 140 C10 130 0 120 10 120 Z" fill="#8B6D4C"/>
  <path d="M70 20 C80 10 90 30 80 40 C70 30 60 20 70 20 Z" fill="#8B6D4C"/>
  <path d="M150 80 C160 70 170 90 160 100 C150 90 140 80 150 80 Z" fill="#8B6D4C"/>
  <path d="M250 180 C260 170 270 190 260 200 C250 190 240 180 250 180 Z" fill="#8B6D4C"/>
  <path d="M380 50 C390 40 400 60 390 70 C380 60 370 50 380 50 Z" fill="#8B6D4C"/>
  <path d="M450 120 C460 110 470 130 460 140 C450 130 440 120 450 120 Z" fill="#8B6D4C"/>
  <path d="M50 250 C60 240 70 260 60 270 C50 260 40 250 50 250 Z" fill="#8B6D4C"/>
  <path d="M120 300 C130 290 140 310 130 320 C120 310 110 300 120 300 Z" fill="#8B6D4C"/>
  <path d="M200 400 C210 390 220 410 210 420 C200 410 190 400 200 400 Z" fill="#8B6D4C"/>
  <path d="M300 480 C310 470 320 490 310 500 C300 490 290 480 300 480 Z" fill="#8B6D4C"/>
  <path d="M400 350 C410 340 420 360 410 370 C400 360 390 350 400 350 Z" fill="#8B6D4C"/>
  <path d="M480 280 C490 270 500 290 490 300 C480 290 470 280 480 280 Z" fill="#8B6D4C"/>
  
  
  <path d="M30 180 C40 170 50 190 40 200 C30 190 20 180 30 180 Z" fill="#A84A3F"/>
  <path d="M90 60 C100 50 110 70 100 80 C90 70 80 60 90 60 Z" fill="#A84A3F"/>
  <path d="M180 120 C190 110 200 130 190 140 C180 130 170 120 180 120 Z" fill="#A84A3F"/>
  <path d="M280 220 C290 210 300 230 290 240 C280 230 270 220 280 220 Z" fill="#A84A3F"/>
  <path d="M410 90 C420 80 430 100 420 110 C410 100 400 90 410 90 Z" fill="#A84A3F"/>
  <path d="M490 160 C500 150 510 170 500 180 C490 170 480 160 490 160 Z" fill="#A84A3F"/>
  <path d="M70 300 C80 290 90 310 80 320 C70 310 60 300 70 300 Z" fill="#A84A3F"/>
  <path d="M150 350 C160 340 170 360 160 370 C150 360 140 350 150 350 Z" fill="#A84A3F"/>
  <path d="M230 440 C240 430 250 450 240 460 C230 450 220 440 230 440 Z" fill="#A84A3F"/>
  <path d="M330 500 C340 490 350 510 340 520 C330 510 320 500 330 500 Z" fill="#A84A3F"/>
  <path d="M430 390 C440 380 450 400 440 410 C430 400 420 390 430 390 Z" fill="#A84A3F"/>
  <path d="M500 320 C510 310 520 330 510 340 C500 330 490 320 500 320 Z" fill="#A84A3F"/>

  
  <path d="M50 80 C60 70 70 90 60 100 C50 90 40 80 50 80 Z" fill="#B0B56E"/>
  <path d="M110 10 C120 0 130 20 120 30 C110 20 100 10 110 10 Z" fill="#B0B56E"/>
  <path d="M200 60 C210 50 220 70 210 80 C200 70 190 60 200 60 Z" fill="#B0B56E"/>
  <path d="M300 160 C310 150 320 170 310 180 C300 170 290 160 300 160 Z" fill="#B0B56E"/>
  <path d="M430 30 C440 20 450 40 440 50 C430 40 420 30 430 30 Z" fill="#B0B56E"/>
  <path d="M490 100 C500 90 510 110 500 120 C490 110 480 100 490 100 Z" fill="#B0B56E"/>
  <path d="M90 280 C100 270 110 290 100 300 C90 290 80 280 90 280 Z" fill="#B0B56E"/>
  <path d="M170 330 C180 320 190 340 180 350 C170 340 160 330 170 330 Z" fill="#B0B56E"/>
  <path d="M250 420 C260 410 270 430 260 440 C250 430 240 420 250 420 Z" fill="#B0B56E"/>
  <path d="M350 460 C360 450 370 470 360 480 C350 470 340 460 350 460 Z" fill="#B0B56E"/>
  <path d="M450 370 C460 360 470 380 460 390 C450 380 440 370 450 370 Z" fill="#B0B56E"/>
  <path d="M500 260 C510 250 520 270 510 280 C500 270 490 260 500 260 Z" fill="#B0B56E"/>

  
  <circle cx="100" cy="50" r="10" fill="#6B936B"/>
  <circle cx="50" cy="150" r="8" fill="#6B936B"/>
  <circle cx="180" cy="250" r="12" fill="#6B936B"/>
  <circle cx="300" cy="100" r="9" fill="#6B936B"/>
  <circle cx="450" cy="20" r="11" fill="#6B936B"/>
  <circle cx="400" cy="150" r="10" fill="#6B936B"/>
  <circle cx="20" cy="300" r="10" fill="#6B936B"/>
  <circle cx="150" cy="450" r="12" fill="#6B936B"/>
  <circle cx="350" cy="300" r="8" fill="#6B936B"/>
  <circle cx="480" cy="400" r="11" fill="#6B936B"/>
  <circle cx="250" cy="500" r="9" fill="#6B936B"/>
  <circle cx="500" cy="50" r="8" fill="#6B936B"/>
  <circle cx="10" cy="480" r="10" fill="#6B936B"/>
  <circle cx="400" cy="480" r="12" fill="#6B936B"/>
  <circle cx="200" cy="10" r="7" fill="#6B936B"/>
  <circle cx="500" cy="200" r="10" fill="#6B936B"/>
  <circle cx="10" cy="10" r="9" fill="#6B936B"/>
  <circle cx="500" cy="500" r="11" fill="#6B936B"/>
</svg>