<svg viewBox="0 0 512 512" xmlns="http://www.w3.org/2000/svg" version="1.1">
  
  

  
  <rect x="0" y="0" width="512" height="512" fill="url(#iceGradient)"/>

  
  <rect x="0" y="0" width="512" height="512" fill="#E8F8FF" opacity="0.15" filter="url(#frostTexture)"/>

  
  <g filter="url(#crackBlur)">
    
    <path d="M 5 5 C 30 20, 60 10, 90 25 C 120 40, 150 20, 180 35 C 210 50, 240 30, 270 45 C 300 60, 330 40, 360 55 C 390 70, 420 50, 450 65 C 480 80, 500 60, 510 75" stroke="#60A0C0" stroke-width="1.5" stroke-opacity="0.7" fill="none"/>
    
    <path d="M 180 35 L 170 60 C 160 80, 190 90, 200 110 C 210 130, 180 140, 170 160 L 160 180" stroke="#60A0C0" stroke-width="1.5" stroke-opacity="0.7" fill="none"/>
    <path d="M 360 55 L 370 80 C 380 100, 350 110, 340 130 C 330 150, 360 160, 370 180 L 380 200" stroke="#60A0C0" stroke-width="1.5" stroke-opacity="0.7" fill="none"/>

    
    <path d="M 10 500 C 40 485, 70 495, 100 480 C 130 465, 160 475, 190 460 C 220 445, 250 455, 280 440 C 310 425, 340 435, 370 420 C 400 405, 430 415, 460 400 C 490 385, 510 395, 510 380" stroke="#60A0C0" stroke-width="1.5" stroke-opacity="0.7" fill="none"/>
    
    <path d="M 190 460 L 180 435 C 170 415, 200 405, 210 385 C 220 365, 190 355, 180 335 L 170 315" stroke="#60A0C0" stroke-width="1.5" stroke-opacity="0.7" fill="none"/>
    <path d="M 460 400 L 470 375 C 480 355, 450 345, 440 325 C 430 305, 460 295, 470 275 L 480 255" stroke="#60A0C0" stroke-width="1.5" stroke-opacity="0.7" fill="none"/>

    
    <path d="M 256 0 C 240 50, 270 100, 250 150 C 230 200, 260 250, 240 300 C 220 350, 250 400, 230 450 C 210 500, 240 512, 220 512" stroke="#60A0C0" stroke-width="1.5" stroke-opacity="0.7" fill="none"/>
    <path d="M 256 0 C 270 50, 240 100, 260 150 C 280 200, 250 250, 270 300 C 290 350, 260 400, 280 450 C 300 500, 270 512, 290 512" stroke="#60A0C0" stroke-width="1.5" stroke-opacity="0.7" fill="none"/>
    
    
    <path d="M 10 250 C 30 240, 50 260, 70 250 C 90 240, 110 260, 130 250" stroke="#60A0C0" stroke-width="1.5" stroke-opacity="0.7" fill="none"/>
    <path d="M 400 200 C 420 190, 440 210, 460 200 C 480 190, 500 210, 510 200" stroke="#60A0C0" stroke-width="1.5" stroke-opacity="0.7" fill="none"/>
    <path d="M 150 100 C 170 90, 190 110, 210 100" stroke="#60A0C0" stroke-width="1.5" stroke-opacity="0.7" fill="none"/>
    <path d="M 300 400 C 320 390, 340 410, 360 400" stroke="#60A0C0" stroke-width="1.5" stroke-opacity="0.7" fill="none"/>
    <path d="M 50 350 C 70 340, 90 360, 110 350" stroke="#60A0C0" stroke-width="1.5" stroke-opacity="0.7" fill="none"/>
    <path d="M 450 300 C 430 310, 420 290, 400 300" stroke="#60A0C0" stroke-width="1.5" stroke-opacity="0.7" fill="none"/>
    <path d="M 220 270 C 240 260, 260 280, 280 270" stroke="#60A0C0" stroke-width="1.5" stroke-opacity="0.7" fill="none"/>
  </g>
</svg>