<svg viewBox="0 0 512 512" xmlns="http://www.w3.org/2000/svg">
  
  

  
  <rect x="0" y="0" width="512" height="512" fill="#400000" /> 

  
  <path d="M-10 120 C 100 0, 300 -20, 522 100 C 450 150, 300 180, 200 150 C 100 120, 50 150, -10 120 Z" fill="url(#brightLavaGradient)" style="filter:url(#moltenEffect);"/>
  <path d="M-10 400 C 80 300, 250 320, 350 380 S 480 480, 522 450 L 522 522 L -10 522 Z" fill="url(#brightLavaGradient)" style="filter:url(#moltenEffect);"/>
  <path d="M200 -10 C 100 100, 50 300, 200 522 C 350 400, 450 200, 300 -10 Z" fill="url(#brightLavaGradient)" style="filter:url(#moltenEffect);"/>
  <path d="M0 250 C 150 200, 256 300, 400 250 S 500 200, 522 250 L 522 300 C 400 350, 256 300, 150 350 S 0 300, 0 250 Z" fill="url(#brightLavaGradient)" style="filter:url(#moltenEffect);"/>
  <path d="M-10 50 C 100 10, 250 80, 400 30 S 500 0, 522 50 L 522 0 L -10 0 Z" fill="url(#brightLavaGradient)" style="filter:url(#moltenEffect);"/>

  
  <path d="M-10 300 C 80 250, 180 320, 256 280 C 350 240, 450 300, 522 260 L 522 320 C 450 360, 350 300, 256 340 C 180 380, 80 310, -10 350 Z" fill="url(#coolingLavaGradient)" style="filter:url(#moltenEffect); opacity:0.8;"/>
  <path d="M-10 480 C 100 450, 200 510, 300 480 C 400 450, 500 510, 522 480 L 522 512 L -10 512 Z" fill="url(#coolingLavaGradient)" style="filter:url(#moltenEffect); opacity:0.8;"/>
  <path d="M100 -10 C 150 80, 200 10, 250 80 S 350 10, 400 80 L 400 10 L 100 -10 Z" fill="url(#coolingLavaGradient)" style="filter:url(#moltenEffect); opacity:0.8;"/>


  
  <path d="M-10 0 C 100 30, 200 0, 300 30 C 400 0, 500 30, 522 0 L 522 60 C 400 90, 300 60, 200 90 C 100 60, 0 90, -10 60 Z" fill="#000000" opacity="0.8"/>
  <path d="M-10 512 C 100 482, 200 512, 300 482 C 400 512, 500 482, 522 512 L 522 452 C 400 422, 300 452, 200 422 C 100 452, 0 422, -10 452 Z" fill="#000000" opacity="0.8"/>
  <path d="M0 180 C 50 160, 100 190, 150 170 C 200 150, 250 180, 300 160 C 350 140, 400 170, 450 150 C 500 130, 522 160, 522 180 L 522 130 C 450 110, 400 140, 350 120 C 300 100, 250 130, 200 110 C 150 90, 100 120, 50 100 Z" fill="#1A1A1A" opacity="0.7"/>
  <path d="M0 370 C 50 350, 100 380, 150 360 C 200 340, 250 370, 300 350 C 350 330, 400 360, 450 340 C 500 320, 522 350, 522 370 L 522 320 C 450 300, 400 330, 350 310 C 300 290, 250 320, 200 300 C 150 280, 100 310, 50 290 Z" fill="#1A1A1A" opacity="0.7"/>
  <path d="M200 0 C 250 50, 300 0, 350 50 C 400 0, 450 50, 522 0 L 522 70 C 450 120, 400 70, 350 120 C 300 70, 250 120, 200 70 Z" fill="#000000" opacity="0.9"/>
  <path d="M-10 230 C 100 260, 200 200, 256 230 C 300 260, 400 200, 522 230 L 522 260 C 400 290, 300 230, 256 260 C 200 290, 100 230, -10 260 Z" fill="#333333" opacity="0.6"/>
</svg>