<svg viewBox="0 0 512 512" xmlns="http://www.w3.org/2000/svg" width="512" height="512">
  <defs>
    
    <filter id="mud-texture" x="0" y="0" width="100%" height="100%">
      <feTurbulence type="fractalNoise" baseFrequency="0.04" numOctaves="5" seed="10" stitchTiles="stitch" result="noise"/>
      <feColorMatrix type="matrix" in="noise" values="1 0 0 0 0  0 1 0 0 0  0 0 1 0 0  0 0 0 1 0" result="coloredNoise"/>
      <feComponentTransfer in="coloredNoise" result="contrastNoise">
        <feFuncR type="linear" slope="0.5" intercept="0.2"/>
        <feFuncG type="linear" slope="0.5" intercept="0.2"/>
        <feFuncB type="linear" slope="0.5" intercept="0.2"/>
      </feComponentTransfer>
      <feComposite operator="in" in="contrastNoise" in2="SourceGraphic" result="composite"/>
    </filter>

    
    <filter id="slime-overlay" x="-20%" y="-20%" width="140%" height="140%">
      <feTurbulence type="turbulence" baseFrequency="0.02" numOctaves="3" seed="55" stitchTiles="stitch" result="turb"/>
      <feDisplacementMap in="SourceGraphic" in2="turb" scale="15" xChannelSelector="R" yChannelSelector="G"/>
      <feSpecularLighting surfaceScale="2" specularConstant="0.7" specularExponent="20" lighting-color="#606650" result="specular">
        <fePointLight x="256" y="256" z="300"/>
      </feSpecularLighting>
      <feComposite in="specular" in2="SourceAlpha" operator="in" result="specular_masked"/>
      <feComposite in="specular_masked" in2="SourceGraphic" operator="arithmetic" k1="0" k2="1" k3="1" k4="0"/>
    </filter>

    
    <filter id="embed-shadow">
      <feGaussianBlur stdDeviation="2" result="blur"/>
      <feColorMatrix type="matrix" values="0 0 0 0 0 0 0 0 0 0 0 0 0 0 0 0 0 0 0.8 0" in="blur" result="matrix"/>
      <feComposite in="SourceGraphic" in2="matrix" operator="over"/>
    </filter>
  </defs>

  
  <rect x="0" y="0" width="512" height="512" fill="#26211a" />
  
  
  <g filter="url(#mud-texture)" opacity="0.6">
    <rect x="0" y="0" width="512" height="512" fill="#3d3328" />
  </g>
  
  
  <path d="M50,50 Q80,20 120,60 T180,90 T250,50 T350,80 T450,40 V480 Q420,500 380,460 T300,420 T200,450 T100,420 T20,480 Z" 
        fill="#1a1510" opacity="0.4" fill-rule="evenodd"/>
  
  
  <g opacity="0.8">
    
    <path d="M120,300 L140,280 L160,290 L180,270 L210,310 L190,340 L150,350 L130,320 Z" 
          fill="#3a404a" stroke="#222" stroke-width="1" stroke-linejoin="round"/>
    <path d="M130,300 L150,310 M160,290 L170,320 M190,340 L180,310" stroke="#1f2329" stroke-width="2" opacity="0.5"/>
    
    
    <path d="M150,300 Q160,310 170,300 T180,320" fill="none" stroke="#1a1510" stroke-width="4" opacity="0.6"/>

    
    <path d="M350,150 L380,130 L420,140 L440,180 L410,210 L370,200 L340,180 Z" 
          fill="#524636" stroke="#2e261d" stroke-width="1"/>
    
    <path d="M350,150 L440,180 M380,130 L410,210 M360,190 L420,140" stroke="#3d3326" stroke-width="1" opacity="0.5"/>
  </g>

  
  <g filter="url(#embed-shadow)">
    
    <path d="M80,150 C60,130 90,100 110,120 S140,140 120,160 S100,170 80,150" fill="#4d3b3b"/>
    <path d="M90,140 C95,135 105,135 110,145" fill="none" stroke="#2b1d1d" stroke-width="2" opacity="0.7"/>
    
    
    <path d="M400,350 C380,340 420,310 440,330 S460,370 430,380 S420,360 400,350" fill="#3b4030"/>
    <circle cx="420" cy="350" r="4" fill="#6b7355" opacity="0.6"/>
    <circle cx="435" cy="340" r="3" fill="#6b7355" opacity="0.6"/>
  </g>

  
  <g fill="#a39f91" stroke="#1f1a14" stroke-width="0.5">
    
    <path d="M250,250 Q270,230 300,240 L295,250 Q270,245 255,260 Z" />
    
    <path d="M180,400 L190,390 L200,400 L190,410 Z" />
    
    <path d="M320,450 L340,440 L335,435 L350,420 L345,460 Z" />
    
    <path d="M50,400 Q70,380 90,400 T100,430 L80,440 Q60,430 50,400 Z" fill="#969183"/>
    <path d="M70,410 Q75,405 80,410" fill="none" stroke="#2e2620" stroke-width="1.5"/>
  </g>
  
  
  <g stroke="#1a1510" stroke-width="2" stroke-linecap="round">
    <path d="M20,20 L40,50" opacity="0.6"/>
    <path d="M480,480 L460,450" opacity="0.6"/>
    <path d="M200,100 L230,110" opacity="0.7"/>
    <path d="M300,300 L320,320" opacity="0.7"/>
    <path d="M150,450 L180,440" opacity="0.7"/>
  </g>

  
  
  <rect width="512" height="512" filter="url(#mud-texture)" opacity="0.3" fill="#2b241d" style="mix-blend-mode: multiply;" />

  
  
  <g fill="#7d8570" opacity="0.2" style="mix-blend-mode: overlay;">
    <path d="M0,0 H512 V512 H0 Z" filter="url(#slime-overlay)"/>
  </g>
  
  
  <g fill="#ffffff" opacity="0.15">
    <ellipse cx="220" cy="180" rx="10" ry="5" transform="rotate(-20 220 180)"/>
    <ellipse cx="380" cy="400" rx="15" ry="8" transform="rotate(10 380 400)"/>
    <circle cx="100" cy="100" r="3"/>
    <circle cx="450" cy="250" r="4"/>
    <path d="M280,260 Q300,260 310,270" fill="none" stroke="#fff" stroke-width="2" opacity="0.2"/>
  </g>

</svg>