<svg viewBox="0 0 512 512" xmlns="http://www.w3.org/2000/svg" xmlns:xlink="http://www.w3.org/1999/xlink" shape-rendering="geometricPrecision" width="512" height="512">
  <defs>
    
    <filter id="stoneRoughness" x="0%" y="0%" width="100%" height="100%">
      <feTurbulence type="fractalNoise" baseFrequency="0.8" numOctaves="4" result="noise" />
      <feColorMatrix type="matrix" values="1 0 0 0 0  0 1 0 0 0  0 0 1 0 0  0 0 0 0.4 0" in="noise" result="coloredNoise" />
      <feComposite operator="in" in="coloredNoise" in2="SourceGraphic" result="composite" />
    </filter>

    
    <filter id="necroGlow" x="-50%" y="-50%" width="200%" height="200%">
      <feGaussianBlur stdDeviation="4" result="blur" />
      <feColorMatrix in="blur" type="matrix" values="0 0 0 0 0  0 1 0 0 0  0 0 0 0 0  0 0 0 18 -7" result="goo" />
      <feComposite in="SourceGraphic" in2="goo" operator="over" />
    </filter>

    
    <filter id="coreGlow" x="-50%" y="-50%" width="200%" height="200%">
      <feGaussianBlur stdDeviation="2" result="blur" />
      <feMerge>
        <feMergeNode in="blur" />
        <feMergeNode in="SourceGraphic" />
      </feMerge>
    </filter>
    
    
    <filter id="etchShadow" x="-20%" y="-20%" width="140%" height="140%">
      <feGaussianBlur stdDeviation="1" in="SourceAlpha" result="blur"/>
      <feOffset dx="1" dy="1" result="offsetBlur"/>
      <feComposite in="offsetBlur" in2="SourceGraphic" operator="out" result="inverse"/>
      <feFlood flood-color="#000000" flood-opacity="0.9" result="color"/>
      <feComposite in="color" in2="inverse" operator="in"/>
    </filter>

    
    <radialGradient id="vignette" cx="256" cy="256" r="256" gradientUnits="userSpaceOnUse">
      <stop offset="0%" stop-color="#1a1a24" stop-opacity="0" />
      <stop offset="80%" stop-color="#0b0b0f" stop-opacity="0.6" />
      <stop offset="100%" stop-color="#000000" stop-opacity="0.8" />
    </radialGradient>
  </defs>

  
  <rect x="0" y="0" width="512" height="512" fill="#18181e" />
  
  
  <rect x="0" y="0" width="512" height="512" fill="#252530" filter="url(#stoneRoughness)" opacity="0.5" />

  
  <g stroke="#08080a" stroke-width="3" stroke-linecap="round" fill="none" opacity="0.7">
    
    <path d="M-10,120 L150,110 L200,50 L350,60 L520,20" />
    <path d="M-10,380 L120,400 L256,450 L400,390 L520,410" />
    <path d="M120,-10 L110,110 L80,256 L120,400 L100,520" />
    <path d="M390,-10 L410,100 L430,256 L400,390 L420,520" />
  </g>
  
  
  <g stroke="#050505" stroke-width="1.5" fill="none" opacity="0.8">
    <path d="M256,256 m-100,-80 l20,10 l-10,20" />
    <path d="M50,50 l30,10 l10,30 m200,100 l-20,10 l5,15" />
    <path d="M400,450 l-20,-20 l-10,5 l-15,-15" />
    <path d="M100,400 l15,-10 l10,5 l20,-25" />
    <path d="M450,100 l-30,20 l-5,-10 l-20,5" />
  </g>

  
  <g transform="translate(256, 256)" fill="none" stroke="#000000" stroke-width="6" opacity="0.8">
    
    <circle r="200" />
    <circle r="180" />
    
    <path d="M0,-180 L0,180 M-180,0 L180,0 M-127,-127 L127,127 M127,-127 L-127,127" opacity="0.3"/>
    <circle r="80" />
  </g>

  
  
  <g transform="translate(256, 256)" fill="none" stroke="#1a5c22" stroke-width="12" filter="url(#necroGlow)" opacity="0.6">
    <circle r="190" />
    <circle r="80" />
  </g>

  
  <g transform="translate(256, 256)" stroke-linecap="round" stroke-linejoin="round">
    
    
    <g stroke="#2aff50" stroke-width="3" fill="none" filter="url(#coreGlow)">
      
      <path d="M-15,-220 L0,-240 L15,-220 M0,-240 L0,-205 M-10,-215 L10,-215" />
      
      <path d="M140,-140 L160,-160 L170,-140 L150,-130 Z" transform="rotate(45)" />
      
      <path d="M220,-15 L240,0 L220,15 M240,0 L205,0 M215,-10 L215,10" />
      
      <path d="M140,140 L160,160 L170,140 L150,130 Z" transform="rotate(135)" />
      
      <path d="M-15,220 L0,240 L15,220 M0,240 L0,205 M-10,215 L10,215" transform="rotate(180)" />
      
      <path d="M-140,140 L-160,160 L-170,140 L-150,130 Z" transform="rotate(225)" />
      
      <path d="M-220,-15 L-240,0 L-220,15 M-240,0 L-205,0 M-215,-10 L-215,10" transform="rotate(180)" />
      
      <path d="M-140,-140 L-160,-160 L-170,-140 L-150,-130 Z" transform="rotate(315)" />
      
      
      <path d="M-190,0 A190,190 0 1,1 190,0 A190,190 0 1,1 -190,0" stroke-dasharray="20, 40" stroke-width="2" />
    </g>

    
    <g stroke="#4dfa75" stroke-width="2.5" fill="none" filter="url(#coreGlow)">
      
      <path d="M0,-70 L-60,35 L60,35 Z" />
      
      <path d="M0,70 L-60,-35 L60,-35 Z" opacity="0.7"/>
      
      <circle cx="0" cy="0" r="10" fill="#ccffcc" stroke="#ffffff" stroke-width="1" />
      <path d="M-20,0 Q0,-15 20,0 Q0,15 -20,0" fill="none" />
      
      
      <path d="M-50,-50 L-45,-60 L-40,-50 M-45,-60 L-45,-45" />
      <path d="M50,-50 L55,-60 L60,-50 M55,-60 L55,-45" />
      <path d="M0,60 L5,75 L-5,75 Z" />
    </g>
    
    
    <g fill="#113311" opacity="0.4" filter="url(#stoneRoughness)">
       <circle cx="100" cy="100" r="20" />
       <circle cx="400" cy="400" r="25" />
       <path d="M256,256 m-180,0 a180,180 0 0,1 360,0" stroke="#0f2b15" stroke-width="30" fill="none" opacity="0.3" filter="url(#necroGlow)"/>
    </g>
  </g>

  
  <g stroke="#3a3a45" stroke-width="1" fill="none" opacity="0.4">
    
    <path d="M257,255 m-100,-80 l20,10" />
    <path d="M51,51 l30,10 l10,30" />
    <path d="M401,451 l-20,-20" />
  </g>

  
  <rect x="0" y="0" width="512" height="512" fill="url(#vignette)" pointer-events="none" />

</svg>