<svg xmlns="http://www.w3.org/2000/svg" viewBox="0 0 512 512" width="512" height="512" shape-rendering="geometricPrecision">
  <defs>
    
    <filter id="oakGrain" x="0%" y="0%" width="100%" height="100%">
      
      <feTurbulence type="fractalNoise" baseFrequency="0.005 0.08" numOctaves="4" result="noise" />
      
      
      <feComponentTransfer in="noise" result="highContrastNoise">
        <feFuncR type="linear" slope="1.5" intercept="-0.2"/>
        <feFuncG type="linear" slope="1.5" intercept="-0.2"/>
        <feFuncB type="linear" slope="1.5" intercept="-0.2"/>
      </feComponentTransfer>
      
      
      <feColorMatrix type="matrix" in="highContrastNoise" result="coloredWood"
        values="0.35 0 0 0 0.18
                0.25 0 0 0 0.10
                0.15 0 0 0 0.05
                0    0 0 1 0" />
                
      
      <feSpecularLighting in="noise" surfaceScale="1.5" specularConstant="0.8" specularExponent="25" lighting-color="#d9bba0" result="specular">
        <fePointLight x="256" y="-500" z="800" />
      </feSpecularLighting>
      
      
      <feComposite in="specular" in2="coloredWood" operator="arithmetic" k1="0" k2="1" k3="0.4" k4="0" result="finalWood"/>
    </filter>

    
    <filter id="innerBevel" x="-20%" y="-20%" width="140%" height="140%">
      <feGaussianBlur in="SourceAlpha" stdDeviation="1.5" result="blur"/>
      <feOffset dx="1" dy="1" result="offsetBlur"/>
      <feComposite in="offsetBlur" in2="SourceAlpha" operator="out" result="inverse"/>
      <feFlood flood-color="#000000" flood-opacity="0.8" result="color"/>
      <feComposite in="color" in2="inverse" operator="in" result="shadow"/>
      <feComposite in="shadow" in2="SourceGraphic" operator="over"/>
    </filter>
  </defs>

  
  <rect width="512" height="512" fill="#1a0f08" />

  
  
  <g filter="url(#oakGrain)" stroke="#1a0f08" stroke-width="2">
    
    
    
    <rect x="2" y="2" width="124" height="29.5" fill="#3e2723"/>
    <rect x="2" y="33.5" width="124" height="29.5" fill="#4a302a"/>
    <rect x="2" y="65" width="124" height="29.5" fill="#3e2723"/>
    <rect x="2" y="96.5" width="124" height="29.5" fill="#432c25"/>

    
    <rect x="130" y="2" width="29.5" height="124" fill="#432c25"/>
    <rect x="161.5" y="2" width="29.5" height="124" fill="#3e2723"/>
    <rect x="193" y="2" width="29.5" height="124" fill="#4a302a"/>
    <rect x="224.5" y="2" width="29.5" height="124" fill="#3e2723"/>

    
    <rect x="258" y="2" width="124" height="29.5" fill="#3e2723"/>
    <rect x="258" y="33.5" width="124" height="29.5" fill="#432c25"/>
    <rect x="258" y="65" width="124" height="29.5" fill="#4a302a"/>
    <rect x="258" y="96.5" width="124" height="29.5" fill="#3e2723"/>

    
    <rect x="386" y="2" width="29.5" height="124" fill="#4a302a"/>
    <rect x="417.5" y="2" width="29.5" height="124" fill="#3e2723"/>
    <rect x="449" y="2" width="29.5" height="124" fill="#432c25"/>
    <rect x="480.5" y="2" width="29.5" height="124" fill="#3e2723"/>

    
    
    <rect x="2" y="130" width="29.5" height="124" fill="#4a302a"/>
    <rect x="33.5" y="130" width="29.5" height="124" fill="#3e2723"/>
    <rect x="65" y="130" width="29.5" height="124" fill="#432c25"/>
    <rect x="96.5" y="130" width="29.5" height="124" fill="#3e2723"/>

    
    <rect x="130" y="130" width="124" height="29.5" fill="#3e2723"/>
    <rect x="130" y="161.5" width="124" height="29.5" fill="#4a302a"/>
    <rect x="130" y="193" width="124" height="29.5" fill="#3e2723"/>
    <rect x="130" y="224.5" width="124" height="29.5" fill="#432c25"/>

    
    <rect x="258" y="130" width="29.5" height="124" fill="#432c25"/>
    <rect x="289.5" y="130" width="29.5" height="124" fill="#3e2723"/>
    <rect x="321" y="130" width="29.5" height="124" fill="#4a302a"/>
    <rect x="352.5" y="130" width="29.5" height="124" fill="#3e2723"/>

    
    <rect x="386" y="130" width="124" height="29.5" fill="#3e2723"/>
    <rect x="386" y="161.5" width="124" height="29.5" fill="#432c25"/>
    <rect x="386" y="193" width="124" height="29.5" fill="#3e2723"/>
    <rect x="386" y="224.5" width="124" height="29.5" fill="#4a302a"/>

    
    
    <rect x="2" y="258" width="124" height="29.5" fill="#432c25"/>
    <rect x="2" y="289.5" width="124" height="29.5" fill="#3e2723"/>
    <rect x="2" y="321" width="124" height="29.5" fill="#4a302a"/>
    <rect x="2" y="352.5" width="124" height="29.5" fill="#3e2723"/>

    
    <rect x="130" y="258" width="29.5" height="124" fill="#3e2723"/>
    <rect x="161.5" y="258" width="29.5" height="124" fill="#4a302a"/>
    <rect x="193" y="258" width="29.5" height="124" fill="#3e2723"/>
    <rect x="224.5" y="258" width="29.5" height="124" fill="#432c25"/>

    
    <rect x="258" y="258" width="124" height="29.5" fill="#4a302a"/>
    <rect x="258" y="289.5" width="124" height="29.5" fill="#3e2723"/>
    <rect x="258" y="321" width="124" height="29.5" fill="#432c25"/>
    <rect x="258" y="352.5" width="124" height="29.5" fill="#3e2723"/>

    
    <rect x="386" y="258" width="29.5" height="124" fill="#3e2723"/>
    <rect x="417.5" y="258" width="29.5" height="124" fill="#4a302a"/>
    <rect x="449" y="258" width="29.5" height="124" fill="#3e2723"/>
    <rect x="480.5" y="258" width="29.5" height="124" fill="#432c25"/>

    
    
    <rect x="2" y="386" width="29.5" height="124" fill="#3e2723"/>
    <rect x="33.5" y="386" width="29.5" height="124" fill="#4a302a"/>
    <rect x="65" y="386" width="29.5" height="124" fill="#3e2723"/>
    <rect x="96.5" y="386" width="29.5" height="124" fill="#432c25"/>

    
    <rect x="130" y="386" width="124" height="29.5" fill="#4a302a"/>
    <rect x="130" y="417.5" width="124" height="29.5" fill="#3e2723"/>
    <rect x="130" y="449" width="124" height="29.5" fill="#432c25"/>
    <rect x="130" y="480.5" width="124" height="29.5" fill="#3e2723"/>

    
    <rect x="258" y="386" width="29.5" height="124" fill="#3e2723"/>
    <rect x="289.5" y="386" width="29.5" height="124" fill="#432c25"/>
    <rect x="321" y="386" width="29.5" height="124" fill="#3e2723"/>
    <rect x="352.5" y="386" width="29.5" height="124" fill="#4a302a"/>

    
    <rect x="386" y="386" width="124" height="29.5" fill="#432c25"/>
    <rect x="386" y="417.5" width="124" height="29.5" fill="#3e2723"/>
    <rect x="386" y="449" width="124" height="29.5" fill="#4a302a"/>
    <rect x="386" y="480.5" width="124" height="29.5" fill="#3e2723"/>
  </g>

  
  
  <radialGradient id="polishGlow" cx="50%" cy="50%" r="70%" fx="50%" fy="50%">
    <stop offset="0%" stop-color="#ffffff" stop-opacity="0.1"/>
    <stop offset="100%" stop-color="#ffffff" stop-opacity="0"/>
  </radialGradient>
  <rect width="512" height="512" fill="url(#polishGlow)" style="pointer-events: none; mix-blend-mode: overlay;" />

  
  <g stroke="#ffffff" stroke-width="0.5" stroke-opacity="0.15" fill="none">
    <path d="M50 50 Q 80 80, 100 60 M 200 300 L 220 310 M 400 150 Q 420 160, 410 180" />
    <path d="M300 400 Q 320 420, 310 440" opacity="0.5"/>
    <path d="M120 200 L 130 205 M 450 450 L 460 440" opacity="0.3"/>
  </g>

  
  <g fill="#6d4c41" stroke="#2a1a10" stroke-width="1">
    <rect x="124" y="124" width="8" height="8" transform="rotate(45 128 128)" />
    <rect x="252" y="124" width="8" height="8" transform="rotate(45 256 128)" />
    <rect x="380" y="124" width="8" height="8" transform="rotate(45 384 128)" />
    
    <rect x="124" y="252" width="8" height="8" transform="rotate(45 128 256)" />
    <rect x="252" y="252" width="8" height="8" transform="rotate(45 256 256)" />
    <rect x="380" y="252" width="8" height="8" transform="rotate(45 384 256)" />
    
    <rect x="124" y="380" width="8" height="8" transform="rotate(45 128 384)" />
    <rect x="252" y="380" width="8" height="8" transform="rotate(45 256 384)" />
    <rect x="380" y="380" width="8" height="8" transform="rotate(45 384 384)" />
  </g>

  
  <radialGradient id="vignette" cx="50%" cy="50%" r="70%">
    <stop offset="80%" stop-color="#000000" stop-opacity="0"/>
    <stop offset="100%" stop-color="#000000" stop-opacity="0.4"/>
  </radialGradient>
  <rect width="512" height="512" fill="url(#vignette)" style="pointer-events: none;" />

</svg>