<svg width="512" height="512" viewBox="0 0 512 512" xmlns="http://www.w3.org/2000/svg" shape-rendering="geometricPrecision">
  <defs>
    
    <filter id="obsidianGrain" x="0%" y="0%" width="100%" height="100%">
      <feTurbulence type="fractalNoise" baseFrequency="0.8" numOctaves="3" result="noise"/>
      <feColorMatrix type="matrix" values="1 0 0 0 0  0 1 0 0 0  0 0 1 0 0  0 0 0 0.05 0" in="noise" result="coloredNoise"/>
      <feComposite operator="in" in="coloredNoise" in2="SourceGraphic" result="composite"/>
      <feBlend mode="overlay" in="composite" in2="SourceGraphic"/>
    </filter>

    
    <linearGradient id="deepStone" x1="0%" y1="0%" x2="100%" y2="100%">
      <stop offset="0%" stop-color="#2a2a30" />
      <stop offset="40%" stop-color="#050508" />
      <stop offset="100%" stop-color="#000000" />
    </linearGradient>

    
    <linearGradient id="glint" x1="0%" y1="0%" x2="0%" y2="100%">
      <stop offset="0%" stop-color="#ffffff" stop-opacity="0" />
      <stop offset="50%" stop-color="#ffffff" stop-opacity="0.6" />
      <stop offset="100%" stop-color="#ffffff" stop-opacity="0" />
    </linearGradient>
  </defs>

  
  <rect width="512" height="512" fill="#111111" />

  
  <g transform="translate(4,4)">
    
    <rect width="248" height="248" fill="url(#deepStone)" stroke="#333" stroke-width="1" filter="url(#obsidianGrain)" rx="2" ry="2"/>
    
    <path d="M2,246 L2,2 L246,2" fill="none" stroke="#555560" stroke-width="2" opacity="0.5"/>
    
    <path d="M246,2 L246,246 L2,246" fill="none" stroke="#000" stroke-width="3" opacity="0.8"/>
    
    
    <path d="M40,20 Q60,50 30,80" fill="none" stroke="#222" stroke-width="1.5" opacity="0.6"/>
    <path d="M42,22 Q62,52 32,82" fill="none" stroke="#444" stroke-width="0.5" opacity="0.3"/> 
    
    <path d="M180,200 Q200,180 220,210" fill="none" stroke="#222" stroke-width="1.5" opacity="0.6"/>
    <path d="M182,202 Q202,182 222,212" fill="none" stroke="#444" stroke-width="0.5" opacity="0.3"/>

    
    <path d="M20,120 L100,20 L180,20 L60,160 Z" fill="#fff" fill-opacity="0.05"/>
    <path d="M30,125 L105,30 L160,30 L55,155 Z" fill="#dceeff" fill-opacity="0.03"/>
  </g>

  
  <g transform="translate(260,4)">
    <rect width="248" height="248" fill="url(#deepStone)" stroke="#333" stroke-width="1" filter="url(#obsidianGrain)" rx="2" ry="2"/>
    <path d="M2,246 L2,2 L246,2" fill="none" stroke="#555560" stroke-width="2" opacity="0.5"/>
    <path d="M246,2 L246,246 L2,246" fill="none" stroke="#000" stroke-width="3" opacity="0.8"/>
    
    
    <path d="M220,20 Q230,40 248,30" fill="none" stroke="#1a1a1a" stroke-width="2"/>
    <path d="M220,20 Q230,40 248,30" fill="none" stroke="#555" stroke-width="0.5" opacity="0.4" transform="translate(-1,1)"/>
    
    
    <line x1="50" y1="50" x2="90" y2="45" stroke="#333" stroke-width="1" opacity="0.5" stroke-linecap="round"/>
    
    
    <path d="M40,200 L150,60 L200,60 L90,220 Z" fill="#fff" fill-opacity="0.06"/>
    
    <circle cx="160" cy="70" r="30" fill="url(#glint)" transform="rotate(-45 160 70)" opacity="0.4"/>
  </g>

  
  <g transform="translate(4,260)">
    
    <rect width="248" height="248" fill="url(#deepStone)" transform="rotate(90 124 124)" stroke="#333" stroke-width="1" filter="url(#obsidianGrain)" rx="2" ry="2"/>
    <path d="M2,246 L2,2 L246,2" fill="none" stroke="#555560" stroke-width="2" opacity="0.5"/>
    <path d="M246,2 L246,246 L2,246" fill="none" stroke="#000" stroke-width="3" opacity="0.8"/>
    
    
    <path d="M20,200 C40,190 50,210 70,200" fill="none" stroke="#252525" stroke-width="2"/>
    <path d="M20,205 C40,195 50,215 70,205" fill="none" stroke="#3a3a40" stroke-width="1" opacity="0.4"/>
    
    
    <path d="M100,100 L200,20 L230,20 L120,130 Z" fill="#fff" fill-opacity="0.04"/>
    <path d="M10,180 L80,100 L110,100 L30,200 Z" fill="#eef" fill-opacity="0.05"/>
  </g>

  
  <g transform="translate(260,260)">
    <rect width="248" height="248" fill="url(#deepStone)" transform="rotate(180 124 124)" stroke="#333" stroke-width="1" filter="url(#obsidianGrain)" rx="2" ry="2"/>
    <path d="M2,246 L2,2 L246,2" fill="none" stroke="#555560" stroke-width="2" opacity="0.5"/>
    <path d="M246,2 L246,246 L2,246" fill="none" stroke="#000" stroke-width="3" opacity="0.8"/>
    
    
    <path d="M100,100 L120,120 L115,140" fill="none" stroke="#000" stroke-width="2"/>
    <path d="M101,101 L121,121 L116,141" fill="none" stroke="#444" stroke-width="1" opacity="0.3"/>

    
    <rect x="50" y="50" width="150" height="150" fill="url(#glint)" transform="rotate(-45 125 125)" opacity="0.2"/>
    <path d="M180,180 L220,140" stroke="#fff" stroke-width="2" stroke-linecap="round" opacity="0.3"/>
  </g>

  
  <g opacity="0.15">
    <circle cx="100" cy="400" r="1" fill="#fff"/>
    <circle cx="400" cy="100" r="1.5" fill="#fff"/>
    <circle cx="250" cy="250" r="1" fill="#fff"/>
    <path d="M50,50 Q100,100 150,50" fill="none" stroke="#fff" stroke-width="0.5" opacity="0.5"/>
    <path d="M300,400 L320,420" fill="none" stroke="#fff" stroke-width="0.5"/>
  </g>
  
  
  <radialGradient id="vignette" cx="50%" cy="50%" r="70%">
    <stop offset="70%" stop-color="#000" stop-opacity="0" />
    <stop offset="100%" stop-color="#000" stop-opacity="0.4" />
  </radialGradient>
  <rect width="512" height="512" fill="url(#vignette)" pointer-events="none"/>
  
</svg>