<svg xmlns="http://www.w3.org/2000/svg" viewBox="0 0 512 512" shape-rendering="geometricPrecision" width="512" height="512"><defs><radialGradient id="metalBaseGrad" cx="50%" cy="50%" r="50%" fx="50%" fy="50%"><stop offset="60%" stop-color="#2a2e33" /><stop offset="85%" stop-color="#1a1c1f" /><stop offset="100%" stop-color="#0f1012" /></radialGradient><radialGradient id="daisGrad" cx="50%" cy="50%" r="50%"><stop offset="0%" stop-color="#1f2226" /><stop offset="80%" stop-color="#15171a" /><stop offset="100%" stop-color="#000000" /></radialGradient><radialGradient id="holoGlow" cx="50%" cy="50%" r="50%"><stop offset="50%" stop-color="#00ffff" stop-opacity="0" /><stop offset="75%" stop-color="#00ffff" stop-opacity="0.1" /><stop offset="90%" stop-color="#00ffff" stop-opacity="0.3" /><stop offset="100%" stop-color="#00ffff" stop-opacity="0" /></radialGradient><linearGradient id="screenGrad" x1="0%" y1="0%" x2="0%" y2="100%"><stop offset="0%" stop-color="#00eaff" stop-opacity="0.6" /><stop offset="100%" stop-color="#0055ff" stop-opacity="0.1" /></linearGradient><radialGradient id="lensGlow" cx="50%" cy="50%" r="50%"><stop offset="0%" stop-color="#ffffff" /><stop offset="40%" stop-color="#00ffff" /><stop offset="100%" stop-color="#00ffff" stop-opacity="0" /></radialGradient></defs><circle cx="256" cy="256" r="250" fill="#000000" fill-opacity="0.4" filter="blur(4px)" /><path d="M256 20 A236 236 0 1 0 256 492 A236 236 0 1 0 256 20 Z M256 60 A196 196 0 1 1 256 452 A196 196 0 1 1 256 60 Z"         fill="url(#metalBaseGrad)" stroke="#111" stroke-width="2" /><g stroke="#111" stroke-width="1" opacity="0.6"><circle cx="256" cy="256" r="225" fill="none" stroke="#3a4047" stroke-width="1" /><circle cx="256" cy="256" r="210" fill="none" stroke="#000" stroke-width="2" stroke-dasharray="10, 15" /><circle cx="256" cy="35" r="3" fill="#111" /><circle cx="256" cy="477" r="3" fill="#111" /><circle cx="35" cy="256" r="3" fill="#111" /><circle cx="477" cy="256" r="3" fill="#111" /><circle cx="99" cy="99" r="3" fill="#111" /><circle cx="413" cy="99" r="3" fill="#111" /><circle cx="99" cy="413" r="3" fill="#111" /><circle cx="413" cy="413" r="3" fill="#111" /></g><circle cx="256" cy="256" r="160" fill="url(#daisGrad)" stroke="#333" stroke-width="2" /><g opacity="0.3" stroke="#00ffff" stroke-width="1"><path d="M156 256 H356 M256 156 V356" /><circle cx="256" cy="256" r="100" fill="none" stroke-dasharray="4,4" /><circle cx="256" cy="256" r="50" fill="none" /></g><g><circle cx="256" cy="60" r="8" fill="#222" stroke="#444" stroke-width="1" /><circle cx="256" cy="60" r="4" fill="url(#lensGlow)" /><circle cx="256" cy="452" r="8" fill="#222" stroke="#444" stroke-width="1" /><circle cx="256" cy="452" r="4" fill="url(#lensGlow)" /><circle cx="60" cy="256" r="8" fill="#222" stroke="#444" stroke-width="1" /><circle cx="60" cy="256" r="4" fill="url(#lensGlow)" /><circle cx="452" cy="256" r="8" fill="#222" stroke="#444" stroke-width="1" /><circle cx="452" cy="256" r="4" fill="url(#lensGlow)" /><circle cx="117" cy="117" r="8" fill="#222" stroke="#444" stroke-width="1" /><circle cx="117" cy="117" r="4" fill="url(#lensGlow)" /><circle cx="395" cy="117" r="8" fill="#222" stroke="#444" stroke-width="1" /><circle cx="395" cy="117" r="4" fill="url(#lensGlow)" /><circle cx="117" cy="395" r="8" fill="#222" stroke="#444" stroke-width="1" /><circle cx="117" cy="395" r="4" fill="url(#lensGlow)" /><circle cx="395" cy="395" r="8" fill="#222" stroke="#444" stroke-width="1" /><circle cx="395" cy="395" r="4" fill="url(#lensGlow)" /></g><g opacity="0.9"><circle cx="256" cy="256" r="200" fill="none" stroke="#00ffff" stroke-width="2" stroke-opacity="0.3" stroke-dasharray="2, 4" /><path d="M220 50 A210 210 0 0 1 292 50" fill="none" stroke="#00ffff" stroke-width="3" stroke-linecap="round" /><path d="M220 50 L225 70 A190 190 0 0 1 287 70 L292 50 Z" fill="rgba(0, 255, 255, 0.15)" stroke="none" /><path d="M220 462 A210 210 0 0 0 292 462" fill="none" stroke="#00ffff" stroke-width="3" stroke-linecap="round" /><path d="M220 462 L225 442 A190 190 0 0 0 287 442 L292 462 Z" fill="rgba(0, 255, 255, 0.15)" stroke="none" /><path d="M50 220 A210 210 0 0 0 50 292" fill="none" stroke="#00ffff" stroke-width="3" stroke-linecap="round" /><path d="M50 220 L70 225 A190 190 0 0 0 70 287 L50 292 Z" fill="rgba(0, 255, 255, 0.15)" stroke="none" /><path d="M462 220 A210 210 0 0 1 462 292" fill="none" stroke="#00ffff" stroke-width="3" stroke-linecap="round" /><path d="M462 220 L442 225 A190 190 0 0 1 442 287 L462 292 Z" fill="rgba(0, 255, 255, 0.15)" stroke="none" /><g transform="rotate(45, 256, 256)"><path d="M220 50 A210 210 0 0 1 292 50" fill="none" stroke="#00ffff" stroke-width="3" stroke-linecap="round" /><path d="M220 50 L225 70 A190 190 0 0 1 287 70 L292 50 Z" fill="rgba(0, 255, 255, 0.15)" stroke="none" /><path d="M220 462 A210 210 0 0 0 292 462" fill="none" stroke="#00ffff" stroke-width="3" stroke-linecap="round" /><path d="M220 462 L225 442 A190 190 0 0 0 287 442 L292 462 Z" fill="rgba(0, 255, 255, 0.15)" stroke="none" /><path d="M50 220 A210 210 0 0 0 50 292" fill="none" stroke="#00ffff" stroke-width="3" stroke-linecap="round" /><path d="M50 220 L70 225 A190 190 0 0 0 70 287 L50 292 Z" fill="rgba(0, 255, 255, 0.15)" stroke="none" /><path d="M462 220 A210 210 0 0 1 462 292" fill="none" stroke="#00ffff" stroke-width="3" stroke-linecap="round" /><path d="M462 220 L442 225 A190 190 0 0 1 442 287 L462 292 Z" fill="rgba(0, 255, 255, 0.15)" stroke="none" /></g></g><g fill="none" stroke="#00ffff" stroke-width="1.5"><path d="M235 60 H277" stroke-opacity="0.8" /><path d="M235 64 H260" stroke-opacity="0.6" stroke-width="1" /><rect x="235" y="54" width="10" height="4" fill="#00ffff" stroke="none" opacity="0.7" /><path d="M450 240 L455 250 L450 260" stroke-opacity="0.8" /><circle cx="448" cy="256" r="2" fill="#ff0000" stroke="none" /><path d="M240 450 H272" stroke-dasharray="2,2" stroke-opacity="0.7" /></g><g opacity="0.6" transform="translate(256, 256)"><path d="M0 0 L100 -50 A 110 110 0 0 1 100 50 Z" fill="url(#holoGlow)" transform="rotate(20)" /><circle cx="-80" cy="-40" r="3" fill="#ff3333" stroke="none" /><circle cx="-70" cy="-50" r="3" fill="#ff3333" stroke="none" /><path d="M-80 -40 L-70 -50" stroke="#ff3333" stroke-width="0.5" /><circle cx="60" cy="80" r="3" fill="#33ff33" stroke="none" /><rect x="55" y="75" width="10" height="10" fill="none" stroke="#33ff33" stroke-width="0.5" /><path d="M-50 -80 Q-20 -50 20 -80" fill="none" stroke="#00aaff" stroke-width="1" /><path d="M-40 -70 Q-15 -45 15 -70" fill="none" stroke="#00aaff" stroke-width="0.5" /></g><path d="M256 60 A196 196 0 1 1 256 452 A196 196 0 1 1 256 60 Z"         fill="none" stroke="#00ffff" stroke-width="2" stroke-opacity="0.2" pointer-events="none" /><path d="M256 20 A236 236 0 0 1 450 100" fill="none" stroke="#555" stroke-width="2" stroke-linecap="round" opacity="0.5" /><path d="M60 100 A236 236 0 0 1 256 20" fill="none" stroke="#555" stroke-width="2" stroke-linecap="round" opacity="0.5" /><g stroke="#000" stroke-width="1" opacity="0.4"><path d="M300 40 L310 50" /><path d="M295 45 L305 48" /><path d="M100 400 L110 405" /></g></svg>