<svg xmlns="http://www.w3.org/2000/svg" viewBox="0 0 512 512" width="512" height="512" shape-rendering="geometricPrecision"><defs><linearGradient id="metalRim" x1="0%" y1="0%" x2="100%" y2="100%"><stop offset="0%" stop-color="#2a2a2f" /><stop offset="25%" stop-color="#4a4a55" /><stop offset="50%" stop-color="#333339" /><stop offset="75%" stop-color="#555560" /><stop offset="100%" stop-color="#222226" /></linearGradient><radialGradient id="recessShadow" cx="50%" cy="50%" r="50%" fx="50%" fy="50%"><stop offset="80%" stop-color="#000000" stop-opacity="0" /><stop offset="95%" stop-color="#000000" stop-opacity="0.8" /><stop offset="100%" stop-color="#000000" stop-opacity="1" /></radialGradient><radialGradient id="lightCore" cx="50%" cy="50%" r="50%" fx="50%" fy="50%"><stop offset="0%" stop-color="#e0ffff" stop-opacity="1" /><stop offset="30%" stop-color="#40e0ff" stop-opacity="0.9" /><stop offset="70%" stop-color="#0066aa" stop-opacity="0.8" /><stop offset="100%" stop-color="#001133" stop-opacity="1" /></radialGradient><radialGradient id="softBloom" cx="50%" cy="50%" r="50%" fx="50%" fy="50%"><stop offset="0%" stop-color="#40e0ff" stop-opacity="0.4" /><stop offset="50%" stop-color="#0066aa" stop-opacity="0.1" /><stop offset="100%" stop-color="#000000" stop-opacity="0" /></radialGradient></defs><g transform="translate(256, 256)"><circle r="210" fill="#1a1a1a" fill-opacity="0.6" stroke="none" /><circle r="200" fill="url(#metalRim)" stroke="#111" stroke-width="2" /><path d="M-190,40 Q-200,50 -185,60 M180,-30 Q195,-40 185,-50" stroke="#000" stroke-width="1" stroke-opacity="0.4" fill="none" /><path d="M-50,-195 L-40,-185 M100,170 L110,180" stroke="#777" stroke-width="1" stroke-opacity="0.3" fill="none" /><g fill="#25252b" stroke="#111" stroke-width="1"><circle cx="0" cy="-185" r="6" /><circle cx="131" cy="-131" r="6" /><circle cx="185" cy="0" r="6" /><circle cx="131" cy="131" r="6" /><circle cx="0" cy="185" r="6" /><circle cx="-131" cy="131" r="6" /><circle cx="-185" cy="0" r="6" /><circle cx="-131" cy="-131" r="6" /></g><circle r="160" fill="none" stroke="#666670" stroke-width="2" stroke-opacity="0.5" /><circle r="158" fill="#000510" /><circle r="150" fill="url(#lightCore)" /><g opacity="0.3"><path d="M-80,-20 Q-20,-80 40,-30 T80,40" fill="none" stroke="#fff" stroke-width="15" stroke-linecap="round" filter="blur(2px)" /><path d="M20,60 Q-40,80 -90,20" fill="none" stroke="#003366" stroke-width="10" stroke-linecap="round" /><circle cx="50" cy="-50" r="20" fill="#fff" filter="blur(10px)" opacity="0.5" /></g><g stroke="#fff" stroke-width="1" stroke-opacity="0.2" fill="none"><path d="M-30,30 L-10,50 M-25,35 L-20,45" /><path d="M60,-40 L80,-20" /><path d="M10,10 L30,-10" opacity="0.1"/></g><circle r="158" fill="url(#recessShadow)" pointer-events="none" /><ellipse cx="-40" cy="-40" rx="30" ry="20" transform="rotate(-45 -40 -40)" fill="#ffffff" fill-opacity="0.3" /><ellipse cx="-40" cy="-40" rx="15" ry="8" transform="rotate(-45 -40 -40)" fill="#ffffff" fill-opacity="0.6" /><circle r="250" fill="url(#softBloom)" pointer-events="none" /><path d="M-113,-113 A 160 160 0 0 1 113,-113" fill="none" stroke="#88ccff" stroke-width="1.5" stroke-opacity="0.4" stroke-linecap="round" /></g></svg>