<svg xmlns="http://www.w3.org/2000/svg" viewBox="0 0 512 512">
    

    
    <ellipse cx="256" cy="460" rx="60" ry="20" fill="rgba(0,0,0,0.2)"/>

    
    <path d="M256 450 C200 450 180 430 180 400 C180 370 200 350 256 350 C312 350 332 370 332 400 C332 430 312 450 256 450 Z" fill="#503020" stroke="#333333" stroke-width="8"/>

    
    <rect x="248" y="100" width="16" height="280" fill="#444444" stroke="#333333" stroke-width="4"/>

    
    <g>
        
        <path d="M245 380 Q225 340 220 300 H235 Q255 340 260 380 Z" fill="#A0A0A0" stroke="#333333" stroke-width="4"/> 
        <path d="M267 380 Q287 340 282 300 H257 Q237 340 242 380 Z" fill="#A0A0A0" stroke="#333333" stroke-width="4"/> 

        
        <path d="M256 295 L200 280 L200 260 L256 245 L312 260 L312 280 Z" fill="#707070" stroke="#333333" stroke-width="4"/>

        
        <path d="M256 230 C200 230 180 200 180 170 C180 140 200 110 256 110 C312 110 332 140 332 170 C332 200 312 230 256 230 Z" fill="#A0A0A0" stroke="#333333" stroke-width="4"/>

        
        <path d="M190 180 C170 190 160 210 160 230 C160 250 170 270 190 280 C190 280 200 270 200 250 C200 230 200 200 190 180 Z" fill="#A0A0A0" stroke="#333333" stroke-width="4"/> 
        <path d="M322 180 C342 190 352 210 352 230 C352 250 342 270 322 280 C322 280 312 270 312 250 C312 230 312 200 322 180 Z" fill="#A0A0A0" stroke="#333333" stroke-width="4"/> 

        
        <path d="M190 180 C180 160 160 150 140 160 C130 170 130 190 140 200 C150 210 170 210 190 200 L190 180 Z" fill="#C0C0C0" stroke="#333333" stroke-width="4"/> 
        <path d="M322 180 C332 160 352 150 372 160 C382 170 382 190 372 200 C362 210 342 210 322 200 L322 180 Z" fill="#C0C0C0" stroke="#333333" stroke-width="4"/> 

        
        <path d="M256 110 C230 110 210 90 210 70 C210 50 230 30 256 30 C282 30 302 50 302 70 C302 90 282 110 256 110 Z" fill="#A0A0A0" stroke="#333333" stroke-width="4"/>
        
        <path d="M256 70 C240 70 230 60 230 55 C230 50 240 45 256 45 C272 45 282 50 282 55 C282 60 272 70 256 70 Z" fill="#707070" stroke="#333333" stroke-width="2"/>

        
        <path d="M256 220 C220 220 200 195 200 165 C200 135 220 105 256 105 C292 105 312 135 312 165 C312 195 292 220 256 220 Z" fill="none" stroke="#C0C0C0" stroke-width="2" opacity="0.6"/> 
        <path d="M256 105 C230 105 215 85 215 65 C215 45 230 25 256 25 C282 25 297 45 297 65 C297 85 282 105 256 105 Z" fill="none" stroke="#C0C0C0" stroke-width="2" opacity="0.6"/> 
    </g>
</svg>