<svg xmlns="http://www.w3.org/2000/svg" viewBox="0 0 512 512" shape-rendering="geometricPrecision" width="512" height="512"><defs><radialGradient id="shadowGrad" cx="50%" cy="50%" r="50%" fx="50%" fy="50%"><stop offset="0%" stop-color="#000000" stop-opacity="0.6"/><stop offset="70%" stop-color="#000000" stop-opacity="0.2"/><stop offset="100%" stop-color="#000000" stop-opacity="0"/></radialGradient><linearGradient id="barrelGrad" x1="0%" y1="0%" x2="100%" y2="0%"><stop offset="0%" stop-color="#1a1a1a"/><stop offset="30%" stop-color="#4a4a4a"/><stop offset="50%" stop-color="#7a7a7a"/><stop offset="70%" stop-color="#4a4a4a"/><stop offset="100%" stop-color="#1a1a1a"/></linearGradient><linearGradient id="casingGrad" x1="20%" y1="0%" x2="80%" y2="100%"><stop offset="0%" stop-color="#ffffff"/><stop offset="50%" stop-color="#f0f4f8"/><stop offset="100%" stop-color="#cfd8dc"/></linearGradient><linearGradient id="techDark" x1="0%" y1="0%" x2="0%" y2="100%"><stop offset="0%" stop-color="#2c3e50"/><stop offset="100%" stop-color="#1a252f"/></linearGradient><radialGradient id="sensorEye" cx="50%" cy="50%" r="50%" fx="50%" fy="30%"><stop offset="0%" stop-color="#ffcccc"/><stop offset="20%" stop-color="#ff3333"/><stop offset="60%" stop-color="#990000"/><stop offset="100%" stop-color="#330000"/></radialGradient></defs><ellipse cx="256" cy="270" rx="180" ry="180" fill="url(#shadowGrad)"/><g transform="translate(256, 256)"><path d="M-40 -40 L-140 -140 L-110 -160 L-30 -60 Z" fill="#2c3e50" stroke="#1a252f" stroke-width="2"/><path d="M40 -40 L140 -140 L110 -160 L30 -60 Z" fill="#2c3e50" stroke="#1a252f" stroke-width="2"/><path d="M-40 40 L-140 140 L-110 160 L-30 60 Z" fill="#2c3e50" stroke="#1a252f" stroke-width="2"/><path d="M40 40 L140 140 L110 160 L30 60 Z" fill="#2c3e50" stroke="#1a252f" stroke-width="2"/><circle cx="0" cy="0" r="60" fill="#34495e" stroke="#1a252f" stroke-width="4"/><circle cx="0" cy="0" r="45" fill="none" stroke="#222" stroke-width="2" stroke-dasharray="10 5"/></g><g transform="translate(0, 40)"><rect x="180" y="200" width="40" height="180" fill="url(#barrelGrad)" rx="4"/><rect x="175" y="370" width="50" height="20" fill="#333" stroke="#111" stroke-width="1"/><rect x="190" y="370" width="20" height="20" fill="#000"/><rect x="292" y="200" width="40" height="180" fill="url(#barrelGrad)" rx="4"/><rect x="287" y="370" width="50" height="20" fill="#333" stroke="#111" stroke-width="1"/><rect x="302" y="370" width="20" height="20" fill="#000"/><rect x="170" y="180" width="172" height="60" fill="#222" rx="10"/><line x1="180" y1="200" x2="332" y2="200" stroke="#444" stroke-width="2"/></g><g transform="translate(0, 20)"><path d="M160 100              C160 60, 352 60, 352 100              L370 260              C370 320, 142 320, 142 260              Z"              fill="url(#casingGrad)" stroke="#bdc3c7" stroke-width="2"/><rect x="196" y="60" width="120" height="60" rx="10" fill="#e0e6eb" stroke="#b0bec5" stroke-width="2"/><g fill="#90a4ae"><rect x="210" y="70" width="92" height="6" rx="2"/><rect x="210" y="82" width="92" height="6" rx="2"/><rect x="210" y="94" width="92" height="6" rx="2"/></g><path d="M160 140 L180 140 L180 240 L150 220 Z" fill="#dfe6e9" stroke="#b2bec3" stroke-width="1"/><path d="M352 140 L332 140 L332 240 L362 220 Z" fill="#dfe6e9" stroke="#b2bec3" stroke-width="1"/><path d="M190 120 L322 120" stroke="#b0bec5" stroke-width="1"/><path d="M190 120 L180 240" stroke="#b0bec5" stroke-width="1"/><path d="M322 120 L332 240" stroke="#b0bec5" stroke-width="1"/><path d="M210 180              L302 180              L312 280              C312 300, 200 300, 200 280              Z"              fill="#f5f7fa" stroke="#cfd8dc" stroke-width="2"/><circle cx="256" cy="270" r="24" fill="#330000" stroke="#111" stroke-width="2"/><circle cx="256" cy="270" r="18" fill="url(#sensorEye)"/><ellipse cx="250" cy="264" rx="6" ry="4" fill="#ffffff" opacity="0.6" transform="rotate(-30 250 264)"/><circle cx="256" cy="270" r="28" fill="none" stroke="#ff3333" stroke-width="2" stroke-opacity="0.3"/><g stroke="#90a4ae" stroke-width="1" opacity="0.6" stroke-linecap="round"><path d="M170 160 L185 165"/><path d="M340 190 L330 195"/><path d="M260 100 L270 95"/><path d="M220 290 L230 292"/></g><path d="M170 110 C170 90, 342 90, 342 110" fill="none" stroke="#ffffff" stroke-width="2" opacity="0.8"/><path d="M220 190 L292 190" fill="none" stroke="#ffffff" stroke-width="2" opacity="0.6"/></g><rect x="180" y="240" width="40" height="10" fill="#000" opacity="0.3"/><rect x="292" y="240" width="40" height="10" fill="#000" opacity="0.3"/></svg>