<svg xmlns="http://www.w3.org/2000/svg" viewBox="0 0 512 512" width="512" height="512">
  <defs>
    
    <filter id="softGlow" x="-50%" y="-50%" width="200%" height="200%">
      <feGaussianBlur in="SourceGraphic" stdDeviation="6" result="blur" />
      <feColorMatrix in="blur" type="matrix" values="1 0 0 0 0  0 1 0 0 0  0 0 1 0 0  0 0 0 18 -7" result="goo" />
      <feComposite in="SourceGraphic" in2="goo" operator="atop"/>
    </filter>
    <filter id="strongBloom" x="-50%" y="-50%" width="200%" height="200%">
      <feGaussianBlur in="SourceGraphic" stdDeviation="12" result="blur" />
      <feMerge>
        <feMergeNode in="blur" />
        <feMergeNode in="SourceGraphic" />
      </feMerge>
    </filter>
    
    
    <radialGradient id="capBaseGradient" cx="50%" cy="50%" r="50%" fx="50%" fy="50%">
      <stop offset="0%" stop-color="#0d2b36" />
      <stop offset="70%" stop-color="#16424d" />
      <stop offset="100%" stop-color="#0a1f26" />
    </radialGradient>
    
    <radialGradient id="capHighlightGradient" cx="50%" cy="50%" r="50%" fx="40%" fy="40%">
      <stop offset="0%" stop-color="#2a7a8c" stop-opacity="0.6" />
      <stop offset="100%" stop-color="#16424d" stop-opacity="0" />
    </radialGradient>

    <radialGradient id="biolumGradientBlue" cx="50%" cy="50%" r="50%">
      <stop offset="0%" stop-color="#aaffff" />
      <stop offset="30%" stop-color="#00eaff" />
      <stop offset="100%" stop-color="#00eaff" stop-opacity="0" />
    </radialGradient>

    <radialGradient id="biolumGradientGreen" cx="50%" cy="50%" r="50%">
      <stop offset="0%" stop-color="#eaffaa" />
      <stop offset="30%" stop-color="#55ff00" />
      <stop offset="100%" stop-color="#55ff00" stop-opacity="0" />
    </radialGradient>
    
    <radialGradient id="groundShadow" cx="50%" cy="50%" r="50%">
      <stop offset="0%" stop-color="#020508" stop-opacity="0.8" />
      <stop offset="100%" stop-color="#020508" stop-opacity="0" />
    </radialGradient>
  </defs>

  
  <ellipse cx="256" cy="270" rx="180" ry="140" fill="url(#groundShadow)" />

  
  <path d="M180,300 Q150,350 220,380 T350,360 Q400,300 340,260 T180,300 Z" fill="#1a261c" stroke="#0f140f" stroke-width="2" stroke-linecap="round" stroke-linejoin="round" />
  <path d="M200,320 C190,340 230,360 250,350 C280,335 240,310 200,320 Z" fill="#2d4030" opacity="0.6" />
  <path d="M300,340 C290,355 330,370 340,350 C350,330 310,320 300,340 Z" fill="#2d4030" opacity="0.6" />

  
  <g transform="translate(320, 330)">
    <circle cx="0" cy="0" r="12" fill="#16424d" />
    <circle cx="0" cy="0" r="6" fill="url(#biolumGradientGreen)" filter="url(#strongBloom)" opacity="0.8"/>
  </g>
  <g transform="translate(160, 310)">
    <circle cx="0" cy="0" r="10" fill="#16424d" />
    <circle cx="0" cy="0" r="5" fill="url(#biolumGradientBlue)" filter="url(#strongBloom)" opacity="0.8"/>
  </g>
  <g transform="translate(190, 350)">
    <circle cx="0" cy="0" r="8" fill="#16424d" />
    <circle cx="0" cy="0" r="3" fill="url(#biolumGradientGreen)" filter="url(#strongBloom)" opacity="0.8"/>
  </g>

  
  <g transform="translate(160, 220) rotate(-15)">
    
    <path d="M0,0 Q10,20 20,20" stroke="#2a3d45" stroke-width="12" stroke-linecap="round" />
    
    <path d="M-60,-10 C-60,-50 0,-60 50,-20 C70,10 30,50 -20,50 C-50,50 -70,20 -60,-10 Z" fill="url(#capBaseGradient)" stroke="#0a1f26" stroke-width="2"/>
    
    <path d="M-10,0 L-40,-20 M-10,0 L-30,-35 M-10,0 L0,-45 M-10,0 L30,-30 M-10,0 L40,0 M-10,0 L20,30 M-10,0 L-20,35" stroke="#2a7a8c" stroke-width="1" opacity="0.2" stroke-linecap="round"/>
    
    <circle cx="-30" cy="-20" r="6" fill="#00eaff" opacity="0.6" filter="url(#softGlow)"/>
    <circle cx="20" cy="-10" r="4" fill="#00eaff" opacity="0.5" filter="url(#softGlow)"/>
    <circle cx="0" cy="30" r="3" fill="#00eaff" opacity="0.4" filter="url(#softGlow)"/>
    
    <path d="M-55,-20 Q-40,-50 0,-55" fill="none" stroke="#4db8cc" stroke-width="2" opacity="0.4" stroke-linecap="round"/>
  </g>

  
  <g transform="translate(350, 200) rotate(10)">
    <path d="M0,0 Q-5,25 -15,25" stroke="#2a3d45" stroke-width="14" stroke-linecap="round" />
    <path d="M-50,-20 C-40,-60 20,-70 60,-30 C80,0 40,40 -10,40 C-50,40 -70,10 -50,-20 Z" fill="url(#capBaseGradient)" stroke="#0a1f26" stroke-width="2"/>
    
    <circle cx="30" cy="-20" r="7" fill="#55ff00" opacity="0.6" filter="url(#softGlow)"/>
    <circle cx="-20" cy="-10" r="5" fill="#55ff00" opacity="0.5" filter="url(#softGlow)"/>
    <circle cx="10" cy="20" r="4" fill="#55ff00" opacity="0.5" filter="url(#softGlow)"/>
    <path d="M20,-65 Q60,-50 70,-20" fill="none" stroke="#8cff66" stroke-width="2" opacity="0.3" stroke-linecap="round"/>
  </g>

  
  <g transform="translate(256, 256)">
    
    <circle cx="0" cy="10" r="15" fill="#0a1f26" />
    
    
    <path d="M-90,0 C-95,-60 -40,-95 0,-100 C60,-95 100,-50 95,0 C90,60 40,90 0,95 C-50,90 -85,50 -90,0 Z" 
          fill="#16424d" stroke="#08181f" stroke-width="3"/>
    
    
    <path d="M-88,0 C-93,-58 -38,-93 0,-98 C58,-93 98,-48 93,0 C88,58 38,88 0,93 C-48,88 -83,48 -88,0 Z" 
          fill="url(#capBaseGradient)" opacity="0.9"/>

    
    <ellipse cx="5" cy="-5" rx="20" ry="15" fill="#08181f" opacity="0.6" filter="url(#softGlow)"/>
    
    
    <g opacity="0.15" stroke="#4fffe8" stroke-width="1.5" stroke-linecap="round">
        <path d="M5,-5 L5,-90" />
        <path d="M5,-5 L50,-70" />
        <path d="M5,-5 L80,-30" />
        <path d="M5,-5 L85,10" />
        <path d="M5,-5 L60,60" />
        <path d="M5,-5 L10,85" />
        <path d="M5,-5 L-40,70" />
        <path d="M5,-5 L-75,30" />
        <path d="M5,-5 L-80,-20" />
        <path d="M5,-5 L-50,-70" />
    </g>

    
    
    <path d="M-40,-40 Q-50,-60 -20,-60 Q0,-50 -10,-30 Q-30,-20 -40,-40 Z" fill="#00eaff" opacity="0.4" filter="url(#softGlow)"/>
    <circle cx="-30" cy="-45" r="4" fill="#ffffff" opacity="0.6" filter="url(#strongBloom)"/>
    
    
    <circle cx="40" cy="-40" r="6" fill="#00eaff" opacity="0.5" filter="url(#softGlow)"/>
    <circle cx="40" cy="-40" r="2" fill="#ffffff" opacity="0.5"/>
    
    <circle cx="60" cy="0" r="8" fill="#00eaff" opacity="0.4" filter="url(#softGlow)"/>
    <circle cx="60" cy="0" r="3" fill="#ffffff" opacity="0.4"/>
    
    <circle cx="30" cy="50" r="5" fill="#00eaff" opacity="0.5" filter="url(#softGlow)"/>
    
    <circle cx="-50" cy="20" r="7" fill="#55ff00" opacity="0.4" filter="url(#softGlow)"/>
    <circle cx="-50" cy="20" r="2" fill="#ffffff" opacity="0.4"/>

    <circle cx="-20" cy="60" r="4" fill="#55ff00" opacity="0.3" filter="url(#softGlow)"/>

    
    <circle cx="-20" cy="-20" r="2" fill="#051014" opacity="0.5"/>
    <circle cx="20" cy="20" r="3" fill="#051014" opacity="0.4"/>
    <path d="M-60,0 Q-55,5 -62,10" stroke="#051014" stroke-width="1" fill="none" opacity="0.5"/>

    
    <path d="M-85,-10 Q-80,-60 -20,-90" fill="none" stroke="#aaffff" stroke-width="2" opacity="0.3" stroke-linecap="round"/>
    <path d="M40,85 Q80,60 90,10" fill="none" stroke="#aaffff" stroke-width="2" opacity="0.2" stroke-linecap="round"/>
    
    
    <circle cx="0" cy="0" r="80" fill="url(#biolumGradientBlue)" opacity="0.15" style="mix-blend-mode: screen;"/>
  </g>

  
  <circle cx="200" cy="200" r="1.5" fill="#aaffff" opacity="0.8" />
  <circle cx="300" cy="300" r="1" fill="#aaffff" opacity="0.6" />
  <circle cx="280" cy="180" r="1.5" fill="#aaffff" opacity="0.7" />
  <circle cx="220" cy="350" r="1" fill="#aaffff" opacity="0.5" />

</svg>