<svg viewBox="0 0 512 512" xmlns="http://www.w3.org/2000/svg" width="512" height="512"><defs><filter id="glow" x="-50%" y="-50%" width="200%" height="200%"><feGaussianBlur stdDeviation="6" result="coloredBlur"/><feMerge><feMergeNode in="coloredBlur"/><feMergeNode in="SourceGraphic"/></feMerge></filter><filter id="softShadow" x="-50%" y="-50%" width="200%" height="200%"><feGaussianBlur stdDeviation="8" result="blur"/><feColorMatrix type="matrix" values="0 0 0 0 0  0 0 0 0 0  0 0 0 0 0  0 0 0 0.6 0"/></filter><linearGradient id="metalCaseGrad" x1="0%" y1="0%" x2="0%" y2="100%"><stop offset="0%" stop-color="#374151" /><stop offset="10%" stop-color="#6B7280" /><stop offset="50%" stop-color="#374151" /><stop offset="90%" stop-color="#1F2937" /></linearGradient><linearGradient id="glassGrad" x1="0%" y1="0%" x2="100%" y2="100%"><stop offset="0%" stop-color="#0f172a" /><stop offset="50%" stop-color="#1e293b" /><stop offset="100%" stop-color="#0f172a" /></linearGradient><linearGradient id="scanlineGrad" x1="0%" y1="0%" x2="0%" y2="100%"><stop offset="0%" stop-color="#0ea5e9" stop-opacity="0" /><stop offset="50%" stop-color="#0ea5e9" stop-opacity="0.3" /><stop offset="100%" stop-color="#0ea5e9" stop-opacity="0" /></linearGradient><radialGradient id="emitterGlow" cx="50%" cy="50%" r="50%"><stop offset="0%" stop-color="#38bdf8" stop-opacity="0.8"/><stop offset="100%" stop-color="#38bdf8" stop-opacity="0"/></radialGradient></defs><path d="M150,440 Q256,470 362,440 Q380,430 360,420 L150,420 Q130,430 150,440 Z" fill="#000" fill-opacity="0.4" filter="url(#softShadow)" /><path d="M180,60 L332,60 L332,120 L180,120 Z" fill="#1f2937" stroke="#111827" stroke-width="2"/><rect x="190" y="70" width="10" height="40" rx="2" fill="#374151" /><rect x="312" y="70" width="10" height="40" rx="2" fill="#374151" /><circle cx="195" cy="80" r="2" fill="#9ca3af" /><circle cx="195" cy="100" r="2" fill="#9ca3af" /><circle cx="317" cy="80" r="2" fill="#9ca3af" /><circle cx="317" cy="100" r="2" fill="#9ca3af" /><path d="M160,100 L352,100 L380,400 L132,400 Z" fill="url(#metalCaseGrad)" stroke="#111827" stroke-width="2" /><path d="M160,100 L132,400" fill="none" stroke="#4b5563" stroke-width="2" stroke-opacity="0.5"/><path d="M352,100 L380,400" fill="none" stroke="#1f2937" stroke-width="4" /><path d="M132,400 L380,400" fill="none" stroke="#000" stroke-width="3" stroke-opacity="0.6"/><path d="M170,140 L342,140 L360,360 L152,360 Z" fill="#111827" stroke="#000" stroke-width="2" /><path d="M176,146 L336,146 L352,354 L160,354 Z" fill="url(#glassGrad)" /><g stroke="#38bdf8" stroke-width="0.5" stroke-opacity="0.15"><line x1="200" y1="146" x2="190" y2="354" /><line x1="256" y1="146" x2="256" y2="354" /><line x1="312" y1="146" x2="322" y2="354" /><line x1="170" y1="200" x2="342" y2="200" /><line x1="165" y1="250" x2="347" y2="250" /><line x1="160" y1="300" x2="352" y2="300" /></g><g transform="translate(256, 250) scale(0.9)" filter="url(#glow)"><path d="M-30,20 Q-45,50 0,60 Q45,50 30,20 Q30,-10 0,-10 Q-30,-10 -30,20" fill="#0ea5e9" fill-opacity="0.2" stroke="#38bdf8" stroke-width="2" /><path d="M-40,40 Q-60,30 -55,0 Q-45,-10 -30,10" fill="none" stroke="#38bdf8" stroke-width="2" stroke-linecap="round" /><ellipse cx="-50" cy="20" rx="8" ry="12" transform="rotate(-45 -50 20)" fill="#0ea5e9" fill-opacity="0.3" /><path d="M-20,-10 L-25,-50 Q-25,-60 -15,-60 Q-5,-60 -5,-50 L-5,-10" fill="#0ea5e9" fill-opacity="0.1" stroke="#38bdf8" stroke-width="2" stroke-linecap="round" /><path d="M-2,-12 L-2,-65 Q-2,-75 8,-75 Q18,-75 18,-65 L18,-12" fill="#0ea5e9" fill-opacity="0.1" stroke="#38bdf8" stroke-width="2" stroke-linecap="round" /><path d="M22,-10 L26,-55 Q26,-65 36,-65 Q46,-65 46,-55 L42,-10" fill="#0ea5e9" fill-opacity="0.1" stroke="#38bdf8" stroke-width="2" stroke-linecap="round" /><path d="M40,15 L55,-25 Q60,-35 68,-30 Q75,-25 70,-15 L50,25" fill="#0ea5e9" fill-opacity="0.1" stroke="#38bdf8" stroke-width="2" stroke-linecap="round" /></g><rect x="160" y="240" width="192" height="10" fill="url(#scanlineGrad)" opacity="0.6" style="mix-blend-mode: screen;" /><line x1="165" y1="245" x2="347" y2="245" stroke="#7dd3fc" stroke-width="1" stroke-opacity="0.8" filter="url(#glow)" /><path d="M180,150 L220,150 L190,340" fill="url(#scanlineGrad)" opacity="0.1" /><path d="M300,160 L310,160 L305,190" stroke="#fff" stroke-width="1" stroke-opacity="0.1" /><path d="M190,320 L200,330" stroke="#fff" stroke-width="0.5" stroke-opacity="0.2" /><circle cx="150" cy="120" r="4" fill="#1f2937" stroke="#000" stroke-width="1"/><circle cx="150" cy="120" r="2" fill="#ef4444"><animate attributeName="opacity" values="1;0.5;1" dur="2s" repeatCount="indefinite" /></circle><rect x="360" y="115" width="12" height="6" rx="1" fill="#064e3b" /><rect x="362" y="117" width="8" height="2" fill="#10b981" opacity="0.3" /><path d="M150,375 L362,375" stroke="#000" stroke-width="1" stroke-opacity="0.5" /><path d="M152,376 L360,376" stroke="#4b5563" stroke-width="1" stroke-opacity="0.3" /><g fill="#111827"><rect x="200" y="385" width="20" height="4" rx="1" /><rect x="230" y="385" width="20" height="4" rx="1" /><rect x="260" y="385" width="20" height="4" rx="1" /><rect x="290" y="385" width="20" height="4" rx="1" /></g><path d="M135,380 Q145,390 150,395" stroke="#000" stroke-width="1" stroke-opacity="0.4" fill="none"/><path d="M375,350 L370,360" stroke="#000" stroke-width="1" stroke-opacity="0.3" fill="none"/></svg>