<svg xmlns="http://www.w3.org/2000/svg" viewBox="0 0 512 512" width="512" height="512" shape-rendering="geometricPrecision">
  <defs>
    
    <radialGradient id="stoneGrad" cx="50%" cy="50%" r="50%" fx="20%" fy="20%">
      <stop offset="0%" stop-color="#6e7278" />
      <stop offset="100%" stop-color="#3b3e42" />
    </radialGradient>
    
    
    <radialGradient id="bubbleGrad" cx="40%" cy="40%" r="50%">
      <stop offset="0%" stop-color="#d96c6c" />
      <stop offset="70%" stop-color="#8f2d2d" />
      <stop offset="100%" stop-color="#5e1b1b" />
    </radialGradient>

    
    <filter id="crackBlur" x="-50%" y="-50%" width="200%" height="200%">
      <feGaussianBlur in="SourceGraphic" stdDeviation="1" />
    </filter>
  </defs>

  
  <path d="M40,60 Q20,256 40,452 Q256,480 472,452 Q492,256 472,60 Q256,32 40,60 Z" fill="#000000" fill-opacity="0.4" transform="translate(10, 15) scale(0.95)" filter="url(#crackBlur)"/>

  
  <path d="M45,65 L55,55 L80,60 L120,45 L256,40 L390,45 L430,60 L460,55 L470,70 L475,256 L470,442 L460,457 L430,452 L390,467 L256,472 L120,467 L80,452 L55,457 L45,442 L40,256 Z" fill="url(#stoneGrad)" stroke="#2a2d30" stroke-width="2"/>

  
  <g fill="#222" fill-opacity="0.15">
    <circle cx="100" cy="100" r="40" />
    <circle cx="400" cy="400" r="50" />
    <path d="M200,200 L250,220 L230,280 Z" />
    <path d="M350,150 L380,180 L340,200 Z" />
    <circle cx="150" cy="350" r="30" />
    <path d="M50,256 L100,250 L80,300 Z" />
    <path d="M450,256 L400,260 L420,210 Z" />
  </g>

  
  <g stroke="#1a1c1e" stroke-width="3" fill="none" stroke-linecap="round" stroke-linejoin="round">
    <path d="M60,80 L120,140 L110,180" />
    <path d="M450,430 L380,380 L390,340" />
    <path d="M256,40 L266,90 L246,120" />
  </g>

  
  
  <g fill="#a63c3c" opacity="0.9">
    
    <path d="M150,200 Q130,180 150,160 Q170,140 190,160 Q210,180 190,200 L180,220 L200,280 L180,320 L160,280 L140,320 L120,280 L140,220 Z M130,160 L110,140 L120,170 M210,160 L230,140 L220,170" />
    
    <path d="M220,240 L100,300" stroke="#a63c3c" stroke-width="8" stroke-linecap="round" />
    
    
    <path d="M350,220 Q330,200 350,180 Q370,160 390,180 Q410,200 390,220 L380,240 L400,300 L380,340 L360,300 L340,340 L320,300 L340,240 Z M330,180 L310,160 L320,190 M410,180 L430,160 L420,190" />
    
    <path d="M420,260 L440,220 L460,230 L430,280" />
    
    
    <path d="M256,100 Q300,120 256,140 Q210,120 256,100 Z" />
    <path d="M256,400 Q300,380 256,360 Q210,380 256,400 Z" />
  </g>

  
  
  
  <g fill="#4a4e52" opacity="0.8"> 
    
    <path d="M160,220 L170,230 L165,240 L155,235 Z" />
    <path d="M190,280 L200,285 L195,300 L185,290 Z" />
    
    <path d="M360,240 L375,245 L365,260 Z" />
    <path d="M350,200 L360,205 L355,215 Z" />
    
    <path d="M250,115 L260,115 L255,125 Z" />
  </g>

  
  <g>
    
    <circle cx="175" cy="190" r="8" fill="url(#bubbleGrad)" stroke="#7a2a2a" stroke-width="1" />
    <ellipse cx="173" cy="188" rx="2" ry="1.5" fill="#e89090" opacity="0.6" /> 
    
    
    <circle cx="365" cy="280" r="10" fill="url(#bubbleGrad)" stroke="#7a2a2a" stroke-width="1" />
    <ellipse cx="362" cy="277" rx="3" ry="2" fill="#e89090" opacity="0.6" />

    
    <circle cx="256" cy="380" r="6" fill="url(#bubbleGrad)" />
    <circle cx="265" cy="385" r="5" fill="url(#bubbleGrad)" />
    
    
    <circle cx="130" cy="290" r="7" fill="url(#bubbleGrad)" />
  </g>

  
  
  <g fill="#d68c8c" stroke="#5e1b1b" stroke-width="0.5">
    
    <path d="M145,180 Q140,175 145,170 L150,175 Z">
      <desc>Curled edge</desc>
    </path>
    <path d="M148,178 L152,182 L148,185" fill="#000" opacity="0.5" stroke="none" /> 

    
    <path d="M160,270 L170,265 Q175,270 170,275 Z" />
    <path d="M168,272 L172,276" stroke="#000" opacity="0.5" />

    
    <path d="M380,260 Q390,250 385,240 L375,250 Z" />
    <path d="M382,255 L388,262" stroke="#000" stroke-width="2" opacity="0.4" />
    
    
    <path d="M220,120 L225,115 L230,120 Z" />
    <path d="M300,400 L305,390 L295,395 Z" />
  </g>

  
  <path d="M100,200 L180,220 L220,200" stroke="#222" stroke-width="1.5" fill="none" opacity="0.7" />
  <path d="M400,300 L350,320 L300,310" stroke="#222" stroke-width="1.5" fill="none" opacity="0.7" />

  
  <g opacity="0.3" fill="#3f3630">
    <path d="M0,0 L512,0 L512,512 L0,512 Z M45,65 L470,70 L470,442 L45,442 Z" fill-rule="evenodd" /> 
    
    <path d="M200,400 Q220,420 240,400 Q260,380 240,360 Q220,340 200,360 Z" filter="url(#crackBlur)" />
    <path d="M400,100 Q420,120 400,140 Q380,120 360,100 Z" filter="url(#crackBlur)" />
  </g>
  
  
  <path d="M45,65 L256,40 L470,70" stroke="#8a8e94" stroke-width="2" fill="none" stroke-linecap="round" opacity="0.6"/>
  <path d="M45,65 L55,55 L80,60" stroke="#8a8e94" stroke-width="2" fill="none" opacity="0.6"/>

</svg>