<svg viewBox="0 0 512 512" xmlns="http://www.w3.org/2000/svg" shape-rendering="geometricPrecision" width="512" height="512">
  <defs>
    
    <linearGradient id="oakGradient" x1="0%" y1="0%" x2="100%" y2="100%">
      <stop offset="0%" stop-color="#8d6e63" />
      <stop offset="50%" stop-color="#6d4c41" />
      <stop offset="100%" stop-color="#4e342e" />
    </linearGradient>
    
    <linearGradient id="paperGradient" x1="0%" y1="0%" x2="100%" y2="0%">
      <stop offset="0%" stop-color="#e0e0e0" />
      <stop offset="10%" stop-color="#f5f5f5" />
      <stop offset="90%" stop-color="#f5f5f5" />
      <stop offset="100%" stop-color="#e0e0e0" />
    </linearGradient>
    
    <linearGradient id="goldGradient" x1="0%" y1="0%" x2="100%" y2="100%">
      <stop offset="0%" stop-color="#ffd700" />
      <stop offset="50%" stop-color="#ffb300" />
      <stop offset="100%" stop-color="#ffd700" />
    </linearGradient>
    
    <linearGradient id="redLeather" x1="0%" y1="0%" x2="0%" y2="100%">
      <stop offset="0%" stop-color="#b71c1c" />
      <stop offset="100%" stop-color="#7f0000" />
    </linearGradient>
     
    <linearGradient id="blueLeather" x1="0%" y1="0%" x2="0%" y2="100%">
      <stop offset="0%" stop-color="#1a237e" />
      <stop offset="100%" stop-color="#0d47a1" />
    </linearGradient>
    
    <filter id="grainFilter">
      <feTurbulence type="fractalNoise" baseFrequency="0.8" numOctaves="3" stitchTiles="stitch" />
      <feColorMatrix type="matrix" values="1 0 0 0 0  0 1 0 0 0  0 0 1 0 0  0 0 0 0.1 0" />
      <feComposite operator="in" in2="SourceGraphic" />
    </filter>
  </defs>

  
  <rect x="60" y="130" width="392" height="252" rx="10" fill="#000000" fill-opacity="0.4" filter="blur(8px)" />

  
  
  <rect x="56" y="128" width="400" height="256" rx="6" fill="url(#oakGradient)" stroke="#3e2723" stroke-width="2" />
  
  
  <g fill="none" stroke="#3e2723" stroke-opacity="0.2" stroke-width="2" stroke-linecap="round">
    <path d="M70 140 Q 200 130 400 150" />
    <path d="M60 180 Q 250 190 450 170" />
    <path d="M80 220 Q 200 210 420 230" />
    <path d="M60 260 Q 250 270 440 250" />
    <path d="M90 300 Q 200 290 430 310" />
    <path d="M70 340 Q 250 350 450 330" />
    
    <ellipse cx="150" cy="200" rx="15" ry="5" stroke-width="3" opacity="0.4" />
    <ellipse cx="380" cy="300" rx="20" ry="8" stroke-width="3" opacity="0.4" />
  </g>

  
  <path d="M60 130 L452 130 L452 380" fill="none" stroke="#a1887f" stroke-width="2" stroke-opacity="0.6" />
  <path d="M60 130 L60 380 L452 380" fill="none" stroke="#3e2723" stroke-width="4" stroke-opacity="0.5" />

  
  <g fill="#424242" stroke="#212121" stroke-width="1">
    <path d="M56 128 L96 128 L56 168 Z" />
    <path d="M456 128 L416 128 L456 168 Z" />
    <path d="M56 384 L96 384 L56 344 Z" />
    <path d="M456 384 L416 384 L456 344 Z" />
    
    <circle cx="65" cy="138" r="3" fill="#9e9e9e" stroke="none"/>
    <circle cx="447" cy="138" r="3" fill="#9e9e9e" stroke="none"/>
    <circle cx="65" cy="374" r="3" fill="#9e9e9e" stroke="none"/>
    <circle cx="447" cy="374" r="3" fill="#9e9e9e" stroke="none"/>
  </g>

  
  <g transform="translate(80, 160) rotate(-5)">
    
    <rect x="-5" y="5" width="140" height="180" rx="4" fill="#000000" fill-opacity="0.3" />
    
    
    <rect x="0" y="0" width="140" height="180" rx="3" fill="url(#blueLeather)" stroke="#0d47a1" stroke-width="1" />
    
    <rect x="10" y="0" width="120" height="180" fill="none" stroke="#1565c0" stroke-width="1" opacity="0.5"/> 
    <rect x="110" y="10" width="20" height="40" fill="#f5f5f5" rx="2" opacity="0.8"/> 
    <path d="M0 5 L140 5" stroke="#000000" stroke-opacity="0.2"/>
    <path d="M0 175 L140 175" stroke="#000000" stroke-opacity="0.2"/>
    
    <path d="M0 0 L20 0 L0 20 Z" fill="url(#goldGradient)" />
    <path d="M140 0 L120 0 L140 20 Z" fill="url(#goldGradient)" />
    <path d="M140 180 L120 180 L140 160 Z" fill="url(#goldGradient)" />
    <path d="M0 180 L20 180 L0 160 Z" fill="url(#goldGradient)" />

    
    <g transform="translate(10, 20) rotate(10)">
      <rect x="-2" y="2" width="110" height="140" rx="3" fill="#000000" fill-opacity="0.3" /> 
      <rect x="0" y="0" width="110" height="140" rx="2" fill="url(#redLeather)" stroke="#7f0000" stroke-width="1" />
      
      <rect x="0" y="0" width="15" height="140" fill="#000000" fill-opacity="0.15" />
      <line x1="15" y1="0" x2="15" y2="140" stroke="#5c0000" stroke-width="1" />
      
      <circle cx="60" cy="70" r="15" fill="none" stroke="url(#goldGradient)" stroke-width="2" />
      <path d="M60 55 L60 85 M45 70 L75 70" stroke="url(#goldGradient)" stroke-width="1" />
    </g>
  </g>

  
  <g transform="translate(280, 200) rotate(2)">
    
    <path d="M-5 5 L195 5 L195 135 L-5 135 Z" fill="#000000" fill-opacity="0.2" filter="blur(2px)" />
    
    
    <rect x="-5" y="-5" width="200" height="140" rx="2" fill="#3e2723" />
    
    
    <path d="M0 0 L90 0 L95 130 L5 130 Z" fill="#f5f5dc" stroke="#e0e0d0" stroke-width="0.5" />
    <path d="M5 130 L95 130 L95 135 L5 135 Z" fill="#e0e0d0" /> 
    
    
    <path d="M95 0 L185 0 L190 130 L100 130 Z" fill="#f5f5dc" stroke="#e0e0d0" stroke-width="0.5" />
    <path d="M100 130 L190 130 L190 135 L100 135 Z" fill="#e0e0d0" /> 
    
    
    <rect x="92" y="0" width="6" height="130" fill="#000000" fill-opacity="0.15" filter="blur(1px)" />
    
    
    <g stroke="#5d4037" stroke-width="1.5" stroke-opacity="0.6" stroke-linecap="round">
        <line x1="10" y1="20" x2="80" y2="20" />
        <line x1="10" y1="30" x2="80" y2="30" />
        <line x1="10" y1="40" x2="60" y2="40" />
        <line x1="10" y1="50" x2="80" y2="50" />
        <line x1="10" y1="60" x2="70" y2="60" />
        <line x1="10" y1="70" x2="80" y2="70" />
        <line x1="10" y1="80" x2="50" y2="80" />
    </g>
    
    
    <g stroke="#5d4037" stroke-width="1.5" stroke-opacity="0.6" stroke-linecap="round">
        <line x1="105" y1="20" x2="175" y2="20" />
        <line x1="105" y1="30" x2="175" y2="30" />
        <line x1="105" y1="40" x2="155" y2="40" />
        <line x1="105" y1="50" x2="175" y2="50" />
        <line x1="105" y1="60" x2="165" y2="60" />
        <line x1="105" y1="70" x2="175" y2="70" />
        
        
        <circle cx="150" cy="100" r="12" fill="none" stroke="#b71c1c" stroke-width="2" opacity="0.7" />
        <path d="M140 100 L160 100" stroke="#b71c1c" stroke-width="2" opacity="0.7" />
    </g>
    
    
    <path d="M95 0 L95 110 L100 105 L105 110 L105 0" fill="#d32f2f" />
  </g>

  
  <g transform="translate(350, 140) rotate(-15)">
      
      <rect x="2" y="2" width="80" height="20" rx="5" fill="#000000" fill-opacity="0.3" />
      
      <rect x="0" y="0" width="80" height="20" rx="5" fill="#fff9c4" stroke="#fbc02d" stroke-width="1" />
      
      <ellipse cx="5" cy="10" rx="3" ry="8" fill="#fbc02d" />
      <ellipse cx="75" cy="10" rx="3" ry="8" fill="#fff59d" stroke="#fbc02d" stroke-width="1" />
      
      <path d="M75 10 m-2 0 a 1 1 0 1 0 2 0" fill="none" stroke="#f57f17" stroke-width="1" />
      
      <rect x="38" y="0" width="4" height="20" fill="#d84315" />
  </g>

  
  <g transform="translate(420, 240)">
      
      <circle cx="2" cy="2" r="12" fill="#000000" fill-opacity="0.3" />
      
      <circle cx="0" cy="0" r="12" fill="#424242" stroke="#212121" stroke-width="1" />
      <circle cx="0" cy="0" r="8" fill="#000000" /> 
      <circle cx="2" cy="-2" r="3" fill="#ffffff" opacity="0.4" /> 
      
      
      <path d="M0 0 L20 -40 Q 30 -60 50 -70 Q 30 -50 30 -30 L 10 5 Z" fill="#eeeeee" stroke="#bdbdbd" stroke-width="0.5" transform="rotate(20)" />
      <path d="M20 -40 L 50 -70" stroke="#e0e0e0" stroke-width="1" fill="none" transform="rotate(20)"/>
  </g>

  
  <g pointer-events="none">
     
     <path d="M100 350 L120 345 M300 160 L320 165" stroke="#000000" stroke-width="0.5" opacity="0.2" />
     
     
     <radialGradient id="topHighlight" cx="30%" cy="30%" r="70%">
        <stop offset="0%" stop-color="#ffffff" stop-opacity="0.1" />
        <stop offset="100%" stop-color="#000000" stop-opacity="0.1" />
     </radialGradient>
     <rect x="56" y="128" width="400" height="256" rx="6" fill="url(#topHighlight)" style="mix-blend-mode: overlay;" />
  </g>

</svg>