<svg xmlns="http://www.w3.org/2000/svg" viewBox="0 0 512 512" width="512" height="512"><defs><filter id="noiseTexture" x="-20%" y="-20%" width="140%" height="140%"><feTurbulence type="fractalNoise" baseFrequency="0.7" numOctaves="4" result="noise" /><feColorMatrix type="matrix" values="1 0 0 0 0  0 1 0 0 0  0 0 1 0 0  0 0 0 0.3 0" in="noise" result="coloredNoise" /><feComposite operator="in" in="coloredNoise" in2="SourceGraphic" result="composite" /><feBlend mode="multiply" in="composite" in2="SourceGraphic" /></filter><filter id="softShadow" x="-50%" y="-50%" width="200%" height="200%"><feGaussianBlur in="SourceAlpha" stdDeviation="6" result="blur" /><feColorMatrix type="matrix" values="0 0 0 0 0  0 0 0 0 0  0 0 0 0 0  0 0 0 0.6 0" in="blur" /></filter><filter id="innerShadow" x="-20%" y="-20%" width="140%" height="140%"><feGaussianBlur in="SourceAlpha" stdDeviation="2" result="blur"/><feOffset dx="0" dy="2" result="offsetBlur"/><feComposite in="offsetBlur" in2="SourceAlpha" operator="arithmetic" k2="-1" k3="1" result="shadowDiff"/><feFlood flood-color="#000" flood-opacity="0.5"/><feComposite in2="shadowDiff" operator="in"/><feComposite in2="SourceGraphic" operator="over"/></filter><linearGradient id="cableGrad1" x1="0%" y1="0%" x2="0%" y2="100%"><stop offset="0%" stop-color="#2a2a2a" /><stop offset="40%" stop-color="#4a4a4a" /><stop offset="100%" stop-color="#1a1a1a" /></linearGradient><linearGradient id="cableGrad2" x1="0%" y1="0%" x2="0%" y2="100%"><stop offset="0%" stop-color="#2d3436" /><stop offset="40%" stop-color="#636e72" /><stop offset="100%" stop-color="#1e272e" /></linearGradient><linearGradient id="cableGradYellow" x1="0%" y1="0%" x2="0%" y2="100%"><stop offset="0%" stop-color="#b7791f" /><stop offset="40%" stop-color="#f6e05e" /><stop offset="100%" stop-color="#744210" /></linearGradient><linearGradient id="tapeGrad" x1="0%" y1="0%" x2="100%" y2="0%"><stop offset="0%" stop-color="#4a5568" /><stop offset="50%" stop-color="#a0aec0" /><stop offset="100%" stop-color="#2d3748" /></linearGradient></defs><g transform="translate(0,0)"><path id="guidePath" d="M -20,380 C 120,380 180,200 280,220 C 380,240 420,320 540,300" fill="none" stroke="none"/><g filter="url(#softShadow)" transform="translate(0, 8)"><path d="M -20,390 C 120,390 180,210 280,230 C 380,250 420,330 540,310"              stroke="black" stroke-width="70" fill="none" stroke-linecap="round"/></g><g><path d="M -20,390 C 120,390 180,210 280,230 C 380,250 420,330 540,310"             stroke="#1a1a1a" stroke-width="42" fill="none" stroke-linecap="round"/><path d="M -20,388 C 120,388 180,208 280,228 C 380,248 420,328 540,308"             stroke="#333333" stroke-width="20" fill="none" stroke-linecap="round"/><path d="M -20,390 C 120,390 180,210 280,230 C 380,250 420,330 540,310"             stroke="#222" stroke-width="42" fill="none" stroke-linecap="round" filter="url(#noiseTexture)" opacity="0.6"/></g><g transform="translate(0, -15)"><path d="M -20,390 C 120,390 180,210 280,230 C 380,250 420,330 540,310"             stroke="#2d3436" stroke-width="36" fill="none" stroke-linecap="round"/><path d="M -20,387 C 120,387 180,207 280,227 C 380,247 420,327 540,307"             stroke="#4b5563" stroke-width="18" fill="none" stroke-linecap="round"/><path d="M -20,385 C 120,385 180,205 280,225 C 380,245 420,325 540,305"             stroke="#718096" stroke-width="4" fill="none" stroke-linecap="round" opacity="0.4"/><path d="M -20,390 C 120,390 180,210 280,230 C 380,250 420,330 540,310"             stroke="#333" stroke-width="36" fill="none" stroke-linecap="round" filter="url(#noiseTexture)" opacity="0.5"/></g><g transform="translate(5, -30)"><path d="M -20,390 C 120,390 180,210 280,230 C 380,250 420,330 540,310"             stroke="#5d3a00" stroke-width="26" fill="none" stroke-linecap="round"/><path d="M -20,390 C 120,390 180,210 280,230 C 380,250 420,330 540,310"             stroke="#d69e2e" stroke-width="22" fill="none" stroke-linecap="round"/><path d="M -20,388 C 120,388 180,208 280,228 C 380,248 420,328 540,308"             stroke="#fbd38d" stroke-width="8" fill="none" stroke-linecap="round"/><path d="M -20,387 C 120,387 180,207 280,227 C 380,247 420,327 540,307"             stroke="#fff" stroke-width="2" fill="none" stroke-linecap="round" opacity="0.5"/><path d="M -20,390 C 120,390 180,210 280,230 C 380,250 420,330 540,310"             stroke="#222" stroke-width="22" fill="none" stroke-linecap="round" stroke-dasharray="10, 20" opacity="0.7" transform="translate(0,0)"/><path d="M -20,390 C 120,390 180,210 280,230 C 380,250 420,330 540,310"             stroke="#000" stroke-width="22" fill="none" stroke-linecap="round" filter="url(#noiseTexture)" opacity="0.2"/></g><g transform="translate(-10, -5)"><path d="M -20,410 C 100,410 180,230 280,250 C 330,260 360,300 420,310 C 480,320 520,300 540,300"             stroke="#742a2a" stroke-width="10" fill="none" stroke-linecap="round"/><path d="M -20,410 C 100,410 180,230 280,250 C 330,260 360,300 420,310 C 480,320 520,300 540,300"             stroke="#c53030" stroke-width="6" fill="none" stroke-linecap="round"/><path d="M -20,409 C 100,409 180,229 280,249 C 330,259 360,299 420,309 C 480,319 520,299 540,299"             stroke="#fc8181" stroke-width="2" fill="none" stroke-linecap="round" opacity="0.6"/></g><g transform="translate(190, 260) rotate(-70)"><rect x="-25" y="-45" width="50" height="90" rx="3" fill="url(#tapeGrad)" stroke="#2d3748" stroke-width="1"/><path d="M -25,-15 L 25,-15" stroke="#2d3748" stroke-width="1" opacity="0.5"/><path d="M -25,15 L 25,15" stroke="#2d3748" stroke-width="1" opacity="0.5"/><path d="M -15,-40 L -15,40" stroke="#fff" stroke-width="5" opacity="0.15" stroke-linecap="round"/><path d="M -25,-45 L 25,-45 L 25,45 L -25,45" fill="url(#noiseTexture)" opacity="0.3"/></g><g transform="translate(420, 305) rotate(10)"><rect x="-10" y="-35" width="20" height="75" rx="2" fill="#111" stroke="#000" stroke-width="1"/><path d="M -5,-30 L -5,35" stroke="#555" stroke-width="2" opacity="0.6" stroke-linecap="round"/><rect x="5" y="-10" width="10" height="14" rx="2" fill="#222" stroke="#000" stroke-width="1"/></g><g transform="translate(60, 360) rotate(0)"><rect x="-20" y="-40" width="40" height="85" rx="2" fill="url(#tapeGrad)" stroke="#2d3748" stroke-width="1"/><path d="M -10,-35 L -10,35" stroke="#fff" stroke-width="4" opacity="0.15" stroke-linecap="round"/></g><circle cx="250" cy="240" r="30" fill="#000" opacity="0.3" filter="url(#noiseTexture)"/><ellipse cx="380" cy="280" rx="40" ry="20" fill="#1a1a1a" opacity="0.4" filter="url(#noiseTexture)"/><g opacity="0.6" stroke="#fff" stroke-width="0.5"><path d="M 270,220 L 280,225 M 275,218 L 285,222" /><path d="M 150,320 L 160,325" /></g></g></svg>