<svg xmlns="http://www.w3.org/2000/svg" viewBox="0 0 512 512" width="512" height="512"><defs><radialGradient id="housingGrad" cx="256" cy="256" r="220" gradientUnits="userSpaceOnUse"><stop offset="0%" stop-color="#fdfdfd" /><stop offset="70%" stop-color="#e0e4e8" /><stop offset="95%" stop-color="#aeb5bc" /><stop offset="100%" stop-color="#8a9299" /></radialGradient><radialGradient id="domeInterior" cx="256" cy="256" r="140" gradientUnits="userSpaceOnUse"><stop offset="0%" stop-color="#2a2a35" /><stop offset="80%" stop-color="#15151a" /><stop offset="100%" stop-color="#08080a" /></radialGradient><linearGradient id="lensReflect" x1="0" y1="0" x2="1" y2="1"><stop offset="0%" stop-color="#4a5a75" stop-opacity="0.9" /><stop offset="50%" stop-color="#1a2a35" stop-opacity="0.8" /><stop offset="100%" stop-color="#050505" stop-opacity="0.9" /></linearGradient><linearGradient id="glassSheen" x1="200" y1="200" x2="300" y2="300" gradientUnits="userSpaceOnUse"><stop offset="0%" stop-color="#ffffff" stop-opacity="0.8" /><stop offset="40%" stop-color="#ffffff" stop-opacity="0.1" /><stop offset="100%" stop-color="#ffffff" stop-opacity="0.0" /></linearGradient><radialGradient id="ledGlow" cx="0.5" cy="0.5" r="0.5"><stop offset="0%" stop-color="#ff5555" stop-opacity="1" /><stop offset="40%" stop-color="#ff0000" stop-opacity="0.6" /><stop offset="100%" stop-color="#ff0000" stop-opacity="0" /></radialGradient><filter id="softShadow" x="-50%" y="-50%" width="200%" height="200%"><feGaussianBlur in="SourceAlpha" stdDeviation="6" result="blur" /><feOffset in="blur" dx="0" dy="8" result="offsetBlur" /><feComponentTransfer><feFuncA type="linear" slope="0.4" /></feComponentTransfer><feMerge><feMergeNode in="offsetBlur" /><feMergeNode in="SourceGraphic" /></feMerge></filter></defs><g transform="translate(0,0)" filter="url(#softShadow)"><circle cx="256" cy="256" r="220" fill="url(#housingGrad)" stroke="#6e767f" stroke-width="2" /><circle cx="256" cy="256" r="205" fill="none" stroke="#bdc3c9" stroke-width="1.5" stroke-dasharray="10, 5" opacity="0.6" /><circle cx="256" cy="256" r="160" fill="none" stroke="#9ea5ab" stroke-width="3" /><path d="M100 256 Q 110 300 80 320" fill="none" stroke="#8a9299" stroke-width="15" stroke-opacity="0.1" stroke-linecap="round" filter="url(#softShadow)" /><path d="M400 200 Q 420 220 440 180" fill="none" stroke="#8a9299" stroke-width="20" stroke-opacity="0.08" stroke-linecap="round" /><path d="M256 60 Q 280 80 256 90" fill="none" stroke="#70767c" stroke-width="2" stroke-opacity="0.3" stroke-linecap="round" /><g fill="#5e666e" stroke="#3e464e" stroke-width="1"><circle cx="256" cy="55" r="6" /><path d="M256 50 L256 60 M251 55 L261 55" stroke="#3e464e" stroke-width="2" /><circle cx="256" cy="457" r="6" /><path d="M256 452 L256 462 M251 457 L261 457" stroke="#3e464e" stroke-width="2" /><circle cx="55" cy="256" r="6" /><path d="M50 256 L60 256 M55 251 L55 261" stroke="#3e464e" stroke-width="2" /><circle cx="457" cy="256" r="6" /><path d="M452 256 L462 256 M457 251 L457 261" stroke="#3e464e" stroke-width="2" /></g><circle cx="256" cy="256" r="145" fill="#1a1a20" stroke="#000000" stroke-width="2" /><circle cx="256" cy="256" r="135" fill="url(#domeInterior)" /><g transform="rotate(25, 256, 256)"><rect x="206" y="196" width="100" height="120" rx="20" fill="#252530" stroke="#101015" stroke-width="2" /><circle cx="256" cy="256" r="45" fill="#111115" stroke="#3a3a45" stroke-width="3" /><circle cx="256" cy="256" r="35" fill="#000000" /><circle cx="256" cy="256" r="32" fill="url(#lensReflect)" /><path d="M256 230 L265 245 L256 260 L240 250 Z" fill="#050505" opacity="0.5" /><circle cx="245" cy="245" r="8" fill="#ffffff" opacity="0.3" filter="url(#softShadow)" /><circle cx="240" cy="240" r="3" fill="#ffffff" opacity="0.6" /></g><path d="M200 256 Q 180 280 160 256" fill="none" stroke="#1e1e24" stroke-width="4" opacity="0.8" /><path d="M312 256 Q 332 230 352 256" fill="none" stroke="#1e1e24" stroke-width="4" opacity="0.8" /><circle cx="256" cy="256" r="135" fill="#1a202e" fill-opacity="0.4" stroke="#4a505e" stroke-width="1" stroke-opacity="0.3" /><path d="M180 180 Q 256 120 332 180 Q 256 150 180 180" fill="#ffffff" opacity="0.15" /><ellipse cx="220" cy="200" rx="40" ry="25" transform="rotate(-45, 220, 200)" fill="url(#glassSheen)" /><g transform="translate(360, 340)"><circle cx="0" cy="0" r="12" fill="#2a2a2a" stroke="#111" stroke-width="1" /><circle cx="0" cy="0" r="8" fill="#500" /><circle cx="0" cy="0" r="8" fill="#ff2222" /><circle cx="0" cy="0" r="25" fill="url(#ledGlow)" opacity="0.8" style="mix-blend-mode: screen;" /><circle cx="-2" cy="-2" r="3" fill="#ffffff" opacity="0.6" /></g><circle cx="256" cy="256" r="145" fill="none" stroke="#000000" stroke-width="6" stroke-opacity="0.15" /><g stroke="#777" stroke-width="1" stroke-opacity="0.4" fill="none"><path d="M150 100 L160 105" /><path d="M155 102 L158 98" /><path d="M400 350 L390 355" /></g></g></svg>