<svg xmlns="http://www.w3.org/2000/svg" viewBox="0 0 1024 1024" width="1024" height="1024"><defs><linearGradient id="metal-base" x1="0%" y1="0%" x2="100%" y2="100%"><stop offset="0%" stop-color="#3a4046"/><stop offset="50%" stop-color="#25292e"/><stop offset="100%" stop-color="#1a1d21"/></linearGradient><linearGradient id="metal-surface" x1="0%" y1="0%" x2="0%" y2="100%"><stop offset="0%" stop-color="#546e7a"/><stop offset="100%" stop-color="#37474f"/></linearGradient><linearGradient id="ring-metal" x1="0%" y1="0%" x2="100%" y2="100%"><stop offset="0%" stop-color="#cfd8dc"/><stop offset="50%" stop-color="#90a4ae"/><stop offset="100%" stop-color="#607d8b"/></linearGradient><radialGradient id="core-glow" cx="50%" cy="50%" r="50%" fx="50%" fy="50%"><stop offset="0%" stop-color="#ffffff" stop-opacity="1"/><stop offset="40%" stop-color="#00e5ff" stop-opacity="0.9"/><stop offset="80%" stop-color="#0091ea" stop-opacity="0.8"/><stop offset="100%" stop-color="#001040" stop-opacity="1"/></radialGradient><radialGradient id="pulse-gradient" cx="50%" cy="50%" r="50%"><stop offset="0%" stop-color="#80d8ff" stop-opacity="0.6"/><stop offset="100%" stop-color="#00b0ff" stop-opacity="0"/></radialGradient><filter id="glow-blur" x="-50%" y="-50%" width="200%" height="200%"><feGaussianBlur in="SourceGraphic" stdDeviation="15" result="blur"/><feComposite in="blur" in2="SourceGraphic" operator="over"/></filter><filter id="inset-shadow" x="-20%" y="-20%" width="140%" height="140%"><feGaussianBlur in="SourceAlpha" stdDeviation="4"/><feOffset dx="2" dy="4" result="offsetblur"/><feFlood flood-color="black" flood-opacity="0.7"/><feComposite in2="offsetblur" operator="in"/><feComposite in2="SourceAlpha" operator="in"/><feMerge><feMergeNode/><feMergeNode in="SourceGraphic"/></feMerge></filter></defs><ellipse cx="512" cy="512" rx="460" ry="460" fill="#000000" fill-opacity="0.5" filter="url(#glow-blur)"/><path d="M 200,100 L 824,100 L 924,200 L 924,824 L 824,924 L 200,924 L 100,824 L 100,200 Z"         fill="url(#metal-base)" stroke="#1a1d21" stroke-width="4" shape-rendering="geometricPrecision"/><path d="M 220,220 L 804,220 L 804,804 L 220,804 Z"         fill="url(#metal-surface)" stroke="#263238" stroke-width="2" filter="url(#inset-shadow)"/><g fill="#000000" fill-opacity="0.15"><path d="M 230,230 L 250,235 L 235,250 Z" /><path d="M 780,780 L 760,775 L 775,760 Z" /><path d="M 300,700 L 320,705 L 280,720 Z" /><circle cx="512" cy="250" r="10" /><circle cx="512" cy="774" r="10" /><circle cx="250" cy="512" r="10" /><circle cx="774" cy="512" r="10" /></g><g stroke="#101214" stroke-width="6" stroke-linecap="round"><line x1="140" y1="180" x2="180" y2="140" /><line x1="160" y1="200" x2="200" y2="160" /><line x1="884" y1="180" x2="844" y2="140" /><line x1="864" y1="200" x2="824" y2="160" /><line x1="140" y1="844" x2="180" y2="884" /><line x1="160" y1="824" x2="200" y2="864" /><line x1="884" y1="844" x2="844" y2="884" /><line x1="864" y1="824" x2="824" y2="864" /></g><circle cx="512" cy="512" r="320" fill="#111" stroke="#263238" stroke-width="8"/><circle cx="512" cy="512" r="310" fill="none" stroke="#00e5ff" stroke-width="2" stroke-opacity="0.3"/><g fill="none" stroke="#37474f" stroke-width="14" stroke-linecap="round"><path d="M 512,180 L 512,250" /><path d="M 512,844 L 512,774" /><path d="M 180,512 L 250,512" /><path d="M 844,512 L 774,512" /></g><g fill="none" stroke="#546e7a" stroke-width="4" stroke-linecap="round"><path d="M 512,185 L 512,245" /><path d="M 512,839 L 512,779" /><path d="M 185,512 L 245,512" /><path d="M 839,512 L 779,512" /></g><g><animateTransform attributeName="transform" type="rotate" from="0 512 512" to="360 512 512" dur="20s" repeatCount="indefinite"/><path d="M 512,232 A 280,280 0 1,1 511.9,232 Z" fill="none" stroke="#455a64" stroke-width="40"/><g stroke="url(#ring-metal)" stroke-width="32" stroke-dasharray="100 80"><circle cx="512" cy="512" r="280" fill="none"/></g><circle cx="512" cy="232" r="8" fill="#00e5ff" fill-opacity="0.5"/><circle cx="512" cy="792" r="8" fill="#00e5ff" fill-opacity="0.5"/><circle cx="232" cy="512" r="8" fill="#00e5ff" fill-opacity="0.5"/><circle cx="792" cy="512" r="8" fill="#00e5ff" fill-opacity="0.5"/></g><g><animateTransform attributeName="transform" type="rotate" from="360 512 512" to="0 512 512" dur="8s" repeatCount="indefinite"/><circle cx="512" cy="512" r="210" fill="none" stroke="#263238" stroke-width="20"/><path d="M 512,302 L 512,332 M 512,692 L 512,722 M 302,512 L 332,512 M 692,512 L 722,512"           stroke="#bcaaa4" stroke-width="12" stroke-linecap="square" /><path d="M 370,370 L 390,390 M 654,654 L 634,634 M 370,654 L 390,634 M 654,370 L 634,390"          stroke="#bcaaa4" stroke-width="12" stroke-linecap="square" /><circle cx="512" cy="512" r="200" fill="none" stroke="#cfd8dc" stroke-width="4" stroke-dasharray="20 40"/></g><g><animate attributeName="opacity" values="0.9;1;0.9" dur="2s" repeatCount="indefinite"/><circle cx="512" cy="512" r="160" fill="url(#core-glow)" /><path d="M 450,450 Q 512,400 580,460 T 600,580 Q 512,620 440,560 T 450,450"           fill="#ffffff" fill-opacity="0.3" filter="url(#glow-blur)"><animateTransform attributeName="transform" type="rotate" from="0 512 512" to="-360 512 512" dur="10s" repeatCount="indefinite"/></path><g stroke="#ffffff" stroke-width="4" fill="none" opacity="0.8"><path d="M 450,380 A 140,140 0 0,1 574,380" /><path d="M 644,450 A 140,140 0 0,1 644,574" /><path d="M 574,644 A 140,140 0 0,1 450,644" /><path d="M 380,574 A 140,140 0 0,1 380,450" /></g></g><circle cx="512" cy="512" r="240" fill="url(#pulse-gradient)" opacity="0.3" pointer-events="none"/><path d="M 202,102 L 822,102 L 922,202" fill="none" stroke="#78909c" stroke-width="2" stroke-opacity="0.6"/><path d="M 102,202 L 102,822" fill="none" stroke="#78909c" stroke-width="2" stroke-opacity="0.4"/><circle cx="250" cy="250" r="6" fill="#ff3d00"><animate attributeName="opacity" values="1;0.3;1" dur="1s" repeatCount="indefinite"/></circle><circle cx="774" cy="250" r="6" fill="#ff3d00"><animate attributeName="opacity" values="1;0.3;1" dur="1s" repeatCount="indefinite" begin="0.5s"/></circle><circle cx="250" cy="774" r="6" fill="#ff3d00"><animate attributeName="opacity" values="1;0.3;1" dur="1s" repeatCount="indefinite" begin="0.2s"/></circle><circle cx="774" cy="774" r="6" fill="#ff3d00"><animate attributeName="opacity" values="1;0.3;1" dur="1s" repeatCount="indefinite" begin="0.7s"/></circle><path d="M 300,800 Q 320,820 350,810 T 380,830" fill="none" stroke="#000000" stroke-width="10" stroke-opacity="0.2" filter="url(#glow-blur)"/></svg>