<svg xmlns="http://www.w3.org/2000/svg" viewBox="0 0 512 512" width="512" height="512" shape-rendering="geometricPrecision"><defs><linearGradient id="metalDark" x1="0%" y1="0%" x2="0%" y2="100%"><stop offset="0%" stop-color="#3a404a"/><stop offset="50%" stop-color="#2b3038"/><stop offset="100%" stop-color="#1a1d24"/></linearGradient><linearGradient id="metalLight" x1="0%" y1="0%" x2="100%" y2="100%"><stop offset="0%" stop-color="#757d8a"/><stop offset="50%" stop-color="#545b66"/><stop offset="100%" stop-color="#3a404a"/></linearGradient><linearGradient id="brass" x1="0%" y1="0%" x2="100%" y2="0%"><stop offset="0%" stop-color="#b88a4d"/><stop offset="30%" stop-color="#ffd68a"/><stop offset="50%" stop-color="#b88a4d"/><stop offset="80%" stop-color="#8a602e"/><stop offset="100%" stop-color="#5c3d1a"/></linearGradient><linearGradient id="brassCyl" x1="0%" y1="0%" x2="0%" y2="100%"><stop offset="0%" stop-color="#8a602e"/><stop offset="20%" stop-color="#ffd68a"/><stop offset="50%" stop-color="#b88a4d"/><stop offset="100%" stop-color="#5c3d1a"/></linearGradient><linearGradient id="liquidGreen" x1="0%" y1="0%" x2="0%" y2="100%"><stop offset="0%" stop-color="#4eff4e"/><stop offset="100%" stop-color="#008f00"/></linearGradient><radialGradient id="liquidGlow" cx="50%" cy="50%" r="50%"><stop offset="0%" stop-color="#aaffaa" stop-opacity="0.9"/><stop offset="70%" stop-color="#00cc00" stop-opacity="0.6"/><stop offset="100%" stop-color="#003300" stop-opacity="0.8"/></radialGradient><linearGradient id="liquidBlue" x1="0%" y1="0%" x2="0%" y2="100%"><stop offset="0%" stop-color="#4eeeff"/><stop offset="100%" stop-color="#005f8f"/></linearGradient><linearGradient id="glassShine" x1="0%" y1="0%" x2="100%" y2="0%"><stop offset="0%" stop-color="#ffffff" stop-opacity="0.1"/><stop offset="45%" stop-color="#ffffff" stop-opacity="0.1"/><stop offset="50%" stop-color="#ffffff" stop-opacity="0.6"/><stop offset="55%" stop-color="#ffffff" stop-opacity="0.1"/><stop offset="100%" stop-color="#ffffff" stop-opacity="0.0"/></linearGradient><filter id="dropShadow" x="-20%" y="-20%" width="140%" height="140%"><feGaussianBlur in="SourceAlpha" stdDeviation="6"/><feOffset dx="2" dy="4" result="offsetblur"/><feComponentTransfer><feFuncA type="linear" slope="0.6"/></feComponentTransfer><feMerge><feMergeNode/><feMergeNode in="SourceGraphic"/></feMerge></filter></defs><ellipse cx="256" cy="270" rx="200" ry="180" fill="#000000" opacity="0.4" filter="blur(15px)"/><g filter="url(#dropShadow)"><path d="M128,80 L384,80 L424,120 L424,392 L384,432 L128,432 L88,392 L88,120 Z" fill="url(#metalDark)" stroke="#1a1d24" stroke-width="2"/><path d="M130,82 L382,82 L422,122 L422,390 L382,430 L130,430 L90,390 L90,122 Z" fill="none" stroke="url(#metalLight)" stroke-width="2" opacity="0.5"/><circle cx="105" cy="135" r="4" fill="#1a1d24"/><circle cx="105" cy="135" r="2" fill="#545b66"/><circle cx="407" cy="135" r="4" fill="#1a1d24"/><circle cx="407" cy="135" r="2" fill="#545b66"/><circle cx="105" cy="377" r="4" fill="#1a1d24"/><circle cx="105" cy="377" r="2" fill="#545b66"/><circle cx="407" cy="377" r="4" fill="#1a1d24"/><circle cx="407" cy="377" r="2" fill="#545b66"/></g><g transform="translate(110, 150)"><rect x="0" y="0" width="60" height="140" rx="8" fill="#2b3038" stroke="#1a1d24" stroke-width="2"/><rect x="10" y="10" width="40" height="120" rx="4" fill="#001122"/><rect x="12" y="40" width="36" height="88" rx="2" fill="url(#liquidBlue)"/><circle cx="30" cy="100" r="3" fill="#ffffff" opacity="0.6"/><circle cx="25" cy="80" r="2" fill="#ffffff" opacity="0.5"/><path d="M12,12 L50,12 L50,128 L12,128 Z" fill="url(#glassShine)"/><rect x="5" y="5" width="50" height="10" rx="2" fill="url(#brass)"/><rect x="5" y="125" width="50" height="10" rx="2" fill="url(#brass)"/></g><g transform="translate(342, 150)"><rect x="0" y="0" width="60" height="140" rx="8" fill="#2b3038" stroke="#1a1d24" stroke-width="2"/><rect x="10" y="10" width="40" height="120" rx="4" fill="#1a1111"/><rect x="12" y="110" width="36" height="18" rx="2" fill="#8f3030"/><path d="M12,12 L50,12 L50,128 L12,128 Z" fill="url(#glassShine)"/><rect x="5" y="5" width="50" height="10" rx="2" fill="url(#brass)"/><rect x="5" y="125" width="50" height="10" rx="2" fill="url(#brass)"/></g><path d="M170, 220 C200, 220 200, 256 220, 256" stroke="url(#brassCyl)" stroke-width="12" fill="none" stroke-linecap="round"/><path d="M170, 220 C200, 220 200, 256 220, 256" stroke="#000" stroke-width="14" fill="none" stroke-linecap="round" stroke-opacity="0.3" transform="translate(0,2)"/><path d="M342, 220 C312, 220 312, 256 292, 256" stroke="url(#brassCyl)" stroke-width="12" fill="none" stroke-linecap="round"/><g transform="translate(256, 256)"><circle cx="0" cy="0" r="85" fill="#2a2a35" stroke="#111" stroke-width="2"/><circle cx="0" cy="0" r="75" fill="#002200"/><circle cx="0" cy="0" r="70" fill="url(#liquidGlow)"/><path d="M-40,-20 Q0,0 40,-20 T60,20" stroke="#ccffcc" stroke-width="4" fill="none" opacity="0.3" stroke-linecap="round"/><path d="M-50,10 Q-20,40 20,30" stroke="#ccffcc" stroke-width="3" fill="none" opacity="0.2" stroke-linecap="round"/><circle cx="-20" cy="-30" r="6" fill="#fff" opacity="0.4"/><circle cx="10" cy="20" r="8" fill="#fff" opacity="0.3"/><circle cx="35" cy="-10" r="4" fill="#fff" opacity="0.5"/><path d="M-60,-40 Q0,-90 60,-40" fill="none" stroke="#ffffff" stroke-width="15" stroke-opacity="0.15" stroke-linecap="round"/><ellipse cx="-30" cy="-30" rx="15" ry="8" fill="#fff" opacity="0.4" transform="rotate(-45)"/><circle cx="0" cy="0" r="75" fill="none" stroke="url(#brass)" stroke-width="8"/><g fill="#5c3d1a"><circle cx="0" cy="-75" r="3"/><circle cx="75" cy="0" r="3"/><circle cx="0" cy="75" r="3"/><circle cx="-75" cy="0" r="3"/><circle cx="53" cy="-53" r="3"/><circle cx="53" cy="53" r="3"/><circle cx="-53" cy="53" r="3"/><circle cx="-53" cy="-53" r="3"/></g></g><g transform="translate(216, 360)"><rect x="0" y="0" width="80" height="60" rx="5" fill="url(#metalDark)" stroke="#1a1d24" stroke-width="2"/><rect x="10" y="5" width="60" height="20" rx="2" fill="#111" opacity="0.5"/><path d="M20,60 L60,60 L55,80 L25,80 Z" fill="url(#brass)"/><ellipse cx="40" cy="80" rx="15" ry="5" fill="#000"/><ellipse cx="40" cy="80" rx="12" ry="3" fill="#1a1a1a"/><path d="M40,85 Q43,95 40,100 Q37,95 40,85" fill="#4eff4e" opacity="0.8"/></g><g transform="translate(206, 85)"><rect x="0" y="0" width="100" height="30" rx="4" fill="#222" stroke="#444" stroke-width="1"/><circle cx="20" cy="15" r="10" fill="#111" stroke="#888" stroke-width="1"/><path d="M20,15 L26,10" stroke="#f00" stroke-width="1"/><circle cx="50" cy="15" r="10" fill="#111" stroke="#888" stroke-width="1"/><path d="M50,15 L50,6" stroke="#0f0" stroke-width="1"/><circle cx="80" cy="15" r="10" fill="#111" stroke="#888" stroke-width="1"/><path d="M80,15 L74,10" stroke="#f00" stroke-width="1"/></g><g opacity="0.4"><path d="M140,140 L160,142 M400,300 L390,310 M380,120 L370,115" stroke="#000" stroke-width="1"/><path d="M141,141 L161,143 M401,301 L391,311" stroke="#fff" stroke-width="0.5" opacity="0.5"/></g><path d="M130,82 L382,82 L422,122 L422,200 M90,200 L90,122 L130,82" stroke="#ffffff" stroke-width="2" fill="none" opacity="0.3" stroke-linecap="round"/></svg>