<svg xmlns="http://www.w3.org/2000/svg" viewBox="0 0 1024 512" width="1024" height="512"><defs><linearGradient id="mainBodyGrad" x1="0%" y1="0%" x2="0%" y2="100%"><stop offset="0%" stop-color="#3d4c53" /><stop offset="50%" stop-color="#2c3e50" /><stop offset="100%" stop-color="#1a252f" /></linearGradient><linearGradient id="panelGrad" x1="0%" y1="0%" x2="0%" y2="100%"><stop offset="0%" stop-color="#4a5f68" /><stop offset="100%" stop-color="#2e3b44" /></linearGradient><linearGradient id="screenGrad" x1="0%" y1="0%" x2="0%" y2="100%"><stop offset="0%" stop-color="#2e1515" /><stop offset="50%" stop-color="#4a0e0e" /><stop offset="100%" stop-color="#1f0505" /></linearGradient><radialGradient id="warningGlow" cx="50%" cy="50%" r="50%"><stop offset="0%" stop-color="#ff3300" stop-opacity="0.8" /><stop offset="100%" stop-color="#ff3300" stop-opacity="0" /></radialGradient><linearGradient id="glassReflect" x1="0%" y1="0%" x2="100%" y2="100%"><stop offset="0%" stop-color="#ffffff" stop-opacity="0.3" /><stop offset="40%" stop-color="#ffffff" stop-opacity="0.05" /><stop offset="100%" stop-color="#ffffff" stop-opacity="0" /></linearGradient><radialGradient id="buttonGreen" cx="30%" cy="30%" r="70%"><stop offset="0%" stop-color="#2ecc71" /><stop offset="100%" stop-color="#145a32" /></radialGradient><radialGradient id="buttonRed" cx="30%" cy="30%" r="70%"><stop offset="0%" stop-color="#e74c3c" /><stop offset="100%" stop-color="#7b241c" /></radialGradient><linearGradient id="leverSlot" x1="0%" y1="0%" x2="0%" y2="100%"><stop offset="0%" stop-color="#000000" stop-opacity="0.8" /><stop offset="100%" stop-color="#000000" stop-opacity="0.2" /></linearGradient></defs><ellipse cx="512" cy="300" rx="490" ry="190" fill="#000000" fill-opacity="0.4" filter="blur(8px)" /><path d="M60,100 L964,100 C980,100 994,114 994,130 L994,380 C994,400 980,420 964,420 L60,420 C40,420 30,400 30,380 L30,130 C30,114 44,100 60,100 Z"         fill="url(#mainBodyGrad)" stroke="#1a252f" stroke-width="4" shape-rendering="geometricPrecision" /><path d="M30,380 L60,420 L964,420 L994,380 L994,395 L964,435 L60,435 L30,395 Z"         fill="#111820" opacity="0.8" /><path d="M60,100 L964,100" stroke="#7f8c8d" stroke-width="2" stroke-linecap="round" opacity="0.6" /><rect x="70" y="130" width="300" height="260" rx="10" ry="10" fill="#212f3c" stroke="#566573" stroke-width="3" /><circle cx="85" cy="145" r="3" fill="#7f8c8d" /><circle cx="355" cy="145" r="3" fill="#7f8c8d" /><circle cx="85" cy="375" r="3" fill="#7f8c8d" /><circle cx="355" cy="375" r="3" fill="#7f8c8d" /><rect x="90" y="150" width="260" height="220" fill="url(#screenGrad)" /><rect x="130" y="200" width="180" height="80" fill="none" stroke="#e74c3c" stroke-width="2" stroke-dasharray="4,2" /><text x="220" y="245" font-family="monospace" font-size="24" fill="#e74c3c" text-anchor="middle" font-weight="bold" letter-spacing="4">WARNING</text><path d="M150,270 L290,270" stroke="#e74c3c" stroke-width="4" /><path d="M100,340 L130,340 L140,310 L150,350 L180,340" fill="none" stroke="#c0392b" stroke-width="2" opacity="0.6" /><path d="M100,350 L340,350" stroke="#5c2626" stroke-width="1" /><rect x="280" y="170" width="50" height="10" fill="#e74c3c" opacity="0.8" /><rect x="280" y="185" width="30" height="10" fill="#e74c3c" opacity="0.6" /><path d="M90,150 L350,150 M90,160 L350,160 M90,170 L350,170 M90,180 L350,180 M90,190 L350,190 M90,200 L350,200 M90,210 L350,210 M90,220 L350,220 M90,230 L350,230 M90,240 L350,240 M90,250 L350,250 M90,260 L350,260 M90,270 L350,270 M90,280 L350,280 M90,290 L350,290 M90,300 L350,300 M90,310 L350,310 M90,320 L350,320 M90,330 L350,330 M90,340 L350,340 M90,350 L350,350 M90,360 L350,360"         stroke="#000000" stroke-width="1" opacity="0.3" /><polygon points="90,150 250,150 90,370" fill="url(#glassReflect)" /><circle cx="220" cy="120" r="10" fill="#c0392b" stroke="#521d1d" stroke-width="2" /><circle cx="220" cy="120" r="5" fill="#ff6b6b" opacity="0.8" /><circle cx="220" cy="120" r="25" fill="url(#warningGlow)" opacity="0.4" /><rect x="390" y="130" width="320" height="260" rx="5" fill="url(#panelGrad)" stroke="#17202a" stroke-width="2" /><rect x="420" y="160" width="20" height="200" rx="10" fill="url(#leverSlot)" stroke="#212f3c" stroke-width="1" /><rect x="480" y="160" width="20" height="200" rx="10" fill="url(#leverSlot)" stroke="#212f3c" stroke-width="1" /><rect x="540" y="160" width="20" height="200" rx="10" fill="url(#leverSlot)" stroke="#212f3c" stroke-width="1" /><rect x="600" y="160" width="20" height="200" rx="10" fill="url(#leverSlot)" stroke="#212f3c" stroke-width="1" /><path d="M410,180 L420,180 M410,220 L420,220 M410,260 L420,260 M410,300 L420,300" stroke="#bdc3c7" stroke-width="2" opacity="0.5" /><path d="M470,180 L480,180 M470,220 L480,220 M470,260 L480,260 M470,300 L480,300" stroke="#bdc3c7" stroke-width="2" opacity="0.5" /><rect x="426" y="180" width="8" height="60" fill="#17202a" /><rect x="415" y="170" width="30" height="20" rx="2" fill="#95a5a6" stroke="#2c3e50" stroke-width="1" /><rect x="418" y="172" width="24" height="6" rx="1" fill="#ecf0f1" opacity="0.6" /><rect x="486" y="220" width="8" height="110" fill="#17202a" /><rect x="475" y="320" width="30" height="20" rx="2" fill="#7f8c8d" stroke="#2c3e50" stroke-width="1" /><rect x="546" y="200" width="8" height="70" fill="#17202a" /><rect x="535" y="260" width="30" height="20" rx="2" fill="#e67e22" stroke="#6e2c00" stroke-width="1" /><rect x="538" y="262" width="24" height="6" rx="1" fill="#ffffff" opacity="0.3" /><rect x="606" y="180" width="8" height="60" fill="#17202a" /><rect x="595" y="170" width="30" height="20" rx="2" fill="#95a5a6" stroke="#2c3e50" stroke-width="1" /><rect x="640" y="300" width="50" height="70" rx="4" fill="#1c2833" stroke="#566573" stroke-width="2" /><circle cx="665" cy="335" r="18" fill="none" stroke="#e74c3c" stroke-width="2" /><rect x="662" y="315" width="6" height="40" rx="2" fill="#c0392b" /><path d="M730,130 L974,130 L974,390 L730,390 Z" fill="url(#panelGrad)" stroke="#17202a" stroke-width="2" /><circle cx="890" cy="200" r="50" fill="#000000" stroke="#7f8c8d" stroke-width="4" /><path d="M890,200 L920,180" stroke="#e74c3c" stroke-width="2" /><circle cx="890" cy="200" r="5" fill="#95a5a6" /><path d="M850,210 A45,45 0 0,1 930,210" fill="none" stroke="#2ecc71" stroke-width="4" stroke-dasharray="2,4" /><circle cx="890" cy="200" r="45" fill="url(#glassReflect)" /><g transform="translate(750, 270)"><rect x="0" y="0" width="30" height="30" rx="5" fill="url(#buttonGreen)" stroke="#1e8449" stroke-width="1" /><rect x="40" y="0" width="30" height="30" rx="5" fill="#2c3e50" stroke="#17202a" stroke-width="1" /><rect x="80" y="0" width="30" height="30" rx="5" fill="url(#buttonRed)" stroke="#922b21" stroke-width="1" /><rect x="120" y="0" width="30" height="30" rx="5" fill="#2c3e50" stroke="#17202a" stroke-width="1" /><rect x="0" y="40" width="30" height="30" rx="5" fill="#2c3e50" stroke="#17202a" stroke-width="1" /><rect x="40" y="40" width="30" height="30" rx="5" fill="url(#buttonGreen)" stroke="#1e8449" stroke-width="1" /><rect x="80" y="40" width="30" height="30" rx="5" fill="#f39c12" stroke="#9a7d0a" stroke-width="1" /><rect x="120" y="40" width="30" height="30" rx="5" fill="#2c3e50" stroke="#17202a" stroke-width="1" /><rect x="0" y="80" width="30" height="30" rx="5" fill="#3498db" stroke="#1f618d" stroke-width="1" /><rect x="40" y="80" width="30" height="30" rx="5" fill="#2c3e50" stroke="#17202a" stroke-width="1" /><rect x="80" y="80" width="30" height="30" rx="5" fill="#2c3e50" stroke="#17202a" stroke-width="1" /><rect x="120" y="80" width="30" height="30" rx="5" fill="url(#buttonRed)" stroke="#922b21" stroke-width="1" /></g><rect x="750" y="255" width="60" height="8" fill="#566573" /><rect x="830" y="255" width="40" height="8" fill="#566573" /><path d="M100,400 L140,410 M500,410 L550,405 M900,110 L920,120" stroke="#000000" stroke-width="1" opacity="0.3" fill="none" /><path d="M100,401 L140,411 M500,411 L550,406 M900,111 L920,121" stroke="#ffffff" stroke-width="0.5" opacity="0.1" fill="none" /><path d="M60,100 L100,100 L60,140 Z" fill="#000000" opacity="0.3" /><path d="M994,380 L954,380 L994,340 Z" fill="#000000" opacity="0.3" /><line x1="380" y1="100" x2="380" y2="420" stroke="#17202a" stroke-width="2" /><line x1="381" y1="100" x2="381" y2="420" stroke="#566573" stroke-width="1" opacity="0.5" /><line x1="720" y1="100" x2="720" y2="420" stroke="#17202a" stroke-width="2" /><line x1="721" y1="100" x2="721" y2="420" stroke="#566573" stroke-width="1" opacity="0.5" /><rect x="390" y="130" width="320" height="2" fill="#ffffff" opacity="0.1" /><rect x="730" y="130" width="244" height="2" fill="#ffffff" opacity="0.1" /></svg>