<svg xmlns="http://www.w3.org/2000/svg" viewBox="0 0 512 512" width="512" height="512"><defs><linearGradient id="metalGradient" x1="0%" y1="0%" x2="100%" y2="100%"><stop offset="0%" stop-color="#546e7a" /><stop offset="50%" stop-color="#37474f" /><stop offset="100%" stop-color="#263238" /></linearGradient><radialGradient id="pitGradient" cx="50%" cy="50%" r="50%"><stop offset="60%" stop-color="#102027" /><stop offset="90%" stop-color="#000000" /><stop offset="100%" stop-color="#263238" /></radialGradient><radialGradient id="frostGradient" cx="50%" cy="50%" r="50%"><stop offset="0%" stop-color="#e0f7fa" stop-opacity="0.9" /><stop offset="70%" stop-color="#b2ebf2" stop-opacity="0.6" /><stop offset="100%" stop-color="#80deea" stop-opacity="0" /></radialGradient><linearGradient id="highlightReflect" x1="0%" y1="0%" x2="0%" y2="100%"><stop offset="0%" stop-color="#ffffff" stop-opacity="0.6"/><stop offset="100%" stop-color="#ffffff" stop-opacity="0"/></linearGradient></defs><rect x="50" y="50" width="412" height="412" rx="30" fill="#000000" fill-opacity="0.5" transform="translate(10, 10)" filter="blur(4px)" /><rect x="40" y="40" width="432" height="432" rx="24" fill="url(#metalGradient)" stroke="#263238" stroke-width="2" /><path d="M64 40 L448 40 A24 24 0 0 1 472 64 L472 448 A24 24 0 0 1 448 472 L64 472 A24 24 0 0 1 40 448 L40 64 A24 24 0 0 1 64 40" fill="none" stroke="#78909c" stroke-width="4" opacity="0.5" mask="url(#bevelMask)" /><path d="M45 65 L467 65" stroke="#ffffff" stroke-width="2" stroke-opacity="0.3" stroke-linecap="round" /><path d="M45 65 L45 467" stroke="#ffffff" stroke-width="2" stroke-opacity="0.3" stroke-linecap="round" /><g opacity="0.15"><path d="M100 60 L120 90 M400 400 L380 430 M50 200 L90 205 M450 150 L410 160" stroke="#000" stroke-width="3" stroke-linecap="round"/><circle cx="150" cy="100" r="15" fill="#000" /><circle cx="400" cy="350" r="20" fill="#000" /></g><g clip-path="url(#housingClip)"><path d="M40 400 L112 472 M80 400 L152 472 M120 400 L192 472" stroke="#fbc02d" stroke-width="20" opacity="0.6" /></g><circle cx="256" cy="256" r="180" fill="url(#pitGradient)" stroke="#102027" stroke-width="4" /><circle cx="256" cy="256" r="180" fill="none" stroke="#546e7a" stroke-width="2" stroke-opacity="0.5" /><g transform="translate(256, 256)"><g fill="#37474f" stroke="#263238" stroke-width="1"><path d="M0 0 Q40 -80 10 -150 L-30 -140 Q-20 -80 0 0" /><path d="M0 0 Q40 -80 10 -150 L-30 -140 Q-20 -80 0 0" transform="rotate(60)" /><path d="M0 0 Q40 -80 10 -150 L-30 -140 Q-20 -80 0 0" transform="rotate(120)" /><path d="M0 0 Q40 -80 10 -150 L-30 -140 Q-20 -80 0 0" transform="rotate(180)" /><path d="M0 0 Q40 -80 10 -150 L-30 -140 Q-20 -80 0 0" transform="rotate(240)" /><path d="M0 0 Q40 -80 10 -150 L-30 -140 Q-20 -80 0 0" transform="rotate(300)" /></g><circle cx="0" cy="0" r="35" fill="#455a64" stroke="#263238" stroke-width="2" /><circle cx="0" cy="0" r="15" fill="#263238" opacity="0.5" /></g><g stroke="#455a64" stroke-width="12" stroke-linecap="round"><circle cx="256" cy="256" r="180" fill="none" stroke-width="16" /><line x1="256" y1="76" x2="256" y2="436" /><line x1="76" y1="256" x2="436" y2="256" /><line x1="128" y1="128" x2="384" y2="384" stroke-width="8" /><line x1="384" y1="128" x2="128" y2="384" stroke-width="8" /></g><g stroke="#78909c" stroke-width="2" opacity="0.6" fill="none"><circle cx="256" cy="256" r="176" /><line x1="252" y1="80" x2="252" y2="432" /><line x1="76" y1="252" x2="436" y2="252" /></g><g fill="#546e7a" stroke="#263238" stroke-width="1"><circle cx="70" cy="70" r="12" /><circle cx="442" cy="70" r="12" /><circle cx="70" cy="442" r="12" /><circle cx="442" cy="442" r="12" /><circle cx="68" cy="68" r="4" fill="#fff" opacity="0.4" stroke="none"/><circle cx="440" cy="68" r="4" fill="#fff" opacity="0.4" stroke="none"/><circle cx="68" cy="440" r="4" fill="#fff" opacity="0.4" stroke="none"/><circle cx="440" cy="440" r="4" fill="#fff" opacity="0.4" stroke="none"/></g><g fill="#e0f7fa" stroke="none" style="mix-blend-mode: screen;"><path d="M40 120 Q50 110 60 115 T90 100 T120 45 L40 40 Z" opacity="0.7" /><path d="M40 100 Q45 80 70 70 L40 40 Z" opacity="0.9" fill="#fff" /><path d="M472 400 Q450 420 420 430 T350 460 L472 472 Z" opacity="0.6" /><path d="M472 440 Q460 450 450 450 L472 472 Z" opacity="0.8" /><path d="M256 220 Q270 240 280 256 Q260 270 256 290 Q240 270 230 256 Q240 240 256 220" opacity="0.5" /><path d="M248 80 L264 80 L260 120 Q270 110 280 115 L256 140 L230 110 Z" opacity="0.6" /><path d="M128 384 L140 370 Q160 390 150 400 Z" opacity="0.5" /></g><g fill="#ffffff" opacity="0.6"><circle cx="55" cy="55" r="2" /><circle cx="100" cy="50" r="1.5" /><circle cx="50" cy="100" r="1.5" /><circle cx="460" cy="460" r="2" /><circle cx="440" cy="465" r="1" /><circle cx="256" cy="256" r="3" opacity="0.8" /><circle cx="260" cy="120" r="1" /></g><circle cx="256" cy="256" r="100" fill="url(#frostGradient)" opacity="0.2" pointer-events="none" /><path d="M60 50 L452 50" stroke="url(#highlightReflect)" stroke-width="2" stroke-linecap="round" /><path d="M50 60 L50 452" stroke="url(#highlightReflect)" stroke-width="2" stroke-linecap="round" /></svg>