<svg xmlns="http://www.w3.org/2000/svg" viewBox="0 0 1024 1024" width="1024" height="1024"><defs><radialGradient id="tableMetal" cx="50%" cy="50%" r="70%" fx="50%" fy="50%"><stop offset="0%" stop-color="#4a5059" /><stop offset="80%" stop-color="#2a2f35" /><stop offset="100%" stop-color="#1a1c20" /></radialGradient><linearGradient id="matGradient" x1="0%" y1="0%" x2="100%" y2="100%"><stop offset="0%" stop-color="#25303b" /><stop offset="100%" stop-color="#181e24" /></linearGradient><linearGradient id="chrome" x1="0%" y1="0%" x2="0%" y2="100%"><stop offset="0%" stop-color="#8e9eab" /><stop offset="50%" stop-color="#eef2f3" /><stop offset="51%" stop-color="#8e9eab" /><stop offset="100%" stop-color="#5c6770" /></linearGradient><linearGradient id="copper" x1="0%" y1="0%" x2="100%" y2="0%"><stop offset="0%" stop-color="#b87333" /><stop offset="50%" stop-color="#ffb380" /><stop offset="100%" stop-color="#8a5322" /></linearGradient><radialGradient id="techGlow" cx="50%" cy="50%" r="50%"><stop offset="0%" stop-color="#00ffff" stop-opacity="0.8" /><stop offset="100%" stop-color="#00ffff" stop-opacity="0" /></radialGradient><filter id="blurShadow" x="-50%" y="-50%" width="200%" height="200%"><feGaussianBlur in="SourceAlpha" stdDeviation="15" result="blur" /><feFlood flood-color="#000000" flood-opacity="0.6" /><feComposite in2="blur" operator="in" /></filter></defs><rect x="120" y="120" width="784" height="784" rx="60" fill="black" filter="url(#blurShadow)" opacity="0.6" /><g transform="translate(100, 100)"><rect x="0" y="0" width="824" height="824" rx="40" fill="#15171a" stroke="#000" stroke-width="4" /><rect x="10" y="10" width="804" height="804" rx="30" fill="url(#tableMetal)" stroke="#5c6770" stroke-width="2" /><path d="M 20 80 L 80 20 M 60 120 L 120 60 M 100 160 L 160 100" stroke="#d4af37" stroke-width="10" stroke-opacity="0.4" stroke-linecap="square" /><path d="M 704 804 L 764 744 M 744 804 L 804 744" stroke="#d4af37" stroke-width="10" stroke-opacity="0.4" stroke-linecap="square" /><rect x="112" y="112" width="600" height="600" rx="10" fill="url(#matGradient)" stroke="#3a4450" stroke-width="4" /><pattern id="gridPattern" width="50" height="50" patternUnits="userSpaceOnUse"><path d="M 50 0 L 0 0 0 50" fill="none" stroke="#3a4450" stroke-width="1" opacity="0.5"/></pattern><rect x="112" y="112" width="600" height="600" rx="10" fill="url(#gridPattern)" /><rect x="130" y="40" width="150" height="50" rx="5" fill="#111" stroke="#333" stroke-width="2" /><rect x="300" y="40" width="150" height="50" rx="5" fill="#111" stroke="#333" stroke-width="2" /><circle cx="150" cy="65" r="5" fill="#aaa" /><circle cx="165" cy="60" r="5" fill="#aaa" /><circle cx="160" cy="75" r="5" fill="#aaa" /><rect x="320" y="55" width="20" height="20" fill="#2e8b57" stroke="#444" stroke-width="1" /><rect x="350" y="50" width="20" height="20" fill="#2e8b57" stroke="#444" stroke-width="1" /><path d="M 730 200 L 810 200 L 810 500 L 730 500 Z" fill="#222" stroke="#555" stroke-width="2" /><rect x="735" y="220" width="70" height="260" fill="#002233" /><path d="M 745 240 H 795 M 745 260 H 780 M 745 350 H 795 M 745 370 H 760" stroke="#00d9ff" stroke-width="2" opacity="0.7" /><circle cx="770" cy="305" r="20" stroke="#00d9ff" stroke-width="2" fill="none" opacity="0.7" /><circle cx="770" cy="305" r="5" fill="#00d9ff" opacity="0.9" /><rect x="735" y="220" width="70" height="260" fill="url(#techGlow)" style="mix-blend-mode: screen;" pointer-events="none" /><g transform="translate(250, 250) rotate(-15)"><path d="M 50 200 Q 0 250 20 300 T 80 350" fill="none" stroke="#8a2be2" stroke-width="3" /><path d="M 60 200 Q 100 250 80 320" fill="none" stroke="#b22222" stroke-width="3" /><path d="M 150 150 Q 100 100 50 120" fill="none" stroke="#daa520" stroke-width="2" /><path d="M 100 0 L 250 0 C 270 0 280 20 280 50 L 280 100 C 280 130 260 150 240 150 L 100 150 C 70 150 50 120 50 75 C 50 30 70 0 100 0 Z" fill="#333" stroke="#111" stroke-width="2" /><rect x="80" y="20" width="160" height="110" rx="10" fill="#1a1a1a" /><rect x="90" y="30" width="140" height="20" fill="url(#copper)" rx="5" /><rect x="90" y="60" width="140" height="20" fill="url(#copper)" rx="5" /><rect x="90" y="90" width="140" height="20" fill="url(#copper)" rx="5" /><path d="M 270 25 L 450 40 C 470 42 480 60 480 75 C 480 90 470 108 450 110 L 270 125 Z" fill="url(#chrome)" stroke="#555" stroke-width="2" /><g transform="translate(470, 50)"><circle cx="0" cy="25" r="25" fill="#444" stroke="#222" stroke-width="2" /><rect x="20" y="0" width="60" height="10" rx="3" fill="#ccc" stroke="#666" transform="rotate(-10)" /><rect x="25" y="15" width="70" height="10" rx="3" fill="#ccc" stroke="#666" transform="rotate(0)" /><rect x="25" y="30" width="65" height="10" rx="3" fill="#ccc" stroke="#666" transform="rotate(10)" /><rect x="20" y="45" width="50" height="10" rx="3" fill="#ccc" stroke="#666" transform="rotate(25)" /><rect x="0" y="50" width="40" height="12" rx="3" fill="#ccc" stroke="#666" transform="rotate(60)" /></g><path d="M 50 200 L 200 220 L 190 300 L 40 280 Z" fill="#4a5059" stroke="#777" stroke-width="1" opacity="0.9" /><path d="M 60 210 L 190 230" stroke="#222" stroke-width="1" opacity="0.5" /></g><g transform="translate(50, 50)"><circle cx="0" cy="0" r="60" fill="#222" stroke="#444" stroke-width="3" /><circle cx="0" cy="0" r="40" fill="#333" stroke="#000" stroke-width="2" /><circle cx="0" cy="0" r="15" fill="#00d9ff" fill-opacity="0.4" /><path d="M 0 0 L 120 120" stroke="#444" stroke-width="30" stroke-linecap="round" /><path d="M 0 0 L 120 120" stroke="#777" stroke-width="20" stroke-linecap="round" /><circle cx="120" cy="120" r="25" fill="#222" stroke="#555" stroke-width="2" /><path d="M 120 120 L 200 250" stroke="#444" stroke-width="24" stroke-linecap="round" /><path d="M 120 120 L 200 250" stroke="#777" stroke-width="14" stroke-linecap="round" /><g transform="translate(200, 250) rotate(30)"><rect x="-15" y="-15" width="30" height="50" fill="#333" /><path d="M -5 35 L 0 60 L 5 35 Z" fill="#d4af37" /><circle cx="0" cy="60" r="3" fill="#ff4500" opacity="0.8" /></g></g><g transform="translate(600, 650) rotate(120)"><rect x="0" y="0" width="100" height="20" rx="5" fill="#b22222" stroke="#500" stroke-width="1" /><rect x="100" y="5" width="60" height="10" fill="#ccc" /><path d="M 160 5 L 170 10 L 160 15 Z" fill="#888" /></g><g transform="translate(150, 600) rotate(-10)"><rect x="0" y="0" width="120" height="160" rx="8" fill="#111" stroke="#444" stroke-width="2" /><rect x="10" y="10" width="100" height="140" rx="2" fill="#0f151a" /><path d="M 20 30 H 90 M 20 50 H 70 M 20 70 H 80" stroke="#00ff99" stroke-width="2" opacity="0.4" /><rect x="20" y="90" width="80" height="50" fill="#00ff99" fill-opacity="0.1" stroke="#00ff99" stroke-opacity="0.3" stroke-width="1" /></g><path d="M 400 400 Q 420 380 440 410 T 480 420 T 450 450 T 400 440 Z" fill="#000" opacity="0.4" style="mix-blend-mode: multiply;" /><path d="M 550 500 Q 560 490 570 510 T 550 530 Z" fill="#000" opacity="0.3" style="mix-blend-mode: multiply;" /><path d="M 200 700 L 250 710 M 220 705 L 230 720" stroke="#fff" stroke-width="1" opacity="0.1" /><path d="M 600 200 L 650 190 M 620 195 L 610 210" stroke="#fff" stroke-width="1" opacity="0.1" /><path d="M 500 500 L 520 520" stroke="#000" stroke-width="1" opacity="0.3" /><path d="M 40 10 L 784 10" stroke="#fff" stroke-width="2" opacity="0.2" /><path d="M 10 40 L 10 784" stroke="#fff" stroke-width="2" opacity="0.1" /><path d="M 10 814 L 814 814" stroke="#000" stroke-width="4" opacity="0.5" /></g><circle cx="700" cy="300" r="150" fill="url(#techGlow)" opacity="0.1" pointer-events="none" /></svg>