<svg viewBox="0 0 512 512" xmlns="http://www.w3.org/2000/svg" width="512" height="512">
  <defs>
    <radialGradient id="shadowGrad" cx="50%" cy="50%" r="50%" fx="50%" fy="50%">
      <stop offset="0%" stop-color="#000000" stop-opacity="0.6"/>
      <stop offset="80%" stop-color="#000000" stop-opacity="0.2"/>
      <stop offset="100%" stop-color="#000000" stop-opacity="0"/>
    </radialGradient>
    <linearGradient id="silkBodyGrad" x1="0%" y1="0%" x2="100%" y2="0%">
      <stop offset="0%" stop-color="#8a8775" />
      <stop offset="20%" stop-color="#cfcdc1" />
      <stop offset="50%" stop-color="#e8e6da" />
      <stop offset="80%" stop-color="#b8b5a6" />
      <stop offset="100%" stop-color="#696659" />
    </linearGradient>
    <filter id="roughness">
      <feTurbulence type="fractalNoise" baseFrequency="0.04" numOctaves="3" result="noise"/>
      <feDiffuseLighting in="noise" lighting-color="#ffffff" surfaceScale="2">
        <feDistantLight azimuth="45" elevation="60"/>
      </feDiffuseLighting>
      <feComposite operator="in" in2="SourceGraphic"/>
    </filter>
  </defs>

  
  <ellipse cx="256" cy="280" rx="110" ry="190" fill="url(#shadowGrad)" opacity="0.8" />

  
  <g transform="translate(256, 256) rotate(-2)">
    
    <path d="M-50,-180 C-70,-160 -80,-100 -75,-20 C-70,60 -55,140 -20,200 C0,220 10,220 30,200 C65,140 80,60 85,-20 C90,-100 80,-160 60,-180 C30,-210 -20,-210 -50,-180 Z" 
          fill="#5e5b4e" stroke="none" />
    
    
    <path d="M-45,-185 C-60,-170 -60,-130 -40,-115 C-20,-100 20,-100 50,-115 C70,-130 70,-170 55,-185 C25,-215 -15,-215 -45,-185 Z" 
          fill="url(#silkBodyGrad)" stroke="#4a473d" stroke-width="2" />

    
    <path d="M-70,-110 C-85,-50 -80,20 -60,60 C-40,90 40,90 70,60 C90,20 95,-50 80,-110 C60,-125 -50,-125 -70,-110 Z" 
          fill="url(#silkBodyGrad)" stroke="#4a473d" stroke-width="2" />

    
    <path d="M-55,55 C-60,100 -45,150 -20,195 C-5,215 15,215 30,195 C55,150 70,100 65,55 C45,80 -35,80 -55,55 Z" 
          fill="url(#silkBodyGrad)" stroke="#4a473d" stroke-width="2" />
  </g>

  
  <g transform="translate(256, 256) rotate(-2)" fill="none" stroke="#545146" stroke-width="3" stroke-linecap="round" opacity="0.6">
    
    <path d="M-60,-115 Q0,-105 70,-115" />
    <path d="M-62,-110 Q0,-100 72,-110" />
    
    <path d="M-75,0 Q0,10 85,0" />
    <path d="M-72,15 Q5,25 82,15" />
    
    <path d="M-60,100 Q10,110 70,100" />
    <path d="M-50,130 Q10,140 60,130" />
    <path d="M-35,160 Q5,170 45,160" />
  </g>

  
  <g transform="translate(256, 256) rotate(-2)" fill="none" stroke="#e3e1d3" stroke-width="2" stroke-linecap="round">
    
    <path d="M-30,-200 Q10,-190 40,-205 M-45,-190 Q0,-180 55,-195 M-50,-175 Q5,-165 60,-180 M-55,-160 Q0,-150 65,-165" />
    <path d="M-55,-150 Q-10,-130 65,-140 M-40,-125 Q10,-115 50,-125" opacity="0.8"/>
    
    
    <path d="M-70,-100 Q0,-90 80,-105 M-75,-85 Q5,-75 85,-90 M-78,-70 Q0,-60 88,-75" />
    <path d="M-80,-50 Q10,-40 90,-55 M-80,-30 Q5,-20 88,-35 M-78,-10 Q0,0 85,-15" />
    <path d="M-75,10 Q10,20 80,5 M-70,30 Q5,40 75,25 M-65,50 Q0,60 70,45" />

    
    <path d="M-60,70 Q5,80 65,65 M-58,85 Q5,95 62,80 M-55,100 Q5,110 60,95" />
    <path d="M-50,115 Q5,125 55,110 M-45,130 Q5,140 50,125 M-40,145 Q5,155 45,140" />
    <path d="M-35,160 Q5,170 40,155 M-30,175 Q5,185 35,170 M-20,190 Q5,200 25,185" />
  </g>

  
  <g transform="translate(256, 256) rotate(-2)" fill="none" stroke="#f7f7f0" stroke-width="1" opacity="0.7">
    
    <path d="M-60,-100 L-40,-80 M-20,-100 L0,-80 M20,-100 L40,-80 M60,-100 L80,-80" />
    <path d="M-70,-60 L-50,-40 M-30,-60 L-10,-40 M10,-60 L30,-40 M50,-60 L70,-40" />
    <path d="M-70,-20 L-50,0 M-30,-20 L-10,0 M10,-20 L30,0 M50,-20 L70,0" />
    
    <path d="M-50,-80 L-60,-60 M-10,-80 L-20,-60 M30,-80 L20,-60 M70,-80 L60,-60" />
    <path d="M-60,-40 L-70,-20 M-20,-40 L-30,-20 M20,-40 L10,-20 M60,-40 L50,-20" />
    
    
    <path d="M80,-50 Q95,-40 90,-20" stroke-width="0.5" stroke="#e0dec8"/>
    <path d="M-75,10 Q-90,20 -85,40" stroke-width="0.5" stroke="#e0dec8"/>
    <path d="M40,150 Q50,170 60,165" stroke-width="0.5" stroke="#e0dec8"/>
  </g>

  
  <g transform="translate(256, 256) rotate(-2)" opacity="0.4">
    
    <path d="M-30,-60 Q0,-50 30,-60 Q40,-30 10,-20 Q-20,-30 -30,-60 Z" fill="#8c8056" filter="blur(4px)" />
    <path d="M-20,80 Q0,90 20,80 Q25,110 0,115 Q-25,110 -20,80 Z" fill="#756f50" filter="blur(3px)" />
    <path d="M-10,-160 Q10,-150 20,-160 Q15,-130 0,-130 Q-15,-130 -10,-160 Z" fill="#6b6348" filter="blur(2px)" />
  </g>
  
  
  <g transform="translate(256, 256) rotate(-2)" fill="none" stroke="#ffffff" stroke-width="1.5" stroke-linecap="round" opacity="0.8">
    
    <path d="M-10,-190 Q5,-188 20,-192" opacity="0.5" />
    <path d="M-20,-100 Q0,-95 20,-100" />
    <path d="M-25,-80 Q0,-75 25,-80" />
    <path d="M-30,-50 Q0,-45 30,-50" />
    <path d="M-30,-20 Q0,-15 30,-20" />
    <path d="M-25,20 Q0,25 25,20" />
    <path d="M-20,60 Q0,65 20,60" />
    <path d="M-15,100 Q0,105 15,100" />
    <path d="M-10,140 Q0,145 10,140" />
  </g>

  
  <g transform="translate(256, 256) rotate(-2)">
     <path d="M-50,-180 C-70,-160 -80,-100 -75,-20 C-70,60 -55,140 -20,200 L30,200 C65,140 80,60 85,-20 C90,-100 80,-160 60,-180 Z" 
           fill="url(#silkBodyGrad)" stroke="none" opacity="0.2" style="mix-blend-mode: multiply;" />
     
     
     <path d="M-50,-180 C-70,-160 -80,-100 -75,-20 C-70,60 -55,140 -20,200 Q0,200 10,200 C-20,140 -35,60 -45,-20 C-50,-100 -40,-160 -20,-180 Z"
           fill="#2e2b24" opacity="0.3" filter="blur(2px)" />
  </g>

</svg>