<svg xmlns="http://www.w3.org/2000/svg" viewBox="0 0 512 512" width="512" height="512"><defs><filter id="screenGlow" x="-50%" y="-50%" width="200%" height="200%"><feGaussianBlur in="SourceGraphic" stdDeviation="4" result="blur" /><feColorMatrix in="blur" type="matrix" values="0 0 0 0 0  0 1 0 0 0  0 0 1 0 0  0 0 0 1 0" /><feMerge><feMergeNode in="blur" /><feMergeNode in="SourceGraphic" /></feMerge></filter><filter id="frameShadow" x="-20%" y="-20%" width="140%" height="140%"><feDropShadow dx="0" dy="4" stdDeviation="3" flood-color="#000" flood-opacity="0.6" /></filter><linearGradient id="metalDark" x1="0%" y1="0%" x2="100%" y2="100%"><stop offset="0%" stop-color="#2a2f35" /><stop offset="50%" stop-color="#1a1d21" /><stop offset="100%" stop-color="#0f1113" /></linearGradient><linearGradient id="metalLight" x1="0%" y1="0%" x2="0%" y2="100%"><stop offset="0%" stop-color="#545e6b" /><stop offset="10%" stop-color="#7a8594" /><stop offset="50%" stop-color="#3d444f" /><stop offset="100%" stop-color="#2a2f35" /></linearGradient><linearGradient id="screenBack" x1="50%" y1="0%" x2="50%" y2="100%"><stop offset="0%" stop-color="#001a26" /><stop offset="100%" stop-color="#000a0f" /></linearGradient><radialGradient id="screenVignette" cx="50%" cy="50%" r="70%"><stop offset="0%" stop-color="#00eaff" stop-opacity="0.1" /><stop offset="100%" stop-color="#000000" stop-opacity="0.6" /></radialGradient><linearGradient id="reflection" x1="0%" y1="0%" x2="100%" y2="100%"><stop offset="40%" stop-color="#ffffff" stop-opacity="0.05" /><stop offset="45%" stop-color="#ffffff" stop-opacity="0.2" /><stop offset="50%" stop-color="#ffffff" stop-opacity="0" /></linearGradient><pattern id="scanlines" width="4" height="4" patternUnits="userSpaceOnUse"><path d="M0,2 L4,2" stroke="#000000" stroke-width="1" stroke-opacity="0.3" /></pattern><pattern id="hexGrid" width="20" height="20" patternUnits="userSpaceOnUse"><path d="M10,0 L20,5 L20,15 L10,20 L0,15 L0,5 Z" fill="none" stroke="#00eaff" stroke-width="0.5" stroke-opacity="0.15" /></pattern></defs><g transform="translate(10, 10)"><ellipse cx="256" cy="420" rx="140" ry="40" fill="#000000" fill-opacity="0.6" filter="url(#frameShadow)" /></g><g shape-rendering="geometricPrecision"><path d="M156,400 L356,400 L380,440 L132,440 Z" fill="url(#metalDark)" stroke="#1a1d21" stroke-width="2" /><path d="M132,440 L120,430 L140,390 L156,400 Z" fill="#3d444f" /><path d="M380,440 L392,430 L372,390 L356,400 Z" fill="#3d444f" /><circle cx="150" cy="430" r="3" fill="#111" stroke="#555" stroke-width="1" /><circle cx="362" cy="430" r="3" fill="#111" stroke="#555" stroke-width="1" /><path d="M128,80 L384,80 L400,400 L112,400 Z" fill="url(#metalLight)" stroke="#0f1113" stroke-width="2" filter="url(#frameShadow)" /><path d="M140,92 L372,92 L386,388 L126,388 Z" fill="#1a1d21" stroke="none" /><g transform="translate(0, 0)"><path d="M144,96 L368,96 L382,384 L130,384 Z" fill="url(#screenBack)" stroke="#00eaff" stroke-width="1" stroke-opacity="0.3" /><g clip-path="url(#screenClip)"><path d="M144,96 L368,96 L382,384 L130,384 Z" fill="url(#hexGrid)" /><path d="M144,96 L368,96 L382,384 L130,384 Z" fill="url(#screenVignette)" /><g filter="url(#screenGlow)" transform="translate(256, 240) scale(1.0)"><path d="M0,-80 L0,80" stroke="#00eaff" stroke-width="2" stroke-linecap="round" /><path d="M-50,-60 L50,-60 L60,-30 L10,20 L0,90 L-10,20 L-60,-30 Z"                  fill="none" stroke="#00eaff" stroke-width="4" stroke-linejoin="round" /><path d="M-50,-60 L-30,-20 L0,10 L30,-20 L50,-60"                  fill="none" stroke="#0088aa" stroke-width="2" /><circle cx="0" cy="-30" r="10" fill="#00eaff" fill-opacity="0.8" /><circle cx="0" cy="-30" r="15" fill="none" stroke="#00eaff" stroke-width="1" stroke-dasharray="2,2" /><g transform="translate(0, 70)" fill="#00eaff" opacity="0.8"><rect x="-40" y="0" width="20" height="4" rx="1" /><rect x="-15" y="0" width="30" height="4" rx="1" /><rect x="20" y="0" width="20" height="4" rx="1" /><rect x="-30" y="8" width="60" height="2" rx="1" opacity="0.5" /></g></g><path d="M144,96 L368,96 L382,384 L130,384 Z" fill="url(#scanlines)" style="mix-blend-mode: overlay;" /><path d="M144,96 L250,96 L150,384 L130,384 Z" fill="url(#reflection)" style="mix-blend-mode: screen;" /></g></g><rect x="236" y="65" width="40" height="10" rx="2" fill="#111" stroke="#333" stroke-width="1" /><circle cx="245" cy="70" r="2" fill="#f00" fill-opacity="0.7" /><circle cx="266" cy="70" r="3" fill="#224" /><g fill="#00eaff" fill-opacity="0.6" filter="url(#screenGlow)"><rect x="120" y="150" width="4" height="20" rx="1" /><rect x="118" y="180" width="4" height="20" rx="1" /><rect x="116" y="210" width="4" height="20" rx="1" /><rect x="388" y="150" width="4" height="20" rx="1" /><rect x="390" y="180" width="4" height="20" rx="1" /><rect x="392" y="210" width="4" height="20" rx="1" /></g><path d="M130,120 L150,122 M380,350 L360,355 M200,85 L220,88" stroke="#000" stroke-width="1" stroke-opacity="0.4" /><path d="M131,121 L151,123 M381,351 L361,356 M201,86 L221,89" stroke="#fff" stroke-width="0.5" stroke-opacity="0.2" /><path d="M126,388 L386,388 L380,420 L132,420 Z" fill="#222" stroke="none" /><rect x="200" y="395" width="112" height="15" fill="#111" rx="2" stroke="#333" stroke-width="1" /><rect x="210" y="400" width="20" height="5" fill="#00eaff" fill-opacity="0.4" /><rect x="235" y="400" width="20" height="5" fill="#555" /><rect x="260" y="400" width="40" height="5" fill="#555" /></g></svg>