<svg width="100%" height="100%" viewBox="0 0 1024 512" version="1.1" xmlns="http://www.w3.org/2000/svg"><defs><linearGradient id="bodyGrad" x1="0%" y1="0%" x2="0%" y2="100%"><stop offset="0%" stop-color="#cfd8dc" /><stop offset="50%" stop-color="#90a4ae" /><stop offset="100%" stop-color="#546e7a" /></linearGradient><linearGradient id="glassGrad" x1="20%" y1="20%" x2="80%" y2="90%"><stop offset="0%" stop-color="#263238" stop-opacity="0.9" /><stop offset="50%" stop-color="#102027" stop-opacity="0.95" /><stop offset="100%" stop-color="#000000" stop-opacity="0.98" /></linearGradient><linearGradient id="uiGlow" x1="0%" y1="0%" x2="100%" y2="0%"><stop offset="0%" stop-color="#00e5ff" stop-opacity="0" /><stop offset="50%" stop-color="#00e5ff" stop-opacity="0.8" /><stop offset="100%" stop-color="#00e5ff" stop-opacity="0" /></linearGradient><linearGradient id="metalSheen" x1="0%" y1="0%" x2="100%" y2="100%"><stop offset="0%" stop-color="#ffffff" stop-opacity="0.6" /><stop offset="40%" stop-color="#ffffff" stop-opacity="0" /><stop offset="60%" stop-color="#ffffff" stop-opacity="0" /><stop offset="100%" stop-color="#ffffff" stop-opacity="0.4" /></linearGradient></defs><path d="M 80 430 Q 512 480 944 430 Q 960 430 960 410 L 960 100 Q 960 80 944 80 L 80 80 Q 64 80 64 100 L 64 410 Q 64 430 80 430 Z"         fill="#000000" fill-opacity="0.4" transform="translate(0, 20)" shape-rendering="geometricPrecision" /><rect x="50" y="60" width="924" height="400" rx="40" ry="40" fill="#37474f" stroke="#263238" stroke-width="4" /><rect x="50" y="50" width="924" height="390" rx="35" ry="35" fill="url(#bodyGrad)" stroke="#b0bec5" stroke-width="2" /><path d="M 340 50 L 340 440" stroke="#546e7a" stroke-width="3" fill="none" /><path d="M 684 50 L 684 440" stroke="#546e7a" stroke-width="3" fill="none" /><path d="M 342 50 L 342 440" stroke="#eceff1" stroke-width="1" stroke-opacity="0.5" fill="none" /><rect x="80" y="80" width="230" height="330" rx="10" fill="url(#glassGrad)" stroke="#37474f" stroke-width="2" /><path d="M 110 120 Q 150 100 190 120 L 200 350 L 100 350 Z" fill="#455a64" opacity="0.3" /><path d="M 210 130 Q 240 110 270 130 L 280 340 L 200 340 Z" fill="#37474f" opacity="0.4" /><path d="M 80 80 L 180 80 L 100 200 Z" fill="#ffffff" opacity="0.05" /><rect x="714" y="80" width="230" height="330" rx="10" fill="url(#glassGrad)" stroke="#37474f" stroke-width="2" /><circle cx="829" cy="150" r="30" fill="#455a64" opacity="0.3" /><rect x="780" y="190" width="100" height="150" rx="10" fill="#37474f" opacity="0.4" /><path d="M 714 80 L 814 80 L 734 200 Z" fill="#ffffff" opacity="0.05" /><rect x="360" y="70" width="304" height="350" rx="15" fill="#263238" stroke="#455a64" stroke-width="2" /><path d="M 380 90 L 644 90" stroke="#000000" stroke-width="4" stroke-linecap="round" opacity="0.6" /><path d="M 380 105 L 644 105" stroke="#000000" stroke-width="4" stroke-linecap="round" opacity="0.6" /><path d="M 380 120 L 644 120" stroke="#000000" stroke-width="4" stroke-linecap="round" opacity="0.6" /><rect x="390" y="160" width="244" height="230" rx="5" fill="#000000" stroke="#37474f" stroke-width="2" /><rect x="395" y="165" width="234" height="220" fill="#001014" /><rect x="410" y="180" width="204" height="20" rx="2" fill="#006064" opacity="0.8" /><rect x="410" y="180" width="100" height="20" rx="2" fill="#00bcd4" opacity="0.6" /><circle cx="512" cy="270" r="40" stroke="#00e5ff" stroke-width="3" fill="none" opacity="0.9" stroke-dasharray="20, 10" /><circle cx="512" cy="270" r="25" stroke="#00acc1" stroke-width="5" fill="none" opacity="0.7" stroke-dasharray="40, 60" transform="rotate(45 512 270)" /><circle cx="512" cy="270" r="10" fill="#00e5ff" opacity="0.8" /><line x1="410" y1="340" x2="614" y2="340" stroke="#00acc1" stroke-width="2" opacity="0.5" /><line x1="410" y1="355" x2="550" y2="355" stroke="#00acc1" stroke-width="2" opacity="0.5" /><line x1="410" y1="370" x2="580" y2="370" stroke="#00acc1" stroke-width="2" opacity="0.5" /><path d="M 480 238 L 544 238 L 544 302 L 480 302 Z" stroke="#ffffff" stroke-width="1" fill="none" opacity="0.5" /><path d="M 475 233 L 485 233 M 475 233 L 475 243" stroke="#00e5ff" stroke-width="2" fill="none" /><path d="M 549 233 L 539 233 M 549 233 L 549 243" stroke="#00e5ff" stroke-width="2" fill="none" /><path d="M 549 307 L 539 307 M 549 307 L 549 297" stroke="#00e5ff" stroke-width="2" fill="none" /><path d="M 475 307 L 485 307 M 475 307 L 475 297" stroke="#00e5ff" stroke-width="2" fill="none" /><path d="M 90 52 L 934 52" stroke="#ffffff" stroke-width="2" stroke-opacity="0.8" fill="none" /><g opacity="0.4"><path d="M 150 60 L 160 65" stroke="#000000" stroke-width="1" /><path d="M 900 400 L 880 410" stroke="#000000" stroke-width="1" /><path d="M 600 60 L 620 55" stroke="#ffffff" stroke-width="1" opacity="0.5" /><circle cx="200" cy="400" r="20" fill="url(#metalSheen)" opacity="0.2" /></g><ellipse cx="512" cy="400" rx="150" ry="40" fill="url(#uiGlow)" opacity="0.4" pointer-events="none" /><path d="M 85 50 Q 512 40 939 50" stroke="#ffffff" stroke-width="1" fill="none" opacity="0.3" /><circle cx="65" cy="65" r="4" fill="#37474f" stroke="#263238" stroke-width="1" /><circle cx="959" cy="65" r="4" fill="#37474f" stroke="#263238" stroke-width="1" /><circle cx="65" cy="425" r="4" fill="#37474f" stroke="#263238" stroke-width="1" /><circle cx="959" cy="425" r="4" fill="#37474f" stroke="#263238" stroke-width="1" /><rect x="50" y="50" width="924" height="390" rx="35" ry="35" fill="url(#metalSheen)" opacity="0.15" pointer-events="none" /></svg>