<svg xmlns="http://www.w3.org/2000/svg" viewBox="0 0 512 512" width="512" height="512" shape-rendering="geometricPrecision"><defs><linearGradient id="frameGradient" x1="0%" y1="0%" x2="100%" y2="100%"><stop offset="0%" stop-color="#4a4d55" /><stop offset="50%" stop-color="#2b2e35" /><stop offset="100%" stop-color="#1a1c21" /></linearGradient><linearGradient id="screenGradient" x1="50%" y1="0%" x2="50%" y2="100%"><stop offset="0%" stop-color="#050510" /><stop offset="100%" stop-color="#000000" /></linearGradient><linearGradient id="glareGradient" x1="0%" y1="0%" x2="100%" y2="100%"><stop offset="0%" stop-color="#ffffff" stop-opacity="0.15" /><stop offset="40%" stop-color="#ffffff" stop-opacity="0.05" /><stop offset="100%" stop-color="#ffffff" stop-opacity="0.0" /></linearGradient><radialGradient id="glowCenter" cx="50%" cy="50%" r="50%"><stop offset="0%" stop-color="#00f0ff" stop-opacity="0.2" /><stop offset="100%" stop-color="#000000" stop-opacity="0" /></radialGradient></defs><rect x="30" y="30" width="452" height="452" rx="12" fill="#000000" opacity="0.5" filter="blur(4px)" /><rect x="25" y="25" width="462" height="462" rx="8" fill="url(#frameGradient)" stroke="#111" stroke-width="1" /><path d="M33 33 L479 33 L479 34 L33 34 Z" fill="#6e727d" opacity="0.8" /><path d="M33 33 L33 479 L34 479 L34 33 Z" fill="#6e727d" opacity="0.8" /><path d="M33 479 L479 479 L479 478 L33 478 Z" fill="#0a0b0d" opacity="0.9" /><path d="M479 33 L479 479 L478 479 L478 33 Z" fill="#0a0b0d" opacity="0.9" /><rect x="40" y="40" width="432" height="432" fill="url(#screenGradient)" stroke="#000" stroke-width="2" /><rect x="40" y="40" width="432" height="432" fill="none" stroke="#000" stroke-width="4" opacity="0.5" /><g transform="translate(256, 256)"><path d="M-200 -100 L200 -100 M-200 0 L200 0 M-200 100 L200 100" stroke="#00f0ff" stroke-width="1" stroke-opacity="0.1" /><path d="M-100 -200 L-100 200 M0 -200 L0 200 M100 -200 L100 200" stroke="#00f0ff" stroke-width="1" stroke-opacity="0.1" /><circle cx="0" cy="0" r="150" fill="url(#glowCenter)" /><g opacity="0.7"><polygon points="0,-120 104,60 -104,60" fill="none" stroke="#00f0ff" stroke-width="2" /><polygon points="0,120 -104,-60 104,-60" fill="none" stroke="#00f0ff" stroke-width="1" stroke-dasharray="10, 5" /></g><g opacity="0.6"><polygon points="50,-86 100,0 50,86 -50,86 -100,0 -50,-86" fill="none" stroke="#d500f9" stroke-width="2" /><polygon points="25,-43 50,0 25,43 -25,43 -50,0 -25,-43" fill="#d500f9" fill-opacity="0.1" stroke="none" /></g><circle cx="104" cy="60" r="4" fill="#ffffff" /><circle cx="-104" cy="60" r="4" fill="#ffffff" /><circle cx="0" cy="-120" r="4" fill="#ffffff" /><rect x="-140" y="-140" width="40" height="40" fill="none" stroke="#00f0ff" stroke-width="1" opacity="0.4" /><rect x="110" y="120" width="20" height="60" fill="#00f0ff" fill-opacity="0.2" /><rect x="-180" y="40" width="60" height="2" fill="#00f0ff" opacity="0.6" /><rect x="120" y="-80" width="40" height="2" fill="#d500f9" opacity="0.6" /><circle cx="0" cy="0" r="10" fill="#ffffff" /><circle cx="0" cy="0" r="15" fill="none" stroke="#00f0ff" stroke-width="2" /></g><pattern id="scanlines" x="0" y="0" width="4" height="4" patternUnits="userSpaceOnUse"><line x1="0" y1="2" x2="4" y2="2" stroke="#000" stroke-width="1" opacity="0.3" /></pattern><rect x="40" y="40" width="432" height="432" fill="url(#scanlines)" opacity="0.4" pointer-events="none" /><path d="M40 40 L300 40 L40 300 Z" fill="url(#glareGradient)" pointer-events="none" /><path d="M472 472 L250 472 L472 250 Z" fill="#ffffff" fill-opacity="0.03" pointer-events="none" /><circle cx="32" cy="32" r="2" fill="#111" /><circle cx="480" cy="32" r="2" fill="#111" /><circle cx="32" cy="480" r="2" fill="#111" /><circle cx="480" cy="480" r="2" fill="#111" /><circle cx="460" cy="460" r="3" fill="#00ff00" opacity="0.8" filter="blur(1px)" /><circle cx="460" cy="460" r="1.5" fill="#ccffcc" /><g stroke="#ffffff" stroke-width="0.5" opacity="0.15" stroke-linecap="round"><path d="M25 100 L30 110" /><path d="M480 200 L487 205" /><path d="M100 25 L110 27" /><path d="M300 487 L310 485" /></g></svg>