<svg xmlns="http://www.w3.org/2000/svg" viewBox="0 0 512 1024" width="512" height="1024"><defs><linearGradient id="metalBase" x1="0%" y1="0%" x2="100%" y2="100%"><stop offset="0%" stop-color="#3a3f44" /><stop offset="50%" stop-color="#2b2e33" /><stop offset="100%" stop-color="#1a1c1f" /></linearGradient><linearGradient id="metalTop" x1="0%" y1="0%" x2="0%" y2="100%"><stop offset="0%" stop-color="#5c636a" /><stop offset="10%" stop-color="#7e868e" /><stop offset="90%" stop-color="#4a5056" /><stop offset="100%" stop-color="#2e3236" /></linearGradient><linearGradient id="energyCore" x1="0%" y1="50%" x2="100%" y2="50%"><stop offset="0%" stop-color="#005f73" stop-opacity="0.8"/><stop offset="20%" stop-color="#0a9396" /><stop offset="50%" stop-color="#94d2bd" /><stop offset="80%" stop-color="#0a9396" /><stop offset="100%" stop-color="#005f73" stop-opacity="0.8"/></linearGradient><linearGradient id="energyPulse" x1="0%" y1="0%" x2="0%" y2="100%"><stop offset="0%" stop-color="#94d2bd" stop-opacity="0" /><stop offset="50%" stop-color="#e9d8a6" stop-opacity="0.8" /><stop offset="100%" stop-color="#94d2bd" stop-opacity="0" /></linearGradient><linearGradient id="cableDark" x1="0%" y1="0%" x2="100%" y2="0%"><stop offset="0%" stop-color="#111" /><stop offset="50%" stop-color="#333" /><stop offset="100%" stop-color="#111" /></linearGradient><filter id="dropShadow" x="-20%" y="-20%" width="140%" height="140%"><feGaussianBlur in="SourceAlpha" stdDeviation="4"/><feOffset dx="2" dy="4" result="offsetblur"/><feComponentTransfer><feFuncA type="linear" slope="0.5"/></feComponentTransfer><feMerge><feMergeNode/><feMergeNode in="SourceGraphic"/></feMerge></filter><filter id="glowBlur" x="-20%" y="-20%" width="140%" height="140%"><feGaussianBlur stdDeviation="6" result="coloredBlur"/><feMerge><feMergeNode in="coloredBlur"/><feMergeNode in="SourceGraphic"/></feMerge></filter></defs><ellipse cx="256" cy="512" rx="200" ry="480" fill="#000000" fill-opacity="0.4" filter="url(#dropShadow)" /><g transform="translate(0, 0)"><path d="M160,120 C120,100 80,140 60,180" fill="none" stroke="url(#cableDark)" stroke-width="14" stroke-linecap="round"/><path d="M160,120 C120,100 80,140 60,180" fill="none" stroke="#000" stroke-width="14" stroke-opacity="0.3" stroke-dasharray="4,4"/><path d="M352,120 C390,100 440,110 460,150" fill="none" stroke="url(#cableDark)" stroke-width="12" stroke-linecap="round"/><path d="M160,900 C120,920 80,900 50,950" fill="none" stroke="url(#cableDark)" stroke-width="16" stroke-linecap="round"/><path d="M180,880 C140,900 100,880 80,920" fill="none" stroke="url(#cableDark)" stroke-width="10" stroke-linecap="round"/><path d="M352,900 C400,930 420,980 440,1000" fill="none" stroke="url(#cableDark)" stroke-width="14" stroke-linecap="round"/></g><rect x="106" y="80" width="300" height="864" rx="30" fill="url(#metalBase)" stroke="#111" stroke-width="2" /><g fill="#1a1a1d"><circle cx="130" cy="110" r="6" /><circle cx="382" cy="110" r="6" /><circle cx="130" cy="914" r="6" /><circle cx="382" cy="914" r="6" /><circle cx="130" cy="512" r="6" /><circle cx="382" cy="512" r="6" /></g><rect x="126" y="100" width="260" height="824" rx="20" fill="#25282c" stroke="#000" stroke-width="2" /><path d="M130,150 L140,150 L140,874 L130,874 Z" fill="#111" opacity="0.6"/><path d="M372,150 L382,150 L382,874 L372,874 Z" fill="#111" opacity="0.6"/><rect x="186" y="130" width="140" height="764" rx="10" fill="#001d24" stroke="#000" stroke-width="2"/><g filter="url(#glowBlur)"><rect x="200" y="140" width="112" height="744" rx="8" fill="url(#energyCore)" /><rect x="220" y="140" width="72" height="744" rx="4" fill="url(#energyPulse)" opacity="0.8" /><path d="M220,200 Q256,220 290,200 T220,300 T290,400 T220,500 T290,600 T220,700 T290,800"           fill="none" stroke="#e0fbfc" stroke-width="2" opacity="0.6" stroke-linecap="round"/><path d="M290,180 Q256,200 220,180 T290,280 T220,380 T290,480 T220,580 T290,680 T220,780"           fill="none" stroke="#98f5e1" stroke-width="2" opacity="0.4" stroke-linecap="round"/></g><rect x="126" y="100" width="260" height="80" rx="10" fill="url(#metalTop)" filter="url(#dropShadow)" stroke="#333" stroke-width="1"/><rect x="166" y="120" width="180" height="40" rx="4" fill="#222" stroke="#444" stroke-width="1"/><circle cx="186" cy="140" r="8" fill="#a00" opacity="0.8"/><circle cx="210" cy="140" r="4" fill="#333" /><circle cx="300" cy="140" r="4" fill="#333" /><rect x="320" y="130" width="16" height="20" fill="#e9d8a6" opacity="0.5"/><rect x="126" y="844" width="260" height="80" rx="10" fill="url(#metalTop)" filter="url(#dropShadow)" stroke="#333" stroke-width="1"/><rect x="166" y="864" width="180" height="40" rx="4" fill="#222" stroke="#444" stroke-width="1"/><path d="M176,874 h160 v20 h-160 z" fill="none" stroke="#444" stroke-width="1" stroke-dasharray="4,4"/><g filter="url(#dropShadow)"><path d="M126,300 L386,300 L386,340 L126,340 Z" fill="url(#metalTop)" stroke="#222" stroke-width="1"/><rect x="126" y="300" width="260" height="40" fill="url(#metalTop)"/><rect x="126" y="310" width="30" height="20" fill="#333"/><rect x="356" y="310" width="30" height="20" fill="#333"/><rect x="236" y="300" width="40" height="40" fill="#444"/><circle cx="256" cy="320" r="12" fill="#222" stroke="#555" stroke-width="2"/><path d="M126,500 L386,500 L386,540 L126,540 Z" fill="url(#metalTop)" stroke="#222" stroke-width="1"/><rect x="126" y="500" width="260" height="40" fill="url(#metalTop)"/><rect x="126" y="510" width="30" height="20" fill="#333"/><rect x="356" y="510" width="30" height="20" fill="#333"/><rect x="236" y="500" width="40" height="40" fill="#444"/><circle cx="256" cy="520" r="12" fill="#222" stroke="#555" stroke-width="2"/><path d="M126,700 L386,700 L386,740 L126,740 Z" fill="url(#metalTop)" stroke="#222" stroke-width="1"/><rect x="126" y="700" width="260" height="40" fill="url(#metalTop)"/><rect x="126" y="710" width="30" height="20" fill="#333"/><rect x="356" y="710" width="30" height="20" fill="#333"/><rect x="236" y="700" width="40" height="40" fill="#444"/><circle cx="256" cy="720" r="12" fill="#222" stroke="#555" stroke-width="2"/></g><g stroke="#ffffff" stroke-width="1" stroke-opacity="0.4" fill="none"><path d="M136,110 L376,110" /><path d="M136,110 L136,170" stroke-opacity="0.2"/><path d="M126,302 L386,302" /><path d="M126,502 L386,502" /><path d="M126,702 L386,702" /><path d="M126,846 L386,846" /><path d="M136,82 L376,82" stroke-opacity="0.2"/></g><g stroke="#000" stroke-width="1" stroke-opacity="0.3" fill="none"><path d="M150,120 L160,125 M300,860 L290,855 M200,310 L210,305" /><path d="M350,520 L360,515 M140,720 L150,725" /></g><rect x="176" y="140" width="10" height="744" fill="#0a9396" opacity="0.2" /><rect x="326" y="140" width="10" height="744" fill="#0a9396" opacity="0.2" /></svg>