<svg xmlns="http://www.w3.org/2000/svg" viewBox="0 0 512 512" width="512" height="512" shape-rendering="geometricPrecision"><defs><linearGradient id="frameGrad" x1="0%" y1="0%" x2="100%" y2="100%"><stop offset="0%" stop-color="#555a60" /><stop offset="50%" stop-color="#2b2e33" /><stop offset="100%" stop-color="#1a1c1f" /></linearGradient><radialGradient id="deepVoid" cx="50%" cy="50%" r="70%"><stop offset="0%" stop-color="#05101a" /><stop offset="100%" stop-color="#000000" /></radialGradient><linearGradient id="fiberGlow" x1="0%" y1="0%" x2="0%" y2="100%"><stop offset="0%" stop-color="#00ffff" stop-opacity="0.9" /><stop offset="50%" stop-color="#0088ff" stop-opacity="0.8" /><stop offset="100%" stop-color="#0033aa" stop-opacity="0.6" /></linearGradient><linearGradient id="glassReflect" x1="0%" y1="0%" x2="100%" y2="100%"><stop offset="0%" stop-color="#ffffff" stop-opacity="0.2" /><stop offset="45%" stop-color="#ffffff" stop-opacity="0.05" /><stop offset="55%" stop-color="#ffffff" stop-opacity="0.0" /><stop offset="100%" stop-color="#000000" stop-opacity="0.2" /></linearGradient><radialGradient id="nodeGlow" cx="50%" cy="50%" r="50%"><stop offset="0%" stop-color="#ffffff" stop-opacity="1" /><stop offset="40%" stop-color="#00ffff" stop-opacity="0.8" /><stop offset="100%" stop-color="#0088ff" stop-opacity="0" /></radialGradient><pattern id="hexMesh" x="0" y="0" width="20" height="20" patternUnits="userSpaceOnUse"><path d="M10,0 L20,5 L20,15 L10,20 L0,15 L0,5 Z" fill="none" stroke="#00ffff" stroke-width="0.5" stroke-opacity="0.1"/></pattern></defs><rect x="35" y="35" width="442" height="442" rx="10" fill="#000000" fill-opacity="0.6" filter="blur(8px)" /><rect x="25" y="25" width="462" height="462" rx="8" fill="url(#frameGrad)" stroke="#151719" stroke-width="2" /><path d="M25 33 L25 25 L487 25 L479 33 Z" fill="#707880" fill-opacity="0.5" /><path d="M25 25 L33 33 L33 479 L25 487 Z" fill="#707880" fill-opacity="0.3" /><path d="M487 25 L487 487 L25 487 L33 479 L479 479 L479 33 Z" fill="#000000" fill-opacity="0.5" /><rect x="50" y="50" width="412" height="412" fill="url(#deepVoid)" stroke="#000000" stroke-width="4" /><g stroke="#0f2a3f" stroke-width="3" fill="none" stroke-linecap="round"><path d="M60 100 H 120 V 200 H 80" /><path d="M450 400 H 350 V 300 H 400" /><path d="M200 60 V 120 H 300" /><path d="M100 450 V 380 H 180" /><rect x="150" y="150" width="50" height="50" stroke-width="2" rx="5" stroke-opacity="0.5"/><rect x="300" y="300" width="60" height="40" stroke-width="2" rx="5" stroke-opacity="0.5"/></g><g stroke="url(#fiberGlow)" stroke-width="8" fill="none" stroke-linecap="round" stroke-opacity="0.4" filter="blur(2px)"><path d="M50 256 C 150 256, 150 150, 256 150 C 362 150, 362 256, 462 256" /><path d="M256 50 C 256 150, 150 150, 150 256 C 150 362, 256 362, 256 462" /><path d="M100 462 C 100 350, 200 350, 256 256" /><path d="M412 50 C 412 150, 300 200, 256 256" /></g><g fill="none" stroke-linecap="round"><g stroke="#00ffff" stroke-width="2"><path d="M50 250 C 140 250, 140 140, 256 144 C 360 148, 370 250, 462 250" /><path d="M50 262 C 160 262, 160 160, 256 156 C 350 152, 350 262, 462 262" /></g><g stroke="#00aaff" stroke-width="2"><path d="M250 50 C 250 140, 140 140, 144 256 C 148 360, 250 370, 250 462" /><path d="M262 50 C 262 160, 160 160, 156 256 C 152 350, 262 350, 262 462" /></g><g stroke="#ffffff" stroke-width="1" stroke-opacity="0.8"><path d="M100 462 C 100 350, 200 350, 256 256" /><path d="M412 50 C 412 150, 300 200, 256 256" /></g></g><g><circle cx="256" cy="150" r="6" fill="url(#nodeGlow)" /><circle cx="150" cy="256" r="6" fill="url(#nodeGlow)" /><circle cx="256" cy="256" r="10" fill="url(#nodeGlow)" /><circle cx="350" cy="200" r="4" fill="url(#nodeGlow)" /><circle cx="180" cy="350" r="4" fill="url(#nodeGlow)" /></g><rect x="50" y="50" width="412" height="412" fill="#001122" fill-opacity="0.3" /><rect x="50" y="50" width="412" height="412" fill="url(#hexMesh)" opacity="0.4" /><path d="M50 50 L462 50 L462 462 L50 462 Z M 60 60 L 60 452 L 452 452 L 452 60 Z" fill="#000000" fill-opacity="0.5" fill-rule="evenodd" /><g stroke="#ffffff" stroke-width="1" stroke-opacity="0.15" stroke-linecap="square" fill="none"><path d="M80 80 L120 100 M90 85 L110 90" /><path d="M400 420 L360 380 M390 410 L370 390" /><path d="M200 200 L230 205" /><path d="M300 350 L280 380" stroke-width="2" stroke-opacity="0.1" /><path d="M150 150 Q 180 180 150 210" stroke-width="20" stroke="#000000" stroke-opacity="0.1" filter="blur(4px)" /></g><path d="M50 462 L 50 200 L 200 50 L 462 50 L 462 60 L 210 60 L 60 210 L 60 462 Z" fill="url(#glassReflect)" /><g fill="#1a1c1f" stroke="#0d0e0f" stroke-width="1"><circle cx="37" cy="37" r="5" /><circle cx="475" cy="37" r="5" /><circle cx="37" cy="475" r="5" /><circle cx="475" cy="475" r="5" /></g><g fill="#666a70" stroke="none"><circle cx="36" cy="36" r="2" opacity="0.8"/><circle cx="474" cy="36" r="2" opacity="0.8"/><circle cx="36" cy="474" r="2" opacity="0.8"/><circle cx="474" cy="474" r="2" opacity="0.8"/></g><g stroke="#000000" stroke-width="1.5" stroke-linecap="round"><path d="M37 34 V 40 M 34 37 H 40" transform="rotate(45 37 37)" /><path d="M475 34 V 40 M 472 37 H 478" transform="rotate(45 475 37)" /><path d="M37 472 V 478 M 34 475 H 40" transform="rotate(45 37 475)" /><path d="M475 472 V 478 M 472 475 H 478" transform="rotate(45 475 475)" /></g><rect x="25" y="25" width="462" height="462" rx="8" fill="none" stroke="#ffffff" stroke-width="1" stroke-opacity="0.15" /></svg>