<svg xmlns="http://www.w3.org/2000/svg" viewBox="0 0 1024 1024" width="1024" height="1024"><defs><filter id="shadowBlur" x="-50%" y="-50%" width="200%" height="200%"><feGaussianBlur in="SourceAlpha" stdDeviation="20" result="blur"/><feOffset in="blur" dx="0" dy="30" result="offsetBlur"/><feComponentTransfer><feFuncA type="linear" slope="0.6"/></feComponentTransfer><feMerge><feMergeNode in="offsetBlur"/><feMergeNode in="SourceGraphic"/></feMerge></filter><filter id="glowBlur" x="-50%" y="-50%" width="200%" height="200%"><feGaussianBlur stdDeviation="15" result="coloredBlur"/><feMerge><feMergeNode in="coloredBlur"/><feMergeNode in="SourceGraphic"/></feMerge></filter><linearGradient id="shellGradient" x1="0%" y1="0%" x2="0%" y2="100%"><stop offset="0%" stop-color="#2a2a2e"/><stop offset="50%" stop-color="#111111"/><stop offset="100%" stop-color="#050505"/></linearGradient><linearGradient id="cushionGradient" x1="0%" y1="0%" x2="100%" y2="100%"><stop offset="0%" stop-color="#333333"/><stop offset="100%" stop-color="#1a1a1a"/></linearGradient><radialGradient id="leatherHighlight" cx="50%" cy="30%" r="60%"><stop offset="0%" stop-color="#4d4d4d" stop-opacity="0.4"/><stop offset="100%" stop-color="#1a1a1a" stop-opacity="0"/></radialGradient><linearGradient id="techGlow" x1="0%" y1="0%" x2="100%" y2="0%"><stop offset="0%" stop-color="#00ffff" stop-opacity="0.8"/><stop offset="100%" stop-color="#0088ff" stop-opacity="0.8"/></linearGradient><radialGradient id="thrusterGlow" cx="50%" cy="50%" r="50%"><stop offset="0%" stop-color="#00eaff" stop-opacity="0.6"/><stop offset="70%" stop-color="#005577" stop-opacity="0.2"/><stop offset="100%" stop-color="#000000" stop-opacity="0"/></radialGradient><linearGradient id="metalRim" x1="0%" y1="0%" x2="100%" y2="0%"><stop offset="0%" stop-color="#555"/><stop offset="50%" stop-color="#aaa"/><stop offset="100%" stop-color="#555"/></linearGradient></defs><ellipse cx="512" cy="580" rx="300" ry="280" fill="#000000" opacity="0.6" filter="url(#shadowBlur)"/><ellipse cx="512" cy="550" rx="200" ry="180" fill="url(#thrusterGlow)" filter="url(#glowBlur)"/><g transform="translate(0, -20)"><path d="M 320,150 L 704,150 L 780,300 L 820,600 L 750,850 L 650,900 L 374,900 L 274,850 L 204,600 L 244,300 Z"           fill="url(#shellGradient)" stroke="#1a1a1a" stroke-width="4"/><path d="M 274,850 L 374,900 L 650,900 L 750,850 L 720,800 L 304,800 Z"           fill="#111" stroke="#333" stroke-width="2"/><path d="M 380,820 L 644,820 L 620,880 L 404,880 Z"           fill="#222" stroke="#444" stroke-width="1"><pattern id="grip" patternUnits="userSpaceOnUse" width="10" height="10"><circle cx="5" cy="5" r="1" fill="#000" opacity="0.5"/></pattern></path><path d="M 380,820 L 644,820 L 620,880 L 404,880 Z" fill="url(#grip)" opacity="0.5"/><path d="M 220,600 L 260,350 L 320,350 L 320,650 L 260,750 Z"           fill="#151515" stroke="#333" stroke-width="2"/><path d="M 804,600 L 764,350 L 704,350 L 704,650 L 764,750 Z"           fill="#151515" stroke="#333" stroke-width="2"/><path d="M 320,350 L 704,350 L 680,750 L 344,750 Z"           fill="#0a0a0a"/><path d="M 330,650 L 694,650 L 710,800 C 710,820 680,830 650,830 L 374,830 C 344,830 314,820 314,800 Z"           fill="url(#cushionGradient)" stroke="#000" stroke-width="2"/><ellipse cx="512" cy="720" rx="150" ry="60" fill="url(#leatherHighlight)"/><path d="M 450,650 Q 440,750 420,830" stroke="#000" stroke-width="2" fill="none" opacity="0.5"/><path d="M 574,650 Q 584,750 604,830" stroke="#000" stroke-width="2" fill="none" opacity="0.5"/><path d="M 340,650 L 684,650 L 670,480 L 354,480 Z"           fill="#222" stroke="#000" stroke-width="3"/><rect x="360" y="500" width="304" height="130" rx="10" fill="url(#leatherHighlight)" opacity="0.3"/><path d="M 354,480 L 670,480 L 650,250 L 374,250 Z"           fill="#222" stroke="#000" stroke-width="3"/><path d="M 480,260 L 544,260 L 530,640 L 494,640 Z" fill="#1a1a1a" stroke="#000" stroke-width="1"/><path d="M 400,250 L 624,250 L 640,140 L 384,140 Z"           fill="#262626" stroke="#000" stroke-width="2"/><ellipse cx="512" cy="190" rx="80" ry="30" fill="#444" opacity="0.3"/><path d="M 250,650 L 300,650 L 290,720 L 260,720 Z" fill="#000" stroke="#333" stroke-width="1"/><rect x="265" y="660" width="25" height="40" fill="#002233"/><circle cx="275" cy="670" r="3" fill="#00ffff" opacity="0.8" filter="url(#glowBlur)"/><rect x="270" y="680" width="15" height="2" fill="#00ffff" opacity="0.6"/><rect x="270" y="685" width="10" height="2" fill="#00ffff" opacity="0.6"/><path d="M 724,650 L 774,650 L 764,720 L 734,720 Z" fill="#000" stroke="#333" stroke-width="1"/><rect x="734" y="660" width="25" height="40" fill="#002233"/><path d="M 738,665 L 755,665 L 755,690 L 738,690 Z" fill="none" stroke="#00ffff" stroke-width="1" opacity="0.7"/><circle cx="746" cy="677" r="5" fill="#00ffff" opacity="0.4"/><path d="M 490,160 L 534,160 L 528,220 L 496,220 Z" fill="#111"/><path d="M 512,170 L 512,210" stroke="#00ffff" stroke-width="3" stroke-linecap="round" filter="url(#glowBlur)"/><path d="M 320,150 L 244,300 L 204,600 L 274,850" fill="none" stroke="#555" stroke-width="2" opacity="0.8"/><path d="M 704,150 L 780,300 L 820,600 L 750,850" fill="none" stroke="#555" stroke-width="2" opacity="0.8"/><path d="M 384,140 L 640,140" fill="none" stroke="#777" stroke-width="2" opacity="0.9"/><path d="M 230,500 L 240,510 M 235,505 L 225,515" stroke="#555" stroke-width="1" opacity="0.5"/><path d="M 790,550 L 800,560" stroke="#555" stroke-width="1" opacity="0.5"/><g opacity="0.1"><circle cx="400" cy="400" r="1" fill="#fff"/><circle cx="600" cy="600" r="1" fill="#fff"/><circle cx="450" cy="700" r="1.5" fill="#fff"/><circle cx="550" cy="300" r="1" fill="#fff"/><circle cx="500" cy="500" r="2" fill="#000"/><circle cx="350" cy="750" r="1" fill="#000"/></g></g></svg>