<svg xmlns="http://www.w3.org/2000/svg" viewBox="0 0 512 512" shape-rendering="geometricPrecision" width="512" height="512"><defs><linearGradient id="metalFrame" x1="0%" y1="0%" x2="100%" y2="100%"><stop offset="0%" stop-color="#5a6069"/><stop offset="50%" stop-color="#3b3f45"/><stop offset="100%" stop-color="#2a2d33"/></linearGradient><linearGradient id="metalBar" x1="0%" y1="0%" x2="0%" y2="100%"><stop offset="0%" stop-color="#6d747e"/><stop offset="40%" stop-color="#3b3f45"/><stop offset="60%" stop-color="#22252a"/><stop offset="100%" stop-color="#15171a"/></linearGradient><radialGradient id="pitDepth" cx="50%" cy="50%" r="50%"><stop offset="0%" stop-color="#050505"/><stop offset="80%" stop-color="#0a0b10"/><stop offset="100%" stop-color="#1a1c24"/></radialGradient><linearGradient id="airFlow" x1="0%" y1="100%" x2="0%" y2="0%"><stop offset="0%" stop-color="#a0e0ff" stop-opacity="0"/><stop offset="50%" stop-color="#d0f0ff" stop-opacity="0.3"/><stop offset="100%" stop-color="#ffffff" stop-opacity="0"/></linearGradient><radialGradient id="rivetGrad" cx="30%" cy="30%" r="70%"><stop offset="0%" stop-color="#9ea5b0"/><stop offset="100%" stop-color="#2a2d33"/></radialGradient></defs><rect x="45" y="45" width="422" height="422" rx="12" ry="12" fill="#000000" fill-opacity="0.6" filter="blur(4)"/><rect x="54" y="54" width="404" height="404" rx="4" ry="4" fill="url(#pitDepth)"/><g opacity="0.4" transform="translate(256, 256)"><circle r="160" fill="none" stroke="#2a3038" stroke-width="2"/><path d="M0 0 L-100 -120 L-60 -140 Z" fill="#15171a"/><path d="M0 0 L100 120 L60 140 Z" fill="#15171a"/><path d="M0 0 L120 -100 L140 -60 Z" fill="#15171a"/><path d="M0 0 L-120 100 L-140 60 Z" fill="#15171a"/></g><circle cx="256" cy="256" r="150" fill="url(#airFlow)" opacity="0.4"/><path d="M40 40 h432 v432 h-432 z M80 80 v352 h352 v-352 z" fill="url(#metalFrame)" stroke="#1a1c20" stroke-width="2"/><path d="M40 40 L80 80 L432 80 L472 40 Z" fill="#6d747e" fill-opacity="0.3"/><path d="M40 40 L80 80 L80 432 L40 472 Z" fill="#6d747e" fill-opacity="0.1"/><path d="M472 472 L432 432 L80 432 L40 472 Z" fill="#000000" fill-opacity="0.4"/><path d="M472 472 L432 432 L432 80 L472 40 Z" fill="#000000" fill-opacity="0.5"/><g fill="#3e2723" fill-opacity="0.4"><path d="M50 120 l5 2 l-3 5 z"/><path d="M450 300 l-4 6 l6 2 z"/><path d="M100 460 l8 -2 l2 4 z"/><circle cx="60" cy="400" r="12" fill-opacity="0.2"/><path d="M400 60 l10 5 l-2 8 z" opacity="0.6"/></g><g stroke="#1a1c20" stroke-width="1"><rect x="246" y="80" width="20" height="352" fill="url(#metalBar)"/><rect x="80" y="100" width="352" height="24" fill="url(#metalBar)"/><rect x="80" y="100" width="352" height="4" fill="#88909c" fill-opacity="0.3"/><rect x="80" y="160" width="352" height="24" fill="url(#metalBar)"/><rect x="80" y="160" width="352" height="4" fill="#88909c" fill-opacity="0.3"/><rect x="80" y="220" width="352" height="24" fill="url(#metalBar)"/><rect x="80" y="220" width="352" height="4" fill="#88909c" fill-opacity="0.3"/><rect x="80" y="280" width="352" height="24" fill="url(#metalBar)"/><rect x="80" y="280" width="352" height="4" fill="#88909c" fill-opacity="0.3"/><rect x="80" y="340" width="352" height="24" fill="url(#metalBar)"/><rect x="80" y="340" width="352" height="4" fill="#88909c" fill-opacity="0.3"/><rect x="80" y="400" width="352" height="24" fill="url(#metalBar)"/><rect x="80" y="400" width="352" height="4" fill="#88909c" fill-opacity="0.3"/></g><g fill="#5d4037" fill-opacity="0.5"><circle cx="120" cy="112" r="6"/><path d="M300 170 l15 0 l-5 8 z"/><rect x="246" y="220" width="20" height="24" fill="#000" fill-opacity="0.3"/><circle cx="380" cy="350" r="5"/><path d="M150 410 l20 2 l-10 6 z"/></g><g stroke="#1a1c20" stroke-width="1"><circle cx="60" cy="60" r="10" fill="url(#rivetGrad)"/><circle cx="452" cy="60" r="10" fill="url(#rivetGrad)"/><circle cx="60" cy="452" r="10" fill="url(#rivetGrad)"/><circle cx="452" cy="452" r="10" fill="url(#rivetGrad)"/><circle cx="256" cy="55" r="7" fill="url(#rivetGrad)"/><circle cx="256" cy="457" r="7" fill="url(#rivetGrad)"/><circle cx="55" cy="256" r="7" fill="url(#rivetGrad)"/><circle cx="457" cy="256" r="7" fill="url(#rivetGrad)"/></g><g stroke-linecap="round" fill="none" opacity="0.6"><path d="M150 140 Q 140 100 130 80" stroke="url(#airFlow)" stroke-width="4" stroke-opacity="0.6"/><path d="M160 300 Q 150 250 145 200" stroke="url(#airFlow)" stroke-width="3" stroke-opacity="0.4"/><path d="M256 380 Q 256 300 260 200" stroke="#d0f0ff" stroke-width="6" stroke-opacity="0.15"/><path d="M240 320 Q 230 250 235 180" stroke="url(#airFlow)" stroke-width="2" stroke-opacity="0.5"/><path d="M350 350 Q 360 300 370 250" stroke="url(#airFlow)" stroke-width="3" stroke-opacity="0.4"/><path d="M380 150 Q 390 100 400 80" stroke="url(#airFlow)" stroke-width="4" stroke-opacity="0.6"/><circle cx="200" cy="200" r="2" fill="#d0f0ff" fill-opacity="0.6"/><circle cx="312" cy="150" r="1.5" fill="#d0f0ff" fill-opacity="0.5"/><circle cx="280" cy="300" r="2.5" fill="#d0f0ff" fill-opacity="0.4"/></g><g fill="#ffffff" fill-opacity="0.2"><path d="M50 50 L60 51 L51 60 Z"/><path d="M460 45 L450 48 L465 55 Z"/><path d="M40 40 h432 v2 h-432 z" fill-opacity="0.4"/><path d="M40 40 v432 h2 v-432 z" fill-opacity="0.3"/></g></svg>