<svg xmlns="http://www.w3.org/2000/svg" viewBox="0 0 512 512" width="512" height="512"><defs><filter id="grungeFilter" x="-20%" y="-20%" width="140%" height="140%"><feTurbulence type="fractalNoise" baseFrequency="0.04" numOctaves="3" result="noise" /><feColorMatrix type="matrix" values="1 0 0 0 0  0 1 0 0 0  0 0 1 0 0  0 0 0 0.4 0" in="noise" result="coloredNoise" /><feComposite operator="in" in="coloredNoise" in2="SourceGraphic" result="composite" /><feBlend mode="multiply" in="composite" in2="SourceGraphic" /></filter><filter id="edgeRoughness"><feTurbulence type="fractalNoise" baseFrequency="0.08" numOctaves="2" result="noise" /><feDisplacementMap in="SourceGraphic" in2="noise" scale="3" /></filter><linearGradient id="yellowGradient" x1="0%" y1="0%" x2="100%" y2="100%"><stop offset="0%" stop-color="#FFD54F" /><stop offset="50%" stop-color="#F2C94C" /><stop offset="100%" stop-color="#D4A017" /></linearGradient><linearGradient id="blackGradient" x1="0%" y1="0%" x2="100%" y2="100%"><stop offset="0%" stop-color="#333333" /><stop offset="100%" stop-color="#111111" /></linearGradient><radialGradient id="wearGradient" cx="50%" cy="50%" r="50%"><stop offset="70%" stop-color="#000000" stop-opacity="0" /><stop offset="100%" stop-color="#000000" stop-opacity="0.6" /></radialGradient><linearGradient id="metalSheen" x1="0%" y1="0%" x2="0%" y2="100%"><stop offset="0%" stop-color="#ffffff" stop-opacity="0.1"/><stop offset="50%" stop-color="#ffffff" stop-opacity="0"/><stop offset="100%" stop-color="#000000" stop-opacity="0.2"/></linearGradient></defs><g transform="translate(256, 256)"><ellipse cx="0" cy="4" rx="230" ry="230" fill="#000000" fill-opacity="0.3" filter="url(#edgeRoughness)" /><circle cx="0" cy="0" r="225" fill="#222" filter="url(#edgeRoughness)" /><mask id="ringMask"><rect x="-256" y="-256" width="512" height="512" fill="white" /><circle cx="0" cy="0" r="140" fill="black" /><circle cx="0" cy="0" r="220" fill="white" stroke="black" stroke-width="10" /></mask><g mask="url(#ringMask)"><rect x="-230" y="-230" width="460" height="460" fill="url(#yellowGradient)" /><g fill="url(#blackGradient)" transform="rotate(45)"><rect x="-300" y="-20" width="600" height="40" /><rect x="-300" y="60" width="600" height="40" /><rect x="-300" y="140" width="600" height="40" /><rect x="-300" y="220" width="600" height="40" /><rect x="-300" y="-100" width="600" height="40" /><rect x="-300" y="-180" width="600" height="40" /><rect x="-300" y="-260" width="600" height="40" /></g></g><circle cx="0" cy="0" r="140" fill="none" stroke="#444" stroke-width="6" /><circle cx="0" cy="0" r="137" fill="none" stroke="#111" stroke-width="2" /><circle cx="0" cy="0" r="135" fill="#1A1A1A" /><path d="M-80 -45 L0 -90 L80 -45 L80 45 L0 90 L-80 45 Z" fill="#2A2A2A" stroke="#444" stroke-width="4" stroke-linejoin="round" /><g transform="scale(0.8)"><path d="M-40 -40 L-20 -40 L-10 0 L-20 40 L-40 40 L-30 0 Z" fill="#F2C94C" opacity="0.9" /><path d="M40 -40 L20 -40 L30 0 L20 40 L40 40 L50 0 Z" fill="#F2C94C" opacity="0.9" /><rect x="-5" y="-50" width="10" height="100" fill="#F2C94C" opacity="0.9" /></g><circle cx="0" cy="0" r="225" fill="url(#wearGradient)" style="mix-blend-mode: multiply;" /><g stroke="#FFFFFF" stroke-opacity="0.3" stroke-width="1" fill="none" stroke-linecap="round"><path d="M-180 40 L-160 50 M-170 45 L-165 60" /><path d="M120 -100 L140 -90 M130 -110 L125 -80" /><path d="M50 180 L70 185 M60 170 L55 190" /><path d="M-10 -10 L10 10 M-5 5 L5 -5" opacity="0.5"/></g><path d="M-100 150 Q-80 180 -60 160 T-20 170 T20 150 Q50 180 80 140"           fill="none" stroke="#000000" stroke-opacity="0.4" stroke-width="30" filter="url(#edgeRoughness)" opacity="0.5" /><path d="M150 -50 Q180 -20 160 10"           fill="none" stroke="#3e2723" stroke-opacity="0.5" stroke-width="20" filter="url(#edgeRoughness)" opacity="0.6" /><circle cx="0" cy="0" r="225" fill="url(#metalSheen)" pointer-events="none" /><path d="M220 0 A220 220 0 0 1 210 50 L215 45 A225 225 0 0 0 225 0 Z" fill="#333" opacity="0.8" /><path d="M-220 0 A220 220 0 0 0 -210 -50 L-215 -45 A225 225 0 0 1 -225 0 Z" fill="#333" opacity="0.8" /><g transform="translate(0, 110)" opacity="0.6"><path d="M-20 0 L-15 -10 L15 -10 L20 0 L15 10 L-15 10 Z" fill="#000" /><rect x="-12" y="-2" width="24" height="4" fill="#F2C94C" /></g></g></svg>