<svg width="512" height="512" viewBox="0 0 512 512" xmlns="http://www.w3.org/2000/svg">

<g>
  <path d="M100,350 l50,-20 l262,0 l50,20 z" fill="#8B4513" stroke="#54331A" stroke-width="8"/>
  <path d="M120,350 l20,-70" stroke="#54331A" stroke-width="8"/>
  <path d="M372,350 l20,-70" stroke="#54331A" stroke-width="8"/>

  <path d="M100,350 l0,50" stroke="#54331A" stroke-width="8"/>
  <path d="M150,330 l0,70" stroke="#54331A" stroke-width="8"/>
  <path d="M362,330 l0,70" stroke="#54331A" stroke-width="8"/>
  <path d="M412,350 l0,50" stroke="#54331A" stroke-width="8"/>

  <path d="M100,400 l50,0 l0,20 l-50,0 z" fill="#8B4513" stroke="#54331A" stroke-width="8"/>
  <path d="M362,400 l50,0 l0,20 l-50,0 z" fill="#8B4513" stroke="#54331A" stroke-width="8"/>

  <path d="M100,420 l0,30" stroke="#54331A" stroke-width="8"/>
  <path d="M150,420 l0,30" stroke="#54331A" stroke-width="8"/>
  <path d="M362,420 l0,30" stroke="#54331A" stroke-width="8"/>
  <path d="M412,420 l0,30" stroke="#54331A" stroke-width="8"/>

  <path d="M100,450 l50,0 l0,20 l-50,0 z" fill="#8B4513" stroke="#54331A" stroke-width="8"/>
  <path d="M362,450 l50,0 l0,20 l-50,0 z" fill="#8B4513" stroke="#54331A" stroke-width="8"/>

  <path d="M100,470 l0,15" stroke="#54331A" stroke-width="8"/>
  <path d="M150,470 l0,15" stroke="#54331A" stroke-width="8"/>
  <path d="M362,470 l0,15" stroke="#54331A" stroke-width="8"/>
  <path d="M412,470 l0,15" stroke="#54331A" stroke-width="8"/>

  <path d="M100,485 l50,0 l0,15 l-50,0 z" fill="#8B4513" stroke="#54331A" stroke-width="8"/>
  <path d="M362,485 l50,0 l0,15 l-50,0 z" fill="#8B4513" stroke="#54331A" stroke-width="8"/>

  <path d="M100,350 l 312,0" stroke="#54331A" stroke-width="8"/>

  <path d="M 256, 485 a 16,8 0 1,0 0.001,-0.001" fill="rgba(0,0,0,0.2)" transform="translate(0,5)"/>

  <path d="M256,350 l 0, 20" stroke="#54331A" stroke-width="8"/>
  <path d="M170,330 l 0, 20" stroke="#54331A" stroke-width="8"/>
  <path d="M256,330 l 0, 20" stroke="#54331A" stroke-width="8"/>
  <path d="M342,330 l 0, 20" stroke="#54331A" stroke-width="8"/>

  <path d="M170,350 l 0,50" stroke="#54331A" stroke-width="8"/>
  <path d="M256,350 l 0,50" stroke="#54331A" stroke-width="8"/>
  <path d="M342,350 l 0,50" stroke="#54331A" stroke-width="8"/>

  <path d="M170,400 l 0,20" stroke="#54331A" stroke-width="8"/>
  <path d="M256,400 l 0,20" stroke="#54331A" stroke-width="8"/>
  <path d="M342,400 l 0,20" stroke="#54331A" stroke-width="8"/>

  <path d="M170,420 l 0,30" stroke="#54331A" stroke-width="8"/>
  <path d="M256,420 l 0,30" stroke="#54331A" stroke-width="8"/>
  <path d="M342,420 l 0,30" stroke="#54331A" stroke-width="8"/>

  <path d="M170,450 l 0,20" stroke="#54331A" stroke-width="8"/>
  <path d="M256,450 l 0,20" stroke="#54331A" stroke-width="8"/>
  <path d="M342,450 l 0,20" stroke="#54331A" stroke-width="8"/>

  <path d="M170,470 l 0,15" stroke="#54331A" stroke-width="8"/>
  <path d="M256,470 l 0,15" stroke="#54331A" stroke-width="8"/>
  <path d="M342,470 l 0,15" stroke="#54331A" stroke-width="8"/>

  <path d="M170,485 l 0,15" stroke="#54331A" stroke-width="8"/>
  <path d="M256,485 l 0,15" stroke="#54331A" stroke-width="8"/>
  <path d="M342,485 l 0,15" stroke="#54331A" stroke-width="8"/>

</g>
</svg>