<svg width="512" height="512" viewBox="0 0 512 512" xmlns="http://www.w3.org/2000/svg">
  
  
  
  <ellipse cx="256" cy="266" rx="70" ry="30" fill="rgba(0, 0, 0, 0.2)"/>

  
  <circle cx="256" cy="240" r="80" fill="#A0522D" stroke="#703214" stroke-width="6"/>

  
  <rect x="236" y="290" width="40" height="60" fill="#A0522D" stroke="#703214" stroke-width="6"/>

  
  <ellipse cx="140" cy="350" rx="20" ry="8" fill="rgba(0, 0, 0, 0.15)"/>
  
  <rect x="120" y="320" width="40" height="50" fill="#DEB887" stroke="#A98D6F" stroke-width="4"/>
  <rect x="120" y="300" width="40" height="20" fill="#DEB887" stroke="#A98D6F" stroke-width="4"/>

  
  <ellipse cx="372" cy="350" rx="20" ry="8" fill="rgba(0, 0, 0, 0.15)"/>
  
  <rect x="352" y="320" width="40" height="50" fill="#DEB887" stroke="#A98D6F" stroke-width="4"/>
   <rect x="352" y="300" width="40" height="20" fill="#DEB887" stroke="#A98D6F" stroke-width="4"/>

  
  <ellipse cx="150" cy="140" rx="20" ry="8" fill="rgba(0, 0, 0, 0.15)"/>
  
  <rect x="130" y="110" width="40" height="50" fill="#DEB887" stroke="#A98D6F" stroke-width="4"/>
  <rect x="130" y="90" width="40" height="20" fill="#DEB887" stroke="#A98D6F" stroke-width="4"/>

  
  <ellipse cx="362" cy="140" rx="20" ry="8" fill="rgba(0, 0, 0, 0.15)"/>
  
  <rect x="342" y="110" width="40" height="50" fill="#DEB887" stroke="#A98D6F" stroke-width="4"/>
  <rect x="342" y="90" width="40" height="20" fill="#DEB887" stroke="#A98D6F" stroke-width="4"/>
</svg>