<svg xmlns="http://www.w3.org/2000/svg" viewBox="0 0 1024 1024" width="1024" height="1024"><defs><radialGradient id="metalBase" cx="50%" cy="50%" r="50%" fx="50%" fy="50%"><stop offset="60%" stop-color="#2a2e35" /><stop offset="85%" stop-color="#1a1c21" /><stop offset="100%" stop-color="#0d0e11" /></radialGradient><linearGradient id="metalSheen" x1="0%" y1="0%" x2="0%" y2="100%"><stop offset="0%" stop-color="#555a66" /><stop offset="50%" stop-color="#3b404a" /><stop offset="100%" stop-color="#22252b" /></linearGradient><radialGradient id="coreGlow" cx="50%" cy="50%" r="50%" fx="50%" fy="50%"><stop offset="0%" stop-color="#ffffff" stop-opacity="1" /><stop offset="25%" stop-color="#d0f0ff" stop-opacity="0.9" /><stop offset="45%" stop-color="#00ccff" stop-opacity="0.8" /><stop offset="70%" stop-color="#0066cc" stop-opacity="0.6" /><stop offset="100%" stop-color="#001133" stop-opacity="0" /></radialGradient><radialGradient id="plasmaTurbulence" cx="50%" cy="50%" r="50%"><stop offset="30%" stop-color="#ffffff" stop-opacity="0" /><stop offset="60%" stop-color="#00ffff" stop-opacity="0.4" /><stop offset="90%" stop-color="#0033aa" stop-opacity="0.8" /></radialGradient><pattern id="hazard" x="0" y="0" width="20" height="20" patternUnits="userSpaceOnUse" patternTransform="rotate(45)"><rect x="0" y="0" width="10" height="20" fill="#cc9900" /><rect x="10" y="0" width="10" height="20" fill="#111" /></pattern></defs><ellipse cx="512" cy="512" rx="460" ry="460" fill="#000000" fill-opacity="0.5" filter="blur(10px)" /><circle cx="512" cy="512" r="450" fill="url(#metalBase)" stroke="#111" stroke-width="4" shape-rendering="geometricPrecision" /><path d="M512 62 A450 450 0 0 1 962 512 L892 512 A380 380 0 0 0 512 132 Z" fill="#353b45" stroke="#111" stroke-width="2" /><path d="M962 512 A450 450 0 0 1 512 962 L512 892 A380 380 0 0 0 892 512 Z" fill="#2f343d" stroke="#111" stroke-width="2" /><path d="M512 962 A450 450 0 0 1 62 512 L132 512 A380 380 0 0 0 512 892 Z" fill="#353b45" stroke="#111" stroke-width="2" /><path d="M62 512 A450 450 0 0 1 512 62 L512 132 A380 380 0 0 0 132 512 Z" fill="#2f343d" stroke="#111" stroke-width="2" /><g stroke="#1a1c21" stroke-width="2"><rect x="200" y="150" width="60" height="40" fill="#222" transform="rotate(45 230 170)" rx="4" /><rect x="150" y="200" width="40" height="60" fill="#222" transform="rotate(45 170 230)" rx="4" /><rect x="764" y="150" width="60" height="40" fill="#222" transform="rotate(-45 794 170)" rx="4" /><rect x="834" y="200" width="40" height="60" fill="#222" transform="rotate(-45 854 230)" rx="4" /><rect x="764" y="834" width="60" height="40" fill="#222" transform="rotate(45 794 854)" rx="4" /><rect x="834" y="764" width="40" height="60" fill="#222" transform="rotate(45 854 794)" rx="4" /><rect x="200" y="834" width="60" height="40" fill="#222" transform="rotate(-45 230 854)" rx="4" /><rect x="150" y="764" width="40" height="60" fill="#222" transform="rotate(-45 170 794)" rx="4" /></g><circle cx="512" cy="512" r="320" fill="url(#metalSheen)" stroke="#000" stroke-width="3" /><path d="M512 192 A320 320 0 0 1 650 225 L630 255 A280 280 0 0 0 512 222 Z" fill="url(#hazard)" stroke="#000" stroke-width="1"/><path d="M512 832 A320 320 0 0 1 374 799 L394 769 A280 280 0 0 0 512 802 Z" fill="url(#hazard)" stroke="#000" stroke-width="1"/><path d="M832 512 A320 320 0 0 1 799 650 L769 630 A280 280 0 0 0 802 512 Z" fill="url(#hazard)" stroke="#000" stroke-width="1"/><path d="M192 512 A320 320 0 0 1 225 374 L255 394 A280 280 0 0 0 222 512 Z" fill="url(#hazard)" stroke="#000" stroke-width="1"/><g><path d="M472 192 L552 192 L542 300 L482 300 Z" fill="#333" stroke="#555" stroke-width="2" /><rect x="480" y="200" width="64" height="10" fill="#00ccff" fill-opacity="0.3" rx="2" /><rect x="480" y="220" width="64" height="10" fill="#00ccff" fill-opacity="0.3" rx="2" /><path d="M832 472 L832 552 L724 542 L724 482 Z" fill="#333" stroke="#555" stroke-width="2" /><rect x="790" y="480" width="10" height="64" fill="#00ccff" fill-opacity="0.3" rx="2" /><rect x="770" y="480" width="10" height="64" fill="#00ccff" fill-opacity="0.3" rx="2" /><path d="M472 832 L552 832 L542 724 L482 724 Z" fill="#333" stroke="#555" stroke-width="2" /><rect x="480" y="814" width="64" height="10" fill="#00ccff" fill-opacity="0.3" rx="2" /><rect x="480" y="794" width="64" height="10" fill="#00ccff" fill-opacity="0.3" rx="2" /><path d="M192 472 L192 552 L300 542 L300 482 Z" fill="#333" stroke="#555" stroke-width="2" /><rect x="224" y="480" width="10" height="64" fill="#00ccff" fill-opacity="0.3" rx="2" /><rect x="244" y="480" width="10" height="64" fill="#00ccff" fill-opacity="0.3" rx="2" /></g><circle cx="512" cy="512" r="250" fill="#050510" stroke="#000" stroke-width="4" /><circle cx="512" cy="512" r="230" fill="none" stroke="#1a202e" stroke-width="10" stroke-dasharray="20 10" /><circle cx="512" cy="512" r="200" fill="none" stroke="#111" stroke-width="40" /><circle cx="512" cy="512" r="180" fill="url(#plasmaTurbulence)" opacity="0.8"><animateTransform attributeName="transform" type="rotate" from="0 512 512" to="360 512 512" dur="20s" repeatCount="indefinite" /></circle><g opacity="0.6"><path d="M512 380 Q644 380 644 512 Q644 644 512 644 Q380 644 380 512 Q380 380 512 380 Z" fill="none" stroke="#00aaff" stroke-width="20" stroke-linecap="round" stroke-dasharray="50 150"><animateTransform attributeName="transform" type="rotate" from="360 512 512" to="0 512 512" dur="10s" repeatCount="indefinite" /></path><path d="M512 420 Q604 420 604 512 Q604 604 512 604 Q420 604 420 512 Q420 420 512 420 Z" fill="none" stroke="#ffffff" stroke-width="10" stroke-linecap="round" stroke-dasharray="20 80"><animateTransform attributeName="transform" type="rotate" from="0 512 512" to="360 512 512" dur="5s" repeatCount="indefinite" /></path></g><circle cx="512" cy="512" r="150" fill="url(#coreGlow)" /><circle cx="512" cy="512" r="60" fill="#ffffff" filter="blur(2px)" /><circle cx="512" cy="512" r="252" fill="none" stroke="#00ccff" stroke-width="4" stroke-opacity="0.4" stroke-dasharray="100 470" stroke-dashoffset="50" transform="rotate(45 512 512)"/><circle cx="512" cy="512" r="252" fill="none" stroke="#00ccff" stroke-width="4" stroke-opacity="0.4" stroke-dasharray="100 470" stroke-dashoffset="50" transform="rotate(135 512 512)"/><circle cx="512" cy="512" r="252" fill="none" stroke="#00ccff" stroke-width="4" stroke-opacity="0.4" stroke-dasharray="100 470" stroke-dashoffset="50" transform="rotate(225 512 512)"/><circle cx="512" cy="512" r="252" fill="none" stroke="#00ccff" stroke-width="4" stroke-opacity="0.4" stroke-dasharray="100 470" stroke-dashoffset="50" transform="rotate(315 512 512)"/><g opacity="0.3" fill="#000"><path d="M200 500 L250 502 L200 504 Z" /><path d="M800 600 L750 601 L800 602 Z" /><circle cx="600" cy="200" r="2" /><circle cx="580" cy="180" r="3" /><circle cx="400" cy="850" r="4" /><path d="M300 300 Q320 280 340 300 T380 320 T350 350 T300 300" fill="#111" opacity="0.5"/></g><path d="M512 64 A448 448 0 0 1 960 512" fill="none" stroke="#777" stroke-width="2" stroke-opacity="0.5" /><path d="M512 194 A318 318 0 0 1 830 512" fill="none" stroke="#aaa" stroke-width="2" stroke-opacity="0.6" /><g fill="#111" stroke="#333" stroke-width="1"><circle cx="512" cy="100" r="5" /><circle cx="512" cy="924" r="5" /><circle cx="100" cy="512" r="5" /><circle cx="924" cy="512" r="5" /><circle cx="220" cy="220" r="5" /><circle cx="804" cy="220" r="5" /><circle cx="220" cy="804" r="5" /><circle cx="804" cy="804" r="5" /></g></svg>