<svg viewBox="0 0 512 512" xmlns="http://www.w3.org/2000/svg">
    

    <g>
        
        <ellipse cx="256" cy="420" rx="70" ry="25" fill="rgba(0,0,0,0.2)"/>

        
        <path d="M256 400 C300 400 310 390 310 380 C310 370 300 360 256 360 C212 360 202 370 202 380 C202 390 212 400 256 400 Z" 
              fill="#4A4A4A" stroke="#333333" stroke-width="4"/>
        
        <path d="M256 395 C295 395 305 388 305 380 C305 372 295 365 256 365 C217 365 207 372 207 380 C207 388 217 395 256 395 Z" 
              fill="#6A6A6A" opacity="0.3"/>


        
        <path d="M256 355 C230 355 210 340 210 320 C210 300 230 290 256 290 C282 290 302 300 302 320 C302 340 282 355 256 355 Z" 
              fill="#8C8C8C" stroke="#333333" stroke-width="6"/>
        
        <path d="M256 345 C235 345 218 332 218 318 C218 304 235 298 256 298 C277 298 294 304 294 318 C294 332 277 345 256 345 Z" 
              fill="#6F6F6F" opacity="0.3"/>


        
        <path d="M256 285 C280 285 295 270 300 240 C305 210 295 180 275 160 C256 140 237 140 217 160 C197 180 187 210 192 240 C197 270 212 285 256 285 Z" 
              fill="#B0B0B0" stroke="#333333" stroke-width="6"/>
        
        <path d="M256 280 C270 280 280 265 282 240 C284 215 275 190 260 170 C256 165 252 165 237 170 C222 190 213 215 215 240 C217 265 226 280 256 280 Z" 
              fill="#8C8C8C" stroke="#333333" stroke-width="3"/>
        
        <path d="M250 200 C255 195 260 195 265 200 L270 220 C265 225 255 225 250 220 Z" fill="#6F6F6F" opacity="0.4"/>
        <rect x="230" y="245" width="50" height="10" rx="3" ry="3" fill="#6F6F6F" opacity="0.3"/>


        
        <path d="M256 165 L215 165 C190 175 180 195 180 215 C180 235 190 245 205 255 L256 255 Z" 
              fill="#B0B0B0" stroke="#333333" stroke-width="5"/>
        <path d="M256 165 L297 165 C322 175 332 195 332 215 C332 235 322 245 307 255 L256 255 Z" 
              fill="#B0B0B0" stroke="#333333" stroke-width="5"/>
        
        <path d="M250 175 L220 175 C198 185 190 200 190 215 C190 225 198 232 210 240 L250 240 Z" fill="#6F6F6F" opacity="0.3"/>
        <path d="M262 175 L292 175 C314 185 322 200 322 215 C322 225 314 232 302 240 L262 240 Z" fill="#6F6F6F" opacity="0.3"/>


        
        <path d="M205 255 C190 265 185 280 190 290 L200 295 L210 285 L205 255 Z" 
              fill="#8C8C8C" stroke="#333333" stroke-width="4"/>
        <path d="M307 255 C322 265 327 280 322 290 L312 295 L302 285 L307 255 Z" 
              fill="#8C8C8C" stroke="#333333" stroke-width="4"/>
        
        <path d="M200 260 C190 268 188 278 192 285 L198 288 L205 280 L200 260 Z" fill="#6F6F6F" opacity="0.4"/>
        <path d="M312 260 C322 268 324 278 320 285 L314 288 L307 280 L312 260 Z" fill="#6F6F6F" opacity="0.4"/>


        
        <path d="M256 135 C275 135 285 125 280 110 C275 95 265 85 256 85 C247 85 237 95 232 110 C227 125 237 135 256 135 Z" 
              fill="#B0B0B0" stroke="#333333" stroke-width="5"/>
        
        <path d="M256 95 C265 95 270 100 268 110 C266 120 256 125 256 125 C256 125 246 120 244 110 C242 100 247 95 256 95 Z" 
              fill="#8C8C8C" stroke="#333333" stroke-width="2"/>
        
        <path d="M250 105 C255 100 260 100 265 105 L260 115 C255 120 250 120 245 115 Z" fill="#6F6F6F" opacity="0.4"/>

    </g>
</svg>