<svg xmlns="http://www.w3.org/2000/svg" viewBox="0 0 512 512" width="512" height="512">
  <defs>
    
    <linearGradient id="glassBodyGrad" x1="0%" y1="0%" x2="100%" y2="0%">
      <stop offset="0%" stop-color="#081f10" />
      <stop offset="20%" stop-color="#143d21" />
      <stop offset="50%" stop-color="#2a6e3d" />
      <stop offset="80%" stop-color="#143d21" />
      <stop offset="100%" stop-color="#081f10" />
    </linearGradient>
    
    <radialGradient id="glassRimGrad" cx="50%" cy="50%" r="50%">
      <stop offset="70%" stop-color="#1f5231" stop-opacity="0" />
      <stop offset="90%" stop-color="#3b8f56" stop-opacity="0.8" />
      <stop offset="100%" stop-color="#69c486" />
    </radialGradient>

    
    <linearGradient id="rumBodyGrad" x1="0%" y1="0%" x2="100%" y2="0%">
      <stop offset="0%" stop-color="#2e1403" />
      <stop offset="25%" stop-color="#6e3205" />
      <stop offset="50%" stop-color="#b85c00" />
      <stop offset="85%" stop-color="#6e3205" />
      <stop offset="100%" stop-color="#2e1403" />
    </linearGradient>

    <radialGradient id="rumSurfaceGrad" cx="50%" cy="50%" r="50%">
      <stop offset="0%" stop-color="#dba858" />
      <stop offset="60%" stop-color="#b85c00" />
      <stop offset="100%" stop-color="#6e3205" />
    </radialGradient>

    
    <linearGradient id="corkSideGrad" x1="0%" y1="0%" x2="100%" y2="0%">
      <stop offset="0%" stop-color="#5c4328" />
      <stop offset="20%" stop-color="#8f6d45" />
      <stop offset="50%" stop-color="#c49b66" />
      <stop offset="80%" stop-color="#8f6d45" />
      <stop offset="100%" stop-color="#5c4328" />
    </linearGradient>

    <radialGradient id="corkTopGrad" cx="50%" cy="50%" r="50%">
      <stop offset="0%" stop-color="#d9b380" />
      <stop offset="100%" stop-color="#8f6d45" />
    </radialGradient>

    
    <radialGradient id="dropShadow" cx="50%" cy="50%" r="50%">
      <stop offset="0%" stop-color="#000000" stop-opacity="0.7" />
      <stop offset="70%" stop-color="#000000" stop-opacity="0.2" />
      <stop offset="100%" stop-color="#000000" stop-opacity="0" />
    </radialGradient>
    
    
    <linearGradient id="highlightGrad" x1="0%" y1="0%" x2="100%" y2="0%">
      <stop offset="0%" stop-color="#ffffff" stop-opacity="0" />
      <stop offset="50%" stop-color="#ffffff" stop-opacity="0.7" />
      <stop offset="100%" stop-color="#ffffff" stop-opacity="0" />
    </linearGradient>
  </defs>

  
  <ellipse cx="256" cy="450" rx="140" ry="40" fill="url(#dropShadow)" />

  
  
  
  
  <path d="M146,380 C146,430 366,430 366,380 L366,280 C366,280 146,280 146,280 Z" 
        fill="#05170a" stroke="none" />
  
  
  
  <path d="M152,375 C152,415 360,415 360,375 L360,280 C360,240 152,240 152,280 Z" 
        fill="url(#rumBodyGrad)" />
  
  
  <ellipse cx="256" cy="280" rx="104" ry="25" fill="url(#rumSurfaceGrad)" stroke="#6e3205" stroke-width="1" />
  
  
  <circle cx="280" cy="320" r="4" fill="#fcdba9" fill-opacity="0.4" />
  <circle cx="230" cy="350" r="6" fill="#fcdba9" fill-opacity="0.3" />
  <circle cx="250" cy="300" r="3" fill="#fcdba9" fill-opacity="0.5" />

  
  
  <path d="M146,280 L146,160 C146,120 200,90 220,80 L220,160 L292,160 L292,80 C312,90 366,120 366,160 L366,280" 
        fill="#0a2915" stroke="none" opacity="0.9" />

  
  <rect x="220" y="50" width="72" height="60" fill="url(#glassBodyGrad)" />
  
  
  <ellipse cx="256" cy="50" rx="42" ry="12" fill="#143d21" stroke="#081f10" stroke-width="2" />
  <path d="M214,50 C214,65 298,65 298,50" fill="none" stroke="#2a6e3d" stroke-width="4" />

  
  <path d="M228,48 L228,25 C228,18 284,18 284,25 L284,48 C284,55 228,55 228,48 Z" 
        fill="url(#corkSideGrad)" />
  <ellipse cx="256" cy="25" rx="28" ry="8" fill="url(#corkTopGrad)" />
  
  
  <g fill="#3d2b16" fill-opacity="0.6">
    <circle cx="245" cy="25" r="1.5" />
    <circle cx="265" cy="28" r="1" />
    <circle cx="250" cy="35" r="1.5" />
    <circle cx="270" cy="40" r="1" />
    <circle cx="235" cy="45" r="1" />
    <path d="M250,22 L255,24" stroke="#3d2b16" stroke-width="0.5" />
  </g>

  
  
  <path d="M146,380 C146,430 366,430 366,380 L366,160 C366,120 312,90 292,80 L220,80 C200,90 146,120 146,160 Z" 
        fill="url(#glassBodyGrad)" fill-opacity="0.35" stroke="#1f5231" stroke-width="2" />

  
  <path d="M146,160 C146,180 200,200 256,200 C312,200 366,180 366,160" 
        fill="none" stroke="#69c486" stroke-width="1" stroke-opacity="0.3" />

  
  
  <path d="M180,350 L190,360 M330,250 L320,265" stroke="#ffffff" stroke-width="0.5" stroke-opacity="0.2" />
  
  
  
  <path d="M165,170 C165,170 160,350 165,390 C170,410 180,410 180,390 C175,350 180,170 180,170" 
        fill="#ffffff" fill-opacity="0.3" filter="blur(2px)" />
  
  
  <path d="M170,180 L170,250 M170,280 L170,380" stroke="#ffffff" stroke-width="3" stroke-linecap="round" stroke-opacity="0.6" />

  
  <path d="M170,278 C200,285 240,285 260,280" fill="none" stroke="#ffffff" stroke-width="2" stroke-opacity="0.4" stroke-linecap="round" />

  
  <path d="M155,160 Q200,185 230,190" fill="none" stroke="#ffffff" stroke-width="2" stroke-opacity="0.5" stroke-linecap="round" />
  
  
  <path d="M230,60 L230,100" stroke="#ffffff" stroke-width="3" stroke-opacity="0.4" stroke-linecap="round" />

  
  <path d="M180,415 Q256,425 330,415" fill="none" stroke="#4ca869" stroke-width="2" stroke-opacity="0.6" />

</svg>