<svg xmlns="http://www.w3.org/2000/svg" viewBox="0 0 512 512" width="512" height="512">
  <defs>
    
    <radialGradient id="leafHigh" cx="30%" cy="30%" r="70%">
      <stop offset="0%" stop-color="#a4d65e" /> 
      <stop offset="60%" stop-color="#4a8c2a" /> 
      <stop offset="100%" stop-color="#2d5a1e" /> 
    </radialGradient>
    
    <radialGradient id="leafMid" cx="40%" cy="40%" r="70%">
      <stop offset="0%" stop-color="#6ba832" />
      <stop offset="70%" stop-color="#366b23" />
      <stop offset="100%" stop-color="#1e3d14" />
    </radialGradient>
    
    <radialGradient id="leafLow" cx="50%" cy="50%" r="80%">
      <stop offset="0%" stop-color="#3d6e28" />
      <stop offset="100%" stop-color="#13290d" />
    </radialGradient>

    
    <linearGradient id="stemGrad" x1="0%" y1="0%" x2="100%" y2="100%">
      <stop offset="0%" stop-color="#5c4d35" />
      <stop offset="100%" stop-color="#3b3021" />
    </linearGradient>

    
    <filter id="shadowBlur" x="-20%" y="-20%" width="140%" height="140%">
      <feGaussianBlur in="SourceAlpha" stdDeviation="3" />
      <feOffset dx="4" dy="8" result="offsetblur"/>
      <feComponentTransfer>
        <feFuncA type="linear" slope="0.5"/>
      </feComponentTransfer>
      <feMerge> 
        <feMergeNode in="offsetblur"/>
        <feMergeNode in="SourceGraphic"/> 
      </feMerge>
    </filter>
    
    
    <filter id="floorShadow" x="-20%" y="-20%" width="140%" height="140%">
      <feGaussianBlur in="SourceAlpha" stdDeviation="6" />
      <feColorMatrix type="matrix" values="0 0 0 0 0  0 0 0 0 0  0 0 0 0 0  0 0 0 0.6 0" />
    </filter>
  </defs>

  
  <g transform="translate(15, 25) scale(0.95)" filter="url(#floorShadow)">
    
    <path d="M256,100 Q320,120 350,180 T380,300 T340,400 T280,450 T200,420 T150,350 T130,220 T180,120 Z" fill="black" />
    <path d="M256,120 Q200,150 180,250 T200,380" fill="none" stroke="black" stroke-width="40" stroke-linecap="round"/>
    <path d="M260,120 Q310,160 330,280 T300,410" fill="none" stroke="black" stroke-width="35" stroke-linecap="round"/>
  </g>

  
  
  <g transform="translate(0, 10)">
    
    <path d="M256,80 C230,120 200,180 210,280 C215,330 240,380 250,420" fill="none" stroke="url(#stemGrad)" stroke-width="6" stroke-linecap="round"/>
    <path d="M256,80 C280,110 320,160 330,250 C335,300 310,360 300,400" fill="none" stroke="url(#stemGrad)" stroke-width="5" stroke-linecap="round"/>
    <path d="M256,80 C200,100 150,150 140,220" fill="none" stroke="url(#stemGrad)" stroke-width="4" stroke-linecap="round"/>

    
    <g fill="url(#leafLow)" stroke="#0f210a" stroke-width="0.5">
      <path d="M210,280 C200,290 190,285 185,300 C195,315 215,310 220,295 Z" />
      <path d="M250,420 C240,430 230,425 235,440 C245,450 260,440 260,425 Z" />
      <path d="M300,400 C310,410 320,405 325,420 C315,430 300,425 295,410 Z" />
      <path d="M330,250 C345,260 350,250 360,265 C350,280 330,270 325,260 Z" />
      <path d="M140,220 C130,230 120,225 115,240 C125,250 145,240 150,225 Z" />
      
      <path d="M230,350 C220,360 210,355 215,370 C225,380 240,370 240,355 Z" />
      <path d="M315,330 C325,340 335,335 340,350 C330,360 315,355 310,340 Z" />
    </g>
  </g>

  
  <g filter="url(#shadowBlur)">
    
    <path d="M240,150 Q200,180 220,220 T200,260" fill="none" stroke="#4a8c2a" stroke-width="2" stroke-linecap="round"/>
    <path d="M280,160 Q320,200 300,250 T320,300" fill="none" stroke="#4a8c2a" stroke-width="2" stroke-linecap="round"/>

    
    <g fill="url(#leafMid)" stroke="#264d19" stroke-width="0.5">
      
      <path d="M210,180 C190,190 180,170 160,185 C170,210 200,200 215,190 Z" />
      <path d="M190,230 C170,240 160,220 140,235 C150,260 180,250 195,240 Z" />
      <path d="M220,250 C200,260 190,240 170,255 C180,280 210,270 225,260 Z" />
      
      
      <path d="M310,190 C330,200 340,180 360,195 C350,220 320,210 305,200 Z" />
      <path d="M320,270 C340,280 350,260 370,275 C360,300 330,290 315,280 Z" />
      
      
      <path d="M260,300 C240,310 230,290 220,315 C240,330 270,320 275,305 Z" />
      <path d="M280,350 C300,360 310,340 320,365 C300,380 270,370 265,355 Z" />
    </g>
  </g>

  
  <g filter="url(#shadowBlur)">
    
    <circle cx="256" cy="100" r="15" fill="#3b3021" /> 
    
    
    <path d="M256,100 C280,100 290,130 270,140 C250,150 260,170 280,170" fill="none" stroke="#a4d65e" stroke-width="1.5" stroke-linecap="round"/>
    <path d="M256,100 C230,100 220,120 240,130 C260,140 230,160 210,150" fill="none" stroke="#a4d65e" stroke-width="1.5" stroke-linecap="round"/>
    <path d="M256,100 C256,150 240,180 250,220" fill="none" stroke="#6ba832" stroke-width="3" stroke-linecap="round"/>

    
    <g fill="url(#leafHigh)" stroke="#4a8c2a" stroke-width="0.8">
      
      <path d="M256,90 C230,80 220,110 200,115 C220,145 250,130 260,110 Z" />
      <path d="M260,95 C286,85 296,115 316,120 C296,150 266,135 256,115 Z" />
      <path d="M245,120 C225,130 215,110 195,125 C205,150 235,140 250,130 Z" />
      <path d="M270,125 C290,135 300,115 320,130 C310,155 280,145 265,135 Z" />
      
      
      <path d="M230,160 C210,170 200,150 180,165 C190,190 220,180 235,170 Z">
         
         <animate attributeName="d" dur="0s" fill="freeze" /> 
      </path>
      <path d="M280,170 C300,180 310,160 330,175 C320,200 290,190 275,180 Z" />
      <path d="M256,190 C236,200 226,180 206,195 C216,220 246,210 261,200 Z" />
    </g>
    
    
    <g stroke="#a4d65e" stroke-width="0.5" fill="none" opacity="0.6">
      <path d="M256,90 Q230,110 200,115" />
      <path d="M260,95 Q286,115 316,120" />
      <path d="M230,160 Q205,175 180,165" />
      <path d="M280,170 Q305,185 330,175" />
    </g>
  </g>
  
  
  <g fill="#dfffc9" opacity="0.3">
     <circle cx="240" cy="110" r="3" />
     <circle cx="270" cy="115" r="2" />
     <circle cx="250" cy="95" r="4" />
     <path d="M256,90 C245,95 240,105 245,110 C255,105 260,95 256,90 Z" />
  </g>

</svg>