<svg xmlns="http://www.w3.org/2000/svg" viewBox="0 0 512 512" shape-rendering="geometricPrecision" text-rendering="geometricPrecision" width="512" height="512"><defs><filter id="outerGlow" x="-50%" y="-50%" width="200%" height="200%"><feGaussianBlur in="SourceGraphic" stdDeviation="8" result="blur" /><feColorMatrix in="blur" type="matrix" values="0 0 0 0 0  0 0 0 0 0.5  0 0 0 0 1  0 0 0 1 0" /></filter><filter id="coreGlow" x="-50%" y="-50%" width="200%" height="200%"><feGaussianBlur in="SourceGraphic" stdDeviation="2" result="blur" /><feComposite in="SourceGraphic" in2="blur" operator="over" /></filter><linearGradient id="metalGradient" x1="0%" y1="0%" x2="100%" y2="100%"><stop offset="0%" stop-color="#7a7a7a" /><stop offset="50%" stop-color="#3d3d3d" /><stop offset="100%" stop-color="#1a1a1a" /></linearGradient><radialGradient id="emitterGlow" cx="50%" cy="50%" r="50%"><stop offset="0%" stop-color="#00ffff" stop-opacity="0.8" /><stop offset="60%" stop-color="#0055ff" stop-opacity="0.4" /><stop offset="100%" stop-color="#0000ff" stop-opacity="0" /></radialGradient><radialGradient id="scorch" cx="50%" cy="50%" r="50%"><stop offset="0%" stop-color="#000000" stop-opacity="0.8" /><stop offset="100%" stop-color="#000000" stop-opacity="0" /></radialGradient></defs><ellipse cx="100" cy="412" rx="50" ry="25" fill="url(#scorch)" /><ellipse cx="412" cy="100" rx="50" ry="25" fill="url(#scorch)" /><g transform="translate(100, 412)"><path d="M-30,-15 L-30,5 C-30,20 30,20 30,5 L30,-15 C30,0 -30,0 -30,-15 Z" fill="#222" stroke="#111" stroke-width="2" /><path d="M-25,-25 L-25,-5 C-25,5 25,5 25,-5 L25,-25 C25,-15 -25,-15 -25,-25 Z" fill="url(#metalGradient)" stroke="#444" stroke-width="1" /><path d="M-20,-10 C-20,0 20,0 20,-10" fill="none" stroke="#555" stroke-width="2" /><path d="M-20,-16 C-20,-6 20,-6 20,-16" fill="none" stroke="#555" stroke-width="2" /><circle cx="0" cy="-25" r="8" fill="#8899aa" stroke="#fff" stroke-width="1" /></g><g transform="translate(412, 100)"><path d="M-30,-15 L-30,5 C-30,20 30,20 30,5 L30,-15 C30,0 -30,0 -30,-15 Z" fill="#222" stroke="#111" stroke-width="2" /><path d="M-25,-25 L-25,-5 C-25,5 25,5 25,-5 L25,-25 C25,-15 -25,-15 -25,-25 Z" fill="url(#metalGradient)" stroke="#444" stroke-width="1" /><path d="M-20,-10 C-20,0 20,0 20,-10" fill="none" stroke="#555" stroke-width="2" /><path d="M-20,-16 C-20,-6 20,-6 20,-16" fill="none" stroke="#555" stroke-width="2" /><circle cx="0" cy="-25" r="8" fill="#8899aa" stroke="#fff" stroke-width="1" /></g><g filter="url(#outerGlow)" opacity="0.6"><path d="M100,387 L130,350 L120,320 L160,280 L220,290 L256,256 L300,220 L350,230 L380,180 L390,140 L412,75"           fill="none" stroke="#0044ff" stroke-width="15" stroke-linecap="round" stroke-linejoin="round"/><circle cx="100" cy="387" r="40" fill="#0022aa" /><circle cx="412" cy="75" r="40" fill="#0022aa" /></g><g stroke="#0088ff" stroke-width="2" fill="none" stroke-linecap="round" stroke-opacity="0.7"><path d="M130,350 L150,360 L160,390" opacity="0.5"/><path d="M160,280 L140,260 L130,220" opacity="0.4"/><path d="M256,256 L240,220 L260,180" opacity="0.6"/><path d="M256,256 L280,280 L300,310" opacity="0.4"/><path d="M350,230 L370,250 L400,260" opacity="0.5"/><path d="M380,180 L410,190 L430,180" opacity="0.3"/></g><g filter="url(#coreGlow)"><path d="M100,387              L115,360 L105,340 L135,310              L125,290 L160,260 L190,270              L220,240 L256,256 L290,210              L330,225 L360,190 L380,150              L370,120 L412,75"           fill="none" stroke="#00aaff" stroke-width="5" stroke-linejoin="bevel" stroke-linecap="round"/><path d="M100,387              L115,360 L105,340 L135,310              L125,290 L160,260 L190,270              L220,240 L256,256 L290,210              L330,225 L360,190 L380,150              L370,120 L412,75"           fill="none" stroke="#ffffff" stroke-width="2" stroke-linejoin="bevel" stroke-linecap="round"/></g><g fill="#ffffff"><circle cx="150" cy="330" r="1.5" opacity="0.8" /><circle cx="170" cy="250" r="2" opacity="0.9" /><circle cx="230" cy="280" r="1" opacity="0.6" /><circle cx="260" cy="220" r="2.5" opacity="1" /><circle cx="310" cy="240" r="1.5" opacity="0.7" /><circle cx="390" cy="170" r="2" opacity="0.9" /><path d="M256,256 L265,245" stroke="#ccffff" stroke-width="1" /><path d="M135,310 L125,300" stroke="#ccffff" stroke-width="1" /><path d="M360,190 L370,180" stroke="#ccffff" stroke-width="1" /></g><g><circle cx="100" cy="387" r="12" fill="#fff" opacity="0.6" /><circle cx="100" cy="387" r="6" fill="#fff" /><circle cx="412" cy="75" r="12" fill="#fff" opacity="0.6" /><circle cx="412" cy="75" r="6" fill="#fff" /></g><path d="M110,360 L112,362 M160,260 L162,263 M256,256 L254,258 M360,190 L358,192"         stroke="#000" stroke-width="1" opacity="0.2" stroke-linecap="round" /></svg>