<svg xmlns="http://www.w3.org/2000/svg" viewBox="0 0 512 512" width="512" height="512"><defs><radialGradient id="metalGradient" cx="50%" cy="50%" r="50%" fx="50%" fy="50%"><stop offset="0%" stop-color="#4a4d55" /><stop offset="70%" stop-color="#2b2e33" /><stop offset="100%" stop-color="#1a1c20" /></radialGradient><linearGradient id="metalSheen" x1="0%" y1="0%" x2="100%" y2="100%"><stop offset="0%" stop-color="#6e737d" stop-opacity="0.8" /><stop offset="50%" stop-color="#3e4249" stop-opacity="0.5" /><stop offset="100%" stop-color="#1a1c20" stop-opacity="0.8" /></linearGradient><radialGradient id="holoGlowCenter" cx="50%" cy="50%" r="50%" fx="50%" fy="50%"><stop offset="0%" stop-color="#e0ffff" stop-opacity="0.9" /><stop offset="40%" stop-color="#00f2ff" stop-opacity="0.4" /><stop offset="100%" stop-color="#00f2ff" stop-opacity="0" /></radialGradient><linearGradient id="scanlineGrad" x1="0%" y1="0%" x2="0%" y2="100%"><stop offset="0%" stop-color="#00f2ff" stop-opacity="0.1" /><stop offset="50%" stop-color="#00f2ff" stop-opacity="0.3" /><stop offset="100%" stop-color="#00f2ff" stop-opacity="0.1" /></linearGradient><filter id="glowBlur" x="-50%" y="-50%" width="200%" height="200%"><feGaussianBlur in="SourceGraphic" stdDeviation="2" result="blur" /><feColorMatrix in="blur" type="matrix" values="1 0 0 0 0  0 1 0 0 0  0 0 1 0 0  0 0 0 18 -7" result="goo" /><feComposite in="SourceGraphic" in2="goo" operator="atop"/></filter></defs><ellipse cx="256" cy="256" rx="140" ry="140" fill="#000000" fill-opacity="0.6" filter="url(#glowBlur)" /><g id="projector-base"><path d="M256 360 L182.5 317.5 L182.5 194.5 L256 152 L329.5 194.5 L329.5 317.5 Z" fill="url(#metalGradient)" stroke="#111" stroke-width="2" /><path d="M195 310 L256 345 L317 310 L317 202 L256 167 L195 202 Z" fill="none" stroke="#555" stroke-width="1" opacity="0.5" /><circle cx="182.5" cy="194.5" r="8" fill="#333" stroke="#111" stroke-width="1"/><circle cx="329.5" cy="194.5" r="8" fill="#333" stroke="#111" stroke-width="1"/><circle cx="329.5" cy="317.5" r="8" fill="#333" stroke="#111" stroke-width="1"/><circle cx="182.5" cy="317.5" r="8" fill="#333" stroke="#111" stroke-width="1"/><circle cx="182.5" cy="194.5" r="3" fill="#00f2ff" fill-opacity="0.8"/><circle cx="329.5" cy="194.5" r="3" fill="#00f2ff" fill-opacity="0.8"/><circle cx="329.5" cy="317.5" r="3" fill="#00f2ff" fill-opacity="0.8"/><circle cx="182.5" cy="317.5" r="3" fill="#00f2ff" fill-opacity="0.8"/><circle cx="256" cy="256" r="40" fill="#222" stroke="#111" stroke-width="2"/><circle cx="256" cy="256" r="35" fill="url(#holoGlowCenter)"/><circle cx="256" cy="256" r="28" fill="none" stroke="#00f2ff" stroke-width="1" stroke-dasharray="4,2" opacity="0.6"/></g><g id="hologram-map" transform="translate(0, -20)"><path d="M100 256 Q256 320 412 256 Q256 192 100 256 Z" fill="url(#holoGlowCenter)" fill-opacity="0.1" stroke="#00f2ff" stroke-width="0.5" stroke-opacity="0.3" /><ellipse cx="256" cy="256" rx="150" ry="75" fill="none" stroke="#00f2ff" stroke-width="0.5" stroke-dasharray="2,4" opacity="0.3"/><ellipse cx="256" cy="256" rx="100" ry="50" fill="none" stroke="#00f2ff" stroke-width="0.5" stroke-dasharray="2,4" opacity="0.3"/><path d="M182.5 317.5 L150 280" stroke="#00f2ff" stroke-width="1" stroke-opacity="0.2" /><path d="M329.5 317.5 L362 280" stroke="#00f2ff" stroke-width="1" stroke-opacity="0.2" /><path d="M329.5 194.5 L362 230" stroke="#00f2ff" stroke-width="1" stroke-opacity="0.2" /><path d="M182.5 194.5 L150 230" stroke="#00f2ff" stroke-width="1" stroke-opacity="0.2" /><path d="M160 260 Q200 290 256 285 Q320 290 350 250 Q360 220 310 210 Q260 200 200 215 Q150 230 160 260 Z"           fill="#005577" fill-opacity="0.2" stroke="#00f2ff" stroke-width="1.5" stroke-opacity="0.6" stroke-linecap="round"/><path d="M190 250 Q220 270 260 265 Q290 260 310 240 Q320 230 290 225 Q240 220 190 250 Z"           fill="#007799" fill-opacity="0.3" stroke="#00f2ff" stroke-width="1.5" stroke-opacity="0.8" stroke-linecap="round"/><path d="M220 245 Q240 255 260 250 Q280 245 270 235 Q250 230 220 245 Z"           fill="#00f2ff" fill-opacity="0.4" stroke="#e0ffff" stroke-width="1.5" stroke-opacity="1" /><path d="M285 240 Q295 245 305 235 Q295 230 285 240 Z"           fill="#00f2ff" fill-opacity="0.4" stroke="#e0ffff" stroke-width="1.5" stroke-opacity="1" /><g fill="#fff" stroke="none"><rect x="260" y="240" width="2" height="15" fill="#e0ffff" fill-opacity="0.9" /><circle cx="261" cy="240" r="2" fill="#ff3333" /><rect x="300" y="235" width="1" height="10" fill="#e0ffff" fill-opacity="0.7" /></g></g><g id="interference" style="mix-blend-mode: screen;"><path d="M120 220 H390" stroke="#00f2ff" stroke-width="1" stroke-opacity="0.1" /><path d="M110 240 H400" stroke="#00f2ff" stroke-width="1" stroke-opacity="0.2" /><path d="M115 260 H395" stroke="#00f2ff" stroke-width="1" stroke-opacity="0.1" /><path d="M130 280 H380" stroke="#00f2ff" stroke-width="2" stroke-opacity="0.15" stroke-dasharray="10,20"/><rect x="150" y="230" width="40" height="2" fill="#00f2ff" fill-opacity="0.3" /><rect x="340" y="270" width="30" height="3" fill="#00f2ff" fill-opacity="0.2" /><rect x="200" y="210" width="10" height="1" fill="#00f2ff" fill-opacity="0.4" /><rect x="200" y="180" width="2" height="2" fill="#00f2ff" opacity="0.6"/><rect x="350" y="200" width="3" height="1" fill="#00f2ff" opacity="0.5"/><rect x="150" y="300" width="2" height="2" fill="#00f2ff" opacity="0.4"/><rect x="300" y="320" width="2" height="2" fill="#00f2ff" opacity="0.5"/></g><path d="M220 160 Q256 150 290 160" fill="none" stroke="#fff" stroke-width="1" stroke-opacity="0.3" /><path d="M190 310 L195 315" stroke="#fff" stroke-width="1" stroke-opacity="0.5" /></svg>