<svg xmlns="http://www.w3.org/2000/svg" viewBox="0 0 512 512" width="512" height="512" shape-rendering="geometricPrecision"><defs><radialGradient id="coreGlow" cx="50%" cy="50%" r="50%" fx="50%" fy="50%"><stop offset="0%" stop-color="#FFD700" stop-opacity="0.4"/><stop offset="60%" stop-color="#FF4500" stop-opacity="0.1"/><stop offset="100%" stop-color="#FF4500" stop-opacity="0"/></radialGradient><linearGradient id="scanlineGrad" x1="0%" y1="0%" x2="0%" y2="100%"><stop offset="0%" stop-color="#FFA500" stop-opacity="0"/><stop offset="50%" stop-color="#FFA500" stop-opacity="0.2"/><stop offset="100%" stop-color="#FFA500" stop-opacity="0"/></linearGradient></defs><ellipse cx="256" cy="420" rx="120" ry="40" fill="#000" fill-opacity="0.3" filter="blur(4px)"/><g stroke="#FF4500" stroke-width="1" stroke-opacity="0.3"><line x1="156" y1="420" x2="356" y2="420" /><line x1="256" y1="380" x2="256" y2="460" /><circle cx="256" cy="420" r="80" fill="none" stroke-dasharray="4,4"/><circle cx="256" cy="420" r="110" fill="none" stroke-width="0.5" stroke-opacity="0.15"/></g><g transform="translate(0, -20)"><circle cx="256" cy="256" r="140" fill="url(#coreGlow)" /><g fill="none" stroke="#B22222" stroke-width="1.5" stroke-opacity="0.6"><path d="M180 220 C 180 300, 240 380, 256 400 C 272 380, 332 300, 332 220" stroke-dasharray="2,2"/><path d="M220 180 L 220 120 M 292 180 L 292 120" /><ellipse cx="256" cy="256" rx="60" ry="60" stroke-opacity="0.4"/></g><g fill="none" stroke="#FF8C00" stroke-width="2"><circle cx="256" cy="240" r="30" stroke="#FFD700" stroke-width="3" fill="#FF4500" fill-opacity="0.1"/><circle cx="256" cy="240" r="12" fill="#FFD700" fill-opacity="0.8"/><line x1="256" y1="210" x2="256" y2="150" stroke-width="4" stroke-linecap="round"/><line x1="226" y1="240" x2="180" y2="240" stroke-dasharray="4,2"/><line x1="286" y1="240" x2="332" y2="240" stroke-dasharray="4,2"/><path d="M256 200 L 270 180 L 242 180 Z" fill="#FFA500" fill-opacity="0.5" stroke="none"/></g><g fill="none" stroke="#FFA500" stroke-width="2.5" stroke-linecap="round" stroke-linejoin="round"><path d="M180 160 L 160 200 C 150 260, 200 360, 256 390" /><path d="M180 160 L 220 160" /><path d="M332 160 L 352 200 C 362 260, 312 360, 256 390" /><path d="M332 160 L 292 160" /><path d="M220 160 L 220 100 C 220 80, 240 70, 260 80" /><path d="M292 160 L 292 110 C 292 90, 310 90, 320 100" /><ellipse cx="220" cy="100" rx="10" ry="4" fill="#FFA500" fill-opacity="0.3"/><ellipse cx="292" cy="110" rx="10" ry="4" fill="#FFA500" fill-opacity="0.3"/><path d="M165 240 Q 256 260 347 240" stroke-width="1" stroke-opacity="0.7"/><path d="M190 320 Q 256 340 322 320" stroke-width="1" stroke-opacity="0.7"/></g><g fill="#FFFFE0"><circle cx="160" cy="200" r="3" /><circle cx="352" cy="200" r="3" /><circle cx="256" cy="390" r="3" /><circle cx="220" cy="100" r="2" /><circle cx="292" cy="110" r="2" /></g><g stroke="#FFD700" stroke-width="1" stroke-opacity="0.8"><line x1="150" y1="200" x2="120" y2="200" /><line x1="120" y1="200" x2="110" y2="190" /><rect x="80" y="185" width="30" height="2" fill="#FFD700" stroke="none"/><rect x="80" y="190" width="20" height="2" fill="#FFD700" stroke="none"/><line x1="360" y1="240" x2="390" y2="240" /><rect x="395" y="238" width="25" height="2" fill="#FFD700" stroke="none"/><rect x="395" y="243" width="15" height="2" fill="#FFD700" stroke="none"/><path d="M226 430 L 226 440 L 286 440 L 286 430" fill="none"/><rect x="246" y="445" width="20" height="2" fill="#FFD700" stroke="none"/></g><g stroke="#FFA500" stroke-width="1" stroke-opacity="0.15"><line x1="140" y1="100" x2="370" y2="100" /><line x1="140" y1="120" x2="370" y2="120" /><line x1="140" y1="140" x2="370" y2="140" /><line x1="130" y1="160" x2="380" y2="160" /><line x1="130" y1="180" x2="380" y2="180" /><line x1="130" y1="200" x2="380" y2="200" /><line x1="130" y1="220" x2="380" y2="220" /><line x1="130" y1="240" x2="380" y2="240" /><line x1="130" y1="260" x2="380" y2="260" /><line x1="140" y1="280" x2="370" y2="280" /><line x1="150" y1="300" x2="360" y2="300" /><line x1="160" y1="320" x2="350" y2="320" /><line x1="180" y1="340" x2="330" y2="340" /><line x1="200" y1="360" x2="310" y2="360" /><line x1="220" y1="380" x2="290" y2="380" /></g><path d="M236 240 A 20 20 0 0 1 276 240" fill="none" stroke="#FFF" stroke-width="1.5" stroke-opacity="0.9" stroke-linecap="round"/><path d="M170 180 Q 180 170 190 180" fill="none" stroke="#FFF" stroke-width="1" stroke-opacity="0.6"/></g></svg>