<svg xmlns="http://www.w3.org/2000/svg" viewBox="0 0 512 512" width="512" height="512"><defs><filter id="neon-glow" x="-50%" y="-50%" width="200%" height="200%"><feGaussianBlur in="SourceGraphic" stdDeviation="4" result="blur" /><feColorMatrix in="blur" type="matrix" values="0 0 0 0 0  0 1 0 0 0  0 0 1 0 0  0 0 0 1 0" /><feMerge><feMergeNode in="blur" /><feMergeNode in="SourceGraphic" /></feMerge></filter><filter id="base-shadow" x="-50%" y="-50%" width="200%" height="200%"><feGaussianBlur in="SourceAlpha" stdDeviation="6" /><feOffset dx="0" dy="4" /><feComponentTransfer><feFuncA type="linear" slope="0.6" /></feComponentTransfer></filter><linearGradient id="beam-gradient" x1="0%" y1="100%" x2="0%" y2="0%"><stop offset="0%" stop-color="#00f0ff" stop-opacity="0.6" /><stop offset="100%" stop-color="#00f0ff" stop-opacity="0.0" /></linearGradient><linearGradient id="scanline-gradient" x1="0%" y1="0%" x2="0%" y2="100%"><stop offset="0%" stop-color="#00f0ff" stop-opacity="0" /><stop offset="50%" stop-color="#00f0ff" stop-opacity="0.1" /><stop offset="100%" stop-color="#00f0ff" stop-opacity="0" /></linearGradient><radialGradient id="lens-glow" cx="50%" cy="50%" r="50%"><stop offset="0%" stop-color="#ccffff" stop-opacity="1" /><stop offset="40%" stop-color="#00ccff" stop-opacity="0.8" /><stop offset="100%" stop-color="#003366" stop-opacity="0" /></radialGradient><linearGradient id="metal-sheen" x1="0%" y1="0%" x2="100%" y2="100%"><stop offset="0%" stop-color="#3a3a45" /><stop offset="50%" stop-color="#15151a" /><stop offset="100%" stop-color="#0a0a0f" /></linearGradient><pattern id="grid-pattern" x="0" y="0" width="20" height="20" patternUnits="userSpaceOnUse"><path d="M 20 0 L 0 0 0 20" fill="none" stroke="#00f0ff" stroke-width="0.5" stroke-opacity="0.2" /></pattern></defs><g transform="translate(256, 420)"><ellipse cx="0" cy="10" rx="60" ry="25" fill="#000000" filter="url(#base-shadow)" opacity="0.8" /><path d="M -50 0 C -50 20 -30 35 0 35 C 30 35 50 20 50 0 C 50 -20 30 -35 0 -35 C -30 -35 -50 -20 -50 0 Z"           fill="url(#metal-sheen)" stroke="#505060" stroke-width="2" /><path d="M -40 -5 L -30 15 M 40 -5 L 30 15 M -20 25 L 20 25"           stroke="#000000" stroke-width="2" stroke-opacity="0.5" stroke-linecap="round" /><ellipse cx="0" cy="-5" rx="25" ry="12" fill="#202025" stroke="#00f0ff" stroke-width="1" /><ellipse cx="0" cy="-5" rx="18" ry="8" fill="url(#lens-glow)" filter="url(#neon-glow)" /></g><path d="M 238 415 L 274 415 L 350 150 L 162 150 Z" fill="url(#beam-gradient)" opacity="0.3" style="mix-blend-mode: screen;" /><g transform="translate(256, 200)" filter="url(#neon-glow)"><path d="M -140 -100 L 140 -100 L 120 80 L -120 80 Z"           fill="#001020" fill-opacity="0.6"           stroke="#00f0ff" stroke-width="2" stroke-opacity="0.8"          stroke-dasharray="10, 5, 2, 5" /><path d="M -140 -100 L 140 -100 L 120 80 L -120 80 Z" fill="url(#grid-pattern)" /><path d="M -145 -105 L -120 -105 M -145 -105 L -145 -80" stroke="#00ffff" stroke-width="3" fill="none" /><path d="M 145 -105 L 120 -105 M 145 -105 L 145 -80" stroke="#00ffff" stroke-width="3" fill="none" /><path d="M -125 85 L -100 85 M -125 85 L -125 60" stroke="#00ffff" stroke-width="3" fill="none" /><path d="M 125 85 L 100 85 M 125 85 L 125 60" stroke="#00ffff" stroke-width="3" fill="none" /><g transform="translate(0, -40)"><path d="M 0 -30 L 25 0 L 10 0 L 10 25 L -10 25 L -10 0 L -25 0 Z"             fill="none" stroke="#00ffff" stroke-width="2" /><path d="M 0 -22 L 15 0 L 5 0 L 5 20 L -5 20 L -5 0 L -15 0 Z"             fill="#00ffff" fill-opacity="0.8" /><rect x="-60" y="35" width="120" height="8" rx="2" fill="#00ffff" fill-opacity="0.8" /></g><g transform="translate(-70, 30) scale(0.6)"><path d="M -25 0 L 0 -25 L 0 -10 L 25 -10 L 25 10 L 0 10 L 0 25 Z"             fill="none" stroke="#0088ff" stroke-width="3" /><path d="M -18 0 L 0 -15 L 0 -5 L 20 -5 L 20 5 L 0 5 L 0 15 Z"             fill="#0088ff" fill-opacity="0.6" /><rect x="-20" y="30" width="80" height="10" rx="2" fill="#0088ff" fill-opacity="0.6" /><rect x="-20" y="45" width="50" height="6" rx="2" fill="#0088ff" fill-opacity="0.4" /></g><g transform="translate(70, 30) scale(0.6)"><path d="M 25 0 L 0 -25 L 0 -10 L -25 -10 L -25 10 L 0 10 L 0 25 Z"             fill="none" stroke="#0088ff" stroke-width="3" /><path d="M 18 0 L 0 -15 L 0 -5 L -20 -5 L -20 5 L 0 5 L 0 15 Z"             fill="#0088ff" fill-opacity="0.6" /><rect x="-60" y="30" width="80" height="10" rx="2" fill="#0088ff" fill-opacity="0.6" /><rect x="-30" y="45" width="50" height="6" rx="2" fill="#0088ff" fill-opacity="0.4" /></g><g transform="translate(-100, -80)" opacity="0.7"><rect x="0" y="0" width="10" height="4" fill="#00ffff" /><rect x="14" y="0" width="20" height="4" fill="#00ffff" /><rect x="38" y="0" width="5" height="4" fill="#00ffff" /><rect x="0" y="8" width="30" height="4" fill="#00ffff" /><rect x="34" y="8" width="10" height="4" fill="#00ffff" /></g><g transform="translate(60, -80)" opacity="0.7"><rect x="0" y="0" width="20" height="4" fill="#00ffff" /><rect x="24" y="0" width="10" height="4" fill="#00ffff" /><rect x="0" y="8" width="5" height="4" fill="#00ffff" /><rect x="9" y="8" width="30" height="4" fill="#00ffff" /></g></g><g transform="translate(256, 200)"><path d="M -140 -100 L 140 -100 L 120 80 L -120 80 Z" fill="url(#scanline-gradient)" style="mix-blend-mode: overlay;" /><rect x="-100" y="-50" width="4" height="2" fill="#ffffff" opacity="0.8" /><rect x="80" y="20" width="6" height="2" fill="#ffffff" opacity="0.6" /><rect x="-50" y="60" width="3" height="2" fill="#ffffff" opacity="0.7" /><rect x="-130" y="-20" width="260" height="2" fill="#00ffff" opacity="0.1" /></g><g transform="translate(256, 420)"><path d="M -30 -28 Q 0 -35 30 -28" fill="none" stroke="#707080" stroke-width="2" stroke-linecap="round" opacity="0.8" /><path d="M -20 10 L -15 12" stroke="#000000" stroke-width="1" opacity="0.6" /><path d="M 25 5 L 20 8" stroke="#000000" stroke-width="1" opacity="0.6" /></g></svg>