<svg xmlns="http://www.w3.org/2000/svg" viewBox="0 0 1024 1024" width="1024" height="1024"><defs><linearGradient id="metalGrad" x1="0%" y1="0%" x2="100%" y2="100%"><stop offset="0%" stop-color="#52525b" /><stop offset="50%" stop-color="#27272a" /><stop offset="100%" stop-color="#18181b" /></linearGradient><radialGradient id="metalRimHighlight" cx="30%" cy="30%" r="70%"><stop offset="0%" stop-color="#a1a1aa" stop-opacity="0.6"/><stop offset="100%" stop-color="#27272a" stop-opacity="0"/></radialGradient><radialGradient id="liquidDeep" cx="50%" cy="50%" r="50%"><stop offset="0%" stop-color="#10b981" /><stop offset="70%" stop-color="#059669" /><stop offset="100%" stop-color="#064e3b" /></radialGradient><radialGradient id="liquidGlow" cx="50%" cy="50%" r="50%"><stop offset="0%" stop-color="#6ee7b7" stop-opacity="0.4"/><stop offset="100%" stop-color="#059669" stop-opacity="0"/></radialGradient><linearGradient id="plantGrad" x1="0%" y1="0%" x2="0%" y2="100%"><stop offset="0%" stop-color="#365314" /><stop offset="100%" stop-color="#14532d" /></linearGradient><linearGradient id="glassReflect" x1="0%" y1="0%" x2="100%" y2="100%"><stop offset="0%" stop-color="#ecfeff" stop-opacity="0.6"/><stop offset="40%" stop-color="#cffafe" stop-opacity="0.1"/><stop offset="100%" stop-color="#ecfeff" stop-opacity="0.0"/></linearGradient><filter id="shadowBlur" x="-50%" y="-50%" width="200%" height="200%"><feGaussianBlur in="SourceAlpha" stdDeviation="15" /><feOffset dx="10" dy="10" result="offsetblur"/><feComponentTransfer><feFuncA type="linear" slope="0.6"/></feComponentTransfer><feMerge><feMergeNode/><feMergeNode in="SourceGraphic"/></feMerge></filter></defs><circle cx="512" cy="512" r="490" fill="#000000" opacity="0.5" filter="url(#shadowBlur)" /><g transform="translate(512, 512)"><circle cx="0" cy="0" r="480" fill="url(#metalGrad)" stroke="#18181b" stroke-width="4" shape-rendering="geometricPrecision"/><circle cx="0" cy="0" r="460" fill="none" stroke="#3f3f46" stroke-width="20" stroke-dasharray="20, 10" opacity="0.5"/><circle cx="0" cy="0" r="475" fill="none" stroke="#000000" stroke-width="2" opacity="0.6"/><rect x="-40" y="-490" width="80" height="60" rx="5" fill="#3f3f46" stroke="#18181b" stroke-width="2"/><rect x="-40" y="430" width="80" height="60" rx="5" fill="#3f3f46" stroke="#18181b" stroke-width="2"/><rect x="-490" y="-40" width="60" height="80" rx="5" fill="#3f3f46" stroke="#18181b" stroke-width="2"/><rect x="430" y="-40" width="60" height="80" rx="5" fill="#3f3f46" stroke="#18181b" stroke-width="2"/><circle cx="0" cy="-460" r="8" fill="#18181b"/><circle cx="0" cy="460" r="8" fill="#18181b"/><circle cx="-460" cy="0" r="8" fill="#18181b"/><circle cx="460" cy="0" r="8" fill="#18181b"/></g><circle cx="512" cy="512" r="420" fill="url(#liquidDeep)" stroke="#064e3b" stroke-width="4"/><g opacity="0.3"><path d="M 300 512 Q 512 300 724 512 T 300 512" fill="none" stroke="#047857" stroke-width="20" stroke-linecap="round" filter="url(#shadowBlur)"/><path d="M 400 600 Q 512 800 600 600" fill="none" stroke="#065f46" stroke-width="30" stroke-linecap="round" filter="url(#shadowBlur)"/></g><circle cx="512" cy="512" r="80" fill="#1f2937" stroke="#111827" stroke-width="2"/><circle cx="512" cy="512" r="50" fill="none" stroke="#374151" stroke-width="4" stroke-dasharray="5,5"/><g transform="translate(512, 512)"><g stroke="#3f6212" stroke-width="8" fill="none" stroke-linecap="round" opacity="0.8"><path d="M0 0 C 50 50, 100 150, 120 250"/><path d="M0 0 C -50 50, -100 180, -80 280"/><path d="M0 0 C 80 -50, 200 -100, 250 -80"/><path d="M0 0 C -60 -60, -180 -120, -220 -50"/></g><g fill="url(#plantGrad)" stroke="#14532d" stroke-width="1"><path d="M 0 0 Q 60 -10 100 -80 Q 140 -150 120 -200 Q 80 -160 60 -100 Q 40 -40 0 0" /><path d="M 0 0 Q -40 40 -120 80 Q -200 120 -240 100 Q -180 60 -100 20 Q -50 10 0 0" /><path d="M 0 0 Q 50 50 80 140 Q 100 220 70 240 Q 40 180 20 100 Q 10 40 0 0" /><path d="M 0 0 Q -20 -60 -80 -100 Q -160 -140 -180 -120 Q -140 -80 -80 -40 Z" /><path d="M 0 0 Q 100 20 180 0 Q 250 -40 220 -80 Q 180 -40 120 -10 Z" /></g><g stroke="#4d7c0f" stroke-width="2" fill="none" opacity="0.5"><path d="M 0 0 Q 60 -10 100 -80 Q 140 -150 120 -200"/><path d="M 0 0 Q -40 40 -120 80 Q -200 120 -240 100"/><path d="M 0 0 Q 50 50 80 140 Q 100 220 70 240"/></g></g><g fill="#a7f3d0" opacity="0.6"><circle cx="450" cy="450" r="12" /><circle cx="480" cy="420" r="8" /><circle cx="600" cy="600" r="15" /><circle cx="580" cy="630" r="6" /><circle cx="350" cy="650" r="10" /><circle cx="650" cy="350" r="14" /><circle cx="512" cy="512" r="20" opacity="0.2"/><circle cx="530" cy="540" r="4" /><circle cx="490" cy="500" r="5" /><circle cx="550" cy="480" r="3" /></g><g><circle cx="512" cy="512" r="420" fill="none" stroke="#064e3b" stroke-width="12" opacity="0.6"/><circle cx="512" cy="512" r="418" fill="url(#liquidGlow)" /><path d="M 250 300 Q 400 200 600 220" fill="none" stroke="url(#glassReflect)" stroke-width="40" stroke-linecap="round" opacity="0.8"/><path d="M 750 700 Q 600 800 450 780" fill="none" stroke="url(#glassReflect)" stroke-width="20" stroke-linecap="round" opacity="0.4"/><circle cx="512" cy="512" r="420" fill="none" stroke="#a5f3fc" stroke-width="4" opacity="0.3"/><circle cx="512" cy="512" r="425" fill="none" stroke="#ffffff" stroke-width="1" opacity="0.2"/></g><g transform="translate(512, 512)"><circle cx="0" cy="0" r="430" fill="none" stroke="#27272a" stroke-width="20" /><circle cx="0" cy="0" r="430" fill="none" stroke="url(#metalRimHighlight)" stroke-width="16" /><g fill="#52525b" stroke="#18181b" stroke-width="1"><circle cx="0" cy="-430" r="5"/><circle cx="304" cy="-304" r="5"/><circle cx="430" cy="0" r="5"/><circle cx="304" cy="304" r="5"/><circle cx="0" cy="430" r="5"/><circle cx="-304" cy="304" r="5"/><circle cx="-430" cy="0" r="5"/><circle cx="-304" cy="-304" r="5"/></g><g stroke="#000000" stroke-width="2" opacity="0.3"><path d="M -450 -100 L -420 -80"/><path d="M 440 200 L 460 210"/><path d="M 100 440 L 120 460"/></g></g><defs><pattern id="techGrid" width="40" height="40" patternUnits="userSpaceOnUse"><path d="M 40 0 L 0 0 0 40" fill="none" stroke="#6ee7b7" stroke-width="1" opacity="0.1"/></pattern></defs><circle cx="512" cy="512" r="420" fill="url(#techGrid)" opacity="0.3" pointer-events="none"/></svg>