<svg height="512" viewBox="0 0 512 512" xmlns="http://www.w3.org/2000/svg">
  
  <g id="ice-sculpture">
    
    <ellipse cx="256" cy="400" rx="120" ry="35" fill="rgba(0,0,0,0.15)"/>

    
    <path d="M130 385 C80 365, 90 315, 150 295 S 362 290, 400 320 C420 350, 380 385, 362 395 C320 405, 180 395, 130 385 Z"
          fill="hsl(200, 60%, 88%)" stroke="hsl(200, 40%, 75%)" stroke-width="2"/>

    
    <path d="M256 100               
             C240 80, 220 90, 220 120   
             C220 180, 200 230, 150 250 
             C100 270, 80 300, 100 330  
             C120 360, 180 350, 220 330 
             L256 340                   
             L292 330                   
             C332 350, 392 360, 412 330 
             C432 300, 412 270, 362 250 
             C312 230, 292 180, 292 120 
             C292 90, 272 80, 256 100   
             Z"
          fill="hsl(200, 60%, 85%)" stroke="hsl(200, 40%, 70%)" stroke-width="2"/>

    
    
    <path d="M256 110 C248 105, 240 115, 240 125 C240 135, 248 145, 256 140 C264 145, 272 135, 272 125 C272 115, 264 105, 256 110 Z"
          fill="hsl(200, 80%, 95%)" opacity="0.6"/>
    <path d="M256 145 C245 155, 240 165, 240 175 C240 185, 245 195, 256 185 C267 195, 272 185, 272 175 C272 165, 267 155, 256 145 Z"
          fill="hsl(200, 80%, 95%)" opacity="0.5"/>

    
    <path d="M200 250 C180 240, 150 250, 130 270 C110 290, 120 310, 150 300 C170 290, 190 270, 200 250 Z"
          fill="hsl(200, 80%, 95%)" opacity="0.6"/>
    <path d="M160 310 C140 300, 120 310, 110 325 C105 335, 120 345, 140 335 C150 330, 160 320, 160 310 Z"
          fill="hsl(200, 80%, 95%)" opacity="0.5"/>

    
    <path d="M312 250 C332 240, 362 250, 382 270 C402 290, 392 310, 362 300 C342 290, 322 270, 312 250 Z"
          fill="hsl(200, 80%, 95%)" opacity="0.6"/>
    <path d="M352 310 C372 300, 392 310, 402 325 C407 335, 392 345, 372 335 C362 330, 352 320, 352 310 Z"
          fill="hsl(200, 80%, 95%)" opacity="0.5"/>

    
    <path d="M256 340 C240 330, 230 320, 240 310 C250 300, 260 300, 272 310 C282 320, 272 330, 256 340 Z"
          fill="hsl(200, 80%, 95%)" opacity="0.6"/>

    
    <path d="M256 100 C240 130, 230 180, 240 220" stroke="hsl(200, 40%, 80%)" stroke-width="1" fill="none" opacity="0.4"/>
    <path d="M256 100 C272 130, 282 180, 272 220" stroke="hsl(200, 40%, 80%)" stroke-width="1" fill="none" opacity="0.4"/>

    <path d="M150 250 C170 270, 190 290, 220 310" stroke="hsl(200, 40%, 80%)" stroke-width="1" fill="none" opacity="0.4"/>
    <path d="M362 250 C342 270, 322 290, 292 310" stroke="hsl(200, 40%, 80%)" stroke-width="1" fill="none" opacity="0.4"/>

    <path d="M256 340 C245 320, 240 300, 256 280 C272 300, 267 320, 256 340 Z" stroke="hsl(200, 40%, 80%)" stroke-width="1" fill="none" opacity="0.4"/>
  </g>
</svg>