<svg xmlns="http://www.w3.org/2000/svg" viewBox="0 0 512 512">
    
    <g>
        
        <ellipse cx="256" cy="418" rx="120" ry="15" fill="rgba(0,0,0,0.3)"/>

        
        
        <g stroke="#6B6B6B" stroke-width="4" fill="#4A4A4A">
            
            <rect x="150" y="100" width="20" height="312"/>
            
            <rect x="342" y="100" width="20" height="312"/>
            
            <rect x="150" y="100" width="212" height="20"/>
            
            <rect x="150" y="392" width="212" height="20"/>

            
            <rect x="192" y="120" width="12" height="272"/>
            <rect x="226" y="120" width="12" height="272"/>
            <rect x="260" y="120" width="12" height="272"/>
            <rect x="294" y="120" width="12" height="272"/>
            <rect x="328" y="120" width="12" height="272"/>
        </g>

        
        
        <g opacity="0.7">
            <rect x="155" y="110" width="8" height="6" rx="2" ry="2" fill="#8B4513" transform="rotate(5 155 110)"/>
            <rect x="160" y="380" width="10" height="7" rx="2" ry="2" fill="#A0522D" transform="rotate(-5 160 380)"/>
            <rect x="195" y="130" width="7" height="9" rx="2" ry="2" fill="#A0522D"/>
            <rect x="200" y="360" width="9" height="6" rx="2" ry="2" fill="#8B4513" transform="rotate(10 200 360)"/>
            <rect x="262" y="170" width="8" height="8" rx="2" ry="2" fill="#8B4513" transform="rotate(-8 262 170)"/>
            <rect x="268" y="310" width="10" height="6" rx="2" ry="2" fill="#A0522D"/>
            <rect x="300" y="125" width="6" height="10" rx="2" ry="2" fill="#A0522D" transform="rotate(3 300 125)"/>
            <rect x="305" y="375" width="8" height="7" rx="2" ry="2" fill="#8B4513" transform="rotate(-12 305 375)"/>
            <rect x="345" y="160" width="7" height="8" rx="2" ry="2" fill="#8B4513"/>
            <rect x="350" y="290" width="9" height="7" rx="2" ry="2" fill="#A0522D" transform="rotate(7 350 290)"/>
        </g>
    </g>
</svg>