<svg width="512" height="512" xmlns="http://www.w3.org/2000/svg" viewBox="0 0 512 512">
    
    
    
    <ellipse cx="256" cy="380" rx="60" ry="20" fill="rgba(0,0,0,0.25)"/>

    
    <rect x="196" y="150" width="120" height="230" rx="10" ry="10" fill="#222222" stroke="#000000" stroke-width="4"/>
    
    
    <rect x="200" y="154" width="112" height="222" rx="8" ry="8" fill="#333333"/>

    
    <rect x="254" y="154" width="4" height="222" fill="#111111"/>

    
    <rect x="200" y="154" width="112" height="15" fill="#111111"/>
    
    
    <rect x="200" y="361" width="112" height="15" fill="#111111"/>

    
    <path d="M210 160 C205 165 210 175 220 170 C225 165 220 155 210 160Z" fill="#A0522D" opacity="0.7"/>
    <path d="M285 180 C280 185 285 195 295 190 C300 185 295 175 285 180Z" fill="#A0522D" opacity="0.7"/>
    <path d="M245 280 C240 285 245 295 255 290 C260 285 255 275 245 280Z" fill="#A0522D" opacity="0.7"/>

    
    <rect x="248" y="335" width="16" height="10" fill="#444444" stroke="#000000" stroke-width="2"/>
    <circle cx="256" cy="340" r="3" fill="#666666"/>
    
</svg>