<svg viewBox="0 0 512 512" xmlns="http://www.w3.org/2000/svg">
  
  

  
  <path d="M 85 305 Q 150 345 256 345 Q 362 345 427 305 L 415 290 Q 350 325 256 325 Q 162 325 97 290 Z"
        fill="rgba(0,0,0,0.2)" />

  
  <g>
    
    <rect x="80" y="180" width="352" height="120" fill="#808080" />

    
    <rect x="100" y="150" width="312" height="40" fill="#666666" />

    
    <rect x="120" y="200" width="272" height="80" fill="#333333" />

    
    <ellipse cx="256" cy="240" rx="100" ry="30" fill="url(#fireGlow)" opacity="0.8"/>
    
    <path d="M220 230 Q230 210 250 220 T280 235 Q270 245 250 250 Q230 255 220 230Z" fill="hsl(40, 100%, 65%)" opacity="0.9"/>
    <path d="M260 225 Q270 205 290 215 T310 230 Q300 240 280 245 Q260 250 260 225Z" fill="hsl(30, 100%, 55%)" opacity="0.9"/>
    <path d="M240 240 Q250 220 270 230 T290 245 Q280 255 260 260 Q240 265 240 240Z" fill="hsl(15, 80%, 45%)" opacity="0.9"/>

    
    <rect x="125" y="205" width="262" height="70" fill="#1A1A1A" opacity="0.4" />

    
    <path d="M80 180 H432 V300 H80 Z" fill="none" stroke="#333333" stroke-width="4" /> 
    <path d="M100 150 H412 V190 H100 Z" fill="none" stroke="#333333" stroke-width="4" /> 
    <path d="M120 200 H392 V280 H120 Z" fill="none" stroke="#111111" stroke-width="2" /> 

    
    <line x1="80" y1="290" x2="432" y2="290" stroke="#333333" stroke-width="2" opacity="0.7"/>
    <line x1="150" y1="180" x2="150" y2="300" stroke="#333333" stroke-width="2" opacity="0.7"/>
    <line x1="256" y1="180" x2="256" y2="300" stroke="#333333" stroke-width="2" opacity="0.7"/>
    <line x1="362" y1="180" x2="362" y2="300" stroke="#333333" stroke-width="2" opacity="0.7"/>

    
    <path d="M150 160 C170 155, 190 165, 200 160" stroke="#333333" stroke-width="1" fill="none" opacity="0.6"/>
    <path d="M300 170 C310 165, 320 175, 330 170" stroke="#333333" stroke-width="1" fill="none" opacity="0.6"/>
  </g>
</svg>