<svg xmlns="http://www.w3.org/2000/svg" viewBox="0 0 512 512" width="512" height="512">
  <defs>
    
    
    
    <linearGradient id="oakGradient" x1="0%" y1="0%" x2="100%" y2="0%">
      <stop offset="0%" stop-color="#2D1B15" />
      <stop offset="20%" stop-color="#4A3228" />
      <stop offset="50%" stop-color="#3E2723" />
      <stop offset="80%" stop-color="#4A3228" />
      <stop offset="100%" stop-color="#2D1B15" />
    </linearGradient>

    
    <linearGradient id="ironGradient" x1="0%" y1="0%" x2="0%" y2="100%">
      <stop offset="0%" stop-color="#546E7A" />
      <stop offset="50%" stop-color="#263238" />
      <stop offset="100%" stop-color="#1C2326" />
    </linearGradient>
    
    
    <radialGradient id="metalShine" cx="30%" cy="30%" r="70%">
      <stop offset="0%" stop-color="#B0BEC5" stop-opacity="0.4" />
      <stop offset="100%" stop-color="#263238" stop-opacity="0" />
    </radialGradient>

    
    <radialGradient id="innerShadow" cx="50%" cy="50%" r="50%">
      <stop offset="80%" stop-color="#000000" stop-opacity="0" />
      <stop offset="100%" stop-color="#000000" stop-opacity="0.6" />
    </radialGradient>

    
    <linearGradient id="tapWood" x1="0%" y1="0%" x2="100%" y2="0%">
      <stop offset="0%" stop-color="#5D4037" />
      <stop offset="50%" stop-color="#795548" />
      <stop offset="100%" stop-color="#3E2723" />
    </linearGradient>
    
    
    <filter id="grainBlur">
      <feTurbulence type="fractalNoise" baseFrequency="0.8" numOctaves="3" result="noise"/>
      <feColorMatrix type="matrix" values="0 0 0 0 0  0 0 0 0 0  0 0 0 0 0  0 0 0 0.3 0"/>
    </filter>
  </defs>

  
  <ellipse cx="256" cy="270" rx="230" ry="230" fill="#000000" fill-opacity="0.4" filter="blur(8px)" shape-rendering="geometricPrecision" />

  
  <g transform="translate(256, 460)">
    
    <path d="M-20,-40 L-15,10 Q0,25 15,10 L20,-40 Z" fill="url(#tapWood)" stroke="#281815" stroke-width="2" />
    
    <rect x="-25" y="-15" width="50" height="10" rx="2" fill="#8D6E63" stroke="#3E2723" stroke-width="1" />
    <circle cx="0" cy="-10" r="6" fill="#A1887F" stroke="#3E2723" stroke-width="1" />
    
    <path d="M-15,10 Q0,25 15,10 L15,15 Q0,30 -15,15 Z" fill="#000000" fill-opacity="0.5" />
    
    <path d="M-2,18 Q0,25 2,18 L0,18 Z" fill="#FFECB3" fill-opacity="0.8" />
  </g>

  
  
  <circle cx="256" cy="256" r="230" fill="#3E2723" stroke="#1B100C" stroke-width="2" />
  
  
  <g opacity="0.3" stroke="#1B100C" stroke-width="4">
    <line x1="256" y1="26" x2="256" y2="486" /> 
    <line x1="93" y1="93" x2="419" y2="419" /> 
    <line x1="419" y1="93" x2="93" y2="419" />
    <line x1="26" y1="256" x2="486" y2="256" /> 
  </g>

  
  <circle cx="256" cy="256" r="225" fill="none" stroke="url(#ironGradient)" stroke-width="12" opacity="0.9" />
  
  <circle cx="256" cy="256" r="218" fill="none" stroke="#000000" stroke-width="4" opacity="0.4" />

  
  <circle cx="256" cy="256" r="200" fill="#2D1B15" stroke="url(#ironGradient)" stroke-width="16" />
  
  
  <g fill="#78909C" stroke="#263238" stroke-width="1">
    <circle cx="256" cy="56" r="3" />
    <circle cx="256" cy="456" r="3" />
    <circle cx="56" cy="256" r="3" />
    <circle cx="456" cy="256" r="3" />
    <circle cx="114" cy="114" r="3" />
    <circle cx="398" cy="114" r="3" />
    <circle cx="114" cy="398" r="3" />
    <circle cx="398" cy="398" r="3" />
  </g>

  
  <circle cx="256" cy="256" r="200" fill="none" stroke="#5D4037" stroke-width="16" stroke-dasharray="30, 80, 20, 100" opacity="0.4" stroke-linecap="round" />

  
  <circle cx="256" cy="256" r="192" fill="#3E2723" />
  
  
  <g clip-path="circle(192 at 256 256)">
    
    <rect x="64" y="0" width="76" height="512" fill="#432E27" />
    <rect x="140" y="0" width="76" height="512" fill="#3B2520" />
    <rect x="216" y="0" width="80" height="512" fill="#4A3228" />
    <rect x="296" y="0" width="76" height="512" fill="#3E2723" />
    <rect x="372" y="0" width="76" height="512" fill="#38221D" />

    
    <path d="M140,0 L140,512" stroke="#1A100D" stroke-width="3" />
    <path d="M216,0 L216,512" stroke="#1A100D" stroke-width="3" />
    <path d="M296,0 L296,512" stroke="#1A100D" stroke-width="3" />
    <path d="M372,0 L372,512" stroke="#1A100D" stroke-width="3" />
    
    
    <g fill="none" stroke="#231410" stroke-width="1.5" opacity="0.5" stroke-linecap="round">
      
      <path d="M100,100 Q110,150 100,200 T105,300" />
      <path d="M80,180 Q70,250 85,350" />
      
      <path d="M256,150 Q230,200 256,250 Q280,200 256,150" fill="#231410" opacity="0.3" />
      <path d="M256,120 Q210,200 256,280 Q300,200 256,120" />
      <path d="M240,350 Q256,400 240,450" />
      <path d="M270,360 Q260,410 275,460" />
      
      <path d="M330,80 Q340,150 330,220" />
      <path d="M350,280 Q320,350 350,420" />
    </g>

    
    <g stroke="#6D4C41" stroke-width="1" opacity="0.6">
        <path d="M200,200 L210,215" />
        <path d="M300,350 L290,365" />
        <path d="M250,180 L260,182" />
    </g>
  </g>

  
  <circle cx="256" cy="256" r="192" fill="url(#innerShadow)" pointer-events="none" />

  
  <g transform="translate(320, 180)">
    <circle cx="0" cy="0" r="16" fill="#8D6E63" stroke="#4E342E" stroke-width="1" />
    <circle cx="0" cy="0" r="12" fill="#A1887F" stroke="none" />
    <path d="M-5,-5 L5,5 M5,-5 L-5,5" stroke="#5D4037" stroke-width="1" opacity="0.5" /> 
    <circle cx="0" cy="0" r="16" fill="url(#innerShadow)" opacity="0.3" />
  </g>

  
  
  <g transform="translate(256, 456)">
     
     <rect x="-15" y="-5" width="30" height="10" fill="#455A64" stroke="#263238" stroke-width="1" />
     <circle cx="-10" cy="0" r="2" fill="#CFD8DC" />
     <circle cx="10" cy="0" r="2" fill="#CFD8DC" />
  </g>

  
  
  <circle cx="256" cy="256" r="200" fill="url(#metalShine)" pointer-events="none" />
  
  
  <circle cx="256" cy="256" r="192" fill="none" stroke="#5D4037" stroke-width="2" opacity="0.5" />
  
  
  <path d="M150,150 Q256,100 362,150 Q300,250 150,150 Z" fill="#FFFFFF" fill-opacity="0.05" filter="blur(20px)" />

</svg>