<svg xmlns="http://www.w3.org/2000/svg" viewBox="0 0 1024 512" width="1024" height="512"><defs><linearGradient id="metalBody" x1="0%" y1="0%" x2="0%" y2="100%"><stop offset="0%" stop-color="#3e4a52" /><stop offset="50%" stop-color="#263038" /><stop offset="100%" stop-color="#1a2126" /></linearGradient><linearGradient id="metalTop" x1="0%" y1="0%" x2="100%" y2="100%"><stop offset="0%" stop-color="#556570" /><stop offset="100%" stop-color="#2f3840" /></linearGradient><linearGradient id="holoGradient" x1="50%" y1="0%" x2="50%" y2="100%"><stop offset="0%" stop-color="#00ffff" stop-opacity="0.1" /><stop offset="100%" stop-color="#00ffff" stop-opacity="0.4" /></linearGradient><pattern id="scanlines" x="0" y="0" width="4" height="4" patternUnits="userSpaceOnUse"><path d="M0 2 L4 2" stroke="#00ffff" stroke-width="0.5" stroke-opacity="0.3" /></pattern><radialGradient id="emitterGlow" cx="50%" cy="50%" r="50%"><stop offset="0%" stop-color="#e0ffff" stop-opacity="0.9" /><stop offset="50%" stop-color="#00ffff" stop-opacity="0.6" /><stop offset="100%" stop-color="#0088ff" stop-opacity="0" /></radialGradient></defs><ellipse cx="512" cy="400" rx="460" ry="100" fill="#000000" fill-opacity="0.4" filter="blur(8px)" /><path d="M112,180 L912,180 C934,180 952,198 952,220 L952,380 C952,402 934,420 912,420 L112,420 C90,420 72,402 72,380 L72,220 C72,198 90,180 112,180 Z"         fill="url(#metalBody)" stroke="#111" stroke-width="2" /><path d="M60,200 L80,200 L80,400 L60,400 C48,400 40,392 40,380 L40,220 C40,208 48,200 60,200 Z"         fill="#222" stroke="#444" stroke-width="2" /><path d="M964,200 L944,200 L944,400 L964,400 C976,400 984,392 984,380 L984,220 C984,208 976,200 964,200 Z"         fill="#222" stroke="#444" stroke-width="2" /><path d="M50,220 L50,380" stroke="#555" stroke-width="2" stroke-linecap="round" /><path d="M974,220 L974,380" stroke="#555" stroke-width="2" stroke-linecap="round" /><path d="M120,160 L904,160 L924,400 L100,400 Z"         fill="url(#metalTop)" stroke="#222" stroke-width="2" /><path d="M300,160 L300,400" stroke="#222" stroke-width="1" stroke-opacity="0.5" /><path d="M724,160 L724,400" stroke="#222" stroke-width="1" stroke-opacity="0.5" /><path d="M120,350 L904,350" stroke="#222" stroke-width="1" stroke-opacity="0.3" /><path d="M200,300 L240,290 M800,320 L780,330 M150,200 L170,205"         stroke="#778899" stroke-width="1" stroke-opacity="0.4" stroke-linecap="round" /><path d="M250,350 Q260,370 240,380 Q220,370 230,350" fill="#111" fill-opacity="0.2" /><path d="M250,80 L774,80 C785,80 794,89 794,100 L794,180 L230,180 L230,100 C230,89 239,80 250,80 Z"         fill="#2a333a" stroke="#111" stroke-width="2" /><path d="M250,82 L774,82" stroke="#667788" stroke-width="2" stroke-opacity="0.6" /><g stroke="#111" stroke-width="3" stroke-linecap="round"><line x1="280" y1="110" x2="280" y2="150" /><line x1="300" y1="110" x2="300" y2="150" /><line x1="320" y1="110" x2="320" y2="150" /><line x1="704" y1="110" x2="704" y2="150" /><line x1="724" y1="110" x2="724" y2="150" /><line x1="744" y1="110" x2="744" y2="150" /></g><rect x="432" y="100" width="160" height="80" rx="5" fill="#151a1f" stroke="#444" stroke-width="2" /><ellipse cx="512" cy="140" rx="60" ry="25" fill="#003344" stroke="#005566" stroke-width="2" /><ellipse cx="512" cy="140" rx="50" ry="20" fill="url(#emitterGlow)" /><path d="M462,140 L350,250 L674,250 L562,140 Z" fill="url(#holoGradient)" fill-opacity="0.2" /><g transform="translate(0, -10)"><path d="M320,220 L704,220 L744,360 L280,360 Z"           fill="url(#holoGradient)" stroke="#00ffff" stroke-width="1" stroke-opacity="0.6" /><path d="M320,220 L704,220 L744,360 L280,360 Z" fill="url(#scanlines)" /><g fill="#00ffff" fill-opacity="0.3" stroke="#00ffff" stroke-width="0.5" stroke-opacity="0.5"><rect x="340" y="240" width="40" height="20" rx="2" /><rect x="390" y="240" width="40" height="20" rx="2" /><rect x="440" y="240" width="40" height="20" rx="2" /><rect x="490" y="240" width="40" height="20" rx="2" /><rect x="540" y="240" width="40" height="20" rx="2" /><rect x="590" y="240" width="40" height="20" rx="2" /><rect x="640" y="240" width="40" height="20" rx="2" /><rect x="330" y="270" width="40" height="20" rx="2" /><rect x="380" y="270" width="40" height="20" rx="2" /><rect x="430" y="270" width="40" height="20" rx="2" /><rect x="480" y="270" width="40" height="20" rx="2" /><rect x="530" y="270" width="40" height="20" rx="2" /><rect x="580" y="270" width="40" height="20" rx="2" /><rect x="630" y="270" width="40" height="20" rx="2" /><rect x="680" y="270" width="40" height="20" rx="2" /><rect x="320" y="300" width="50" height="20" rx="2" /><rect x="380" y="300" width="40" height="20" rx="2" /><rect x="430" y="300" width="160" height="20" rx="2" /><rect x="600" y="300" width="40" height="20" rx="2" /><rect x="650" y="300" width="60" height="20" rx="2" /></g><circle cx="300" cy="280" r="15" fill="none" stroke="#00ffff" stroke-width="1.5" stroke-opacity="0.8" /><path d="M300,280 L310,270" stroke="#00ffff" stroke-width="1" /><circle cx="724" cy="250" r="20" fill="none" stroke="#00ffff" stroke-width="1.5" stroke-opacity="0.8" stroke-dasharray="10,5" /><rect x="670" y="300" width="30" height="20" rx="2" fill="#fff" fill-opacity="0.4" /></g><path d="M320,380 L704,380 L720,400 L304,400 Z" fill="#00ffff" fill-opacity="0.1" filter="blur(4px)" /><path d="M120,160 L904,160" stroke="#8899aa" stroke-width="2" stroke-opacity="0.8" /><path d="M250,80 L774,80" stroke="#99aabb" stroke-width="1" stroke-opacity="0.9" /><path d="M72,380 L952,380" stroke="#000" stroke-width="4" stroke-opacity="0.3" filter="blur(2px)" /><path d="M200,180 C180,220 180,250 210,280" stroke="#111" stroke-width="4" fill="none" /><path d="M200,180 C180,220 180,250 210,280" stroke="#333" stroke-width="1" fill="none" /><path d="M824,180 C844,220 844,250 814,280" stroke="#111" stroke-width="4" fill="none" /><path d="M824,180 C844,220 844,250 814,280" stroke="#333" stroke-width="1" fill="none" /><g fill="#222" stroke="#444" stroke-width="1"><circle cx="130" cy="170" r="3" /><circle cx="894" cy="170" r="3" /><circle cx="130" cy="390" r="3" /><circle cx="894" cy="390" r="3" /></g></svg>