<svg viewBox="0 0 512 512" xmlns="http://www.w3.org/2000/svg" shape-rendering="geometricPrecision" width="512" height="512"><defs><radialGradient id="mistCore" cx="50%" cy="50%" r="50%" fx="50%" fy="50%"><stop offset="0%" stop-color="#FFFFFF" stop-opacity="0.95" /><stop offset="40%" stop-color="#E1F5FE" stop-opacity="0.7" /><stop offset="100%" stop-color="#B3E5FC" stop-opacity="0" /></radialGradient><radialGradient id="mistOuter" cx="50%" cy="50%" r="50%" fx="50%" fy="50%"><stop offset="0%" stop-color="#ECEFF1" stop-opacity="0.5" /><stop offset="60%" stop-color="#CFD8DC" stop-opacity="0.2" /><stop offset="100%" stop-color="#B0BEC5" stop-opacity="0" /></radialGradient><linearGradient id="ironCylinder" x1="0%" y1="0%" x2="100%" y2="0%"><stop offset="0%" stop-color="#263238" /><stop offset="20%" stop-color="#37474F" /><stop offset="45%" stop-color="#546E7A" /><stop offset="55%" stop-color="#78909C" /><stop offset="80%" stop-color="#37474F" /><stop offset="100%" stop-color="#192227" /></linearGradient><linearGradient id="ironPlate" x1="0%" y1="0%" x2="0%" y2="100%"><stop offset="0%" stop-color="#455A64" /><stop offset="100%" stop-color="#263238" /></linearGradient><linearGradient id="brassAccent" x1="0%" y1="0%" x2="100%" y2="0%"><stop offset="0%" stop-color="#4E342E" /><stop offset="30%" stop-color="#8D6E63" /><stop offset="50%" stop-color="#D7CCC8" /><stop offset="70%" stop-color="#8D6E63" /><stop offset="100%" stop-color="#3E2723" /></linearGradient><filter id="softBlur" x="-50%" y="-50%" width="200%" height="200%"><feGaussianBlur in="SourceGraphic" stdDeviation="4" /></filter></defs><path d="M190,140 L322,140 L330,220 C330,220 256,240 182,220 L190,140 Z" fill="#000000" fill-opacity="0.4" filter="url(#softBlur)" /><circle cx="230" cy="320" r="70" fill="url(#mistOuter)" /><circle cx="280" cy="350" r="80" fill="url(#mistOuter)" /><circle cx="256" cy="400" r="90" fill="url(#mistOuter)" /><circle cx="200" cy="380" r="60" fill="url(#mistOuter)" /><circle cx="310" cy="300" r="60" fill="url(#mistOuter)" /><g transform="translate(0, 20)"><path d="M180,60 L332,60 L322,160 C322,170 310,175 300,175 L212,175 C202,175 190,170 190,160 L180,60 Z" fill="url(#ironPlate)" stroke="#101518" stroke-width="2" /><path d="M200,75 L312,75 L305,150 L207,150 Z" fill="#1C2328" stroke="none" /><circle cx="195" cy="75" r="4" fill="#546E7A" stroke="#101518" stroke-width="1"/><circle cx="317" cy="75" r="4" fill="#546E7A" stroke="#101518" stroke-width="1"/><circle cx="202" cy="155" r="4" fill="#546E7A" stroke="#101518" stroke-width="1"/><circle cx="310" cy="155" r="4" fill="#546E7A" stroke="#101518" stroke-width="1"/><path d="M185,65 Q195,90 190,110" fill="none" stroke="#3E2723" stroke-width="2" opacity="0.6" stroke-linecap="round"/><path d="M327,65 Q315,90 320,110" fill="none" stroke="#3E2723" stroke-width="2" opacity="0.6" stroke-linecap="round"/></g><g transform="translate(0, 20)"><rect x="236" y="100" width="40" height="60" fill="url(#ironCylinder)" stroke="#101518" stroke-width="1" /><path d="M226,160 L286,160 L296,210 L216,210 Z" fill="url(#ironCylinder)" stroke="#101518" stroke-width="1" /><rect x="226" y="160" width="60" height="8" fill="url(#brassAccent)" stroke="#261815" stroke-width="0.5" /><rect x="221" y="185" width="70" height="6" rx="2" fill="url(#brassAccent)" stroke="#261815" stroke-width="0.5" /><ellipse cx="256" cy="210" rx="40" ry="12" fill="#0D1113" stroke="#546E7A" stroke-width="1" /><path d="M236,210 L276,210" stroke="#263238" stroke-width="2" /><path d="M256,200 L256,220" stroke="#263238" stroke-width="2" /><path d="M230,165 L230,180" stroke="#78909C" stroke-width="1" opacity="0.6" /><path d="M280,165 L280,180" stroke="#78909C" stroke-width="1" opacity="0.6" /><path d="M240,110 L240,140" stroke="#78909C" stroke-width="2" opacity="0.3" /></g><circle cx="256" cy="225" r="25" fill="url(#mistCore)" /><circle cx="240" cy="240" r="30" fill="url(#mistCore)" /><circle cx="272" cy="240" r="30" fill="url(#mistCore)" /><circle cx="256" cy="260" r="40" fill="url(#mistCore)" opacity="0.8" /><circle cx="220" cy="280" r="35" fill="url(#mistCore)" opacity="0.7" /><circle cx="290" cy="280" r="35" fill="url(#mistCore)" opacity="0.7" /><path d="M226,160 L286,160" stroke="#B0BEC5" stroke-width="1" opacity="0.5" /><circle cx="240" cy="230" r="2" fill="#FFFFFF" opacity="0.6" /><circle cx="270" cy="235" r="1.5" fill="#FFFFFF" opacity="0.6" /><circle cx="256" cy="250" r="3" fill="#FFFFFF" opacity="0.4" /><circle cx="230" cy="270" r="2" fill="#E1F5FE" opacity="0.5" /></svg>