<svg viewBox="0 0 512 512" width="512" height="512" xmlns="http://www.w3.org/2000/svg"><defs><linearGradient id="chromeGradient" x1="0%" y1="0%" x2="0%" y2="100%"><stop offset="0%" stop-color="#2d3748" /><stop offset="15%" stop-color="#4a5568" /><stop offset="30%" stop-color="#a0aec0" /><stop offset="45%" stop-color="#edf2f7" /><stop offset="50%" stop-color="#1a202c" /><stop offset="70%" stop-color="#718096" /><stop offset="100%" stop-color="#2d3748" /></linearGradient><linearGradient id="darkMetalGradient" x1="0%" y1="0%" x2="0%" y2="100%"><stop offset="0%" stop-color="#1a202c" /><stop offset="40%" stop-color="#4a5568" /><stop offset="50%" stop-color="#2d3748" /><stop offset="100%" stop-color="#000000" /></linearGradient><linearGradient id="liquidGradient" x1="0%" y1="50%" x2="100%" y2="50%"><stop offset="0%" stop-color="#064e3b" /><stop offset="20%" stop-color="#10b981" /><stop offset="50%" stop-color="#6ee7b7" /><stop offset="80%" stop-color="#10b981" /><stop offset="100%" stop-color="#064e3b" /></linearGradient><linearGradient id="glassSheen" x1="0%" y1="0%" x2="0%" y2="100%"><stop offset="0%" stop-color="#ffffff" stop-opacity="0.9" /><stop offset="100%" stop-color="#ffffff" stop-opacity="0" /></linearGradient></defs><path d="M 60,340 Q 256,360 452,340 L 452,360 Q 256,380 60,360 Z" fill="#000000" fill-opacity="0.4" /><ellipse cx="256" cy="350" rx="120" ry="30" fill="#000000" fill-opacity="0.3" /><rect x="50" y="186" width="150" height="140" fill="url(#chromeGradient)" stroke="#1a202c" stroke-width="2" /><path d="M 70,220 L 90,222 M 120,280 L 140,275 M 80,250 L 100,255" stroke="#000000" stroke-opacity="0.3" stroke-width="1" fill="none" /><path d="M 60,200 L 150,200" stroke="#ffffff" stroke-opacity="0.2" stroke-width="2" /><rect x="312" y="186" width="150" height="140" fill="url(#chromeGradient)" stroke="#1a202c" stroke-width="2" /><path d="M 330,230 L 350,228 M 400,290 L 420,295" stroke="#000000" stroke-opacity="0.3" stroke-width="1" fill="none" /><path d="M 50,176 L 90,176 L 90,336 L 50,336 Z" fill="url(#darkMetalGradient)" stroke="#000000" stroke-width="2" /><circle cx="70" cy="190" r="5" fill="#718096" stroke="#000" stroke-width="1"/><circle cx="70" cy="322" r="5" fill="#718096" stroke="#000" stroke-width="1"/><circle cx="70" cy="256" r="5" fill="#718096" stroke="#000" stroke-width="1"/><path d="M 422,176 L 462,176 L 462,336 L 422,336 Z" fill="url(#darkMetalGradient)" stroke="#000000" stroke-width="2" /><circle cx="442" cy="190" r="5" fill="#718096" stroke="#000" stroke-width="1"/><circle cx="442" cy="322" r="5" fill="#718096" stroke="#000" stroke-width="1"/><circle cx="442" cy="256" r="5" fill="#718096" stroke="#000" stroke-width="1"/><rect x="180" y="156" width="152" height="200" rx="10" ry="10" fill="url(#darkMetalGradient)" stroke="#000000" stroke-width="3" /><rect x="180" y="170" width="152" height="10" fill="#2d3748" stroke="none" /><rect x="180" y="332" width="152" height="10" fill="#2d3748" stroke="none" /><circle cx="195" cy="165" r="3" fill="#a0aec0" /><circle cx="307" cy="165" r="3" fill="#a0aec0" /><circle cx="195" cy="347" r="3" fill="#a0aec0" /><circle cx="307" cy="347" r="3" fill="#a0aec0" /><rect x="200" y="196" width="112" height="120" rx="6" ry="6" fill="#1a202c" stroke="#4a5568" stroke-width="2" /><rect x="206" y="202" width="100" height="108" rx="4" ry="4" fill="url(#liquidGradient)" /><path d="M 206,202 L 306,202 L 306,210 L 206,210 Z" fill="#042f2e" fill-opacity="0.5" /><path d="M 206,300 L 306,300 L 306,310 L 206,310 Z" fill="#042f2e" fill-opacity="0.3" /><circle cx="230" cy="280" r="4" fill="#a7f3d0" fill-opacity="0.6" stroke="#ffffff" stroke-width="0.5" stroke-opacity="0.4" /><circle cx="245" cy="240" r="6" fill="#a7f3d0" fill-opacity="0.5" stroke="#ffffff" stroke-width="0.5" stroke-opacity="0.4" /><circle cx="280" cy="260" r="3" fill="#a7f3d0" fill-opacity="0.6" stroke="#ffffff" stroke-width="0.5" stroke-opacity="0.4" /><circle cx="270" cy="290" r="2" fill="#a7f3d0" fill-opacity="0.6" /><circle cx="220" cy="220" r="2" fill="#a7f3d0" fill-opacity="0.4" /><path d="M 206,202 L 306,202 L 306,230 Q 256,240 206,230 Z" fill="url(#glassSheen)" fill-opacity="0.4" /><path d="M 215,210 L 295,210 L 295,215 L 215,215 Z" fill="#ffffff" fill-opacity="0.6" rx="2" /><path d="M 220,310 L 250,202 L 270,202 L 240,310 Z" fill="#ffffff" fill-opacity="0.1" /><path d="M 50,186 L 200,186" stroke="#ffffff" stroke-width="2" stroke-opacity="0.6" /><path d="M 312,186 L 462,186" stroke="#ffffff" stroke-width="2" stroke-opacity="0.6" /><path d="M 180,156 L 332,156" stroke="#ffffff" stroke-width="2" stroke-opacity="0.4" /><path d="M 170,300 Q 180,310 170,320" stroke="none" fill="#1a202c" fill-opacity="0.4" /><path d="M 340,300 Q 330,310 340,320" stroke="none" fill="#1a202c" fill-opacity="0.4" /><path d="M 180,160 L 180,350" stroke="#7c2d12" stroke-width="2" stroke-opacity="0.2" fill="none"/><path d="M 332,160 L 332,350" stroke="#7c2d12" stroke-width="2" stroke-opacity="0.2" fill="none"/></svg>