<svg xmlns="http://www.w3.org/2000/svg" viewBox="0 0 1024 512" width="1024" height="512"><defs><linearGradient id="metalMain" x1="0%" y1="0%" x2="0%" y2="100%"><stop offset="0%" stop-color="#555a60" /><stop offset="10%" stop-color="#6e757c" /><stop offset="50%" stop-color="#3b4046" /><stop offset="90%" stop-color="#2a2e33" /><stop offset="100%" stop-color="#1f2226" /></linearGradient><linearGradient id="metalRim" x1="0%" y1="0%" x2="100%" y2="0%"><stop offset="0%" stop-color="#2a2e33" /><stop offset="20%" stop-color="#6e757c" /><stop offset="50%" stop-color="#8ba0b0" /><stop offset="80%" stop-color="#6e757c" /><stop offset="100%" stop-color="#2a2e33" /></linearGradient><linearGradient id="screenMain" x1="0%" y1="0%" x2="0%" y2="100%"><stop offset="0%" stop-color="#003344" /><stop offset="100%" stop-color="#001122" /></linearGradient><linearGradient id="hologram" x1="0%" y1="100%" x2="0%" y2="0%"><stop offset="0%" stop-color="rgba(0, 240, 255, 0.1)" /><stop offset="100%" stop-color="rgba(0, 240, 255, 0.6)" /></linearGradient><filter id="softGlow" x="-50%" y="-50%" width="200%" height="200%"><feGaussianBlur stdDeviation="4" result="coloredBlur"/><feMerge><feMergeNode in="coloredBlur"/><feMergeNode in="SourceGraphic"/></feMerge></filter><filter id="dropShadow" x="-20%" y="-20%" width="140%" height="140%"><feGaussianBlur in="SourceAlpha" stdDeviation="8"/><feOffset dx="0" dy="8" result="offsetblur"/><feComponentTransfer><feFuncA type="linear" slope="0.6"/></feComponentTransfer><feMerge><feMergeNode in="offsetblur"/><feMergeNode in="SourceGraphic"/></feMerge></filter><pattern id="ventPattern" x="0" y="0" width="10" height="4" patternUnits="userSpaceOnUse"><rect x="0" y="0" width="8" height="2" fill="#15171a" /></pattern></defs><path d="M 80 120 L 944 120 C 970 120 984 140 984 170 L 984 380 C 984 410 960 430 930 430 L 780 430 L 750 320 C 740 290 710 280 680 280 L 344 280 C 314 280 284 290 274 320 L 244 430 L 94 430 C 64 430 40 410 40 380 L 40 170 C 40 140 54 120 80 120 Z" fill="#000000" fill-opacity="0.5" filter="url(#f1)" /><g filter="url(#dropShadow)"><path d="M 80 100 L 944 100 C 970 100 984 120 984 150 L 984 380 C 984 410 960 420 930 420 L 780 420 L 750 310 C 740 280 710 270 680 270 L 344 270 C 314 270 284 280 274 310 L 244 420 L 94 420 C 64 420 40 410 40 380 L 40 150 C 40 120 54 100 80 100 Z" fill="url(#metalMain)" stroke="#1a1d21" stroke-width="2" /><path d="M 80 102 L 944 102 C 965 102 982 118 982 150 L 982 380 C 982 395 970 418 930 418 L 782 418 L 752 308 C 742 278 712 272 680 272 L 344 272 C 312 272 282 278 272 308 L 242 418 L 94 418 C 54 418 42 395 42 380 L 42 150 C 42 118 59 102 80 102 Z" fill="none" stroke="url(#metalRim)" stroke-width="2" opacity="0.6" /><path d="M 100 140 L 924 140 L 924 380 L 800 380 L 770 290 C 760 270 730 290 700 290 L 324 290 C 294 290 264 270 254 290 L 224 380 L 100 380 Z" fill="#22262b" stroke="#111316" stroke-width="1"/></g><g transform="translate(0, 10)"><rect x="200" y="110" width="624" height="20" fill="url(#ventPattern)" opacity="0.4" rx="4" /><path d="M 200 110 L 824 110" stroke="#111" stroke-width="1" stroke-opacity="0.5"/><path d="M 200 130 L 824 130" stroke="#555" stroke-width="1" stroke-opacity="0.2"/></g><g transform="translate(512, 180)"><path d="M -160 -40 L 160 -40 L 170 10 L -170 10 Z" fill="#15171a" /><path d="M -155 -35 L 155 -35 L 165 5 L -165 5 Z" fill="url(#screenMain)" stroke="#00aaff" stroke-width="1" stroke-opacity="0.3" /><g opacity="0.7" filter="url(#softGlow)"><path d="M -100 -15 L 100 -15 M -100 0 L 100 0" stroke="#00f0ff" stroke-width="0.5" stroke-dasharray="2,2" /><circle cx="0" cy="-15" r="30" stroke="#00f0ff" stroke-width="1" fill="none" opacity="0.5"/><circle cx="0" cy="-15" r="10" fill="#00f0ff" opacity="0.3"/><path d="M -140 -25 L -120 -25 L -125 -10 Z" fill="#dfa420" opacity="0.8"/><rect x="110" y="-30" width="40" height="30" fill="none" stroke="#00f0ff" stroke-width="0.5" /><rect x="115" y="-25" width="30" height="2" fill="#00f0ff" /><rect x="115" y="-20" width="20" height="2" fill="#00f0ff" /><rect x="115" y="-15" width="25" height="2" fill="#00f0ff" /></g><g transform="rotate(25, -180, 10) translate(-320, 10)"><path d="M -70 -30 L 70 -30 L 75 10 L -75 10 Z" fill="#15171a" /><path d="M -67 -27 L 67 -27 L 71 7 L -71 7 Z" fill="#002233" stroke="#00aaff" stroke-width="0.5" stroke-opacity="0.3"/><g opacity="0.6" filter="url(#softGlow)"><rect x="-60" y="-20" width="10" height="20" fill="#dfa420" /><rect x="-45" y="-15" width="10" height="15" fill="#dfa420" opacity="0.7" /><rect x="-30" y="-22" width="10" height="22" fill="#dfa420" opacity="0.9" /><line x1="-60" y1="5" x2="60" y2="5" stroke="#00f0ff" stroke-width="0.5"/></g></g><g transform="rotate(-25, 180, 10) translate(320, 10)"><path d="M -70 -30 L 70 -30 L 75 10 L -75 10 Z" fill="#15171a" /><path d="M -67 -27 L 67 -27 L 71 7 L -71 7 Z" fill="#002233" stroke="#00aaff" stroke-width="0.5" stroke-opacity="0.3"/><g opacity="0.6" filter="url(#softGlow)"><path d="M -50 -10 L 50 -10" stroke="#00f0ff" stroke-width="0.5" /><path d="M -50 -10 L -40 -20 L -20 -10 L 0 -25 L 20 -5 L 40 -15" stroke="#00f0ff" stroke-width="1" fill="none"/></g></g></g><g transform="translate(512, 280)"><rect x="-120" y="-20" width="240" height="80" rx="4" fill="#1a1d21" stroke="#333" stroke-width="1" /><g fill="#4a5056"><rect x="-110" y="-12" width="20" height="10" rx="1" /><rect x="-85" y="-12" width="20" height="10" rx="1" /><rect x="-60" y="-12" width="20" height="10" rx="1" /><rect x="-110" y="5" width="140" height="45" rx="2" fill="#2a2e33" stroke="#111" stroke-width="0.5"/><rect x="-100" y="10" width="10" height="10" fill="#00aaff" opacity="0.4" /><rect x="-85" y="10" width="10" height="10" fill="#00aaff" opacity="0.2" /><rect x="-100" y="25" width="10" height="10" fill="#00aaff" opacity="0.2" /></g><rect x="40" y="5" width="70" height="45" rx="2" fill="#222" stroke="#111" stroke-width="0.5"/><circle cx="55" cy="20" r="8" fill="#dfa420" opacity="0.6" filter="url(#softGlow)"/><circle cx="95" cy="20" r="5" fill="#333" stroke="#555" stroke-width="1"/><rect x="50" y="35" width="50" height="8" fill="#111" /><rect x="50" y="35" width="20" height="8" fill="#00f0ff" opacity="0.5" filter="url(#softGlow)"/><ellipse cx="0" cy="-50" rx="40" ry="10" fill="#000" opacity="0.3" /><path d="M -30 -50 L 30 -50 L 40 -120 L -40 -120 Z" fill="url(#hologram)" opacity="0.3" style="mix-blend-mode: screen;" /></g><g><rect x="120" y="250" width="80" height="120" rx="4" fill="#1f2226" stroke="#333" stroke-width="1" opacity="0.8"/><path d="M 140 270 L 180 270 M 140 290 L 180 290 M 140 310 L 180 310" stroke="#444" stroke-width="2" /><circle cx="160" cy="340" r="12" fill="#111" stroke="#333" stroke-width="2"/><circle cx="160" cy="340" r="4" fill="#dfa420" opacity="0.5"/><rect x="820" y="260" width="90" height="100" rx="2" transform="rotate(-5, 865, 310)" fill="#e0e0e0" opacity="0.1" stroke="#fff" stroke-width="0.5"/><path d="M 830 270 L 880 270 M 830 285 L 890 285 M 830 300 L 870 300" stroke="#fff" stroke-width="1" opacity="0.2" transform="rotate(-5, 865, 310)"/><rect x="920" y="280" width="6" height="60" rx="3" fill="#111" transform="rotate(15, 923, 310)"/></g><g opacity="0.3"><path d="M 300 410 L 320 412 M 310 408 L 330 409" stroke="#fff" stroke-width="0.5" /><path d="M 700 410 L 720 408 M 710 412 L 690 411" stroke="#fff" stroke-width="0.5" /><ellipse cx="800" cy="200" rx="15" ry="10" stroke="#3e2b1f" stroke-width="2" fill="none" opacity="0.4" /><path d="M 40 150 L 40 380" stroke="#000" stroke-width="2" opacity="0.5"/><path d="M 984 150 L 984 380" stroke="#fff" stroke-width="1" opacity="0.1"/></g><path d="M 80 140 L 944 140 L 944 150 L 80 150 Z" fill="#000" opacity="0.2" /><ellipse cx="512" cy="280" rx="180" ry="60" fill="#000" opacity="0.15" filter="url(#f1)" /></svg>