<svg width="512" height="512" viewBox="0 0 512 512" xmlns="http://www.w3.org/2000/svg">
  
  <g>
    
    <rect x="78" y="140" width="360" height="240" rx="10" ry="10" fill="rgba(0,0,0,0.15)"/>

    
    <rect x="76" y="136" width="360" height="240" rx="10" ry="10" fill="#6d3e43" stroke="#4a2a2d" stroke-width="4"/>

    
    <rect x="86" y="146" width="340" height="220" rx="6" ry="6" fill="none" stroke="#b08d62" stroke-width="2.5"/>

    
    <g fill="#d4b78f" stroke="#9e7b54" stroke-width="1.5">
      <circle cx="256" cy="256" r="40"/>
      
      <path d="M256 208 L256 304 M208 256 L304 256"/>
      
      <path d="M228 228 L284 284 M228 284 L284 228"/>
    </g>

    
    <g fill="#d4b78f" stroke="#9e7b54" stroke-width="1">
      
      <path d="M107 167 L112 172 L107 177 L102 172 Z"/>
      
      <path d="M405 167 L410 172 L405 177 L400 172 Z"/>
      
      <path d="M107 341 L112 346 L107 351 L102 346 Z"/>
      
      <path d="M405 341 L410 346 L405 351 L400 346 Z"/>
    </g>

    
    <g stroke="#b08d62" stroke-width="1.5">
      
      <path d="M140 150 L148 158 M148 150 L140 158"/>
      <path d="M170 150 L178 158 M178 150 L170 158"/>
      <path d="M200 150 L208 158 M208 150 L200 158"/>
      <path d="M230 150 L238 158 M238 150 L230 158"/>
      <path d="M280 150 L288 158 M288 150 L280 158"/>
      <path d="M310 150 L318 158 M318 150 L310 158"/>
      <path d="M340 150 L348 158 M348 150 L340 158"/>
      <path d="M370 150 L378 158 M378 150 L370 158"/>

      
      <path d="M140 354 L148 362 M148 354 L140 362"/>
      <path d="M170 354 L178 362 M178 354 L170 362"/>
      <path d="M200 354 L208 362 M208 354 L200 362"/>
      <path d="M230 354 L238 362 M238 354 L230 362"/>
      <path d="M280 354 L288 362 M288 354 L280 362"/>
      <path d="M310 354 L318 362 M318 354 L310 362"/>
      <path d="M340 354 L348 362 M348 354 L340 362"/>
      <path d="M370 354 L378 362 M378 354 L370 362"/>

      
      <path d="M90 190 L98 198 M98 190 L90 198"/>
      <path d="M90 220 L98 228 M98 220 L90 228"/>
      <path d="M90 250 L98 258 M98 250 L90 258"/>
      <path d="M90 280 L98 288 M98 280 L90 288"/>
      <path d="M90 310 L98 318 M98 310 L90 318"/>

      
      <path d="M414 190 L422 198 M422 190 L414 198"/>
      <path d="M414 220 L422 228 M422 220 L414 228"/>
      <path d="M414 250 L422 258 M422 250 L414 258"/>
      <path d="M414 280 L422 288 M422 280 L414 288"/>
      <path d="M414 310 L422 318 M422 310 L414 318"/>
    </g>
  </g>
</svg>