<svg xmlns="http://www.w3.org/2000/svg" viewBox="0 0 512 512">
    
    <g id="ornate-throne">
        
        <ellipse cx="256" cy="390" rx="120" ry="50" fill="rgba(0,0,0,0.2)"/>

        
        <rect x="100" y="350" width="312" height="30" fill="#4A4A4A" stroke="#222222" stroke-width="4"/>

        
        <rect x="100" y="250" width="312" height="100" fill="#4A4A4A" stroke="#222222" stroke-width="4"/>

        
        <rect x="100" y="250" width="50" height="90" fill="#6A6A6A" stroke="#222222" stroke-width="4"/>
        <rect x="362" y="250" width="50" height="90" fill="#6A6A6A" stroke="#222222" stroke-width="4"/>

        
        <rect x="150" y="260" width="212" height="70" fill="#8B0000" stroke="#550000" stroke-width="4"/>

        
        <rect x="100" y="100" width="312" height="150" fill="#4A4A4A" stroke="#222222" stroke-width="4"/>

        
        <rect x="150" y="110" width="212" height="130" fill="#5A5A5A" stroke="#222222" stroke-width="4"/>

        
        <path d="M 100 100 L 100 70 L 130 50 L 256 50 L 382 50 L 412 70 L 412 100 Z"
              fill="#4A4A4A" stroke="#222222" stroke-width="4"/>

        
        <path d="M 256 125 L 230 140 L 240 155 L 256 140 L 272 155 L 282 140 L 256 125 Z M 256 140 V 170"
              fill="#DAA520" stroke="#A07510" stroke-width="3"/>
    </g>
</svg>