<svg xmlns="http://www.w3.org/2000/svg" viewBox="0 0 512 512" shape-rendering="geometricPrecision" image-rendering="optimizeQuality" width="512" height="512">
  <defs>
    
    <linearGradient id="woodGrad" x1="0%" y1="0%" x2="0%" y2="100%">
      <stop offset="0%" stop-color="#5D4037" />
      <stop offset="50%" stop-color="#3E2723" />
      <stop offset="100%" stop-color="#281815" />
    </linearGradient>
    
    
    <pattern id="grainPattern" x="0" y="0" width="20" height="20" patternUnits="userSpaceOnUse">
      <path d="M0,10 Q5,5 10,10 T20,10" fill="none" stroke="#251614" stroke-width="1" opacity="0.4"/>
      <path d="M0,5 Q5,10 10,5 T20,5" fill="none" stroke="#251614" stroke-width="0.5" opacity="0.3"/>
    </pattern>

    
    <radialGradient id="velvetBase" cx="50%" cy="50%" r="70%">
      <stop offset="0%" stop-color="#880E1F" /> 
      <stop offset="80%" stop-color="#56000E" /> 
      <stop offset="100%" stop-color="#2D0005" />
    </radialGradient>

    
    <radialGradient id="velvetSheen" cx="50%" cy="40%" r="50%">
      <stop offset="0%" stop-color="#C21833" stop-opacity="0.6" />
      <stop offset="100%" stop-color="#880E1F" stop-opacity="0" />
    </radialGradient>

    
    <linearGradient id="goldGrad" x1="0%" y1="0%" x2="100%" y2="100%">
      <stop offset="0%" stop-color="#FDD835" />
      <stop offset="50%" stop-color="#FBC02D" />
      <stop offset="100%" stop-color="#F57F17" />
    </linearGradient>
    
    
    <radialGradient id="buttonShadow" cx="50%" cy="50%" r="50%">
      <stop offset="50%" stop-color="#1a0003" stop-opacity="0.9"/>
      <stop offset="100%" stop-color="#56000E" stop-opacity="0"/>
    </radialGradient>

    
    <filter id="blurShadow" x="-20%" y="-20%" width="140%" height="140%">
      <feGaussianBlur in="SourceGraphic" stdDeviation="6" />
    </filter>
  </defs>

  
  <path d="M70,140 Q70,130 90,130 L422,130 Q442,130 442,140 L442,372 Q442,382 422,382 L90,382 Q70,382 70,372 Z" fill="#000000" opacity="0.4" filter="url(#blurShadow)" />

  
  
  <rect x="80" y="140" width="352" height="232" rx="10" ry="10" fill="url(#woodGrad)" stroke="#1a0e0c" stroke-width="2"/>
  
  
  <g transform="translate(45, 120)">
    
    <path d="M0,20 C0,0 45,0 45,20 L45,252 C45,272 0,272 0,252 Z" fill="url(#woodGrad)" />
    
    <path d="M0,20 C0,0 45,0 45,20 L45,252 C45,272 0,272 0,252 Z" fill="url(#grainPattern)" opacity="0.6" />
    
    <path d="M10,30 Q22,10 35,30 T22,50 Q10,30 22,30" fill="none" stroke="#3E2723" stroke-width="2" opacity="0.7"/>
    
    <path d="M10,242 Q22,262 35,242 T22,222 Q10,242 22,242" fill="none" stroke="#3E2723" stroke-width="2" opacity="0.7"/>
    
    <path d="M5,20 C5,5 40,5 40,20 L40,252 C40,265 5,265 5,252 Z" fill="none" stroke="#8D6E63" stroke-width="1.5" opacity="0.4"/>
    
    <path d="M2,20 C2,2 43,2 43,20" fill="none" stroke="#A1887F" stroke-width="1" opacity="0.6"/>
  </g>

  
  <g transform="translate(422, 120)">
    <path d="M0,20 C0,0 45,0 45,20 L45,252 C45,272 0,272 0,252 Z" fill="url(#woodGrad)" />
    <path d="M0,20 C0,0 45,0 45,20 L45,252 C45,272 0,272 0,252 Z" fill="url(#grainPattern)" opacity="0.6" />
    <path d="M10,30 Q22,10 35,30 T22,50 Q10,30 22,30" fill="none" stroke="#3E2723" stroke-width="2" opacity="0.7"/>
    <path d="M10,242 Q22,262 35,242 T22,222 Q10,242 22,242" fill="none" stroke="#3E2723" stroke-width="2" opacity="0.7"/>
    <path d="M5,20 C5,5 40,5 40,20 L40,252 C40,265 5,265 5,252 Z" fill="none" stroke="#8D6E63" stroke-width="1.5" opacity="0.4"/>
    <path d="M2,20 C2,2 43,2 43,20" fill="none" stroke="#A1887F" stroke-width="1" opacity="0.6"/>
  </g>

  
  <g transform="translate(90, 140)">
    
    <rect x="0" y="0" width="332" height="232" rx="15" ry="15" fill="url(#velvetBase)" stroke="#3e000a" stroke-width="1"/>
    
    
    
    <path d="M0,0 L332,232 M332,0 L0,232" stroke="#2D0005" stroke-width="0" /> 
    
    
    <g stroke="#2D0005" stroke-width="3" stroke-opacity="0.4" stroke-linecap="round">
        
        <line x1="66" y1="10" x2="16" y2="60" /> <line x1="132" y1="10" x2="16" y2="126" /> <line x1="198" y1="10" x2="16" y2="192" />
        <line x1="264" y1="10" x2="42" y2="222" /> <line x1="330" y1="10" x2="108" y2="222" /> <line x1="320" y1="80" x2="174" y2="222" />
        <line x1="320" y1="146" x2="240" y2="222" />
        
        
        <line x1="16" y1="160" x2="82" y2="222" /> <line x1="16" y1="94" x2="148" y2="222" /> <line x1="16" y1="28" x2="214" y2="222" />
        <line x1="66" y1="10" x2="280" y2="222" /> <line x1="132" y1="10" x2="316" y2="190" /> <line x1="198" y1="10" x2="316" y2="124" />
        <line x1="264" y1="10" x2="316" y2="58" />
    </g>

    
    
    <g opacity="0.7">
       
       <circle cx="41" cy="41" r="25" fill="url(#velvetSheen)" />
       <circle cx="107" cy="41" r="25" fill="url(#velvetSheen)" />
       <circle cx="173" cy="41" r="25" fill="url(#velvetSheen)" />
       <circle cx="239" cy="41" r="25" fill="url(#velvetSheen)" />
       <circle cx="295" cy="41" r="25" fill="url(#velvetSheen)" />
       
       
       <circle cx="74" cy="88" r="25" fill="url(#velvetSheen)" />
       <circle cx="140" cy="88" r="25" fill="url(#velvetSheen)" />
       <circle cx="206" cy="88" r="25" fill="url(#velvetSheen)" />
       <circle cx="272" cy="88" r="25" fill="url(#velvetSheen)" />

       
       <circle cx="41" cy="135" r="25" fill="url(#velvetSheen)" />
       <circle cx="107" cy="135" r="25" fill="url(#velvetSheen)" />
       <circle cx="173" cy="135" r="25" fill="url(#velvetSheen)" />
       <circle cx="239" cy="135" r="25" fill="url(#velvetSheen)" />
       <circle cx="295" cy="135" r="25" fill="url(#velvetSheen)" />

       
       <circle cx="74" cy="182" r="25" fill="url(#velvetSheen)" />
       <circle cx="140" cy="182" r="25" fill="url(#velvetSheen)" />
       <circle cx="206" cy="182" r="25" fill="url(#velvetSheen)" />
       <circle cx="272" cy="182" r="25" fill="url(#velvetSheen)" />
    </g>

    
    <g>
        
        <circle cx="74" cy="64" r="6" fill="url(#buttonShadow)" />
        <circle cx="140" cy="64" r="6" fill="url(#buttonShadow)" />
        <circle cx="206" cy="64" r="6" fill="url(#buttonShadow)" />
        <circle cx="272" cy="64" r="6" fill="url(#buttonShadow)" />
        
        <circle cx="41" cy="111" r="6" fill="url(#buttonShadow)" />
        <circle cx="107" cy="111" r="6" fill="url(#buttonShadow)" />
        <circle cx="173" cy="111" r="6" fill="url(#buttonShadow)" />
        <circle cx="239" cy="111" r="6" fill="url(#buttonShadow)" />
        <circle cx="295" cy="111" r="6" fill="url(#buttonShadow)" />

        <circle cx="74" cy="158" r="6" fill="url(#buttonShadow)" />
        <circle cx="140" cy="158" r="6" fill="url(#buttonShadow)" />
        <circle cx="206" cy="158" r="6" fill="url(#buttonShadow)" />
        <circle cx="272" cy="158" r="6" fill="url(#buttonShadow)" />

        
        <g fill="#4a000a" stroke="#2D0005" stroke-width="0.5">
            <circle cx="74" cy="64" r="3" /> <circle cx="140" cy="64" r="3" />
            <circle cx="206" cy="64" r="3" /> <circle cx="272" cy="64" r="3" />
            <circle cx="41" cy="111" r="3" /> <circle cx="107" cy="111" r="3" />
            <circle cx="173" cy="111" r="3" /> <circle cx="239" cy="111" r="3" /> <circle cx="295" cy="111" r="3" />
            <circle cx="74" cy="158" r="3" /> <circle cx="140" cy="158" r="3" />
            <circle cx="206" cy="158" r="3" /> <circle cx="272" cy="158" r="3" />
        </g>
    </g>
    
    
    <rect x="0" y="0" width="332" height="232" rx="15" fill="url(#velvetBase)" opacity="0.1" style="mix-blend-mode: multiply;" />

  </g>

  
  <g transform="translate(90, 140)">
    
    <g fill="url(#goldGrad)" stroke="#B71C1C" stroke-width="0.5">
        <circle cx="10" cy="5" r="2" /> <circle cx="30" cy="5" r="2" /> <circle cx="50" cy="5" r="2" />
        <circle cx="70" cy="5" r="2" /> <circle cx="90" cy="5" r="2" /> <circle cx="110" cy="5" r="2" />
        <circle cx="130" cy="5" r="2" /> <circle cx="150" cy="5" r="2" /> <circle cx="170" cy="5" r="2" />
        <circle cx="190" cy="5" r="2" /> <circle cx="210" cy="5" r="2" /> <circle cx="230" cy="5" r="2" />
        <circle cx="250" cy="5" r="2" /> <circle cx="270" cy="5" r="2" /> <circle cx="290" cy="5" r="2" />
        <circle cx="310" cy="5" r="2" /> <circle cx="322" cy="5" r="2" />
    </g>
    
    <g fill="url(#goldGrad)" stroke="#B71C1C" stroke-width="0.5">
        <circle cx="10" cy="227" r="2" /> <circle cx="30" cy="227" r="2" /> <circle cx="50" cy="227" r="2" />
        <circle cx="70" cy="227" r="2" /> <circle cx="90" cy="227" r="2" /> <circle cx="110" cy="227" r="2" />
        <circle cx="130" cy="227" r="2" /> <circle cx="150" cy="227" r="2" /> <circle cx="170" cy="227" r="2" />
        <circle cx="190" cy="227" r="2" /> <circle cx="210" cy="227" r="2" /> <circle cx="230" cy="227" r="2" />
        <circle cx="250" cy="227" r="2" /> <circle cx="270" cy="227" r="2" /> <circle cx="290" cy="227" r="2" />
        <circle cx="310" cy="227" r="2" /> <circle cx="322" cy="227" r="2" />
    </g>
  </g>

  
  
  <path d="M105,145 L407,145" stroke="#FF8A80" stroke-width="1" opacity="0.4" stroke-linecap="round" />
  
  
  <ellipse cx="67" cy="140" rx="15" ry="8" fill="#FFFFFF" opacity="0.1" transform="rotate(-15 67 140)" />
  <ellipse cx="445" cy="140" rx="15" ry="8" fill="#FFFFFF" opacity="0.1" transform="rotate(15 445 140)" />

</svg>