<svg xmlns="http://www.w3.org/2000/svg" viewBox="0 0 512 512" width="512" height="512" shape-rendering="geometricPrecision">
  <defs>
    
    <radialGradient id="pileShade" cx="50%" cy="50%" r="50%" fx="50%" fy="50%">
      <stop offset="0%" stop-color="#7d6a36" stop-opacity="0" />
      <stop offset="70%" stop-color="#4a3e20" stop-opacity="0.4" />
      <stop offset="100%" stop-color="#2b2310" stop-opacity="0.8" />
    </radialGradient>
    
    <linearGradient id="stalkGold" x1="0%" y1="0%" x2="100%" y2="100%">
      <stop offset="0%" stop-color="#f2eab6" />
      <stop offset="50%" stop-color="#d4c063" />
      <stop offset="100%" stop-color="#9c8a41" />
    </linearGradient>

    <linearGradient id="stalkDamp" x1="0%" y1="0%" x2="100%" y2="0%">
      <stop offset="0%" stop-color="#8f8149" />
      <stop offset="100%" stop-color="#524826" />
    </linearGradient>

    <filter id="grimeBlur" x="-20%" y="-20%" width="140%" height="140%">
      <feGaussianBlur in="SourceGraphic" stdDeviation="2" />
    </filter>
    
    <filter id="shadowBlur" x="-50%" y="-50%" width="200%" height="200%">
      <feGaussianBlur in="SourceGraphic" stdDeviation="8" />
    </filter>
  </defs>

  
  <path d="M160,260 Q120,350 256,420 Q390,350 360,260 Q340,160 256,150 Q180,160 160,260 Z" 
        fill="#1a1508" fill-opacity="0.6" filter="url(#shadowBlur)" transform="translate(0, 10) scale(1.1)"/>

  
  <g transform="translate(256, 256)">
    <path d="M-140,-80 C-180,-20 -160,80 -100,120 C-40,150 40,140 110,100 C170,60 160,-40 100,-100 C40,-130 -80,-120 -140,-80 Z" 
          fill="#3b3219" stroke="#262010" stroke-width="2" />
    
    
    <path d="M-80,40 Q-100,80 -60,90 T0,60 Q20,30 -20,10 T-80,40" fill="#262010" opacity="0.7" filter="url(#grimeBlur)"/>
    <path d="M50,-30 Q80,-10 90,30 T60,80 Q30,60 20,20 T50,-30" fill="#262010" opacity="0.6" filter="url(#grimeBlur)"/>
  </g>

  
  <g stroke-linecap="round" stroke-linejoin="round">
    
    <path d="M180,300 L240,340 L230,350" fill="none" stroke="#5e5029" stroke-width="6"/>
    <path d="M160,280 L200,310" fill="none" stroke="#4f4322" stroke-width="5"/>
    <path d="M220,380 L260,330" fill="none" stroke="#6b5b30" stroke-width="7"/>
    
    
    <path d="M340,300 L280,350" fill="none" stroke="#574a26" stroke-width="6"/>
    <path d="M360,270 L300,300" fill="none" stroke="#4a3e1f" stroke-width="5"/>
    
    
    <path d="M200,180 L260,220" fill="none" stroke="#5e5029" stroke-width="6"/>
    <path d="M320,190 L270,230" fill="none" stroke="#574a26" stroke-width="6"/>
  </g>

  
  
  <g>
    
    <path d="M150,280 L220,310 L218,315 L148,285 Z" fill="#8c7a3d" />
    <path d="M170,330 L240,290 L242,294 L172,335 Z" fill="#706130" />
    <path d="M140,250 L200,260 L200,264 L138,255 Z" fill="#9e8b46" />

    
    <path d="M370,280 L290,320 L288,316 L368,276 Z" fill="#8c7a3d" />
    <path d="M350,340 L280,300 L282,296 L352,336 Z" fill="#63562a" />
    <path d="M380,240 L310,260 L310,264 L380,245 Z" fill="#a39048" />

    
    <path d="M220,150 L250,210 L254,208 L225,148 Z" fill="#807038" />
    <path d="M290,140 L270,200 L274,202 L295,142 Z" fill="#917f40" />
    <path d="M180,190 L240,220 L240,224 L178,195 Z" fill="#756633" />
  </g>

  
  <g stroke-linecap="square">
    
    <path d="M230,230 L280,280" stroke="url(#stalkGold)" stroke-width="4" />
    <path d="M280,230 L230,280" stroke="url(#stalkGold)" stroke-width="4" />
    <path d="M256,220 L256,300" stroke="#c4b25c" stroke-width="3" />
    <path d="M210,256 L300,256" stroke="#d9c564" stroke-width="3" />
    
    
    <path d="M240,240 L220,220 L200,225" fill="none" stroke="#e6d673" stroke-width="3" stroke-linejoin="bevel"/>
    <path d="M270,270 L310,290 L330,280" fill="none" stroke="#cfbd61" stroke-width="3" stroke-linejoin="bevel"/>
    
    
    <path d="M190,260 L140,250" stroke="#bfaa56" stroke-width="2.5" />
    <path d="M200,290 L150,310" stroke="#a39048" stroke-width="2.5" />
    <path d="M210,210 L160,190" stroke="#bfaa56" stroke-width="2.5" />

    
    <path d="M320,260 L370,250" stroke="#d4c063" stroke-width="2.5" />
    <path d="M310,290 L360,320" stroke="#b3a152" stroke-width="2.5" />
    <path d="M300,210 L350,190" stroke="#c9b65d" stroke-width="2.5" />
    
    
    <path d="M240,200 L230,140" stroke="#a39048" stroke-width="2.5" />
    <path d="M270,310 L280,370" stroke="#948342" stroke-width="2.5" />
  </g>

  
  
  <g opacity="0.4" style="mix-blend-mode: multiply;">
    <circle cx="230" cy="280" r="30" fill="#3d331a" filter="url(#grimeBlur)" />
    <circle cx="280" cy="240" r="25" fill="#3d331a" filter="url(#grimeBlur)" />
    <path d="M200,300 Q256,350 310,300" stroke="#2b2310" stroke-width="10" fill="none" filter="url(#grimeBlur)" />
  </g>

  
  <g fill="#fffee0" opacity="0.7">
    
    <rect x="235" y="235" width="30" height="1" transform="rotate(45 250 250)" />
    <rect x="250" y="250" width="40" height="1" transform="rotate(-45 270 250)" />
    <rect x="200" y="260" width="20" height="1" transform="rotate(10 210 260)" />
    <rect x="300" y="240" width="20" height="1" transform="rotate(-10 310 240)" />
    
    <circle cx="240" cy="220" r="1" />
    <circle cx="280" cy="290" r="1" />
    <circle cx="190" cy="270" r="1" />
    <circle cx="320" cy="230" r="1" />
  </g>
  
  
  <circle cx="256" cy="256" r="120" fill="url(#pileShade)" style="mix-blend-mode: multiply;" pointer-events="none"/>

</svg>