<svg width="512" height="512" viewBox="0 0 512 512" xmlns="http://www.w3.org/2000/svg">
  

  
  <ellipse cx="280" cy="300" rx="70" ry="30" fill="rgba(0,0,0,0.2)"/>

  
  <path d="M 220 250 L 380 150 L 375 160 L 215 260 Z" fill="rgba(0,0,0,0.15)"/>

  
  <path d="M 280 220 C 350 220 350 300 280 300 C 210 300 210 220 280 220 Z"
        fill="#F0F0F0" stroke="#666666" stroke-width="3"/>
  <path d="M 280 220 C 330 220 330 260 280 260 C 230 260 230 220 280 220 Z"
        fill="#E0E0E0" stroke="#666666" stroke-width="3"/>
  
  
  <ellipse cx="280" cy="240" rx="35" ry="15" fill="#222244" stroke="#444444" stroke-width="2"/>

  
  <path d="M 180 280 L 190 260 L 200 280 C 195 285 185 285 180 280 Z" fill="#F5DEB3" stroke="#666666" stroke-width="2"/>
  <path d="M 190 260 L 205 240 L 215 260 C 210 265 195 265 190 260 Z" fill="#F5DEB3" stroke="#666666" stroke-width="2"/>
  <path d="M 205 240 L 220 220 L 230 240 C 225 245 210 245 205 240 Z" fill="#F5DEB3" stroke="#666666" stroke-width="2"/>
  <path d="M 220 220 L 235 200 L 245 220 C 240 225 225 225 220 220 Z" fill="#F5DEB3" stroke="#666666" stroke-width="2"/>
  <path d="M 235 200 L 250 180 L 260 200 C 255 205 240 205 235 200 Z" fill="#F5DEB3" stroke="#666666" stroke-width="2"/>

  
  <path d="M 250 180 C 300 130 350 100 400 150 C 395 160 345 190 295 240 Z"
        fill="#D2B48C" stroke="#666666" stroke-width="3"/>

  
  <path d="M 390 155 L 405 150 L 398 165 C 395 160 392 158 390 155 Z"
        fill="#222244" stroke="#444444" stroke-width="2"/>
</svg>