<svg xmlns="http://www.w3.org/2000/svg" viewBox="0 0 512 512" width="512" height="512" shape-rendering="geometricPrecision"><defs><linearGradient id="metalGradient" x1="0%" y1="0%" x2="100%" y2="100%"><stop offset="0%" stop-color="#5a5f66" /><stop offset="50%" stop-color="#383c42" /><stop offset="100%" stop-color="#222529" /></linearGradient><linearGradient id="laserCore" x1="0%" y1="0%" x2="100%" y2="0%" gradientTransform="rotate(45)"><stop offset="0%" stop-color="#ffcccc" stop-opacity="0.9" /><stop offset="50%" stop-color="#ffffff" stop-opacity="1" /><stop offset="100%" stop-color="#ffcccc" stop-opacity="0.9" /></linearGradient><radialGradient id="lensGlow" cx="50%" cy="50%" r="50%"><stop offset="0%" stop-color="#ff0000" stop-opacity="1" /><stop offset="70%" stop-color="#880000" stop-opacity="0.6" /><stop offset="100%" stop-color="#000000" stop-opacity="0" /></radialGradient></defs><g opacity="0.6"><ellipse cx="90" cy="90" rx="55" ry="55" fill="#000000" filter="blur(4px)" transform="rotate(45, 90, 90)"/><ellipse cx="422" cy="422" rx="55" ry="55" fill="#000000" filter="blur(4px)" transform="rotate(45, 422, 422)"/></g><g transform="rotate(45, 256, 256)"><rect x="56" y="236" width="400" height="40" fill="#ff0000" opacity="0.05" rx="10" /><rect x="56" y="248" width="400" height="16" fill="#ff0000" opacity="0.15" rx="4" /><rect x="50" y="253" width="412" height="6" fill="#ff3333" opacity="0.6" rx="2" /><line x1="50" y1="256" x2="462" y2="256" stroke="url(#laserCore)" stroke-width="2" stroke-linecap="round" /><circle cx="150" cy="256" r="1.5" fill="#ffffff" opacity="0.8" /><circle cx="280" cy="256" r="1" fill="#ffffff" opacity="0.6" /><circle cx="350" cy="255" r="0.8" fill="#ffffff" opacity="0.7" /></g><g transform="translate(90, 90) rotate(45)"><rect x="-40" y="-40" width="80" height="80" rx="10" fill="#1a1d21" stroke="#0f1113" stroke-width="2" /><rect x="-35" y="-35" width="70" height="70" rx="8" fill="url(#metalGradient)" /><path d="M-35 -10 L-10 -10 L-10 -35" fill="none" stroke="#222529" stroke-width="1.5" /><path d="M35 10 L10 10 L10 35" fill="none" stroke="#222529" stroke-width="1.5" /><path d="M-20 -25 L-15 -28 M20 25 L25 22 M-30 10 L-20 12" stroke="#111" stroke-width="1" opacity="0.4" stroke-linecap="round"/><path d="M-35 -35 L-20 -35 M-35 -35 L-35 -20" stroke="#6a707a" stroke-width="2" opacity="0.6" /><circle cx="0" cy="0" r="25" fill="#2a2e33" stroke="#15171a" stroke-width="2" /><circle cx="0" cy="0" r="18" fill="#111" /></g><g transform="translate(90,90) rotate(-45)"><path d="M-30,-30 L30,-30 L30,30 L-30,30 Z" fill="url(#metalGradient)" stroke="#1a1a1a" stroke-width="1"/><path d="M-30,30 L30,30 L30,34 L-30,34 Z" fill="#1a1a1a"/><path d="M30,-30 L34,-30 L34,34 L30,30 Z" fill="#1a1a1a"/><path d="M-30,-30 L30,-30" stroke="#777" stroke-width="2" opacity="0.5"/><path d="M-30,-30 L-30,30" stroke="#777" stroke-width="2" opacity="0.5"/><circle cx="0" cy="0" r="20" fill="#222" stroke="#444" stroke-width="1"/><circle cx="-22" cy="-22" r="2" fill="#111" stroke="#333" stroke-width="0.5"/><circle cx="22" cy="-22" r="2" fill="#111" stroke="#333" stroke-width="0.5"/><circle cx="-22" cy="22" r="2" fill="#111" stroke="#333" stroke-width="0.5"/><circle cx="22" cy="22" r="2" fill="#111" stroke="#333" stroke-width="0.5"/><path d="M15,-8 L25,-8 L28,-5 L28,5 L25,8 L15,8 Z" fill="#111" stroke="#333" stroke-width="1" transform="translate(8, 0)"/><ellipse cx="28" cy="0" rx="3" ry="6" fill="#ff0000" opacity="0.8" transform="translate(8, 0)"/><circle cx="36" cy="0" r="10" fill="url(#lensGlow)" opacity="0.8"/></g><g transform="translate(422,422) rotate(135)"><path d="M-30,-30 L30,-30 L30,30 L-30,30 Z" fill="url(#metalGradient)" stroke="#1a1a1a" stroke-width="1"/><path d="M-30,30 L30,30 L30,34 L-30,34 Z" fill="#1a1a1a"/><path d="M30,-30 L34,-30 L34,34 L30,30 Z" fill="#1a1a1a"/><path d="M-30,-30 L30,-30" stroke="#777" stroke-width="2" opacity="0.5"/><path d="M-30,-30 L-30,30" stroke="#777" stroke-width="2" opacity="0.5"/><circle cx="0" cy="0" r="20" fill="#222" stroke="#444" stroke-width="1"/><circle cx="-22" cy="-22" r="2" fill="#111" stroke="#333" stroke-width="0.5"/><circle cx="22" cy="-22" r="2" fill="#111" stroke="#333" stroke-width="0.5"/><circle cx="-22" cy="22" r="2" fill="#111" stroke="#333" stroke-width="0.5"/><circle cx="22" cy="22" r="2" fill="#111" stroke="#333" stroke-width="0.5"/><path d="M15,-8 L25,-8 L28,-5 L28,5 L25,8 L15,8 Z" fill="#111" stroke="#333" stroke-width="1" transform="translate(8, 0)"/><ellipse cx="28" cy="0" rx="3" ry="6" fill="#ff0000" opacity="0.8" transform="translate(8, 0)"/><circle cx="36" cy="0" r="10" fill="url(#lensGlow)" opacity="0.8"/><path d="M-10,10 L-5,15 L0,12" fill="none" stroke="#3f2a2a" stroke-width="1.5" opacity="0.6"/></g><line x1="120" y1="120" x2="392" y2="392" stroke="#ffcccc" stroke-width="0.5" stroke-dasharray="20 40" opacity="0.5"><animate attributeName="stroke-dashoffset" from="0" to="-60" dur="2s" repeatCount="indefinite" /></line><circle cx="75" cy="75" r="2" fill="#ff0000" opacity="0.8"><animate attributeName="opacity" values="0.2;1;0.2" dur="3s" repeatCount="indefinite" /></circle><circle cx="437" cy="437" r="2" fill="#ff0000" opacity="0.8"><animate attributeName="opacity" values="0.2;1;0.2" dur="3s" repeatCount="indefinite" begin="1.5s"/></circle></svg>