<svg width="512" height="512" xmlns="http://www.w3.org/2000/svg" viewBox="0 0 512 512">
  

  
  
  <path d="M150 345 C180 365 330 365 360 345 C330 325 180 325 150 345 Z"
        fill="rgba(0,0,0,0.3)"/>

  
  
  <path d="M130 320 
           Q125 290 125 220 
           L135 190 
           Q150 170 370 170 
           L380 190 
           Q385 220 385 290 
           L380 320 
           Q365 340 130 320 Z"
        fill="#707070" stroke="#303030" stroke-width="4"/>

  
  
  <path d="M150 305 
           Q145 280 145 230 
           L155 205 
           Q170 185 350 185 
           L360 205 
           Q365 230 365 280 
           L360 305 
           Q345 325 150 305 Z"
        fill="#B0B0B0" stroke="#505050" stroke-width="4"/>

  
  
  <g stroke="#505050" stroke-width="3" fill="none">
    
    <path d="M256 195 L256 295"/>
    
    <path d="M180 245 L330 245"/>
    
    <path d="M200 205 Q210 200 220 205"/>
    <path d="M290 205 Q300 200 310 205"/>
    <path d="M200 285 Q210 290 220 285"/>
    <path d="M290 285 Q300 290 310 285"/>
  </g>

  
  
  <path d="M260 235 C265 230 270 235 265 240 C260 245 255 240 260 235 Z
           M240 250 C245 245 250 250 245 255 C240 260 235 255 240 250 Z
           M250 215 C252 213 254 214 253 216 C252 218 250 217 250 215 Z
           M280 260 C285 255 290 260 285 265 C280 270 275 265 280 260 Z
           M256 240 C258 238 260 239 259 241 C258 243 256 242 256 240 Z"
        fill="#8B0000" fill-opacity="0.8" stroke="#6B0000" stroke-width="1"/>

</svg>