<svg xmlns="http://www.w3.org/2000/svg" viewBox="0 0 512 512" width="512" height="512"><defs><linearGradient id="metal-body" x1="0%" y1="0%" x2="0%" y2="100%"><stop offset="0%" stop-color="#7a8491" /><stop offset="20%" stop-color="#9ea7b3" /><stop offset="50%" stop-color="#646d78" /><stop offset="90%" stop-color="#3b424a" /><stop offset="100%" stop-color="#2a3036" /></linearGradient><linearGradient id="metal-highlight" x1="0%" y1="0%" x2="100%" y2="100%"><stop offset="0%" stop-color="#dce3eb" stop-opacity="0.8" /><stop offset="100%" stop-color="#7a8491" stop-opacity="0" /></linearGradient><pattern id="hazard-pattern" width="20" height="20" patternUnits="userSpaceOnUse" patternTransform="rotate(45)"><rect width="10" height="40" transform="translate(0,0)" fill="#e6b800" /><rect width="10" height="40" transform="translate(10,0)" fill="#1a1a1a" /></pattern><linearGradient id="copper-heat" x1="0%" y1="0%" x2="100%" y2="0%"><stop offset="0%" stop-color="#8c5a3c" /><stop offset="40%" stop-color="#c98a63" /><stop offset="60%" stop-color="#8c5a3c" /><stop offset="100%" stop-color="#4a2e1e" /></linearGradient><radialGradient id="laser-glow" cx="50%" cy="50%" r="50%"><stop offset="0%" stop-color="#e0ffff" stop-opacity="1" /><stop offset="40%" stop-color="#00ffff" stop-opacity="0.8" /><stop offset="80%" stop-color="#0088ff" stop-opacity="0.4" /><stop offset="100%" stop-color="#0000ff" stop-opacity="0" /></radialGradient><linearGradient id="cable-gradient" x1="0%" y1="0%" x2="0%" y2="100%"><stop offset="0%" stop-color="#222" /><stop offset="40%" stop-color="#555" /><stop offset="100%" stop-color="#111" /></linearGradient></defs><path d="M120,380 Q100,450 180,450 L350,450 Q420,450 400,380 Q380,300 300,300 L180,300 Q140,300 120,380 Z" fill="#000000" fill-opacity="0.35" filter="blur(8px)" /><circle cx="140" cy="380" r="70" fill="#2a3036" stroke="#1a1a1a" stroke-width="2" /><circle cx="140" cy="380" r="60" fill="url(#metal-body)" stroke="#4a5560" stroke-width="1" /><g fill="#555" stroke="#222" stroke-width="1"><circle cx="95" cy="380" r="4" /><circle cx="185" cy="380" r="4" /><circle cx="140" cy="335" r="4" /><circle cx="140" cy="425" r="4" /><circle cx="110" cy="350" r="4" /><circle cx="170" cy="410" r="4" /><circle cx="110" cy="410" r="4" /><circle cx="170" cy="350" r="4" /></g><circle cx="140" cy="380" r="45" fill="#3b424a" stroke="#1a1a1a" stroke-width="2" /><circle cx="140" cy="380" r="35" fill="none" stroke="#222" stroke-width="2" stroke-dasharray="10, 5" /><g transform="translate(140, 380) rotate(-60)"><rect x="-35" y="-160" width="70" height="160" rx="10" fill="url(#metal-body)" stroke="#222" stroke-width="2" /><path d="M35,-150 L35,0 L-35,0 L-35,-150" fill="none" stroke="#000" stroke-width="4" stroke-opacity="0.3" transform="translate(2,2)" /><rect x="-25" y="-140" width="50" height="100" rx="4" fill="url(#hazard-pattern)" stroke="#222" stroke-width="1" /><path d="M-20,-120 L-10,-115 L-18,-100 M10,-80 L20,-75 L15,-60" stroke="#443300" stroke-width="2" opacity="0.6" stroke-linecap="round" /><rect x="-10" y="-155" width="20" height="150" fill="#1a1a1a" /><rect x="-6" y="-155" width="12" height="140" fill="#8899aa" /></g><g transform="translate(220, 241)"><circle r="35" fill="#2a3036" stroke="#111" stroke-width="3" /><circle r="28" fill="url(#metal-body)" /><path d="M-15,0 L15,0 M0,-15 L0,15" stroke="#111" stroke-width="2" /><circle r="10" fill="#444" stroke="#111" stroke-width="1" /><circle r="4" fill="#111" /><path d="M-20,20 Q0,30 20,20" fill="none" stroke="#332211" stroke-width="2" opacity="0.6" /></g><g transform="translate(220, 241) rotate(15)"><path d="M-25,0 L-20,180 L20,180 L25,0 Z" fill="url(#metal-body)" stroke="#111" stroke-width="2" /><path d="M-15,10 L-12,170 L12,170 L15,10 Z" fill="#ffffff" fill-opacity="0.1" /><rect x="-10" y="40" width="20" height="60" rx="2" fill="#3b424a" stroke="#222" stroke-width="1" /><circle cx="-5" cy="50" r="1" fill="#00ff00" fill-opacity="0.7" /><circle cx="5" cy="50" r="1" fill="#333" /><path d="M-25,10 C-35,50 -35,100 -25,160" fill="none" stroke="url(#cable-gradient)" stroke-width="6" /><path d="M-25,10 C-35,50 -35,100 -25,160" fill="none" stroke="#00ccff" stroke-width="1" stroke-opacity="0.3" /><path d="M25,10 C35,50 35,100 25,160" fill="none" stroke="url(#cable-gradient)" stroke-width="4" /><path d="M0,120 L5,130 M-10,100 L-5,105" stroke="#aaa" stroke-width="1" stroke-opacity="0.5" /></g><g transform="translate(268, 415) rotate(15)"><rect x="-25" y="-10" width="50" height="30" rx="5" fill="#333" stroke="#111" stroke-width="2" /><path d="M-20,20 L-15,60 L15,60 L20,20 Z" fill="#4a5560" stroke="#222" stroke-width="2" /><path d="M-15,60 L-10,90 L10,90 L15,60 Z" fill="url(#copper-heat)" stroke="#3e2723" stroke-width="1" /><path d="M-14,65 L14,65" stroke="#5d4037" stroke-width="2" opacity="0.5" /><path d="M-12,75 L12,75" stroke="#8d6e63" stroke-width="2" opacity="0.5" /><rect x="-6" y="90" width="12" height="10" fill="#222" /><path d="M-3,100 L0,108 L3,100 Z" fill="#fff" /><circle cx="0" cy="108" r="12" fill="url(#laser-glow)" /><path d="M0,108 L0,140" stroke="#00ffff" stroke-width="2" stroke-opacity="0.8" stroke-linecap="round" filter="blur(1px)" /></g><path d="M80,380 A60,60 0 0 1 200,380" fill="none" stroke="#fff" stroke-width="2" stroke-opacity="0.3" transform="translate(0,-2)" /><path d="M110,380 L190,240" fill="none" stroke="#fff" stroke-width="2" stroke-opacity="0.4" transform="translate(-2,-2)" /><circle cx="220" cy="241" r="33" fill="none" stroke="#fff" stroke-width="1" stroke-opacity="0.3" stroke-dasharray="20, 40" transform="rotate(-45, 220, 241)" /><g fill="#222" opacity="0.6"><path d="M130,400 L135,402 L132,408 Z" /><path d="M200,300 L202,305 L198,302 Z" /><path d="M240,320 L245,322 L242,325 Z" /></g><path d="M160,380 Q200,380 220,260" fill="none" stroke="#111" stroke-width="4" stroke-linecap="round" /><path d="M160,380 Q200,380 220,260" fill="none" stroke="#333" stroke-width="2" stroke-dasharray="2,2" /></svg>