<svg width="512" height="512" viewBox="0 0 512 512" xmlns="http://www.w3.org/2000/svg">
  <defs>
    
    <radialGradient id="metalBase" cx="50%" cy="50%" r="50%" fx="30%" fy="30%">
      <stop offset="0%" stop-color="#7a8ba0" />
      <stop offset="60%" stop-color="#3b4652" />
      <stop offset="100%" stop-color="#1e242b" />
    </radialGradient>
    
    
    <radialGradient id="deepRust" cx="60%" cy="60%" r="60%">
      <stop offset="0%" stop-color="#5a2a18" />
      <stop offset="100%" stop-color="#2b120a" />
    </radialGradient>

    
    <linearGradient id="surfaceRust" x1="0%" y1="0%" x2="100%" y2="100%">
      <stop offset="20%" stop-color="#a0522d" stop-opacity="0.8"/>
      <stop offset="50%" stop-color="#8b4513" stop-opacity="0.6"/>
      <stop offset="80%" stop-color="#cd853f" stop-opacity="0.9"/>
    </linearGradient>

    
    <linearGradient id="hubGrad" x1="20%" y1="20%" x2="80%" y2="80%">
      <stop offset="0%" stop-color="#8a9bb0" />
      <stop offset="50%" stop-color="#4a5b70" />
      <stop offset="100%" stop-color="#2a3b50" />
    </linearGradient>
  </defs>

  
  <ellipse cx="256" cy="265" rx="200" ry="200" fill="#000000" fill-opacity="0.4" filter="blur(8px)"/>

  
  <g transform="translate(256, 256)">
    <circle cx="0" cy="0" r="140" fill="#2F353B" stroke="#1a1a1a" stroke-width="4"/>
    <circle cx="0" cy="0" r="130" fill="none" stroke="#4a3b3b" stroke-width="2" stroke-dasharray="10, 5" opacity="0.5"/>
    
    
    <g fill="#5e6b7a" stroke="#1a1a1a" stroke-width="1">
      <circle cx="0" cy="-110" r="12" />
      <circle cx="95" cy="-55" r="12" />
      <circle cx="95" cy="55" r="12" />
      <circle cx="0" cy="110" r="12" />
      <circle cx="-95" cy="55" r="12" />
      <circle cx="-95" cy="-55" r="12" />
    </g>
    
    <path d="M-100,-50 Q-120,0 -100,50 Q-50,60 0,100 Q50,60 100,50 Q120,0 100,-50 Q50,-60 0,-100 Q-50,-60 -100,-50 Z" 
          fill="#3e2723" fill-opacity="0.6" style="mix-blend-mode: multiply;"/>
  </g>

  
  <g transform="translate(256, 256)">
    
    
    <g fill="url(#metalBase)" stroke="#15181c" stroke-width="2">
      
      <path d="M-25,-25 L-160,-160 L-130,-190 L-25,-50 Z" />
      
      <path d="M25,-25 L160,-160 L190,-130 L50,-25 Z" />
      
      <path d="M25,25 L160,160 L130,190 L25,50 Z" />
      
      <path d="M-25,25 L-160,160 L-190,130 L-50,25 Z" />
    </g>

    
    <g fill="#8b4513" fill-opacity="0.7" style="mix-blend-mode: overlay;">
       <path d="M-30,-30 L-100,-100 L-80,-110 L-20,-40 Z" />
       <path d="M30,30 L100,100 L80,110 L20,40 Z" />
    </g>

    
    
    <path d="M0,-220 
             C121,-220 220,-121 220,0 
             C220,121 121,220 0,220 
             C-121,220 -220,121 -220,0 
             C-220,-121 -121,-220 0,-220 
             M0,-170 
             C-94,-170 -170,-94 -170,0 
             C-170,94 -94,170 0,170 
             C94,170 170,94 170,0 
             C170,-94 94,-170 0,-170 Z" 
          fill="url(#metalBase)" fill-rule="evenodd" stroke="#0f1214" stroke-width="3"/>
    
    
    <path d="M0,-215 
             C118,-215 215,-118 215,0 
             C215,118 118,215 0,215 
             C-118,215 -215,118 -215,0 
             C-215,-118 -118,-215 0,-215 
             M0,-175 
             C-96,-175 -175,-96 -175,0 
             C-175,96 -96,175 0,175 
             C96,175 175,96 175,0 
             C175,-96 96,-175 0,-175 Z" 
          fill="none" stroke="#aabbc9" stroke-width="2" stroke-opacity="0.2" opacity="0.6"/>

    
    <g fill="url(#surfaceRust)" style="mix-blend-mode: normal;">
      
      <path d="M-150,-100 Q-180,-120 -160,-150 Q-140,-160 -120,-140 Q-110,-110 -150,-100 Z" />
      
      <path d="M140,80 Q170,110 150,140 Q130,150 110,130 Q100,100 140,80 Z" />
      
      <circle cx="-190" cy="20" r="8" fill="#5a2a18"/>
      <circle cx="180" cy="-40" r="12" fill="#5a2a18"/>
      <path d="M0,200 Q20,210 40,200 L35,180 Q15,190 0,180 Z" fill="#6d361e"/>
    </g>
    
    
    <g stroke="#c0cace" stroke-width="1.5" stroke-linecap="round" fill="none" opacity="0.4">
       <path d="M-180,0 L-160,10" />
       <path d="M-175,-20 L-165,-15" />
       <path d="M150,-100 L160,-90" />
       <path d="M50,180 L70,185" />
    </g>

    
    <circle cx="0" cy="0" r="60" fill="url(#hubGrad)" stroke="#1a1a1a" stroke-width="3"/>
    
    
    <circle cx="0" cy="0" r="55" fill="none" stroke="#111" stroke-width="15" stroke-opacity="0.4" filter="blur(2px)"/>

    
    <path d="M-25,-43 L25,-43 L50,0 L25,43 L-25,43 L-50,0 Z" fill="#5a6572" stroke="#222" stroke-width="2"/>
    
    <path d="M-20,-38 L20,-38 L40,0 L20,38 L-20,38 L-40,0 Z" fill="none" stroke="#9aaabf" stroke-width="2" opacity="0.5"/>
    
    <circle cx="0" cy="0" r="15" fill="#333" stroke="#111" />
    <circle cx="0" cy="0" r="10" fill="#222" stroke="#5a2a18" stroke-width="2"/>

    
    <g fill="#2e1a0f" fill-opacity="0.3" style="mix-blend-mode: multiply;">
       
       <path d="M-25,-50 L-130,-190 L-140,-180 L-50,-25 Z" filter="blur(1px)"/>
       <path d="M25,50 L130,190 L140,180 L50,25 Z" filter="blur(1px)"/>
    </g>

    
    <path d="M-160,-160 Q-180,-140 -190,-100" stroke="#fff" stroke-width="3" fill="none" opacity="0.4" stroke-linecap="round"/>
    <path d="M-40,-43 L10,-43" stroke="#fff" stroke-width="2" fill="none" opacity="0.6" stroke-linecap="round"/>
    <circle cx="-100" cy="-100" r="2" fill="#fff" opacity="0.5"/>
    
  </g>
</svg>