<svg xmlns="http://www.w3.org/2000/svg" viewBox="0 0 1024 512" width="1024" height="512">
  <defs>
    
    <linearGradient id="ironBody" x1="0%" y1="0%" x2="0%" y2="100%">
      <stop offset="0%" stop-color="#3e4a50" />
      <stop offset="15%" stop-color="#4a5a63" />
      <stop offset="85%" stop-color="#2c353b" />
      <stop offset="100%" stop-color="#1f262b" />
    </linearGradient>
    
    
    <linearGradient id="interiorGrad" x1="0%" y1="0%" x2="100%" y2="100%">
      <stop offset="0%" stop-color="#121619" />
      <stop offset="100%" stop-color="#252d33" />
    </linearGradient>

    
    <radialGradient id="rustGrad" cx="50%" cy="50%" r="50%">
      <stop offset="0%" stop-color="#a05030" />
      <stop offset="80%" stop-color="#6e331b" />
      <stop offset="100%" stop-color="#4a200f" />
    </radialGradient>

    
    <linearGradient id="mudGrad" x1="0%" y1="0%" x2="100%" y2="50%">
      <stop offset="0%" stop-color="#5c4a38" />
      <stop offset="50%" stop-color="#705e48" />
      <stop offset="100%" stop-color="#4d3d2e" />
    </linearGradient>

    
    <filter id="grit">
      <feTurbulence type="fractalNoise" baseFrequency="0.8" numOctaves="3" result="noise" />
      <feColorMatrix type="matrix" values="1 0 0 0 0  0 1 0 0 0  0 0 1 0 0  0 0 0 0.15 0" in="noise" result="coloredNoise" />
      <feComposite operator="in" in="coloredNoise" in2="SourceGraphic" result="composite" />
      <feBlend mode="multiply" in="composite" in2="SourceGraphic" />
    </filter>
  </defs>

  
  <ellipse cx="512" cy="280" rx="460" ry="180" fill="#000000" fill-opacity="0.4" filter="url(#grit)" />
  <ellipse cx="512" cy="280" rx="400" ry="150" fill="#000000" fill-opacity="0.3" />

  
  <g fill="#221e1b">
    
    <rect x="180" y="80" width="40" height="352" rx="5" fill="#1a1a1a" />
    <rect x="160" y="70" width="80" height="40" rx="10" fill="#3d2e26" /> 
    <rect x="160" y="402" width="80" height="40" rx="10" fill="#3d2e26" /> 
    
    
    <rect x="804" y="80" width="40" height="352" rx="5" fill="#1a1a1a" />
    <rect x="784" y="70" width="80" height="40" rx="10" fill="#3d2e26" /> 
    <rect x="784" y="402" width="80" height="40" rx="10" fill="#3d2e26" /> 
  </g>

  
  <path d="M165 75 L235 85 L200 100 Z" fill="#8f4426" opacity="0.7" />
  <path d="M790 410 L860 415 L820 435 Z" fill="#8f4426" opacity="0.7" />

  
  <g transform="translate(0, -10)"> 
    <rect x="100" y="60" width="824" height="392" rx="20" fill="url(#ironBody)" stroke="#1a2024" stroke-width="2" />

    
    <path d="M280 60 L280 452 M512 60 L512 452 M744 60 L744 452" stroke="#1f262b" stroke-width="12" />
    <path d="M280 60 L280 452 M512 60 L512 452 M744 60 L744 452" stroke="#5a6a75" stroke-width="2" opacity="0.3" transform="translate(2,0)" /> 

    
    <path d="M100 150 Q120 180 100 220 L130 200 Q140 160 100 150 Z" fill="#7a361e" opacity="0.8" />
    <path d="M924 300 Q900 320 924 360 L890 340 Z" fill="#7a361e" opacity="0.8" />
    <path d="M400 452 Q450 430 500 452 Z" fill="#602a15" opacity="0.9" /> 
    <path d="M600 60 Q650 80 700 60 Z" fill="#602a15" opacity="0.9" /> 
    
    
    <path d="M350 120 L380 125 L360 140 Z" fill="#151a1e" opacity="0.5" />
    <path d="M650 380 L680 375 L670 400 Z" fill="#151a1e" opacity="0.5" />

    
    <rect x="130" y="90" width="764" height="332" rx="10" fill="url(#interiorGrad)" stroke="#0e1113" stroke-width="4" />

    
    
    <path d="M140 95 L884 95 L880 120 L144 120 Z" fill="#3a454d" opacity="0.4" />
    
    <path d="M140 417 L884 417 L880 390 L144 390 Z" fill="#000000" opacity="0.6" />

    
    <g opacity="0.9">
      
      <path d="M140 380 Q200 350 250 410 L140 410 Z" fill="url(#mudGrad)" />
      <path d="M884 130 Q820 160 800 100 L884 100 Z" fill="url(#mudGrad)" />
      <path d="M400 250 Q450 200 550 260 Q500 320 400 250" fill="#5c4a38" opacity="0.6" /> 
      
      
      <path d="M160 390 L180 395 M170 385 L175 400" stroke="#3e3226" stroke-width="2" />
      <path d="M850 120 L830 115 M840 125 L835 110" stroke="#3e3226" stroke-width="2" />
    </g>

    
    <path d="M280 90 L275 140 L285 130 L280 90" fill="#8f4426" opacity="0.7" />
    <path d="M512 90 L505 160 L519 150 L512 90" fill="#8f4426" opacity="0.8" />
    <path d="M744 422 L738 360 L750 370 L744 422" fill="#5a2815" opacity="0.8" />

    
    
    <path d="M100 60 H924 A20 20 0 0 1 944 80 V432 A20 20 0 0 1 924 452 H100 A20 20 0 0 1 80 432 V80 A20 20 0 0 1 100 60 Z M130 90 H894 A10 10 0 0 1 904 100 V412 A10 10 0 0 1 894 422 H130 A10 10 0 0 1 120 412 V100 A10 10 0 0 1 130 90 Z" 
          fill-rule="evenodd" fill="#54636e" />
    
    
    <path d="M100 60 H924 A20 20 0 0 1 944 80 L904 100 A10 10 0 0 0 894 90 H130 A10 10 0 0 0 120 100 L80 80 A20 20 0 0 1 100 60 Z" fill="#7f8c96" opacity="0.6" /> 
    <path d="M80 80 V432 A20 20 0 0 0 100 452 L130 422 A10 10 0 0 1 120 412 V100 L80 80 Z" fill="#9eaab3" opacity="0.8" /> 
    <path d="M944 80 V432 A20 20 0 0 1 924 452 L894 422 A10 10 0 0 0 904 412 V100 L944 80 Z" fill="#2c3e50" opacity="0.8" /> 
    <path d="M100 452 H924 A20 20 0 0 0 944 432 L904 412 A10 10 0 0 1 894 422 H130 A10 10 0 0 1 120 412 L80 432 A20 20 0 0 0 100 452 Z" fill="#1a252f" opacity="0.8" /> 

    
    <g fill="#252b30" stroke="#111" stroke-width="1">
       
       <circle cx="100" cy="75" r="4" /> <circle cx="100" cy="437" r="4" />
       <circle cx="924" cy="75" r="4" /> <circle cx="924" cy="437" r="4" />
       <circle cx="280" cy="75" r="4" /> <circle cx="280" cy="437" r="4" />
       <circle cx="512" cy="75" r="4" /> <circle cx="512" cy="437" r="4" />
       <circle cx="744" cy="75" r="4" /> <circle cx="744" cy="437" r="4" />
       
       
       <circle cx="90" cy="256" r="4" />
       <circle cx="934" cy="256" r="4" />
    </g>

    
    <g style="mix-blend-mode: multiply;">
       
       <circle cx="300" cy="100" r="30" fill="url(#rustGrad)" opacity="0.6" />
       <circle cx="700" cy="400" r="40" fill="url(#rustGrad)" opacity="0.5" />
       <path d="M100 200 L120 250 L90 260 Z" fill="#6e331b" opacity="0.7" />
       
       <path d="M400 80 L450 70 M420 85 L440 75" stroke="#3a251e" stroke-width="1" />
       <path d="M600 440 L650 450" stroke="#3a251e" stroke-width="1" />
    </g>

    
    <g stroke="#b0bec5" stroke-width="1" opacity="0.5" fill="none">
       <path d="M110 65 L200 65" />
       <path d="M300 65 L400 65" />
       <path d="M80 100 L80 150" />
       <path d="M944 300 L944 350" />
       <path d="M500 445 L550 445" />
    </g>

  </g>
</svg>