<svg xmlns="http://www.w3.org/2000/svg" viewBox="0 0 2048 512" width="2048" height="512"><defs><filter id="grit" x="-20%" y="-20%" width="140%" height="140%"><feTurbulence type="fractalNoise" baseFrequency="0.8" numOctaves="3" result="noise" /><feColorMatrix type="matrix" values="1 0 0 0 0  0 1 0 0 0  0 0 1 0 0  0 0 0 0.15 0" in="noise" result="coloredNoise" /><feComposite operator="in" in="coloredNoise" in2="SourceGraphic" result="composite" /><feBlend mode="multiply" in="composite" in2="SourceGraphic" /></filter><filter id="softShadow" x="-20%" y="-20%" width="140%" height="140%"><feGaussianBlur stdDeviation="6" result="blur" /></filter><filter id="rust" x="-20%" y="-20%" width="140%" height="140%"><feTurbulence type="turbulence" baseFrequency="0.05" numOctaves="4" result="turbulence"/><feDisplacementMap in2="turbulence" in="SourceGraphic" scale="5" xChannelSelector="R" yChannelSelector="G"/></filter><linearGradient id="railCylinder" x1="0%" y1="0%" x2="0%" y2="100%"><stop offset="0%" stop-color="#664d00" /><stop offset="15%" stop-color="#b38f00" /><stop offset="40%" stop-color="#ffcc00" /><stop offset="60%" stop-color="#e6b800" /><stop offset="100%" stop-color="#4d3a00" /></linearGradient><linearGradient id="metalPlate" x1="0%" y1="0%" x2="100%" y2="100%"><stop offset="0%" stop-color="#2c3e50" /><stop offset="50%" stop-color="#4a5d6e" /><stop offset="100%" stop-color="#1f2a36" /></linearGradient><linearGradient id="boltGrad" x1="0%" y1="0%" x2="0%" y2="100%"><stop offset="0%" stop-color="#aab7c4" /><stop offset="100%" stop-color="#556677" /></linearGradient><pattern id="hazardStripes" x="0" y="0" width="40" height="40" patternUnits="userSpaceOnUse" patternTransform="rotate(45)"><rect x="0" y="0" width="20" height="40" fill="#1a1a1a" fill-opacity="0.85"/></pattern></defs><g opacity="0.5" filter="url(#softShadow)"><rect x="60" y="280" width="1928" height="60" rx="20" fill="#000000" /><circle cx="120" cy="256" r="55" fill="#000000" /><circle cx="572" cy="256" r="55" fill="#000000" /><circle cx="1024" cy="256" r="55" fill="#000000" /><circle cx="1476" cy="256" r="55" fill="#000000" /><circle cx="1928" cy="256" r="55" fill="#000000" /></g><g filter="url(#grit)"><rect x="70" y="206" width="100" height="100" rx="10" fill="url(#metalPlate)" stroke="#1a1a1a" stroke-width="2"/><circle cx="85" cy="221" r="6" fill="url(#boltGrad)" stroke="#111" stroke-width="1"/><circle cx="155" cy="221" r="6" fill="url(#boltGrad)" stroke="#111" stroke-width="1"/><circle cx="85" cy="291" r="6" fill="url(#boltGrad)" stroke="#111" stroke-width="1"/><circle cx="155" cy="291" r="6" fill="url(#boltGrad)" stroke="#111" stroke-width="1"/><rect x="522" y="206" width="100" height="100" rx="10" fill="url(#metalPlate)" stroke="#1a1a1a" stroke-width="2"/><circle cx="537" cy="221" r="6" fill="url(#boltGrad)" stroke="#111" stroke-width="1"/><circle cx="607" cy="221" r="6" fill="url(#boltGrad)" stroke="#111" stroke-width="1"/><circle cx="537" cy="291" r="6" fill="url(#boltGrad)" stroke="#111" stroke-width="1"/><circle cx="607" cy="291" r="6" fill="url(#boltGrad)" stroke="#111" stroke-width="1"/><rect x="974" y="206" width="100" height="100" rx="10" fill="url(#metalPlate)" stroke="#1a1a1a" stroke-width="2"/><circle cx="989" cy="221" r="6" fill="url(#boltGrad)" stroke="#111" stroke-width="1"/><circle cx="1059" cy="221" r="6" fill="url(#boltGrad)" stroke="#111" stroke-width="1"/><circle cx="989" cy="291" r="6" fill="url(#boltGrad)" stroke="#111" stroke-width="1"/><circle cx="1059" cy="291" r="6" fill="url(#boltGrad)" stroke="#111" stroke-width="1"/><rect x="1426" y="206" width="100" height="100" rx="10" fill="url(#metalPlate)" stroke="#1a1a1a" stroke-width="2"/><circle cx="1441" cy="221" r="6" fill="url(#boltGrad)" stroke="#111" stroke-width="1"/><circle cx="1511" cy="221" r="6" fill="url(#boltGrad)" stroke="#111" stroke-width="1"/><circle cx="1441" cy="291" r="6" fill="url(#boltGrad)" stroke="#111" stroke-width="1"/><circle cx="1511" cy="291" r="6" fill="url(#boltGrad)" stroke="#111" stroke-width="1"/><rect x="1878" y="206" width="100" height="100" rx="10" fill="url(#metalPlate)" stroke="#1a1a1a" stroke-width="2"/><circle cx="1893" cy="221" r="6" fill="url(#boltGrad)" stroke="#111" stroke-width="1"/><circle cx="1963" cy="221" r="6" fill="url(#boltGrad)" stroke="#111" stroke-width="1"/><circle cx="1893" cy="291" r="6" fill="url(#boltGrad)" stroke="#111" stroke-width="1"/><circle cx="1963" cy="291" r="6" fill="url(#boltGrad)" stroke="#111" stroke-width="1"/></g><g><rect x="120" y="265" width="1808" height="30" rx="10" fill="#5c490a" stroke="#2b2205" stroke-width="2" filter="url(#grit)"/><rect x="120" y="265" width="1808" height="10" fill="#000" opacity="0.4" rx="5"/></g><g fill="url(#metalPlate)" stroke="#111" stroke-width="2"><circle cx="120" cy="256" r="38" /><circle cx="572" cy="256" r="38" /><circle cx="1024" cy="256" r="38" /><circle cx="1476" cy="256" r="38" /><circle cx="1928" cy="256" r="38" /></g><g filter="url(#grit)"><rect x="80" y="226" width="1888" height="60" rx="30" fill="url(#railCylinder)" stroke="#4d3a00" stroke-width="2" /><g clip-path="url(#railClip)"><rect x="200" y="226" width="250" height="60" fill="url(#hazardStripes)" opacity="0.9" mix-blend-mode="multiply"/><rect x="650" y="226" width="250" height="60" fill="url(#hazardStripes)" opacity="0.9" mix-blend-mode="multiply"/><rect x="1100" y="226" width="250" height="60" fill="url(#hazardStripes)" opacity="0.9" mix-blend-mode="multiply"/><rect x="1550" y="226" width="250" height="60" fill="url(#hazardStripes)" opacity="0.9" mix-blend-mode="multiply"/></g><g fill="url(#railCylinder)" stroke="#4d3a00" stroke-width="2"><rect x="95" y="221" width="50" height="70" rx="5" fill="url(#railCylinder)" filter="brightness(0.9)"/><rect x="547" y="221" width="50" height="70" rx="5" fill="url(#railCylinder)" filter="brightness(0.9)"/><rect x="999" y="221" width="50" height="70" rx="5" fill="url(#railCylinder)" filter="brightness(0.9)"/><rect x="1451" y="221" width="50" height="70" rx="5" fill="url(#railCylinder)" filter="brightness(0.9)"/><rect x="1903" y="221" width="50" height="70" rx="5" fill="url(#railCylinder)" filter="brightness(0.9)"/></g><g fill="#333" opacity="0.8"><circle cx="120" cy="256" r="6" /><circle cx="572" cy="256" r="6" /><circle cx="1024" cy="256" r="6" /><circle cx="1476" cy="256" r="6" /><circle cx="1928" cy="256" r="6" /></g></g><g opacity="0.7"><path d="M 300 230 Q 320 235 310 250 T 290 260 Z" fill="#5a2e0e" filter="url(#rust)" opacity="0.6"/><path d="M 1200 250 Q 1220 260 1210 270 T 1190 265 Z" fill="#5a2e0e" filter="url(#rust)" opacity="0.6"/><path d="M 1700 235 Q 1715 240 1705 255 T 1690 245 Z" fill="#5a2e0e" filter="url(#rust)" opacity="0.6"/><path d="M 400 240 L 430 242 M 410 245 L 425 244" stroke="#ffeb99" stroke-width="1" opacity="0.6" stroke-linecap="round"/><path d="M 1350 260 L 1380 258 M 1360 265 L 1370 263" stroke="#ffeb99" stroke-width="1" opacity="0.6" stroke-linecap="round"/></g><path d="M 90 236 L 1958 236" stroke="#fff" stroke-width="3" opacity="0.3" stroke-linecap="round" filter="url(#softShadow)"/><path d="M 90 238 L 1958 238" stroke="#fff" stroke-width="1" opacity="0.5" stroke-linecap="round"/></svg>