<svg xmlns="http://www.w3.org/2000/svg" viewBox="0 0 1024 512" width="1024" height="512" shape-rendering="geometricPrecision"><defs><linearGradient id="metal-sheen" x1="0%" y1="0%" x2="100%" y2="100%"><stop offset="0%" stop-color="#5a616b" /><stop offset="30%" stop-color="#7e8896" /><stop offset="50%" stop-color="#9aa5b6" /><stop offset="55%" stop-color="#b8c6d6" /><stop offset="70%" stop-color="#7e8896" /><stop offset="100%" stop-color="#4b525e" /></linearGradient><linearGradient id="metal-dark" x1="0%" y1="0%" x2="0%" y2="100%"><stop offset="0%" stop-color="#2a2f35" /><stop offset="100%" stop-color="#1a1d21" /></linearGradient><linearGradient id="surface-gradient" x1="50%" y1="0%" x2="50%" y2="100%"><stop offset="0%" stop-color="#414852" /><stop offset="15%" stop-color="#555e69" /><stop offset="85%" stop-color="#3b424b" /><stop offset="100%" stop-color="#252a30" /></linearGradient><radialGradient id="holo-glow" cx="50%" cy="50%" r="50%"><stop offset="0%" stop-color="#00ffff" stop-opacity="0.4" /><stop offset="70%" stop-color="#0088ff" stop-opacity="0.1" /><stop offset="100%" stop-color="#0088ff" stop-opacity="0" /></radialGradient><linearGradient id="screen-glare" x1="0%" y1="0%" x2="100%" y2="100%"><stop offset="0%" stop-color="#ffffff" stop-opacity="0.1" /><stop offset="40%" stop-color="#ffffff" stop-opacity="0.05" /><stop offset="100%" stop-color="#000000" stop-opacity="0.2" /></linearGradient><pattern id="keyboard-grid" x="0" y="0" width="8" height="8" patternUnits="userSpaceOnUse"><rect x="1" y="1" width="6" height="6" fill="#00ffcc" fill-opacity="0.3" rx="1" /></pattern></defs><path d="M 120,200 Q 512,100 904,200 Q 940,300 904,400 Q 512,480 120,400 Q 84,300 120,200 Z" fill="#000000" fill-opacity="0.4" filter="blur(8px)" /><path d="M 80,200 Q 512,80 944,200 L 944,240 Q 960,350 900,420 Q 512,500 124,420 Q 64,350 80,240 Z" fill="url(#metal-dark)" stroke="#1a1d21" stroke-width="2" /><path d="M 90,200 Q 512,95 934,200 L 934,230 Q 945,330 890,400 Q 512,480 134,400 Q 79,330 90,230 Z" fill="url(#surface-gradient)" stroke="#5e6875" stroke-width="1" /><path d="M 95,205 Q 512,105 929,205" fill="none" stroke="#b8c6d6" stroke-width="2" stroke-opacity="0.6" stroke-linecap="round" /><path d="M 134,400 Q 512,480 890,400" fill="none" stroke="#2a2f35" stroke-width="3" stroke-opacity="0.8" /><path d="M 250,180 L 230,420" fill="none" stroke="#1a1d21" stroke-width="1" stroke-opacity="0.5" /><path d="M 252,180 L 232,420" fill="none" stroke="#6a7585" stroke-width="1" stroke-opacity="0.3" /><path d="M 774,180 L 794,420" fill="none" stroke="#1a1d21" stroke-width="1" stroke-opacity="0.5" /><path d="M 776,180 L 796,420" fill="none" stroke="#6a7585" stroke-width="1" stroke-opacity="0.3" /><path d="M 140,240 L 220,230 L 240,380 L 160,400 Z" fill="#0f1216" stroke="#2a2f35" stroke-width="2" /><rect x="150" y="250" width="80" height="120" transform="rotate(-10 190 310)" fill="url(#keyboard-grid)" /><path d="M 884,240 L 804,230 L 784,380 L 864,400 Z" fill="#0f1216" stroke="#2a2f35" stroke-width="2" /><rect x="794" y="250" width="80" height="120" transform="rotate(10 834 310)" fill="url(#keyboard-grid)" /><path d="M 350,200 Q 512,170 674,200 L 650,300 Q 512,280 374,300 Z" fill="#0a0c10" stroke="#333" stroke-width="1" /><path d="M 350,200 Q 512,170 674,200 L 650,300 Q 512,280 374,300 Z" fill="url(#screen-glare)" pointer-events="none" /><g fill="#1a1d21"><rect x="400" y="140" width="224" height="6" rx="2" /><rect x="400" y="150" width="224" height="6" rx="2" /><rect x="400" y="160" width="224" height="6" rx="2" /></g><circle cx="280" cy="250" r="15" fill="#222" stroke="#444" stroke-width="2" /><circle cx="280" cy="250" r="8" fill="#00ffff" fill-opacity="0.5" /><circle cx="744" cy="250" r="15" fill="#222" stroke="#444" stroke-width="2" /><circle cx="744" cy="250" r="8" fill="#00ffff" fill-opacity="0.5" /><g transform="translate(0, -30)" pointer-events="none"><ellipse cx="512" cy="220" rx="140" ry="70" fill="url(#holo-glow)" /><path d="M 372,220 L 652,220 M 512,150 L 512,290" stroke="#00ffff" stroke-width="1" stroke-opacity="0.4" /><ellipse cx="512" cy="220" rx="100" ry="50" fill="none" stroke="#00ffff" stroke-width="1" stroke-opacity="0.6" stroke-dasharray="4,4" /><ellipse cx="512" cy="220" rx="60" ry="30" fill="none" stroke="#00ffff" stroke-width="1" stroke-opacity="0.8" /><path d="M 280,180 L 340,160 L 340,220 L 280,240 Z" fill="#0088ff" fill-opacity="0.1" stroke="#00ffff" stroke-width="1" stroke-opacity="0.6" /><line x1="290" y1="190" x2="330" y2="175" stroke="#00ffff" stroke-width="1" stroke-opacity="0.4" /><line x1="290" y1="200" x2="330" y2="185" stroke="#00ffff" stroke-width="1" stroke-opacity="0.4" /><line x1="290" y1="210" x2="310" y2="202" stroke="#ffaa00" stroke-width="2" stroke-opacity="0.8" /><path d="M 744,180 L 684,160 L 684,220 L 744,240 Z" fill="#0088ff" fill-opacity="0.1" stroke="#00ffff" stroke-width="1" stroke-opacity="0.6" /><rect x="700" y="175" width="30" height="4" fill="#00ffff" fill-opacity="0.4" /><rect x="700" y="185" width="20" height="4" fill="#00ffff" fill-opacity="0.4" /><rect x="700" y="195" width="25" height="4" fill="#ff0055" fill-opacity="0.6" /></g><g opacity="0.4"><path d="M 450,350 L 480,360" stroke="#000" stroke-width="1" stroke-linecap="round" /><path d="M 460,355 L 470,358" stroke="#fff" stroke-width="0.5" stroke-linecap="round" /><path d="M 850,300 L 870,290" stroke="#000" stroke-width="1" stroke-linecap="round" /><ellipse cx="600" cy="350" rx="15" ry="8" fill="none" stroke="#221100" stroke-width="2" stroke-opacity="0.3" stroke-dasharray="20, 10" /></g><path d="M 374,300 Q 512,280 650,300" stroke="#ffffff" stroke-width="1" stroke-opacity="0.3" fill="none" /><circle cx="900" cy="220" r="2" fill="#ffffff" fill-opacity="0.8" /><circle cx="120" cy="220" r="2" fill="#ffffff" fill-opacity="0.8" /></svg>