<svg xmlns="http://www.w3.org/2000/svg" viewBox="0 0 512 1024" shape-rendering="geometricPrecision" width="512" height="1024"><defs><linearGradient id="bodyGrad" x1="0%" y1="0%" x2="100%" y2="100%"><stop offset="0%" stop-color="#3d3d45" /><stop offset="50%" stop-color="#1a1a1f" /><stop offset="100%" stop-color="#0d0d10" /></linearGradient><linearGradient id="ventGrad" x1="0%" y1="50%" x2="100%" y2="50%"><stop offset="0%" stop-color="#000000" stop-opacity="0.8"/><stop offset="50%" stop-color="#000000" stop-opacity="0.4"/><stop offset="100%" stop-color="#000000" stop-opacity="0.8"/></linearGradient><radialGradient id="fanGrad" cx="50%" cy="50%" r="50%"><stop offset="0%" stop-color="#2a2a30" /><stop offset="80%" stop-color="#050505" /></radialGradient><radialGradient id="glowGreen" cx="50%" cy="50%" r="50%"><stop offset="0%" stop-color="#00ff44" stop-opacity="1"/><stop offset="100%" stop-color="#00ff44" stop-opacity="0"/></radialGradient><radialGradient id="glowBlue" cx="50%" cy="50%" r="50%"><stop offset="0%" stop-color="#00ccff" stop-opacity="1"/><stop offset="100%" stop-color="#00ccff" stop-opacity="0"/></radialGradient><linearGradient id="cableGrad" x1="0%" y1="0%" x2="100%" y2="0%"><stop offset="0%" stop-color="#222" /><stop offset="50%" stop-color="#555" /><stop offset="100%" stop-color="#222" /></linearGradient><filter id="shadowBlur" x="-20%" y="-20%" width="140%" height="140%"><feGaussianBlur in="SourceAlpha" stdDeviation="8" /><feComponentTransfer><feFuncA type="linear" slope="0.6"/></feComponentTransfer></filter></defs><rect x="50" y="50" width="412" height="940" rx="20" fill="#000000" filter="url(#shadowBlur)" transform="translate(10, 15)" /><g transform="translate(256, 60)"><path d="M-40 20 C -60 -20, -30 -40, -50 -60" stroke="#333" stroke-width="12" fill="none" stroke-linecap="round"/><path d="M-30 20 C -50 -20, -20 -40, -40 -60" stroke="#444" stroke-width="10" fill="none" stroke-linecap="round"/><path d="M20 20 C 40 -20, 10 -40, 30 -60" stroke="#1a4d8f" stroke-width="8" fill="none" stroke-linecap="round"/><path d="M30 20 C 50 -20, 20 -40, 40 -60" stroke="#8f1a1a" stroke-width="8" fill="none" stroke-linecap="round"/><path d="M0 20 C 0 -30, 0 -50, 0 -60" stroke="#111" stroke-width="16" fill="none" stroke-linecap="round"/></g><rect x="40" y="40" width="432" height="944" rx="16" fill="url(#bodyGrad)" stroke="#000" stroke-width="2" /><rect x="45" y="45" width="422" height="934" rx="12" fill="none" stroke="#555" stroke-width="1" opacity="0.5" /><g transform="translate(40, 40)"><rect x="20" y="20" width="392" height="120" rx="4" fill="#151515" stroke="#000" stroke-width="2" /><circle cx="35" cy="35" r="4" fill="#333" /><circle cx="397" cy="35" r="4" fill="#333" /><circle cx="35" cy="125" r="4" fill="#333" /><circle cx="397" cy="125" r="4" fill="#333" /><rect x="150" y="60" width="132" height="40" fill="#ccaa00" rx="2" opacity="0.7"/><path d="M170 70 L290 70 M170 80 L290 80 M170 90 L260 90" stroke="#000" stroke-width="2" opacity="0.6"/><rect x="20" y="160" width="392" height="640" rx="4" fill="#080808" stroke="#222" stroke-width="2" /><g opacity="0.6"><circle cx="216" cy="260" r="80" fill="url(#fanGrad)" /><path d="M216 260 L216 180 L230 185 Z" fill="#333" transform="rotate(0, 216, 260)" /><path d="M216 260 L216 180 L230 185 Z" fill="#333" transform="rotate(60, 216, 260)" /><path d="M216 260 L216 180 L230 185 Z" fill="#333" transform="rotate(120, 216, 260)" /><path d="M216 260 L216 180 L230 185 Z" fill="#333" transform="rotate(180, 216, 260)" /><path d="M216 260 L216 180 L230 185 Z" fill="#333" transform="rotate(240, 216, 260)" /><path d="M216 260 L216 180 L230 185 Z" fill="#333" transform="rotate(300, 216, 260)" /><circle cx="216" cy="480" r="80" fill="url(#fanGrad)" /><circle cx="216" cy="480" r="20" fill="#111" /><circle cx="216" cy="700" r="80" fill="url(#fanGrad)" /><circle cx="216" cy="700" r="20" fill="#111" /></g><pattern id="meshPattern" x="0" y="0" width="10" height="10" patternUnits="userSpaceOnUse"><circle cx="5" cy="5" r="2" fill="#222" /></pattern><rect x="20" y="160" width="392" height="640" fill="url(#meshPattern)" opacity="0.5" /><path d="M20 370 L412 370 M20 590 L412 590" stroke="#1a1a1a" stroke-width="8" /><rect x="20" y="820" width="392" height="100" rx="4" fill="#111" stroke="#333" stroke-width="1" /><rect x="150" y="840" width="132" height="60" fill="#050505" stroke="#222" stroke-width="2" /><path d="M160 855 h110 M160 870 h80 M160 885 h40" stroke="#003300" stroke-width="2" opacity="0.5" /><rect x="30" y="830" width="10" height="80" fill="#333" rx="2" /><rect x="392" y="830" width="10" height="80" fill="#333" rx="2" /></g><g transform="translate(80, 880)"><circle cx="0" cy="0" r="6" fill="#00ff44"><animate attributeName="opacity" values="1;0.8;1" dur="3s" repeatCount="indefinite" /></circle><circle cx="0" cy="0" r="12" fill="url(#glowGreen)" opacity="0.6"/><circle cx="25" cy="0" r="5" fill="#00ccff"><animate attributeName="opacity" values="0.2;1;0.2;0.2;1;0.2" dur="0.8s" repeatCount="indefinite" /></circle><circle cx="25" cy="0" r="10" fill="url(#glowBlue)" opacity="0.5"><animate attributeName="opacity" values="0;0.6;0" dur="0.8s" repeatCount="indefinite" /></circle><circle cx="50" cy="0" r="5" fill="#00ff44"><animate attributeName="opacity" values="1;0.3;1;0.3;1" dur="0.2s" repeatCount="indefinite" /></circle><circle cx="75" cy="0" r="5" fill="#550000" /><g transform="translate(300, 0)"><circle cx="0" cy="0" r="4" fill="#00ccff"><animate attributeName="opacity" values="1;0.5;1" dur="2s" repeatCount="indefinite" /></circle><circle cx="20" cy="0" r="4" fill="#00ccff"><animate attributeName="opacity" values="0.5;1;0.5" dur="2s" repeatCount="indefinite" /></circle></g></g><path d="M280 100 L280 60" stroke="#00ccff" stroke-width="2" opacity="0.6"><animate attributeName="stroke-opacity" values="0.6;0.2;0.6" dur="1.5s" repeatCount="indefinite" /></path><g opacity="0.15" stroke="#fff" stroke-width="1" fill="none"><path d="M60 100 L90 105 M85 102 L95 90" /><path d="M400 900 L420 880" /><path d="M100 500 Q 120 520, 110 540" /><path d="M450 300 L430 310" /></g><path d="M50 970 L50 60 Q 50 50, 60 50 L460 50" stroke="#ffffff" stroke-width="2" fill="none" opacity="0.2" /><path d="M472 60 L472 970 Q 472 984, 460 984 L60 984" stroke="#000000" stroke-width="3" fill="none" opacity="0.6" /></svg>