<svg width="512" height="512" viewBox="0 0 512 512" xmlns="http://www.w3.org/2000/svg">
  
  <g transform="translate(0, 50)">
    
    <ellipse cx="256" cy="380" rx="60" ry="20" fill="rgba(0,0,0,0.2)" />

    
    <rect x="180" y="80" width="152" height="40" rx="8" ry="8" fill="#555" stroke="#222" stroke-width="8"/>
    
    <circle cx="195" cy="100" r="4" fill="#333" stroke="#222" stroke-width="2"/>
    <circle cx="317" cy="100" r="4" fill="#333" stroke="#222" stroke-width="2"/>

    
    <path d="M256 120 C 240 160, 270 200, 256 240"
          fill="none" stroke="#555" stroke-width="24" stroke-linecap="round" stroke-linejoin="round"/>
    <path d="M256 120 C 240 160, 270 200, 256 240"
          fill="none" stroke="#222" stroke-width="12" stroke-linecap="round" stroke-linejoin="round"/>
    
    <path d="M248 150 C 245 155, 260 165, 262 160" fill="none" stroke="#B8860B" stroke-width="4"/>
    <circle cx="250" cy="200" r="4" fill="#B8860B"/>

    
    <g transform="translate(256, 260)">
      
      <path d="M-60 0 A 60 60 0 0 1 0 60 A 60 60 0 0 1 60 0 H 40 A 40 40 0 0 0 0 40 A 40 40 0 0 0 -40 0 Z"
            fill="#555" stroke="#222" stroke-width="8"/>
      
      <path d="M-60 0 A 60 60 0 0 0 0 -60 A 60 60 0 0 0 60 0 H 40 A 40 40 0 0 1 0 -40 A 40 40 0 0 1 -40 0 Z"
            fill="#555" stroke="#222" stroke-width="8"/>

      
      <rect x="-10" y="-70" width="20" height="10" fill="#444" stroke="#222" stroke-width="4"/>
      <rect x="-10" y="60" width="20" height="10" fill="#444" stroke="#222" stroke-width="4"/>
      <circle cx="0" cy="0" r="10" fill="#444" stroke="#222" stroke-width="4"/> 

      
      <path d="M-45 10 C -40 5, -30 15, -25 10 S -15 0, -10 5" fill="none" stroke="#B8860B" stroke-width="3"/>
      <path d="M30 -50 C 35 -45, 45 -55, 50 -50 S 60 -40, 55 -45" fill="none" stroke="#B8860B" stroke-width="3"/>
      <path d="M-15 40 C -10 35, 0 45, 5 40 S 15 30, 10 35" fill="none" stroke="#B8860B" stroke-width="3"/>
      <circle cx="20" cy="-20" r="4" fill="#B8860B"/>
      <circle cx="-30" cy="30" r="3" fill="#B8860B"/>
    </g>
  </g>
</svg>