<svg xmlns="http://www.w3.org/2000/svg" viewBox="0 0 1024 512" width="1024" height="512">
  
  <defs>
    
    <linearGradient id="woodGrad" x1="0%" y1="0%" x2="0%" y2="100%">
      <stop offset="0%" stop-color="#5c4033" />
      <stop offset="50%" stop-color="#4a332a" />
      <stop offset="100%" stop-color="#3b2820" />
    </linearGradient>
    
    
    <radialGradient id="slimeGreen" cx="40%" cy="40%" r="60%">
      <stop offset="0%" stop-color="#ccff66" stop-opacity="0.9" />
      <stop offset="70%" stop-color="#66cc00" stop-opacity="0.8" />
      <stop offset="100%" stop-color="#336600" stop-opacity="0.9" />
    </radialGradient>
    <radialGradient id="mysticPurple" cx="40%" cy="40%" r="60%">
      <stop offset="0%" stop-color="#ffccff" stop-opacity="0.9" />
      <stop offset="60%" stop-color="#9933cc" stop-opacity="0.8" />
      <stop offset="100%" stop-color="#4b0082" stop-opacity="0.9" />
    </radialGradient>
    <radialGradient id="formaldehyde" cx="50%" cy="50%" r="50%">
      <stop offset="0%" stop-color="#ffffcc" stop-opacity="0.8" />
      <stop offset="100%" stop-color="#cca300" stop-opacity="0.9" />
    </radialGradient>
    <radialGradient id="bloodRed" cx="30%" cy="30%" r="70%">
      <stop offset="0%" stop-color="#ff6666" stop-opacity="0.9" />
      <stop offset="100%" stop-color="#660000" stop-opacity="0.95" />
    </radialGradient>

    
    <linearGradient id="glassReflect" x1="0%" y1="0%" x2="100%" y2="100%">
      <stop offset="0%" stop-color="#ffffff" stop-opacity="0.6" />
      <stop offset="40%" stop-color="#ffffff" stop-opacity="0.1" />
      <stop offset="100%" stop-color="#ffffff" stop-opacity="0.0" />
    </linearGradient>
  </defs>

  
  <path d="M70,460 Q512,480 954,460 C970,460 980,450 970,100 L950,60 L70,60 L50,100 C40,450 50,460 70,460 Z" fill="#000000" fill-opacity="0.4" filter="blur(4px)" />

  
  <g transform="translate(50, 50)">
    
    <rect x="0" y="0" width="924" height="412" rx="12" fill="url(#woodGrad)" stroke="#2b1d16" stroke-width="4" />
    
    
    
    <line x1="0" y1="137" x2="924" y2="137" stroke="#2b1d16" stroke-width="2" opacity="0.6" />
    <line x1="0" y1="275" x2="924" y2="275" stroke="#2b1d16" stroke-width="2" opacity="0.6" />
    
    
    <path d="M20,20 Q100,50 150,20 T300,30" fill="none" stroke="#332211" stroke-width="2" stroke-linecap="round" opacity="0.5" />
    <path d="M800,380 Q700,350 650,390 T500,370" fill="none" stroke="#332211" stroke-width="2" stroke-linecap="round" opacity="0.5" />
    <path d="M400,100 Q450,150 400,200 Q350,150 400,100" fill="#3b2820" stroke="#2b1d16" stroke-width="1" opacity="0.4" /> 
    <path d="M850,250 L880,260 M860,240 L890,270" stroke="#1a110d" stroke-width="2" stroke-linecap="round" opacity="0.4" /> 
    
    
    <rect x="4" y="4" width="916" height="404" rx="8" fill="none" stroke="#7a5c48" stroke-width="2" opacity="0.5" />
  </g>

  
  
  
  <g transform="translate(160, 150)">
    
    <circle cx="0" cy="0" r="70" fill="url(#slimeGreen)" stroke="#4d7a00" stroke-width="2" />
    
    <path d="M-20,40 C-10,10 -50,-10 0,-40 C30,-10 10,20 40,30" fill="none" stroke="#003300" stroke-width="14" stroke-linecap="round" />
    <path d="M-20,40 C-10,10 -50,-10 0,-40 C30,-10 10,20 40,30" fill="none" stroke="#558822" stroke-width="8" stroke-linecap="round" opacity="0.8" />
    
    <circle cx="-5" cy="10" r="3" fill="#ccff99" opacity="0.7"/>
    <circle cx="15" cy="-10" r="4" fill="#ccff99" opacity="0.7"/>
    
    <circle cx="0" cy="0" r="70" fill="url(#glassReflect)" stroke="#ccffcc" stroke-width="3" stroke-opacity="0.5" />
    <path d="M-50,-30 A 60 60 0 0 1 0 -65" fill="none" stroke="#ffffff" stroke-width="4" stroke-linecap="round" opacity="0.8" />
  </g>

  
  <g transform="translate(350, 300)">
    
    <circle cx="0" cy="0" r="55" fill="url(#mysticPurple)" stroke="#330033" stroke-width="2" />
    
    <g transform="translate(-15, -10)">
      <circle cx="0" cy="0" r="12" fill="#eeeeee" />
      <circle cx="0" cy="0" r="5" fill="#33ccff" />
      <circle cx="0" cy="0" r="2" fill="#000000" />
    </g>
    <g transform="translate(20, 15)">
      <circle cx="0" cy="0" r="14" fill="#eeeeee" />
      <circle cx="0" cy="0" r="6" fill="#ffcc00" />
      <circle cx="0" cy="0" r="2.5" fill="#000000" />
    </g>
    <g transform="translate(10, -25)">
      <circle cx="0" cy="0" r="10" fill="#eeeeee" />
      <circle cx="0" cy="0" r="4" fill="#ff3333" />
      <circle cx="0" cy="0" r="1.5" fill="#000000" />
    </g>
    
    <circle cx="0" cy="0" r="55" fill="url(#glassReflect)" stroke="#eebbff" stroke-width="2" stroke-opacity="0.4" />
    <path d="M-35,-25 A 50 50 0 0 1 10 -50" fill="none" stroke="#ffffff" stroke-width="3" stroke-linecap="round" opacity="0.7" />
  </g>

  
  <g transform="translate(480, 140)">
    <circle cx="0" cy="0" r="60" fill="url(#formaldehyde)" stroke="#665500" stroke-width="2" />
    
    <path d="M-20,-10 C-30,10 -10,30 10,20 C30,15 40,-10 20,-30 C0,-40 -15,-30 -20,-10 Z" fill="#aa4444" opacity="0.8" />
    <path d="M-20,-10 C-30,10 -10,30 10,20" fill="none" stroke="#662222" stroke-width="2" opacity="0.5" />
    
    <circle cx="0" cy="0" r="60" fill="url(#glassReflect)" stroke="#ffffcc" stroke-width="2" stroke-opacity="0.4" />
    <path d="M-40,-20 A 55 55 0 0 1 0 -55" fill="none" stroke="#ffffff" stroke-width="3" stroke-linecap="round" opacity="0.7" />
    
    <circle cx="0" cy="0" r="15" fill="#8B4513" stroke="#3e1e09" stroke-width="1" />
    <circle cx="0" cy="0" r="12" fill="none" stroke="#a0522d" stroke-width="1" stroke-dasharray="2,2" />
  </g>

  
  <g transform="translate(520, 380)">
    <circle cx="0" cy="0" r="25" fill="url(#bloodRed)" stroke="#330000" stroke-width="1" />
    <circle cx="0" cy="0" r="25" fill="url(#glassReflect)" />
    <path d="M-15,-10 A 20 20 0 0 1 5 -22" fill="none" stroke="#ffffff" stroke-width="2" stroke-linecap="round" opacity="0.8" />
    <circle cx="0" cy="0" r="8" fill="#5c4033" /> 
  </g>

  
  <g transform="translate(800, 256)">
    
    <circle cx="0" cy="0" r="90" fill="#00ffff" fill-opacity="0.1" filter="blur(10px)" /> 
    
    <radialGradient id="electricBlue" cx="40%" cy="40%" r="60%">
      <stop offset="0%" stop-color="#ccffff" stop-opacity="0.9" />
      <stop offset="60%" stop-color="#00ccff" stop-opacity="0.8" />
      <stop offset="100%" stop-color="#006699" stop-opacity="0.9" />
    </radialGradient>
    <circle cx="0" cy="0" r="80" fill="url(#electricBlue)" stroke="#004466" stroke-width="3" />
    
    
    <g transform="rotate(15)">
      <path d="M-10,-50 L10,-50 L12,-30 L-12,-30 Z" fill="#eec" opacity="0.8" />
      <path d="M-12,-25 L12,-25 L14,-5 L-14,-5 Z" fill="#eec" opacity="0.8" />
      <path d="M-14,0 L14,0 L12,20 L-12,20 Z" fill="#eec" opacity="0.8" />
      <path d="M-12,25 L12,25 L10,45 L-10,45 Z" fill="#eec" opacity="0.8" />
    </g>
    
    
    <circle cx="-30" cy="20" r="4" fill="#ffffff" opacity="0.6" />
    <circle cx="-20" cy="40" r="2" fill="#ffffff" opacity="0.6" />
    <circle cx="40" cy="-30" r="3" fill="#ffffff" opacity="0.6" />

    
    <circle cx="0" cy="0" r="80" fill="none" stroke="#555555" stroke-width="4" stroke-opacity="0.3" />
    <circle cx="0" cy="0" r="30" fill="#444444" stroke="#222222" stroke-width="2" />
    <circle cx="0" cy="0" r="20" fill="none" stroke="#666666" stroke-width="1" />
    <circle cx="10" cy="-10" r="2" fill="#ffffff" opacity="0.5" /> 
    <circle cx="-10" cy="-10" r="2" fill="#ffffff" opacity="0.5" /> 
    <circle cx="10" cy="10" r="2" fill="#ffffff" opacity="0.5" /> 
    <circle cx="-10" cy="10" r="2" fill="#ffffff" opacity="0.5" /> 

    
    <path d="M-60,-30 A 75 75 0 0 1 0 -75" fill="none" stroke="#ffffff" stroke-width="5" stroke-linecap="round" opacity="0.7" />
  </g>

  
  <g transform="rotate(-10, 250, 400)">
    <rect x="220" y="380" width="60" height="80" fill="#f4e4bc" stroke="#dcbfa6" stroke-width="1" rx="2" />
    <path d="M230,390 L270,390 M230,400 L260,400 M230,410 L270,410 M230,420 L250,420" stroke="#8b7355" stroke-width="2" />
  </g>
  
  
  <g transform="translate(650, 350)">
    <circle cx="0" cy="0" r="30" fill="#222222" stroke="#111" stroke-width="2" /> 
    <circle cx="0" cy="0" r="28" fill="#333333" />
    <circle cx="0" cy="0" r="15" fill="#5c4033" /> 
    <path d="M-10,-15 A 25 25 0 0 1 10 -20" fill="none" stroke="#ffffff" stroke-width="2" opacity="0.3" />
  </g>
  
  <g transform="translate(680, 100)">
     
     <path d="M-20,0 Q-10,10 0,0 Q10,-10 20,0 Q10,20 0,20 Q-20,10 -20,0" fill="#ccff66" opacity="0.4" />
  </g>

  
  <g transform="translate(260, 220) rotate(45)">
     
     <rect x="0" y="0" width="80" height="10" fill="#888888" rx="2" />
     <rect x="50" y="0" width="30" height="10" fill="#cccccc" /> 
     <rect x="0" y="0" width="50" height="10" fill="#5c4033" /> 
     <line x1="10" y1="5" x2="40" y2="5" stroke="#3b2820" stroke-width="1" />
  </g>

  
  <radialGradient id="ao" cx="50%" cy="50%" r="50%">
    <stop offset="80%" stop-color="#000000" stop-opacity="0.0" />
    <stop offset="100%" stop-color="#000000" stop-opacity="0.3" />
  </radialGradient>
  
</svg>