<svg xmlns="http://www.w3.org/2000/svg" viewBox="0 0 512 512" shape-rendering="geometricPrecision" text-rendering="geometricPrecision" image-rendering="optimizeQuality" fill-rule="evenodd" clip-rule="evenodd" width="512" height="512">
  <defs>
    
    <linearGradient id="mirrorBase" x1="0%" y1="0%" x2="100%" y2="100%">
      <stop offset="0%" stop-color="#546e7a"/>
      <stop offset="50%" stop-color="#b0bec5"/>
      <stop offset="100%" stop-color="#eceff1"/>
    </linearGradient>
    <linearGradient id="mirrorReflect" x1="0%" y1="0%" x2="100%" y2="0%">
      <stop offset="0%" stop-color="#eceff1" stop-opacity="0.1"/>
      <stop offset="40%" stop-color="#ffffff" stop-opacity="0.6"/>
      <stop offset="60%" stop-color="#ffffff" stop-opacity="0.8"/>
      <stop offset="100%" stop-color="#eceff1" stop-opacity="0.1"/>
    </linearGradient>
    
    
    <radialGradient id="brassGrad" cx="30%" cy="30%" r="70%">
      <stop offset="0%" stop-color="#fff9c4"/>
      <stop offset="20%" stop-color="#fbc02d"/>
      <stop offset="60%" stop-color="#f57f17"/>
      <stop offset="100%" stop-color="#5d4037"/>
    </radialGradient>
    <radialGradient id="brassGrad2" cx="40%" cy="20%" r="80%">
      <stop offset="0%" stop-color="#fff176"/>
      <stop offset="50%" stop-color="#f9a825"/>
      <stop offset="100%" stop-color="#3e2723"/>
    </radialGradient>

    
    <radialGradient id="stoneGrey" cx="40%" cy="40%" r="80%">
      <stop offset="0%" stop-color="#cfd8dc"/>
      <stop offset="100%" stop-color="#455a64"/>
    </radialGradient>
    <radialGradient id="stoneTan" cx="30%" cy="30%" r="90%">
      <stop offset="0%" stop-color="#d7ccc8"/>
      <stop offset="100%" stop-color="#5d4037"/>
    </radialGradient>
    <radialGradient id="stoneBlue" cx="50%" cy="20%" r="80%">
      <stop offset="0%" stop-color="#90a4ae"/>
      <stop offset="100%" stop-color="#37474f"/>
    </radialGradient>
    
    
    <radialGradient id="groundShadow" cx="50%" cy="50%" r="50%">
      <stop offset="0%" stop-color="#000000" stop-opacity="0.6"/>
      <stop offset="100%" stop-color="#000000" stop-opacity="0"/>
    </radialGradient>
  </defs>

  
  <ellipse cx="256" cy="280" rx="180" ry="140" fill="url(#groundShadow)" opacity="0.8"/>

  
  <g transform="translate(0,0)">
    
    <path d="M140,280 C120,320 180,380 220,350 C250,330 230,280 190,270 C160,265 150,260 140,280 Z" fill="url(#stoneGrey)" stroke="#263238" stroke-width="2"/>
    
    
    <path d="M300,180 C340,160 380,200 360,240 C340,270 290,260 280,220 C275,200 280,190 300,180 Z" fill="url(#stoneTan)" stroke="#3e2723" stroke-width="2"/>
    
    
    <path d="M220,200 L280,160 L320,180 L290,240 Z" fill="#78909c" stroke="#455a64" stroke-width="1"/>
    
    
    <path d="M320,300 C360,290 400,330 380,370 C350,400 300,380 290,340 C285,320 300,305 320,300 Z" fill="url(#stoneBlue)" stroke="#263238" stroke-width="2"/>
  </g>

  
  <g transform="translate(0,0)">
    
    <path d="M160,220 L240,150 L350,220 L280,310 L190,300 Z" fill="url(#mirrorBase)" stroke="#cfd8dc" stroke-width="1"/>
    
    <path d="M180,230 L220,190 L310,240 L270,280 Z" fill="url(#mirrorReflect)" opacity="0.5"/>
    <path d="M220,190 L240,150" stroke="#ffffff" stroke-width="1" stroke-opacity="0.5"/>
    
    
    <circle cx="210" cy="240" r="25" fill="#f9a825" stroke="#3e2723" stroke-width="1"/>
    <circle cx="210" cy="240" r="18" fill="none" stroke="#fbc02d" stroke-width="2"/>
    <circle cx="205" cy="235" r="3" fill="#3e2723"/>
    <circle cx="215" cy="245" r="3" fill="#3e2723"/>

    
    <ellipse cx="260" cy="180" rx="30" ry="20" fill="url(#stoneGrey)" transform="rotate(-20 260 180)" stroke="#263238" stroke-width="1"/>
    
    
    <path d="M230,260 Q260,280 290,250" fill="none" stroke="#000000" stroke-width="8" stroke-opacity="0.4" stroke-linecap="round" filter="blur(2px)"/>
    <path d="M190,300 Q220,320 250,300" fill="none" stroke="#000000" stroke-width="10" stroke-opacity="0.3" stroke-linecap="round" filter="blur(2px)"/>
  </g>

  
  <g transform="translate(0,0)">
    
    
    <path d="M230,300 C210,310 210,350 240,360 C270,370 290,330 270,310 C260,300 240,295 230,300 Z" fill="url(#stoneTan)" stroke="#3e2723" stroke-width="1.5"/>
    <path d="M235,310 Q250,315 260,320" stroke="#ffffff" stroke-width="1" stroke-opacity="0.3" fill="none"/>

    
    <path d="M260,250 L320,200 L340,260 L290,290 Z" fill="url(#mirrorBase)" stroke="#ffffff" stroke-width="0.5"/>
    
    <path d="M260,250 L300,217 L310,265 Z" fill="#ffffff" fill-opacity="0.4"/>
    <path d="M260,250 L320,200" stroke="#ffffff" stroke-width="2" stroke-opacity="0.9"/>
    
    
    <g transform="rotate(15 256 256)">
      <circle cx="256" cy="256" r="35" fill="url(#brassGrad)" stroke="#3e2723" stroke-width="1"/>
      
      <circle cx="256" cy="256" r="28" fill="none" stroke="#5d4037" stroke-width="1" opacity="0.5"/>
      <circle cx="256" cy="256" r="27" fill="none" stroke="#fff59d" stroke-width="1" opacity="0.8"/>
      
      <circle cx="246" cy="246" r="4" fill="#21110e"/>
      <circle cx="266" cy="246" r="4" fill="#21110e"/>
      <circle cx="246" cy="266" r="4" fill="#21110e"/>
      <circle cx="266" cy="266" r="4" fill="#21110e"/>
      
      <ellipse cx="240" cy="235" rx="10" ry="6" fill="#ffffff" opacity="0.7" transform="rotate(-45 240 235)"/>
    </g>

    
    <g transform="translate(310, 290) rotate(-30)">
      <circle cx="0" cy="0" r="20" fill="url(#brassGrad2)" stroke="#3e2723" stroke-width="1"/>
      <circle cx="0" cy="0" r="15" fill="none" stroke="#fbc02d" stroke-width="1"/>
      <circle cx="-6" cy="0" r="2.5" fill="#3e2723"/>
      <circle cx="6" cy="0" r="2.5" fill="#3e2723"/>
      <path d="M-10,-8 Q0,-15 10,-8" stroke="#ffffff" stroke-width="2" stroke-linecap="round" opacity="0.6" fill="none"/>
    </g>

    
    <path d="M200,320 L215,310 L220,325 Z" fill="#e1f5fe" stroke="#ffffff" stroke-width="0.5"/>
    
    
    <circle cx="290" cy="220" r="12" fill="url(#stoneBlue)" stroke="#263238" stroke-width="1"/>

  </g>

  
  <g pointer-events="none">
    
    <path d="M320,200 L325,205 L318,206 Z" fill="#ffffff"/>
    
    
    <path d="M160,300 L170,305 M165,310 L175,308" stroke="#000000" stroke-width="0.5" stroke-opacity="0.3"/>
    <path d="M340,340 L350,350" stroke="#ffffff" stroke-width="0.5" stroke-opacity="0.3"/>
  </g>
</svg>