<svg xmlns="http://www.w3.org/2000/svg" viewBox="0 0 1024 512" width="1024" height="512"><defs><filter id="neon-glow" x="-50%" y="-50%" width="200%" height="200%"><feGaussianBlur in="SourceGraphic" stdDeviation="4" result="blur" /><feColorMatrix in="blur" type="matrix" values="1 0 0 0 0  0 1 0 0 0  0 0 1 0 0  0 0 0 18 -7" result="goo" /><feComposite in="SourceGraphic" in2="goo" operator="over" /></filter><filter id="city-blur"><feGaussianBlur in="SourceGraphic" stdDeviation="2" /></filter><filter id="glass-glare"><feGaussianBlur in="SourceAlpha" stdDeviation="8" /><feOffset dx="0" dy="0" result="offsetblur" /><feFlood flood-color="rgba(255,255,255,0.5)" /><feComposite in2="offsetblur" operator="in" /><feMerge><feMergeNode /><feMergeNode in="SourceGraphic" /></feMerge></filter><linearGradient id="frame-metal" x1="0%" y1="0%" x2="100%" y2="100%"><stop offset="0%" stop-color="#2a2a2a" /><stop offset="20%" stop-color="#444" /><stop offset="50%" stop-color="#2a2a2a" /><stop offset="80%" stop-color="#3d3d3d" /><stop offset="100%" stop-color="#1a1a1a" /></linearGradient><linearGradient id="frame-highlight" x1="0%" y1="0%" x2="0%" y2="100%"><stop offset="0%" stop-color="#555" stop-opacity="1" /><stop offset="10%" stop-color="#333" stop-opacity="1" /><stop offset="90%" stop-color="#222" stop-opacity="1" /><stop offset="100%" stop-color="#000" stop-opacity="1" /></linearGradient><linearGradient id="abyss-gradient" x1="0%" y1="0%" x2="0%" y2="100%"><stop offset="0%" stop-color="#050510" /><stop offset="100%" stop-color="#000005" /></linearGradient><linearGradient id="glass-sheen" x1="0%" y1="0%" x2="100%" y2="100%"><stop offset="0%" stop-color="#00eaff" stop-opacity="0.05" /><stop offset="45%" stop-color="#00eaff" stop-opacity="0.0" /><stop offset="55%" stop-color="#fff" stop-opacity="0.1" /><stop offset="60%" stop-color="#00eaff" stop-opacity="0.0" /><stop offset="100%" stop-color="#00eaff" stop-opacity="0.1" /></linearGradient><pattern id="hex-grid" x="0" y="0" width="40" height="34.64" patternUnits="userSpaceOnUse"><path d="M20 0 L40 10 L40 30 L20 40 L0 30 L0 10 Z" fill="none" stroke="#00eaff" stroke-width="0.5" stroke-opacity="0.1" /></pattern></defs><g transform="translate(12, 12)"><rect x="10" y="10" width="980" height="470" rx="16" fill="#000" fill-opacity="0.6" filter="url(#city-blur)" /><mask id="window-mask"><rect x="40" y="40" width="920" height="410" rx="4" fill="#fff" /></mask><g mask="url(#window-mask)"><rect x="20" y="20" width="960" height="450" fill="url(#abyss-gradient)" /><g filter="url(#city-blur)" opacity="0.7"><path d="M-50 400 Q 300 350 1100 450" stroke="#ff0055" stroke-width="8" fill="none" opacity="0.4" /><path d="M-50 420 Q 300 370 1100 470" stroke="#ff0055" stroke-width="4" fill="none" opacity="0.6" /><path d="M1100 100 Q 500 150 -100 50" stroke="#00ccff" stroke-width="6" fill="none" opacity="0.4" /><path d="M1100 120 Q 500 170 -100 70" stroke="#00ccff" stroke-width="3" fill="none" opacity="0.6" /></g><g fill="#0a0a15" stroke="#111" stroke-width="1"><rect x="100" y="300" width="150" height="200" /><circle cx="175" cy="380" r="40" fill="#151520" stroke="#333" stroke-width="2" stroke-dasharray="10 5" /><text x="175" y="385" text-anchor="middle" fill="#444" font-family="sans-serif" font-size="20" font-weight="bold">H</text><rect x="700" y="50" width="200" height="250" /><rect x="720" y="70" width="40" height="40" fill="#222" /><rect x="720" y="120" width="40" height="40" fill="#222" /><rect x="350" y="-50" width="120" height="180" /><rect x="370" y="10" width="80" height="100" fill="#111" stroke="#ff0055" stroke-width="1" stroke-opacity="0.5" /></g><g fill="#ffea00" opacity="0.8"><rect x="110" y="310" width="4" height="4" /><rect x="120" y="310" width="4" height="4" /><rect x="800" y="280" width="3" height="3" fill="#00ffcc" /><rect x="810" y="280" width="3" height="3" fill="#00ffcc" /></g><rect x="20" y="20" width="960" height="450" fill="#001133" fill-opacity="0.3" filter="url(#city-blur)" /></g><rect x="40" y="40" width="920" height="410" rx="4" fill="#001a22" fill-opacity="0.3" stroke="none" /><rect x="40" y="40" width="920" height="410" rx="4" fill="url(#hex-grid)" opacity="0.4" /><rect x="40" y="40" width="920" height="410" rx="4" fill="url(#glass-sheen)" style="mix-blend-mode: overlay;" /><g transform="translate(40,40)" stroke="#00eaff" fill="none" stroke-width="1.5" opacity="0.8" filter="url(#neon-glow)"><path d="M 20 60 L 20 20 L 60 20" /><path d="M 860 20 L 900 20 L 900 60" /><path d="M 900 350 L 900 390 L 860 390" /><path d="M 60 390 L 20 390 L 20 350" /><circle cx="460" cy="205" r="40" stroke-dasharray="20 10" stroke-opacity="0.5" /><circle cx="460" cy="205" r="2" fill="#00eaff" /><path d="M 420 205 L 400 205 M 500 205 L 520 205 M 460 165 L 460 145 M 460 245 L 460 265" stroke-opacity="0.6" /><g transform="translate(30, 100)" stroke-width="0" fill="#00eaff" fill-opacity="0.6" font-family="monospace" font-size="10"><rect x="0" y="0" width="2" height="60" /><text x="10" y="10">ALT: 402m</text><text x="10" y="25">ATM: 98%</text><text x="10" y="40">TMP: 18C</text></g><g transform="translate(800, 320)"><rect x="0" y="0" width="80" height="20" fill="#ff0055" fill-opacity="0.2" stroke="#ff0055" /><text x="40" y="14" text-anchor="middle" fill="#ff0055" font-family="monospace" font-size="10" stroke="none">SECURE</text></g></g><g><path d="M 20 20 H 980 A 20 20 0 0 1 1000 40 V 450 A 20 20 0 0 1 980 470 H 20 A 20 20 0 0 1 0 450 V 40 A 20 20 0 0 1 20 20 Z                M 40 40 V 450 H 960 V 40 H 40 Z"             fill="url(#frame-metal)" stroke="#111" stroke-width="2" fill-rule="evenodd" /><rect x="40" y="40" width="920" height="410" rx="4" fill="none" stroke="#000" stroke-width="4" stroke-opacity="0.8" /><rect x="38" y="38" width="924" height="414" rx="6" fill="none" stroke="#555" stroke-width="1" stroke-opacity="0.5" /><path d="M 20 20 H 980 A 20 20 0 0 1 1000 40 V 50 H 0 V 40 A 20 20 0 0 1 20 20 Z" fill="url(#frame-highlight)" opacity="0.3" /><g fill="#1a1a1a" stroke="#333" stroke-width="1"><circle cx="20" cy="20" r="6" /><circle cx="20" cy="470" r="6" /><circle cx="980" cy="20" r="6" /><circle cx="980" cy="470" r="6" /><circle cx="500" cy="20" r="6" /><circle cx="500" cy="470" r="6" /></g><g fill="#555" stroke="none"><circle cx="20" cy="20" r="2" /><circle cx="20" cy="470" r="2" /><circle cx="980" cy="20" r="2" /><circle cx="980" cy="470" r="2" /><circle cx="500" cy="20" r="2" /><circle cx="500" cy="470" r="2" /></g></g><g opacity="0.2" stroke="#fff" stroke-width="0.5" stroke-linecap="round"><path d="M 200 100 L 220 105" /><path d="M 600 300 L 630 290" /><path d="M 850 150 L 860 152 M 865 148 L 855 155" /></g></g></svg>