<svg xmlns="http://www.w3.org/2000/svg" viewBox="0 0 512 512" width="512" height="512">
  <defs>
    <filter id="shadowBlur" x="-50%" y="-50%" width="200%" height="200%">
      <feGaussianBlur in="SourceAlpha" stdDeviation="4" result="blur"/>
      <feColorMatrix in="blur" type="matrix" values="0 0 0 0 0  0 0 0 0 0  0 0 0 0 0  0 0 0 0.5 0"/>
    </filter>
    
    <filter id="liquidGlow" x="-20%" y="-20%" width="140%" height="140%">
      <feGaussianBlur in="SourceGraphic" stdDeviation="1.5"/>
    </filter>

    <radialGradient id="liquidGrad" cx="50%" cy="50%" r="50%" fx="40%" fy="40%">
      <stop offset="0%" stop-color="#9e5a18" stop-opacity="0.95"/>
      <stop offset="40%" stop-color="#6e3b0b" stop-opacity="0.9"/>
      <stop offset="80%" stop-color="#3d2005" stop-opacity="0.85"/>
      <stop offset="100%" stop-color="#2a1502" stop-opacity="0.6"/>
    </radialGradient>

    <radialGradient id="bubbleGrad" cx="40%" cy="40%" r="50%">
      <stop offset="0%" stop-color="#fff8dc" stop-opacity="0.8"/>
      <stop offset="100%" stop-color="#d4af37" stop-opacity="0.2"/>
    </radialGradient>
  </defs>

  
  <path d="M256,120 C320,110 380,140 400,190 C420,240 440,280 410,340 C380,400 300,430 240,420 C180,410 120,440 80,380 C40,320 60,250 100,200 C140,150 192,130 256,120 Z" 
        fill="black" filter="url(#shadowBlur)" opacity="0.4" transform="translate(5, 5)"/>
  
  
  <circle cx="430" cy="300" r="12" fill="black" filter="url(#shadowBlur)" opacity="0.3" transform="translate(2, 2)"/>
  <circle cx="80" cy="280" r="8" fill="black" filter="url(#shadowBlur)" opacity="0.3" transform="translate(2, 2)"/>
  <ellipse cx="140" cy="420" rx="15" ry="10" fill="black" filter="url(#shadowBlur)" opacity="0.3" transform="translate(2, 2)"/>

  
  <path d="M256,120 C320,110 380,140 400,190 C420,240 440,280 410,340 C380,400 300,430 240,420 C180,410 120,440 80,380 C40,320 60,250 100,200 C140,150 192,130 256,120 Z" 
        fill="url(#liquidGrad)" stroke="#5c3a12" stroke-width="1" shape-rendering="geometricPrecision"/>

  
  <circle cx="430" cy="300" r="12" fill="#6e3b0b" fill-opacity="0.85" stroke="#4a2605" stroke-width="0.5"/>
  <circle cx="80" cy="280" r="8" fill="#6e3b0b" fill-opacity="0.8" stroke="#4a2605" stroke-width="0.5"/>
  <ellipse cx="140" cy="420" rx="15" ry="10" fill="#6e3b0b" fill-opacity="0.85" stroke="#4a2605" stroke-width="0.5"/>

  
  <path d="M240,160 C280,150 340,180 350,220 C360,260 330,320 280,340 C230,360 180,350 150,300 C120,250 160,200 240,160 Z" 
        fill="#3d2005" filter="url(#liquidGlow)" opacity="0.6"/>

  
  <path d="M200,200 Q250,250 300,220 T350,280" 
        fill="none" stroke="#b87333" stroke-width="8" stroke-opacity="0.15" stroke-linecap="round" filter="url(#liquidGlow)"/>
  <path d="M150,320 Q200,350 240,320" 
        fill="none" stroke="#b87333" stroke-width="6" stroke-opacity="0.1" stroke-linecap="round" filter="url(#liquidGlow)"/>

  
  <g fill="url(#bubbleGrad)" stroke="#8b5a2b" stroke-width="0.5">
    <circle cx="360" cy="200" r="6" opacity="0.7"/>
    <circle cx="370" cy="205" r="4" opacity="0.7"/>
    <circle cx="355" cy="210" r="3" opacity="0.7"/>
    
    <circle cx="120" cy="350" r="5" opacity="0.6"/>
    <circle cx="128" cy="345" r="3" opacity="0.6"/>
    
    <circle cx="250" cy="150" r="4" opacity="0.5"/>
  </g>

  
  
  <path d="M140,180 Q180,140 240,135" 
        fill="none" stroke="white" stroke-width="3" stroke-linecap="round" opacity="0.8"/>
  <path d="M145,185 Q180,150 230,145" 
        fill="none" stroke="white" stroke-width="1" stroke-linecap="round" opacity="0.4"/>
        
  
  <path d="M350,380 Q300,410 240,405" 
        fill="none" stroke="#e6ac00" stroke-width="2" stroke-linecap="round" opacity="0.5"/>

  
  <ellipse cx="180" cy="170" rx="6" ry="3" fill="white" opacity="0.9" transform="rotate(-30 180 170)"/>
  <ellipse cx="380" cy="220" rx="4" ry="2" fill="white" opacity="0.7" transform="rotate(10 380 220)"/>
  <circle cx="260" cy="380" r="2" fill="white" opacity="0.6"/>

  
  <path d="M426,296 Q430,292 434,296" fill="none" stroke="white" stroke-width="1.5" stroke-linecap="round" opacity="0.9"/>
  <circle cx="428" cy="296" r="1" fill="white" opacity="0.9"/>
  
  <path d="M77,277 Q80,274 83,277" fill="none" stroke="white" stroke-width="1" stroke-linecap="round" opacity="0.8"/>
  
  <path d="M135,416 Q140,412 145,416" fill="none" stroke="white" stroke-width="1" stroke-linecap="round" opacity="0.8"/>

  
  <path d="M280,280 C290,290 280,300 270,290 S260,270 280,280" fill="#5c3a12" opacity="0.2"/>
  <path d="M200,240 C210,250 200,260 190,250 S180,230 200,240" fill="#5c3a12" opacity="0.2"/>

</svg>