<svg viewBox="0 0 512 512" xmlns="http://www.w3.org/2000/svg" shape-rendering="geometricPrecision" width="512" height="512"><defs><linearGradient id="metalGrad" x1="0%" y1="0%" x2="0%" y2="100%"><stop offset="0%" stop-color="#5a6169"/><stop offset="50%" stop-color="#3d434a"/><stop offset="100%" stop-color="#2a2e33"/></linearGradient><linearGradient id="insetGrad" x1="0%" y1="0%" x2="0%" y2="100%"><stop offset="0%" stop-color="#15171a"/><stop offset="100%" stop-color="#25292e"/></linearGradient><radialGradient id="redGlow" cx="50%" cy="50%" r="50%"><stop offset="0%" stop-color="#ffcccc" stop-opacity="1"/><stop offset="30%" stop-color="#ff0000" stop-opacity="0.9"/><stop offset="100%" stop-color="#550000" stop-opacity="0"/></radialGradient><radialGradient id="greenGlow" cx="50%" cy="50%" r="50%"><stop offset="0%" stop-color="#ccffcc" stop-opacity="1"/><stop offset="30%" stop-color="#00ff00" stop-opacity="0.9"/><stop offset="100%" stop-color="#004400" stop-opacity="0"/></radialGradient><radialGradient id="blueGlow" cx="50%" cy="50%" r="50%"><stop offset="0%" stop-color="#ccffff" stop-opacity="1"/><stop offset="30%" stop-color="#00ccff" stop-opacity="0.9"/><stop offset="100%" stop-color="#003355" stop-opacity="0"/></radialGradient><radialGradient id="amberDim" cx="50%" cy="50%" r="50%"><stop offset="0%" stop-color="#664400" stop-opacity="1"/><stop offset="60%" stop-color="#332200" stop-opacity="0.8"/><stop offset="100%" stop-color="#1a1100" stop-opacity="0.5"/></radialGradient><radialGradient id="screwGrad" cx="30%" cy="30%" r="70%"><stop offset="0%" stop-color="#a0a0a0"/><stop offset="100%" stop-color="#1a1a1a"/></radialGradient></defs><ellipse cx="256" cy="350" rx="210" ry="80" fill="#000000" fill-opacity="0.4" filter="blur(4px)"/><g transform="translate(0, -20)"><rect x="56" y="176" width="400" height="160" rx="16" fill="url(#metalGrad)" stroke="#1a1c20" stroke-width="4"/><path d="M72 178 L440 178 A14 14 0 0 1 454 192 L454 320" fill="none" stroke="#8a9199" stroke-width="2" opacity="0.6"/><path d="M58 200 L58 320 A14 14 0 0 0 72 334 L440 334" fill="none" stroke="#15171a" stroke-width="3" opacity="0.8"/><path d="M100 200 L140 195 M350 320 L380 325 M200 185 L220 190" stroke="#000000" stroke-width="1" opacity="0.3"/><path d="M90 310 L110 300 M400 190 L410 200" stroke="#ffffff" stroke-width="0.5" opacity="0.2"/><rect x="80" y="210" width="352" height="92" rx="8" fill="url(#insetGrad)" stroke="#0d0e10" stroke-width="3"/><path d="M82 212 L430 212 L430 298" fill="none" stroke="#000000" stroke-width="4" opacity="0.6"/><path d="M100 256 L150 256 L160 240 M200 256 L250 256 M350 256 L410 256" fill="none" stroke="#333840" stroke-width="2"/><circle cx="150" cy="256" r="3" fill="#333840"/><circle cx="360" cy="256" r="3" fill="#333840"/><g transform="translate(120, 256)"><circle cx="0" cy="0" r="24" fill="#111" stroke="#333" stroke-width="2"/><circle cx="0" cy="0" r="32" fill="url(#redGlow)" opacity="0.4"/><circle cx="0" cy="0" r="16" fill="url(#redGlow)"/><circle cx="0" cy="0" r="8" fill="#fff" opacity="0.6"/><ellipse cx="-6" cy="-6" rx="4" ry="3" fill="#fff" opacity="0.8" transform="rotate(-45)"/><rect x="-15" y="30" width="30" height="4" fill="#555" rx="1"/></g><g transform="translate(190, 256)"><circle cx="0" cy="0" r="24" fill="#111" stroke="#333" stroke-width="2"/><circle cx="0" cy="0" r="32" fill="url(#greenGlow)" opacity="0.4"/><circle cx="0" cy="0" r="16" fill="url(#greenGlow)"/><circle cx="0" cy="0" r="8" fill="#fff" opacity="0.6"/><ellipse cx="-6" cy="-6" rx="4" ry="3" fill="#fff" opacity="0.8" transform="rotate(-45)"/><rect x="-15" y="30" width="30" height="4" fill="#555" rx="1"/></g><g transform="translate(260, 256)"><circle cx="0" cy="0" r="24" fill="#111" stroke="#333" stroke-width="2"/><circle cx="0" cy="0" r="16" fill="url(#amberDim)"/><ellipse cx="-6" cy="-6" rx="4" ry="3" fill="#fff" opacity="0.3" transform="rotate(-45)"/><rect x="-15" y="30" width="30" height="4" fill="#555" rx="1"/></g><g transform="translate(330, 256)"><circle cx="0" cy="0" r="24" fill="#111" stroke="#333" stroke-width="2"/><circle cx="0" cy="0" r="32" fill="url(#blueGlow)" opacity="0.5"/><circle cx="0" cy="0" r="16" fill="url(#blueGlow)"/><circle cx="0" cy="0" r="8" fill="#fff" opacity="0.7"/><ellipse cx="-6" cy="-6" rx="4" ry="3" fill="#fff" opacity="0.9" transform="rotate(-45)"/><rect x="-15" y="30" width="30" height="4" fill="#555" rx="1"/></g><g transform="translate(390, 256)"><circle cx="0" cy="0" r="10" fill="#111" stroke="#333" stroke-width="1"/><circle cx="0" cy="0" r="6" fill="#00ffcc" opacity="0.9"/><rect x="-6" y="16" width="12" height="3" fill="#555" rx="1"/></g><g><circle cx="70" cy="190" r="6" fill="url(#screwGrad)" stroke="#1a1a1a" stroke-width="1"/><path d="M67 190 L73 190 M70 187 L70 193" stroke="#111" stroke-width="1.5" transform="rotate(45 70 190)"/><circle cx="442" cy="190" r="6" fill="url(#screwGrad)" stroke="#1a1a1a" stroke-width="1"/><path d="M439 190 L445 190 M442 187 L442 193" stroke="#111" stroke-width="1.5" transform="rotate(20 442 190)"/><circle cx="70" cy="322" r="6" fill="url(#screwGrad)" stroke="#1a1a1a" stroke-width="1"/><path d="M67 322 L73 322 M70 319 L70 325" stroke="#111" stroke-width="1.5" transform="rotate(70 70 322)"/><circle cx="442" cy="322" r="6" fill="url(#screwGrad)" stroke="#1a1a1a" stroke-width="1"/><path d="M439 322 L445 322 M442 319 L442 325" stroke="#111" stroke-width="1.5" transform="rotate(10 442 322)"/></g><path d="M56 300 Q100 310 150 336 L56 336 Z" fill="#000000" opacity="0.2"/><path d="M456 176 Q400 186 350 176 Z" fill="#000000" opacity="0.2"/><line x1="180" y1="176" x2="180" y2="210" stroke="#000000" stroke-width="1" opacity="0.4"/><line x1="330" y1="302" x2="330" y2="336" stroke="#000000" stroke-width="1" opacity="0.4"/></g></svg>