<svg width="512" height="512" xmlns="http://www.w3.org/2000/svg" viewBox="0 0 512 512">
    
    

    
    <path d="M220 370 C180 370 170 340 170 330 C170 320 200 290 220 290 C240 290 270 320 270 330 C270 340 260 370 220 370 Z" fill="rgba(0,0,0,0.2)"/>

    
    <path d="M160 320 L160 300 C160 290 170 280 180 280 L300 280 C310 280 320 290 320 300 L320 320 C320 330 310 340 300 340 L180 340 C170 340 160 330 160 320 Z" 
          fill="#888888" stroke="#333333" stroke-width="8"/>
    
    
    <path d="M190 280 L190 190 C190 180 200 170 210 170 L270 170 C280 170 290 180 290 190 L290 280 L190 280 Z" 
          fill="#999999" stroke="#333333" stroke-width="8"/>
    
    
    <path d="M170 190 L170 170 C170 160 180 150 190 150 L290 150 C300 150 310 160 310 170 L310 190 C310 200 300 210 290 210 L190 210 C180 210 170 200 170 190 Z" 
          fill="#AAAAAA" stroke="#333333" stroke-width="8"/>

    
    <path d="M190 170 L290 170 C280 160 200 160 190 170 Z" fill="#BBBBBB" stroke="#333333" stroke-width="4"/>

</svg>