<svg xmlns="http://www.w3.org/2000/svg" viewBox="0 0 1024 1024" width="1024" height="1024"><defs><filter id="glow" x="-50%" y="-50%" width="200%" height="200%"><feGaussianBlur stdDeviation="8" result="coloredBlur"/><feMerge><feMergeNode in="coloredBlur"/><feMergeNode in="SourceGraphic"/></feMerge></filter><filter id="softShadow" x="-50%" y="-50%" width="200%" height="200%"><feGaussianBlur stdDeviation="15"/></filter><linearGradient id="metalDark" x1="0%" y1="0%" x2="100%" y2="100%"><stop offset="0%" stop-color="#263238"/><stop offset="50%" stop-color="#37474F"/><stop offset="100%" stop-color="#102027"/></linearGradient><linearGradient id="metalLight" x1="0%" y1="0%" x2="0%" y2="100%"><stop offset="0%" stop-color="#CFD8DC"/><stop offset="50%" stop-color="#90A4AE"/><stop offset="100%" stop-color="#546E7A"/></linearGradient><radialGradient id="opticGlow" cx="50%" cy="50%" r="50%"><stop offset="0%" stop-color="#00FFFF" stop-opacity="1"/><stop offset="60%" stop-color="#00B0FF" stop-opacity="0.8"/><stop offset="100%" stop-color="#311B92" stop-opacity="0"/></radialGradient><radialGradient id="opticCore" cx="50%" cy="50%" r="50%"><stop offset="0%" stop-color="#E0F7FA"/><stop offset="100%" stop-color="#00E5FF"/></radialGradient><pattern id="circuitPattern" x="0" y="0" width="20" height="20" patternUnits="userSpaceOnUse"><path d="M0 10 H20 M10 0 V20" stroke="#455A64" stroke-width="1" fill="none"/><circle cx="10" cy="10" r="2" fill="#263238"/></pattern></defs><ellipse cx="512" cy="540" rx="200" ry="180" fill="#000000" fill-opacity="0.4" filter="url(#softShadow)"/><g transform="translate(512, 512)"><path d="M-60 -40 C-100 -80 -140 -60 -180 -80 L-160 -40 C-120 -20 -80 -20 -60 0 Z" fill="url(#metalDark)" stroke="#102027" stroke-width="2"/><path d="M60 -40 C100 -80 140 -60 180 -80 L160 -40 C120 -20 80 -20 60 0 Z" fill="url(#metalDark)" stroke="#102027" stroke-width="2" transform="rotate(72)"/><path d="M60 40 C100 80 140 60 180 80 L160 40 C120 20 80 20 60 0 Z" fill="url(#metalDark)" stroke="#102027" stroke-width="2" transform="rotate(144)"/><path d="M-60 40 C-100 80 -140 60 -180 80 L-160 40 C-120 20 -80 20 -60 0 Z" fill="url(#metalDark)" stroke="#102027" stroke-width="2" transform="rotate(216)"/><path d="M0 -70 C-20 -120 20 -120 0 -180 L0 -140 C-10 -100 10 -100 0 0 Z" fill="url(#metalDark)" stroke="#102027" stroke-width="2" transform="rotate(288)"/></g><g stroke-linecap="round" stroke-linejoin="round"><path d="M512 512 Q300 300 200 350" stroke="#37474F" stroke-width="24" fill="none"/><path d="M512 512 Q700 300 800 350" stroke="#37474F" stroke-width="24" fill="none"/><path d="M512 512 Q300 700 250 800" stroke="#37474F" stroke-width="24" fill="none"/><path d="M512 512 Q700 700 750 800" stroke="#37474F" stroke-width="24" fill="none"/><path d="M512 512 Q300 300 200 350" stroke="#546E7A" stroke-width="12" stroke-dasharray="10 20" fill="none"/><path d="M512 512 Q700 300 800 350" stroke="#546E7A" stroke-width="12" stroke-dasharray="10 20" fill="none"/><path d="M512 512 Q300 700 250 800" stroke="#546E7A" stroke-width="12" stroke-dasharray="10 20" fill="none"/><path d="M512 512 Q700 700 750 800" stroke="#546E7A" stroke-width="12" stroke-dasharray="10 20" fill="none"/></g><g filter="url(#glow)"><circle cx="200" cy="350" r="60" fill="url(#opticGlow)" opacity="0.4"/><path d="M200 350 l-30 40 M200 350 l30 40 M200 350 l0 50 M180 340 l-20 30" stroke="#00B0FF" stroke-width="1" opacity="0.5"/><circle cx="800" cy="350" r="60" fill="url(#opticGlow)" opacity="0.4"/><path d="M800 350 l-30 40 M800 350 l30 40 M800 350 l0 50" stroke="#00B0FF" stroke-width="1" opacity="0.5"/><circle cx="250" cy="800" r="70" fill="url(#opticGlow)" opacity="0.4"/><circle cx="750" cy="800" r="70" fill="url(#opticGlow)" opacity="0.4"/></g><g><circle cx="512" cy="512" r="80" fill="#455A64" stroke="#263238" stroke-width="4"/><path d="M512 512 L350 512 L300 450" stroke="url(#metalLight)" stroke-width="16" fill="none" stroke-linecap="round"/><path d="M512 512 L674 512 L724 450" stroke="url(#metalLight)" stroke-width="16" fill="none" stroke-linecap="round"/><path d="M512 512 L512 350 L560 300" stroke="url(#metalLight)" stroke-width="16" fill="none" stroke-linecap="round"/><path d="M512 512 L400 650 L350 700" stroke="url(#metalLight)" stroke-width="16" fill="none" stroke-linecap="round"/><path d="M512 512 L624 650 L674 700" stroke="url(#metalLight)" stroke-width="16" fill="none" stroke-linecap="round"/><path d="M480 512 L350 512 M544 512 L674 512 M512 480 L512 350 M490 530 L400 650 M534 530 L624 650"           stroke="#00E5FF" stroke-width="2" stroke-opacity="0.6" fill="none"/><circle cx="350" cy="512" r="5" fill="#263238"/><circle cx="674" cy="512" r="5" fill="#263238"/><circle cx="512" cy="350" r="5" fill="#263238"/><circle cx="400" cy="650" r="5" fill="#263238"/><circle cx="624" cy="650" r="5" fill="#263238"/></g><g filter="url(#glow)"><g id="fiberBundle"><circle cx="0" cy="0" r="40" fill="url(#opticGlow)" opacity="0.6"/><path d="M0 0 Q-20 20 -25 35 M0 0 Q20 20 25 35 M0 0 Q0 30 0 40 M0 0 Q-10 25 -15 40 M0 0 Q10 25 15 40"               stroke="#00E5FF" stroke-width="1.5" fill="none" stroke-opacity="0.8"/><circle cx="-25" cy="35" r="2.5" fill="#FFFFFF"/><circle cx="25" cy="35" r="2.5" fill="#FFFFFF"/><circle cx="0" cy="40" r="2.5" fill="#FFFFFF"/><circle cx="-15" cy="40" r="2.5" fill="#FFFFFF"/><circle cx="15" cy="40" r="2.5" fill="#FFFFFF"/></g><g transform="translate(560, 300) rotate(0)"><use href="#fiberBundle"/></g><g transform="translate(520, 280) rotate(-10) scale(0.8)"><use href="#fiberBundle"/></g><g transform="translate(300, 450) rotate(90)"><use href="#fiberBundle"/></g><g transform="translate(260, 480) rotate(70) scale(0.9)"><use href="#fiberBundle"/></g><g transform="translate(724, 450) rotate(-90)"><use href="#fiberBundle"/></g><g transform="translate(780, 480) rotate(-110) scale(0.9)"><use href="#fiberBundle"/></g><g transform="translate(350, 700) rotate(140)"><use href="#fiberBundle"/></g><g transform="translate(300, 730) rotate(160) scale(0.8)"><use href="#fiberBundle"/></g><g transform="translate(674, 700) rotate(-140)"><use href="#fiberBundle"/></g><g transform="translate(720, 730) rotate(-160) scale(0.8)"><use href="#fiberBundle"/></g><g transform="translate(450, 450) rotate(45) scale(0.7)"><use href="#fiberBundle"/></g><g transform="translate(574, 450) rotate(-45) scale(0.7)"><use href="#fiberBundle"/></g><g transform="translate(450, 574) rotate(135) scale(0.7)"><use href="#fiberBundle"/></g><g transform="translate(574, 574) rotate(-135) scale(0.7)"><use href="#fiberBundle"/></g></g><g><polygon points="512,472 552,492 552,532 512,552 472,532 472,492" fill="#37474F" stroke="#90A4AE" stroke-width="4"/><circle cx="512" cy="512" r="20" fill="url(#opticCore)" stroke="#00E5FF" stroke-width="2"/><path d="M512 492 L512 532 M492 512 L532 512" stroke="#263238" stroke-width="2" opacity="0.3"/><path d="M480 495 Q490 485 510 485" stroke="white" stroke-width="2" fill="none" opacity="0.6"/></g><circle cx="512" cy="512" r="300" fill="url(#opticGlow)" opacity="0.15" pointer-events="none"/></svg>