<svg xmlns="http://www.w3.org/2000/svg" viewBox="0 0 2048 1024" shape-rendering="geometricPrecision" width="2048" height="1024"><defs><linearGradient id="metalGradient" x1="0%" y1="0%" x2="0%" y2="100%"><stop offset="0%" stop-color="#3d434b"/><stop offset="10%" stop-color="#525961"/><stop offset="50%" stop-color="#2a2f35"/><stop offset="90%" stop-color="#1f2329"/><stop offset="100%" stop-color="#15181c"/></linearGradient><linearGradient id="metalHighlight" x1="0%" y1="0%" x2="100%" y2="0%"><stop offset="0%" stop-color="#525961" stop-opacity="0"/><stop offset="50%" stop-color="#7a828c" stop-opacity="0.5"/><stop offset="100%" stop-color="#525961" stop-opacity="0"/></linearGradient><radialGradient id="screenBackground" cx="50%" cy="50%" r="50%"><stop offset="0%" stop-color="#0a1525"/><stop offset="70%" stop-color="#050a12"/><stop offset="100%" stop-color="#020408"/></radialGradient><linearGradient id="scanlines" x1="0%" y1="0%" x2="0%" y2="100%" spreadMethod="repeat"><stop offset="0%" stop-color="#000000" stop-opacity="0.3"/><stop offset="50%" stop-color="#000000" stop-opacity="0"/><stop offset="100%" stop-color="#000000" stop-opacity="0.3"/></linearGradient><linearGradient id="glassGlare" x1="0%" y1="0%" x2="100%" y2="100%"><stop offset="0%" stop-color="#ffffff" stop-opacity="0.05"/><stop offset="45%" stop-color="#ffffff" stop-opacity="0.15"/><stop offset="50%" stop-color="#ffffff" stop-opacity="0.2"/><stop offset="55%" stop-color="#ffffff" stop-opacity="0.15"/><stop offset="100%" stop-color="#ffffff" stop-opacity="0.02"/></linearGradient><radialGradient id="sunGlow" cx="50%" cy="50%" r="50%"><stop offset="0%" stop-color="#fffae0"/><stop offset="20%" stop-color="#ffaa00"/><stop offset="50%" stop-color="#ff4400" stop-opacity="0.6"/><stop offset="100%" stop-color="#ff4400" stop-opacity="0"/></radialGradient><radialGradient id="planetGlowBlue" cx="50%" cy="50%" r="50%"><stop offset="0%" stop-color="#aaddff"/><stop offset="40%" stop-color="#0088ff"/><stop offset="100%" stop-color="#0088ff" stop-opacity="0"/></radialGradient><filter id="noiseTexture" x="0%" y="0%" width="100%" height="100%"><feTurbulence type="fractalNoise" baseFrequency="0.6" numOctaves="3" result="noise"/><feColorMatrix type="matrix" values="1 0 0 0 0  0 1 0 0 0  0 0 1 0 0  0 0 0 0.15 0" in="noise" result="coloredNoise"/><feComposite operator="in" in="coloredNoise" in2="SourceGraphic" result="composite"/><feBlend mode="multiply" in="composite" in2="SourceGraphic"/></filter><pattern id="holoGrid" width="100" height="100" patternUnits="userSpaceOnUse"><path d="M 100 0 L 0 0 0 100" fill="none" stroke="#00ffff" stroke-width="1" stroke-opacity="0.1"/></pattern></defs><rect x="80" y="80" width="1888" height="864" rx="100" ry="100" fill="#000000" fill-opacity="0.6" filter="blur(15px)"/><g filter="url(#noiseTexture)"><path d="M 120,200 L 200,120 L 1848,120 L 1928,200 L 1928,824 L 1848,904 L 200,904 L 120,824 Z" fill="url(#metalGradient)" stroke="#0f1114" stroke-width="4"/><path d="M 124,204 L 202,126 L 1846,126 L 1924,204" fill="none" stroke="#6b7582" stroke-width="2" stroke-linecap="round"/><path d="M 1924,820 L 1846,898 L 202,898 L 124,820" fill="none" stroke="#000000" stroke-width="3" stroke-opacity="0.5" stroke-linecap="round"/></g><g transform="translate(0, 0)"><path d="M 130,350 L 170,350 L 170,674 L 130,674 Z" fill="#222" stroke="#111" stroke-width="1"/><rect x="140" y="370" width="20" height="40" rx="4" fill="#3a4149"/><rect x="140" y="430" width="20" height="20" rx="2" fill="#ff3333" fill-opacity="0.7"/><rect x="140" y="460" width="20" height="20" rx="2" fill="#33cc33" fill-opacity="0.7"/><rect x="140" y="500" width="20" height="150" rx="2" fill="#111" stroke="#333" stroke-width="1"/><rect x="145" y="510" width="10" height="10" fill="#00ffff" fill-opacity="0.5"/><path d="M 1878,350 L 1918,350 L 1918,674 L 1878,674 Z" fill="#222" stroke="#111" stroke-width="1"/><rect x="1888" y="370" width="20" height="80" rx="4" fill="#3a4149"/><rect x="1888" y="470" width="20" height="20" rx="10" fill="#333" stroke="#555"/><rect x="1888" y="510" width="20" height="140" rx="2" fill="#111" stroke="#333" stroke-width="1"/><path d="M 1898,520 L 1898,640" stroke="#00ffff" stroke-width="2" stroke-opacity="0.3"/></g><path d="M 200,160 L 1848,160 L 1888,200 L 1888,824 L 1848,864 L 200,864 L 160,824 L 160,200 Z" fill="#1a1d21" stroke="#000" stroke-width="2"/><g clip-path="url(#screenClip)"><defs><clipPath id="screenClip"><path d="M 210,170 L 1838,170 L 1878,210 L 1878,814 L 1838,854 L 210,854 L 170,814 L 170,210 Z"/></clipPath></defs><path d="M 170,170 H 1878 V 854 H 170 Z" fill="url(#screenBackground)"/><rect x="170" y="170" width="1708" height="684" fill="url(#holoGrid)"/><g transform="translate(1024, 512)"><ellipse cx="0" cy="0" rx="200" ry="200" fill="none" stroke="#00ffff" stroke-width="1" stroke-opacity="0.2" stroke-dasharray="10, 10"/><ellipse cx="0" cy="0" rx="350" ry="350" fill="none" stroke="#00ffff" stroke-width="1" stroke-opacity="0.15"/><ellipse cx="0" cy="0" rx="550" ry="550" fill="none" stroke="#00ffff" stroke-width="1" stroke-opacity="0.1" stroke-dasharray="40, 5, 5, 5"/><circle cx="0" cy="0" r="60" fill="url(#sunGlow)"/><circle cx="0" cy="0" r="40" fill="#fff5cc" fill-opacity="0.8"/><g transform="rotate(45) translate(200, 0)"><circle r="12" fill="#aa4444"/><circle r="18" fill="none" stroke="#ff0000" stroke-width="1" stroke-opacity="0.5"/><path d="M 20,0 L 50,-20 L 100,-20" fill="none" stroke="#ff4444" stroke-width="1" stroke-opacity="0.6"/><rect x="50" y="-30" width="40" height="8" fill="#ff4444" fill-opacity="0.4"/></g><g transform="rotate(200) translate(350, 0)"><circle r="25" fill="url(#planetGlowBlue)"/><circle r="15" fill="#88ccff"/><circle cx="40" cy="10" r="6" fill="#666"/><rect x="-40" y="35" width="80" height="20" fill="#0088ff" fill-opacity="0.2" stroke="#0088ff" stroke-width="1" stroke-opacity="0.5"/><line x1="-35" y1="45" x2="35" y2="45" stroke="#0088ff" stroke-width="2" stroke-opacity="0.5"/></g><path d="M -450,-300 A 550,550 0 0 1 -300,-450" stroke="#777" stroke-width="20" stroke-opacity="0.2" stroke-dasharray="2, 5"/><g transform="translate(-400, 150)"><polygon points="0,-15 -10,10 0,5 10,10" fill="#00ff00" fill-opacity="0.8"/><polygon points="-20,5 -30,25 -20,20 -10,25" fill="#00ff00" fill-opacity="0.6"/><polygon points="20,5 10,25 20,20 30,25" fill="#00ff00" fill-opacity="0.6"/><circle r="60" fill="none" stroke="#00ff00" stroke-width="1" stroke-opacity="0.3" stroke-dasharray="5,5"/><text x="0" y="45" font-family="monospace" font-size="14" fill="#00ff00" text-anchor="middle" font-weight="bold">FLEET ALPHA</text></g><g transform="translate(450, -100)"><path d="M -15,-15 L 15,15 M 15,-15 L -15,15" stroke="#ff0000" stroke-width="2"/><rect x="-20" y="-20" width="40" height="40" fill="none" stroke="#ff0000" stroke-width="2" stroke-dasharray="10,5"/><text x="0" y="40" font-family="monospace" font-size="14" fill="#ff0000" text-anchor="middle" font-weight="bold">UNKNOWN</text></g></g><rect x="170" y="170" width="1708" height="684" fill="url(#scanlines)" pointer-events="none"/><path d="M 170,854 L 800,170 L 1100,170 L 400,854 Z" fill="url(#glassGlare)" pointer-events="none"/><rect x="170" y="170" width="1708" height="684" fill="none" stroke="#000" stroke-width="6" stroke-opacity="0.4"/></g><g opacity="0.6"><circle cx="150" cy="150" r="5" fill="#111" stroke="#333" stroke-width="1"/><circle cx="1898" cy="150" r="5" fill="#111" stroke="#333" stroke-width="1"/><circle cx="1898" cy="874" r="5" fill="#111" stroke="#333" stroke-width="1"/><circle cx="150" cy="874" r="5" fill="#111" stroke="#333" stroke-width="1"/><line x1="500" y1="120" x2="500" y2="160" stroke="#000" stroke-width="2"/><line x1="1548" y1="120" x2="1548" y2="160" stroke="#000" stroke-width="2"/><line x1="1024" y1="904" x2="1024" y2="864" stroke="#000" stroke-width="2"/><path d="M 300,880 L 350,885 M 320,882 L 310,890" stroke="#7a828c" stroke-width="1" stroke-opacity="0.5"/><path d="M 1700,140 L 1740,135" stroke="#7a828c" stroke-width="1" stroke-opacity="0.5"/></g><path d="M 210,130 L 1838,130" stroke="#fff" stroke-width="2" stroke-opacity="0.2" stroke-linecap="round"/></svg>