<svg width="512" height="512" xmlns="http://www.w3.org/2000/svg" viewBox="0 0 512 512">
    

    
    <ellipse cx="256" cy="420" rx="90" ry="35" fill="rgba(0,0,0,0.2)"/>

    
    <circle cx="256" cy="150" r="25" fill="#8B4513" stroke="#5A2E0F" stroke-width="4"/>
    <circle cx="256" cy="150" r="15" fill="#A0522D"/> 

    
    
    <path d="M256 150 A30 30 0 0 1 280 165 C285 175, 280 185, 270 190 C260 195, 250 195, 240 190 C230 185, 225 175, 230 165 A30 30 0 0 1 256 150 Z"
          fill="#2C3E50" stroke="#1A242F" stroke-width="4"/>

    
    <path d="M250 190
             C190 220, 140 280, 130 360
             L125 370 L130 380 L140 375 L150 385 L160 380 L170 390 L180 385 L190 395 L200 390 L210 395 L220 390 L230 395 L240 390
             L250 190 Z"
          fill="#2C3E50" stroke="#1A242F" stroke-width="4"/>

    
    <path d="M262 190
             C322 220, 372 280, 382 360
             L387 370 L382 380 L372 375 L362 385 L352 380 L342 390 L332 385 L322 395 L312 390 L302 395 L292 390 L282 395 L272 390
             L262 190 Z"
          fill="#2C3E50" stroke="#1A242F" stroke-width="4"/>

    
    <path d="M256 190
             C245 220, 230 280, 235 350
             C238 370, 245 385, 256 390 Z"
          fill="#4A6572" stroke="#1A242F" stroke-width="2"/>
    <path d="M256 190
             C267 220, 282 280, 277 350
             C274 370, 267 385, 256 390 Z"
          fill="#4A6572" stroke="#1A242F" stroke-width="2"/>

    
    <path d="M195 280 L205 285 L200 295 L190 290 Z" fill="#1A242F"/>
    <path d="M305 300 L315 305 L310 315 L300 310 Z" fill="#1A242F"/>
    <path d="M240 230 L245 235 L240 240 L235 235 Z" fill="#1A242F"/>
    <path d="M210 330 L215 335 L210 340 L205 335 Z" fill="#1A242F"/>
    <path d="M300 340 L305 345 L300 350 L295 345 Z" fill="#1A242F"/>

    
    <path d="M180 270 C190 260, 200 250, 210 260 S220 270, 210 280 S200 290, 190 280 Z" fill="#D3D3D3" opacity="0.15"/>
    <path d="M330 290 C320 280, 310 270, 300 280 S290 290, 300 300 S310 310, 320 300 Z" fill="#D3D3D3" opacity="0.15"/>
    <path d="M256 220 C246 215, 236 210, 226 215 S216 220, 226 225 S236 230, 246 225 Z" fill="#D3D3D3" opacity="0.15"/>
    <path d="M200 350 C190 345, 180 340, 170 345 S160 350, 170 355 S180 360, 190 355 Z" fill="#D3D3D3" opacity="0.15"/>
    <path d="M310 360 C300 355, 290 350, 280 355 S270 360, 280 365 S290 370, 300 365 Z" fill="#D3D3D3" opacity="0.15"/>

</svg>