<svg viewBox="0 0 512 512" xmlns="http://www.w3.org/2000/svg" width="512" height="512">
  <defs>
    
    <linearGradient id="strandGrad" x1="0%" y1="0%" x2="100%" y2="0%">
      <stop offset="0%" stop-color="#8a9499" />
      <stop offset="40%" stop-color="#cfd8dc" />
      <stop offset="60%" stop-color="#eceff1" />
      <stop offset="100%" stop-color="#90a4ae" />
    </linearGradient>
    
    
    <radialGradient id="clumpGrad" cx="30%" cy="30%" r="70%">
      <stop offset="0%" stop-color="#ffffff" stop-opacity="0.9"/>
      <stop offset="50%" stop-color="#cfd8dc" stop-opacity="1"/>
      <stop offset="100%" stop-color="#546e7a" stop-opacity="1"/>
    </radialGradient>

    
    <filter id="webShadow" x="-20%" y="-20%" width="140%" height="140%">
      <feGaussianBlur in="SourceAlpha" stdDeviation="3" result="blur"/>
      <feComponentTransfer>
         <feFuncA type="linear" slope="0.5"/>
      </feComponentTransfer>
      <feOffset dx="2" dy="4" result="offsetBlur"/>
      <feMerge>
        <feMergeNode in="offsetBlur"/>
        <feMergeNode in="SourceGraphic"/>
      </feMerge>
    </filter>
  </defs>

  
  
  <g opacity="0.4" stroke="#eceff1" stroke-width="1" fill="none" stroke-linecap="round">
    
    <path d="M50,50 Q150,100 250,50 T450,100 M60,60 Q100,200 150,300 M300,50 Q280,150 320,250 M400,80 Q350,200 420,350" />
    <path d="M20,150 L200,80 L350,120 L480,50" stroke-opacity="0.5"/>
    <path d="M100,20 L80,180 L180,250 L250,100" stroke-opacity="0.5"/>
    
    <path d="M50,50 L450,50 L256,256 L50,450 Z" fill="#eceff1" fill-opacity="0.05" stroke="none"/>
  </g>

  
  
  <g filter="url(#webShadow)" transform="translate(0,0)">
    
    
    <path d="M-10,-10 C80,80 150,150 256,256" stroke="#455a64" stroke-width="14" fill="none" stroke-linecap="round"/>
    <path d="M-10,-10 C80,80 150,150 256,256" stroke="#cfd8dc" stroke-width="10" fill="none" stroke-linecap="round"/>
    <path d="M-10,-10 C80,80 150,150 256,256" stroke="#ffffff" stroke-width="2" fill="none" stroke-linecap="round" stroke-opacity="0.8" transform="translate(-1,-1)"/>

    
    <path d="M522,-10 C450,80 350,180 256,256" stroke="#455a64" stroke-width="12" fill="none" stroke-linecap="round"/>
    <path d="M522,-10 C450,80 350,180 256,256" stroke="#cfd8dc" stroke-width="8" fill="none" stroke-linecap="round"/>
    <path d="M522,-10 C450,80 350,180 256,256" stroke="#ffffff" stroke-width="2" fill="none" stroke-linecap="round" stroke-opacity="0.8" transform="translate(1,-1)"/>

    
    <path d="M-10,522 C80,450 180,350 256,256" stroke="#455a64" stroke-width="13" fill="none" stroke-linecap="round"/>
    <path d="M-10,522 C80,450 180,350 256,256" stroke="#cfd8dc" stroke-width="9" fill="none" stroke-linecap="round"/>
    <path d="M-10,522 C80,450 180,350 256,256" stroke="#ffffff" stroke-width="2" fill="none" stroke-linecap="round" stroke-opacity="0.8" transform="translate(-1,1)"/>

    
    <path d="M522,522 C450,450 350,350 256,256" stroke="#455a64" stroke-width="16" fill="none" stroke-linecap="round"/>
    <path d="M522,522 C450,450 350,350 256,256" stroke="#cfd8dc" stroke-width="12" fill="none" stroke-linecap="round"/>
    <path d="M522,522 C450,450 350,350 256,256" stroke="#ffffff" stroke-width="3" fill="none" stroke-linecap="round" stroke-opacity="0.8" transform="translate(1,1)"/>

  </g>

  
  
  <g stroke-linecap="round" stroke-linejoin="round">
    
    <path d="M180,180 Q256,150 330,180" stroke="#546e7a" stroke-width="5" fill="none"/>
    <path d="M180,180 Q256,150 330,180" stroke="#eceff1" stroke-width="3" fill="none"/>
    
    <path d="M330,180 Q350,256 330,330" stroke="#546e7a" stroke-width="6" fill="none"/>
    <path d="M330,180 Q350,256 330,330" stroke="#eceff1" stroke-width="4" fill="none"/>

    <path d="M330,330 Q256,360 180,330" stroke="#546e7a" stroke-width="5" fill="none"/>
    <path d="M330,330 Q256,360 180,330" stroke="#eceff1" stroke-width="3" fill="none"/>

    <path d="M180,330 Q150,256 180,180" stroke="#546e7a" stroke-width="6" fill="none"/>
    <path d="M180,330 Q150,256 180,180" stroke="#eceff1" stroke-width="4" fill="none"/>

    
    <path d="M100,100 Q256,20 412,100" stroke="#546e7a" stroke-width="5" fill="none"/>
    <path d="M100,100 Q256,20 412,100" stroke="#eceff1" stroke-width="2.5" fill="none"/>

    <path d="M412,100 Q500,256 412,412" stroke="#546e7a" stroke-width="5" fill="none"/>
    <path d="M412,100 Q500,256 412,412" stroke="#eceff1" stroke-width="2.5" fill="none"/>

    <path d="M412,412 Q256,500 100,412" stroke="#546e7a" stroke-width="5" fill="none"/>
    <path d="M412,412 Q256,500 100,412" stroke="#eceff1" stroke-width="2.5" fill="none"/>

    <path d="M100,412 Q20,256 100,100" stroke="#546e7a" stroke-width="5" fill="none"/>
    <path d="M100,412 Q20,256 100,100" stroke="#eceff1" stroke-width="2.5" fill="none"/>
  </g>

  
  
  <g>
    
    <circle cx="256" cy="256" r="25" fill="url(#clumpGrad)" stroke="#455a64" stroke-width="1"/>
    <circle cx="240" cy="250" r="15" fill="url(#clumpGrad)" stroke="#455a64" stroke-width="1"/>
    <circle cx="270" cy="265" r="12" fill="url(#clumpGrad)" stroke="#455a64" stroke-width="1"/>
    
    
    <circle cx="180" cy="180" r="8" fill="url(#clumpGrad)"/>
    <circle cx="330" cy="180" r="9" fill="url(#clumpGrad)"/>
    <circle cx="330" cy="330" r="7" fill="url(#clumpGrad)"/>
    <circle cx="180" cy="330" r="10" fill="url(#clumpGrad)"/>
    
    <ellipse cx="100" cy="100" rx="6" ry="9" fill="url(#clumpGrad)" transform="rotate(-45 100 100)"/>
    <ellipse cx="412" cy="100" rx="6" ry="9" fill="url(#clumpGrad)" transform="rotate(45 412 100)"/>
    <ellipse cx="412" cy="412" rx="8" ry="12" fill="url(#clumpGrad)" transform="rotate(-45 412 412)"/>
    <ellipse cx="100" cy="412" rx="5" ry="8" fill="url(#clumpGrad)" transform="rotate(45 100 412)"/>

    
    <circle cx="210" cy="160" r="3" fill="#ffffff" opacity="0.8"/>
    <circle cx="290" cy="160" r="2" fill="#ffffff" opacity="0.8"/>
    <circle cx="345" cy="230" r="3" fill="#ffffff" opacity="0.8"/>
    <circle cx="340" cy="290" r="2" fill="#ffffff" opacity="0.8"/>
    <circle cx="200" cy="350" r="3" fill="#ffffff" opacity="0.8"/>
  </g>
  
  
  
  <g fill="#ffffff" opacity="0.9">
    <ellipse cx="256" cy="256" rx="10" ry="5" transform="rotate(-45 256 256)"/>
    <path d="M175,175 L185,185 L180,180 Z" stroke="#fff" stroke-width="2"/>
    <path d="M325,175 L335,185 L330,180 Z" stroke="#fff" stroke-width="2"/>
  </g>

</svg>