<svg viewBox="0 0 512 512" xmlns="http://www.w3.org/2000/svg">
  
  <g id="throne" transform="translate(0, 20)">
    
    <ellipse cx="256" cy="370" rx="120" ry="40" fill="rgba(0,0,0,0.2)"/>

    
    <rect x="156" y="330" width="200" height="40" fill="#777777" stroke="#333333" stroke-width="4"/>

    
    <rect x="176" y="290" width="160" height="40" fill="#888888" stroke="#333333" stroke-width="4"/>

    
    <rect x="156" y="280" width="30" height="60" fill="#888888" stroke="#333333" stroke-width="4"/>
    <rect x="326" y="280" width="30" height="60" fill="#888888" stroke="#333333" stroke-width="4"/>

    
    <rect x="176" y="180" width="160" height="110" fill="#888888" stroke="#333333" stroke-width="4"/>

    
    <path d="M174 180 L174 160 C174 150 184 140 194 140 L318 140 C328 140 338 150 338 160 L338 180 Z" 
          fill="#777777" stroke="#333333" stroke-width="4"/>
    
    
    <path d="M256 160 L246 175 L231 175 L241 190 L231 205 L246 205 L256 220 L266 205 L281 205 L271 190 L281 175 L266 175 Z"
          fill="#AAAAAA" stroke="#555555" stroke-width="2"/>
          
    
    <rect x="184" y="298" width="144" height="24" fill="#6B0000" stroke="#4B0000" stroke-width="2"/>
  </g>
</svg>