<svg xmlns="http://www.w3.org/2000/svg" viewBox="0 0 512 512" width="512" height="512">
  
  <defs>
    <linearGradient id="woodGradient" x1="0%" y1="0%" x2="100%" y2="0%">
      <stop offset="0%" stop-color="#2a1d15" />
      <stop offset="20%" stop-color="#4a3627" />
      <stop offset="50%" stop-color="#5e4432" />
      <stop offset="80%" stop-color="#3d2b1f" />
      <stop offset="100%" stop-color="#1f140e" />
    </linearGradient>
    <linearGradient id="metalGradient" x1="0%" y1="0%" x2="0%" y2="100%">
      <stop offset="0%" stop-color="#2b2b2b" />
      <stop offset="30%" stop-color="#555555" />
      <stop offset="50%" stop-color="#7a7a7a" />
      <stop offset="80%" stop-color="#3d3d3d" />
      <stop offset="100%" stop-color="#1a1a1a" />
    </linearGradient>
    <radialGradient id="rustGradient" cx="50%" cy="50%" r="50%">
      <stop offset="0%" stop-color="#8a4b26" stop-opacity="0.8"/>
      <stop offset="100%" stop-color="#572e16" stop-opacity="0"/>
    </radialGradient>
    <filter id="roughness">
      <feTurbulence type="fractalNoise" baseFrequency="0.8" numOctaves="3" result="noise" />
      <feColorMatrix type="matrix" values="1 0 0 0 0  0 1 0 0 0  0 0 1 0 0  0 0 0 0.4 0" in="noise" result="coloredNoise" />
      <feComposite operator="in" in="coloredNoise" in2="SourceGraphic" result="composite" />
      <feBlend mode="multiply" in="composite" in2="SourceGraphic" />
    </filter>
  </defs>

  
  <ellipse cx="256" cy="270" rx="140" ry="200" fill="#000000" fill-opacity="0.35" filter="url(#roughness)" />

  
  
  
  <g transform="translate(160, 60)">
    
    <rect x="0" y="0" width="40" height="400" rx="2" fill="url(#woodGradient)" stroke="#1a120b" stroke-width="2" />
    
    <path d="M10,20 Q15,100 8,150 T12,300 M25,50 Q20,120 28,200 T24,350 M5,380 L35,385" fill="none" stroke="#2e2016" stroke-width="2" stroke-opacity="0.8" stroke-linecap="round"/>
    <path d="M15,10 L15,60 M30,250 L30,320" fill="none" stroke="#6b503d" stroke-width="1" stroke-opacity="0.4" />
    
    <rect x="-2" y="30" width="44" height="10" fill="#3d3d3d" stroke="#1a1a1a" stroke-width="1"/>
    <rect x="-2" y="360" width="44" height="10" fill="#3d3d3d" stroke="#1a1a1a" stroke-width="1"/>
    
    <circle cx="20" cy="35" r="2" fill="#777" />
    <circle cx="20" cy="365" r="2" fill="#777" />
  </g>

  
  <g transform="translate(312, 60)">
    
    <rect x="0" y="0" width="40" height="400" rx="2" fill="url(#woodGradient)" stroke="#1a120b" stroke-width="2" />
    
    <path d="M10,40 Q18,120 10,200 T12,380 M28,20 Q22,90 30,160 T26,310" fill="none" stroke="#2e2016" stroke-width="2" stroke-opacity="0.8" stroke-linecap="round"/>
    <path d="M20,150 L20,200 M35,10 L35,80" fill="none" stroke="#6b503d" stroke-width="1" stroke-opacity="0.4" />
    
    <rect x="-2" y="30" width="44" height="10" fill="#3d3d3d" stroke="#1a1a1a" stroke-width="1"/>
    <rect x="-2" y="360" width="44" height="10" fill="#3d3d3d" stroke="#1a1a1a" stroke-width="1"/>
    
    <circle cx="20" cy="35" r="2" fill="#777" />
    <circle cx="20" cy="365" r="2" fill="#777" />
  </g>

  
  <g transform="translate(160, 410)">
    <rect x="0" y="0" width="192" height="35" rx="2" fill="url(#woodGradient)" stroke="#1a120b" stroke-width="2" />
    
    <path d="M20,10 Q100,15 170,10 M30,25 Q100,20 160,25" fill="none" stroke="#2e2016" stroke-width="2" />
    
    <circle cx="66" cy="17" r="6" fill="#222" stroke="#555" stroke-width="2" />
    <circle cx="126" cy="17" r="6" fill="#222" stroke="#555" stroke-width="2" />
  </g>

  
  <g transform="translate(145, 75)">
    
    <rect x="0" y="0" width="222" height="50" rx="4" fill="url(#woodGradient)" stroke="#1a120b" stroke-width="2" />
    
    <line x1="10" y1="15" x2="212" y2="15" stroke="#1a120b" stroke-width="2" stroke-opacity="0.5" />
    <line x1="10" y1="35" x2="212" y2="35" stroke="#1a120b" stroke-width="2" stroke-opacity="0.5" />
    
    
    <rect x="0" y="0" width="15" height="50" fill="url(#metalGradient)" stroke="#111" stroke-width="1" />
    <rect x="207" y="0" width="15" height="50" fill="url(#metalGradient)" stroke="#111" stroke-width="1" />
    
    
    <g transform="translate(222, 5)">
      <path d="M0,0 L10,5 L0,10 L10,15 L0,20 L10,25 L0,30 L10,35 L0,40 Z" fill="#444" stroke="#222" />
      <circle cx="0" cy="20" r="18" fill="#555" stroke="#222" stroke-width="2" />
      <circle cx="0" cy="20" r="8" fill="#222" />
    </g>

    
    <g transform="translate(222, 25) rotate(-30)">
      
      <rect x="-5" y="-5" width="60" height="10" fill="#4a4a4a" stroke="#222" rx="2" />
      
      <circle cx="50" cy="0" r="6" fill="#333" />
      <rect x="47" y="-25" width="6" height="25" fill="#3d2b1f" stroke="#1a120b" />
      
      <rect x="44" y="-35" width="12" height="20" rx="3" fill="#5e4432" stroke="#2a1d15" />
    </g>
  </g>

  
  
  
  <g transform="translate(226, 125)">
     
     <g transform="translate(-20, 0) rotate(10)">
        <line x1="0" y1="-25" x2="0" y2="80" stroke="#000" stroke-width="4" opacity="0.4" /> 
        
        <g stroke="#555" stroke-width="2" fill="none">
            <ellipse cx="0" cy="0" rx="3" ry="6" fill="#333" />
            <rect x="-3" y="4" width="6" height="8" rx="2" fill="#444" />
            <ellipse cx="0" cy="18" rx="3" ry="6" fill="#333" />
            <rect x="-3" y="22" width="6" height="8" rx="2" fill="#444" />
            <ellipse cx="0" cy="36" rx="3" ry="6" fill="#333" />
            <rect x="-3" y="40" width="6" height="8" rx="2" fill="#444" />
            <ellipse cx="0" cy="54" rx="3" ry="6" fill="#333" />
            <rect x="-3" y="58" width="6" height="8" rx="2" fill="#444" />
        </g>
        
        <g transform="translate(0, 70)">
            <path d="M-10,0 A10,10 0 1,1 10,0" fill="none" stroke="#444" stroke-width="4" />
            <rect x="-12" y="-2" width="24" height="6" fill="#333" stroke="#111" rx="1" />
            
            <circle cx="-5" cy="0" r="1.5" fill="#8a4b26" opacity="0.8" />
            <circle cx="6" cy="1" r="1" fill="#8a4b26" opacity="0.8" />
        </g>
     </g>

     
     <g transform="translate(40, 0) rotate(-10)">
        <line x1="0" y1="-25" x2="0" y2="80" stroke="#000" stroke-width="4" opacity="0.4" />
        <g stroke="#555" stroke-width="2" fill="none">
            <ellipse cx="0" cy="0" rx="3" ry="6" fill="#333" />
            <rect x="-3" y="4" width="6" height="8" rx="2" fill="#444" />
            <ellipse cx="0" cy="18" rx="3" ry="6" fill="#333" />
            <rect x="-3" y="22" width="6" height="8" rx="2" fill="#444" />
            <ellipse cx="0" cy="36" rx="3" ry="6" fill="#333" />
            <rect x="-3" y="40" width="6" height="8" rx="2" fill="#444" />
            <ellipse cx="0" cy="54" rx="3" ry="6" fill="#333" />
            <rect x="-3" y="58" width="6" height="8" rx="2" fill="#444" />
        </g>
        
        <g transform="translate(0, 70)">
            <path d="M-10,0 A10,10 0 1,1 10,0" fill="none" stroke="#444" stroke-width="4" />
            <rect x="-12" y="-2" width="24" height="6" fill="#333" stroke="#111" rx="1" />
            <circle cx="4" cy="-1" r="1.5" fill="#8a4b26" opacity="0.8" />
        </g>
     </g>
  </g>

  
  <g transform="translate(226, 320)">
     
     <g transform="translate(-20, 0) rotate(-10)">
        <line x1="0" y1="0" x2="0" y2="90" stroke="#000" stroke-width="4" opacity="0.4" />
        
        <g stroke="#555" stroke-width="2" fill="none">
            
            <g transform="translate(0, 0) scale(1, -1)">
                 <path d="M-9,0 A9,9 0 1,1 9,0" fill="none" stroke="#444" stroke-width="4" />
                 <rect x="-11" y="-2" width="22" height="6" fill="#333" stroke="#111" rx="1" />
            </g>
            <rect x="-3" y="8" width="6" height="8" rx="2" fill="#444" />
            <ellipse cx="0" cy="22" rx="3" ry="6" fill="#333" />
            <rect x="-3" y="28" width="6" height="8" rx="2" fill="#444" />
            <ellipse cx="0" cy="42" rx="3" ry="6" fill="#333" />
            <rect x="-3" y="48" width="6" height="8" rx="2" fill="#444" />
            <ellipse cx="0" cy="62" rx="3" ry="6" fill="#333" />
            <rect x="-3" y="68" width="6" height="8" rx="2" fill="#444" />
            <line x1="0" y1="78" x2="0" y2="95" stroke="#333" stroke-width="3" />
        </g>
     </g>

     
     <g transform="translate(40, 0) rotate(10)">
        <line x1="0" y1="0" x2="0" y2="90" stroke="#000" stroke-width="4" opacity="0.4" />
        <g stroke="#555" stroke-width="2" fill="none">
            
            <g transform="translate(0, 0) scale(1, -1)">
                 <path d="M-9,0 A9,9 0 1,1 9,0" fill="none" stroke="#444" stroke-width="4" />
                 <rect x="-11" y="-2" width="22" height="6" fill="#333" stroke="#111" rx="1" />
            </g>
            <rect x="-3" y="8" width="6" height="8" rx="2" fill="#444" />
            <ellipse cx="0" cy="22" rx="3" ry="6" fill="#333" />
            <rect x="-3" y="28" width="6" height="8" rx="2" fill="#444" />
            <ellipse cx="0" cy="42" rx="3" ry="6" fill="#333" />
            <rect x="-3" y="48" width="6" height="8" rx="2" fill="#444" />
            <ellipse cx="0" cy="62" rx="3" ry="6" fill="#333" />
            <rect x="-3" y="68" width="6" height="8" rx="2" fill="#444" />
            <line x1="0" y1="78" x2="0" y2="95" stroke="#333" stroke-width="3" />
        </g>
     </g>
  </g>

  
  <g opacity="0.6">
    
    <circle cx="150" cy="80" r="3" fill="#8a4b26" filter="url(#roughness)" />
    <circle cx="360" cy="85" r="4" fill="#8a4b26" filter="url(#roughness)" />
    <circle cx="380" cy="110" r="2" fill="#8a4b26" />
    <path d="M222,125 Q230,150 215,180" stroke="#8a4b26" stroke-width="1" fill="none" opacity="0.5" />
    
    <path d="M240,250 Q256,260 270,250 T280,280" fill="#521515" opacity="0.4" filter="url(#roughness)" />
    <circle cx="256" cy="260" r="20" fill="#3d0e0e" opacity="0.3" filter="url(#roughness)" />
  </g>

  
  <g pointer-events="none">
    
    <path d="M162,60 L200,60 M314,60 L352,60" stroke="#8c735e" stroke-width="1" opacity="0.7" />
    
    <path d="M150,80 L367,80" stroke="#fff" stroke-width="2" opacity="0.1" />
    
    <circle cx="215" cy="140" r="1" fill="#ccc" opacity="0.6" />
    <circle cx="295" cy="140" r="1" fill="#ccc" opacity="0.6" />
  </g>
  
  
  <rect x="0" y="0" width="512" height="512" fill="none" stroke="#000" stroke-width="0" /> 

</svg>