<svg xmlns="http://www.w3.org/2000/svg" viewBox="0 0 1024 512" shape-rendering="geometricPrecision" width="1024" height="512"><defs><filter id="glow" x="-50%" y="-50%" width="200%" height="200%"><feGaussianBlur stdDeviation="15" result="coloredBlur"/><feMerge><feMergeNode in="coloredBlur"/><feMergeNode in="SourceGraphic"/></feMerge></filter><filter id="intenseGlow" x="-50%" y="-50%" width="200%" height="200%"><feGaussianBlur stdDeviation="25" result="blur"/><feColorMatrix type="matrix" values="1 0 0 0 0  0 1 0 0 0  0 0 1 0 0  0 0 0 18 -7" result="goo" /><feComposite in="SourceGraphic" in2="goo" operator="atop"/></filter><filter id="dropShadow" x="-20%" y="-20%" width="140%" height="140%"><feGaussianBlur in="SourceAlpha" stdDeviation="8"/><feOffset dx="4" dy="8" result="offsetblur"/><feComponentTransfer><feFuncA type="linear" slope="0.6"/></feComponentTransfer><feMerge><feMergeNode in="offsetblur"/><feMergeNode in="SourceGraphic"/></feMerge></filter><linearGradient id="metalBody" x1="0%" y1="0%" x2="0%" y2="100%"><stop offset="0%" stop-color="#34495e" /><stop offset="10%" stop-color="#5d6d7e" /><stop offset="40%" stop-color="#2c3e50" /><stop offset="90%" stop-color="#1a252f" /><stop offset="100%" stop-color="#17202a" /></linearGradient><linearGradient id="metalRim" x1="0%" y1="0%" x2="0%" y2="100%"><stop offset="0%" stop-color="#95a5a6" /><stop offset="50%" stop-color="#7f8c8d" /><stop offset="100%" stop-color="#34495e" /></linearGradient><linearGradient id="tubeGradient" x1="0%" y1="0%" x2="100%" y2="0%"><stop offset="0%" stop-color="#4a235a" /><stop offset="20%" stop-color="#8e44ad" /><stop offset="45%" stop-color="#ff00ff" /><stop offset="50%" stop-color="#ffffff" /><stop offset="55%" stop-color="#ff00ff" /><stop offset="80%" stop-color="#8e44ad" /><stop offset="100%" stop-color="#4a235a" /></linearGradient><linearGradient id="ventGradient" x1="0%" y1="0%" x2="100%" y2="0%"><stop offset="0%" stop-color="#000000" stop-opacity="0.8"/><stop offset="50%" stop-color="#000000" stop-opacity="0.2"/><stop offset="100%" stop-color="#000000" stop-opacity="0.8"/></linearGradient><pattern id="gridPattern" width="20" height="20" patternUnits="userSpaceOnUse"><path d="M 20 0 L 0 0 0 20" fill="none" stroke="#000000" stroke-opacity="0.3" stroke-width="1"/></pattern></defs><rect x="60" y="60" width="904" height="392" rx="30" fill="#000000" fill-opacity="0.6" filter="url(#dropShadow)"/><g transform="translate(0,0)"><rect x="50" y="50" width="924" height="412" rx="20" fill="url(#metalBody)" stroke="#17202a" stroke-width="4"/><path d="M 70 60 L 954 60 C 960 60 964 64 964 70 L 964 442 C 964 448 960 452 954 452 L 70 452 C 64 452 60 448 60 442 L 60 70 C 60 64 64 60 70 60 Z" fill="none" stroke="url(#metalRim)" stroke-width="2" opacity="0.6"/><path d="M 100 80 L 150 82 M 800 400 L 830 410 M 400 60 L 420 75" stroke="#000000" stroke-width="1" opacity="0.4"/><rect x="50" y="50" width="924" height="412" rx="20" fill="url(#gridPattern)" opacity="0.1" style="mix-blend-mode: overlay;"/></g><g><rect x="60" y="100" width="40" height="312" fill="#212f3c"/><path d="M 60 120 L 100 120 M 60 160 L 100 160 M 60 200 L 100 200 M 60 240 L 100 240 M 60 280 L 100 280 M 60 320 L 100 320 M 60 360 L 100 360" stroke="#000000" stroke-width="3" opacity="0.7"/><rect x="924" y="100" width="40" height="312" fill="#212f3c"/><path d="M 924 120 L 964 120 M 924 160 L 964 160 M 924 200 L 964 200 M 924 240 L 964 240 M 924 280 L 964 280 M 924 320 L 964 320 M 924 360 L 964 360" stroke="#000000" stroke-width="3" opacity="0.7"/></g><rect x="462" y="50" width="100" height="412" fill="#283747" stroke="#000000" stroke-width="2"/><rect x="472" y="70" width="80" height="372" fill="#17202a"/><circle cx="512" cy="120" r="25" fill="#111"/><circle cx="512" cy="120" r="15" fill="#e74c3c" opacity="0.8"/><rect x="485" y="180" width="54" height="10" fill="#3498db" opacity="0.5"/><rect x="485" y="200" width="54" height="10" fill="#3498db" opacity="0.5"/><rect x="485" y="220" width="54" height="10" fill="#3498db" opacity="0.5"/><path d="M 472 380 L 552 400 L 552 420 L 472 400 Z" fill="#f1c40f" opacity="0.8"/><path d="M 480 385 L 500 390 L 490 410 L 472 405 Z" fill="#000000" opacity="0.6"/><path d="M 520 395 L 540 400 L 530 415 L 510 410 Z" fill="#000000" opacity="0.6"/><g id="LightArrays"><rect x="120" y="80" width="322" height="352" fill="#111111" stroke="#555" stroke-width="2" rx="4"/><rect x="582" y="80" width="322" height="352" fill="#111111" stroke="#555" stroke-width="2" rx="4"/><g filter="url(#glow)"><rect x="130" y="100" width="302" height="40" rx="20" fill="url(#tubeGradient)"/><rect x="130" y="160" width="302" height="40" rx="20" fill="url(#tubeGradient)"/><rect x="130" y="220" width="302" height="40" rx="20" fill="url(#tubeGradient)"/><rect x="130" y="280" width="302" height="40" rx="20" fill="url(#tubeGradient)"/><rect x="130" y="340" width="302" height="40" rx="20" fill="url(#tubeGradient)"/></g><g filter="url(#glow)"><rect x="592" y="100" width="302" height="40" rx="20" fill="url(#tubeGradient)"/><rect x="592" y="160" width="302" height="40" rx="20" fill="url(#tubeGradient)"/><rect x="592" y="220" width="302" height="40" rx="20" fill="url(#tubeGradient)"/><rect x="592" y="280" width="302" height="40" rx="20" fill="url(#tubeGradient)"/><rect x="592" y="340" width="302" height="40" rx="20" fill="url(#tubeGradient)"/></g><path d="M 150 120 L 410 120" stroke="#ffffff" stroke-width="4" stroke-linecap="round" opacity="0.6"/><path d="M 150 180 L 410 180" stroke="#ffffff" stroke-width="4" stroke-linecap="round" opacity="0.6"/><path d="M 150 240 L 410 240" stroke="#ffffff" stroke-width="4" stroke-linecap="round" opacity="0.6"/><path d="M 150 300 L 410 300" stroke="#ffffff" stroke-width="4" stroke-linecap="round" opacity="0.6"/><path d="M 150 360 L 410 360" stroke="#ffffff" stroke-width="4" stroke-linecap="round" opacity="0.6"/><path d="M 612 120 L 872 120" stroke="#ffffff" stroke-width="4" stroke-linecap="round" opacity="0.6"/><path d="M 612 180 L 872 180" stroke="#ffffff" stroke-width="4" stroke-linecap="round" opacity="0.6"/><path d="M 612 240 L 872 240" stroke="#ffffff" stroke-width="4" stroke-linecap="round" opacity="0.6"/><path d="M 612 300 L 872 300" stroke="#ffffff" stroke-width="4" stroke-linecap="round" opacity="0.6"/><path d="M 612 360 L 872 360" stroke="#ffffff" stroke-width="4" stroke-linecap="round" opacity="0.6"/></g><g opacity="0.4"><line x1="120" y1="140" x2="442" y2="140" stroke="#000" stroke-width="4"/><line x1="120" y1="200" x2="442" y2="200" stroke="#000" stroke-width="4"/><line x1="120" y1="260" x2="442" y2="260" stroke="#000" stroke-width="4"/><line x1="120" y1="320" x2="442" y2="320" stroke="#000" stroke-width="4"/><line x1="281" y1="80" x2="281" y2="432" stroke="#000" stroke-width="8"/><line x1="582" y1="140" x2="904" y2="140" stroke="#000" stroke-width="4"/><line x1="582" y1="200" x2="904" y2="200" stroke="#000" stroke-width="4"/><line x1="582" y1="260" x2="904" y2="260" stroke="#000" stroke-width="4"/><line x1="582" y1="320" x2="904" y2="320" stroke="#000" stroke-width="4"/><line x1="743" y1="80" x2="743" y2="432" stroke="#000" stroke-width="8"/></g><rect x="100" y="80" width="824" height="352" fill="url(#tubeGradient)" opacity="0.15" filter="url(#intenseGlow)" style="mix-blend-mode: screen;"/><path d="M 480 300 C 460 300 450 320 442 340" stroke="#111" stroke-width="6" fill="none"/><path d="M 540 300 C 560 300 570 320 582 340" stroke="#111" stroke-width="6" fill="none"/><path d="M 480 300 C 460 300 450 320 442 340" stroke="#333" stroke-width="2" stroke-dasharray="4,4" fill="none"/><g fill="#7f8c8d" stroke="#17202a" stroke-width="1"><circle cx="70" cy="70" r="6"/><circle cx="954" cy="70" r="6"/><circle cx="70" cy="442" r="6"/><circle cx="954" cy="442" r="6"/><circle cx="450" cy="60" r="4"/><circle cx="450" cy="452" r="4"/><circle cx="574" cy="60" r="4"/><circle cx="574" cy="452" r="4"/></g><path d="M 120 80 L 442 80 M 582 80 L 904 80" stroke="#ffffff" stroke-width="2" opacity="0.3"/><path d="M 50 50 L 974 50" stroke="#ffffff" stroke-width="2" opacity="0.2"/></svg>