<svg xmlns="http://www.w3.org/2000/svg" viewBox="0 0 512 512" width="512" height="512"><defs><radialGradient id="metalGrad" cx="50%" cy="50%" r="50%" fx="30%" fy="30%"><stop offset="0%" stop-color="#7a8594" /><stop offset="60%" stop-color="#4a5059" /><stop offset="100%" stop-color="#2b2e33" /></radialGradient><radialGradient id="darkRecess" cx="50%" cy="50%" r="50%"><stop offset="70%" stop-color="#111214" /><stop offset="90%" stop-color="#080808" /><stop offset="100%" stop-color="#23262b" /></radialGradient><radialGradient id="fiberGlow" cx="50%" cy="50%" r="50%"><stop offset="0%" stop-color="#aaffff" stop-opacity="1" /><stop offset="40%" stop-color="#00eaff" stop-opacity="0.8" /><stop offset="100%" stop-color="#005577" stop-opacity="0" /></radialGradient><linearGradient id="glassSheen" x1="0%" y1="0%" x2="100%" y2="100%"><stop offset="0%" stop-color="#ffffff" stop-opacity="0.4" /><stop offset="50%" stop-color="#ffffff" stop-opacity="0" /><stop offset="100%" stop-color="#00eaff" stop-opacity="0.1" /></linearGradient></defs><ellipse cx="256" cy="270" rx="220" ry="220" fill="#000000" fill-opacity="0.5" filter="blur(8px)" /><circle cx="256" cy="256" r="210" fill="url(#metalGrad)" stroke="#1a1c1f" stroke-width="2" /><path d="M 256,46 A 210,210 0 1,1 256,466 A 210,210 0 1,1 256,46 Z M 256,76 A 180,180 0 1,0 256,436 A 180,180 0 1,0 256,76 Z"         fill="#5c636e" fill-rule="evenodd" stroke="#8da1b5" stroke-width="1" stroke-opacity="0.3" /><g transform="translate(256, 256)"><g><circle cx="0" cy="-190" r="12" fill="#383c42" stroke="#1a1c1f" stroke-width="1"/><path d="M -4,-190 L 4,-190 M 0,-194 L 0,-186" stroke="#151618" stroke-width="2"/></g><g transform="rotate(90)"><circle cx="0" cy="-190" r="12" fill="#383c42" stroke="#1a1c1f" stroke-width="1"/><path d="M -4,-190 L 4,-190 M 0,-194 L 0,-186" stroke="#151618" stroke-width="2"/></g><g transform="rotate(180)"><circle cx="0" cy="-190" r="12" fill="#383c42" stroke="#1a1c1f" stroke-width="1"/><path d="M -4,-190 L 4,-190 M 0,-194 L 0,-186" stroke="#151618" stroke-width="2"/></g><g transform="rotate(270)"><circle cx="0" cy="-190" r="12" fill="#383c42" stroke="#1a1c1f" stroke-width="1"/><path d="M -4,-190 L 4,-190 M 0,-194 L 0,-186" stroke="#151618" stroke-width="2"/></g></g><circle cx="256" cy="256" r="160" fill="url(#darkRecess)" stroke="#111" stroke-width="4" /><circle cx="256" cy="256" r="145" fill="none" stroke="#2a3038" stroke-width="2" stroke-dasharray="10 5" /><circle cx="256" cy="256" r="130" fill="none" stroke="#1f2329" stroke-width="15" /><g stroke-linecap="round" shape-rendering="geometricPrecision"><path d="M 256,126 L 256,156" stroke="#00eaff" stroke-width="4" stroke-opacity="0.6" /><path d="M 256,386 L 256,356" stroke="#00eaff" stroke-width="4" stroke-opacity="0.6" /><path d="M 126,256 L 156,256" stroke="#00eaff" stroke-width="4" stroke-opacity="0.6" /><path d="M 386,256 L 356,256" stroke="#00eaff" stroke-width="4" stroke-opacity="0.6" /><path d="M 164,164 L 185,185" stroke="#0088aa" stroke-width="3" /><path d="M 348,164 L 327,185" stroke="#0088aa" stroke-width="3" /><path d="M 164,348 L 185,327" stroke="#0088aa" stroke-width="3" /><path d="M 348,348 L 327,327" stroke="#0088aa" stroke-width="3" /></g><circle cx="256" cy="256" r="70" fill="#1a2026" stroke="#445566" stroke-width="2" /><g transform="translate(256, 256)"><polygon points="0,-40 35,-20 35,20 0,40 -35,20 -35,-20" fill="none" stroke="#00eaff" stroke-width="2" stroke-opacity="0.8" /><polygon points="0,-25 22,-12 22,12 0,25 -22,12 -22,-12" fill="#003344" stroke="#00eaff" stroke-width="1" /><line x1="0" y1="-25" x2="0" y2="-55" stroke="#00eaff" stroke-width="2" /><line x1="0" y1="25" x2="0" y2="55" stroke="#00eaff" stroke-width="2" /><line x1="22" y1="-12" x2="48" y2="-28" stroke="#00eaff" stroke-width="2" /><line x1="-22" y1="-12" x2="-48" y2="-28" stroke="#00eaff" stroke-width="2" /><line x1="22" y1="12" x2="48" y2="28" stroke="#00eaff" stroke-width="2" /><line x1="-22" y1="12" x2="-48" y2="28" stroke="#00eaff" stroke-width="2" /></g><circle cx="256" cy="256" r="40" fill="url(#fiberGlow)" style="mix-blend-mode: screen;" pointer-events="none" /><circle cx="256" cy="256" r="80" fill="#00eaff" fill-opacity="0.1" filter="blur(10px)" pointer-events="none" /><circle cx="256" cy="256" r="68" fill="url(#glassSheen)" /><path d="M 230,210 Q 256,190 282,210" fill="none" stroke="#ffffff" stroke-width="2" stroke-opacity="0.6" stroke-linecap="round" /><g stroke="#000000" stroke-width="1" stroke-opacity="0.4" fill="none"><path d="M 120,150 L 140,160" /><path d="M 380,350 Q 390,360 400,355" /><path d="M 200,400 L 210,410 M 205,405 L 195,415" /></g><g stroke="#ffffff" stroke-width="0.5" stroke-opacity="0.3" fill="none"><path d="M 121,151 L 141,161" /><path d="M 201,401 L 211,411" /></g><circle cx="256" cy="256" r="210" fill="none" stroke="#ffffff" stroke-width="1" stroke-opacity="0.3" stroke-dasharray="100 400" stroke-dashoffset="200" transform="rotate(-45 256 256)" /></svg>