<svg width="512" height="512" viewBox="0 0 512 512" xmlns="http://www.w3.org/2000/svg">
  
  

  
  <g transform="translate(180, 200)"> 

    
    <ellipse cx="70" cy="100" rx="25" ry="10" fill="#000000" fill-opacity="0.2"/>

    
    
    <rect x="50" y="160" width="40" height="30" rx="5" ry="5" fill="url(#rustyIronGradient)" stroke="#221A1A" stroke-width="2"/>
    
    <circle cx="58" cy="168" r="2" fill="#221A1A"/>
    <circle cx="82" cy="168" r="2" fill="#221A1A"/>

    
    
    <path d="M 70 160 C 60 140, 60 100, 70 80 C 80 100, 80 140, 70 160 Z" fill="url(#rustyIronGradient)" stroke="#221A1A" stroke-width="2"/>
    
    <path d="M 68 150 Q 70 125 68 90" stroke="#221A1A" stroke-width="1" fill="none"/>
    <path d="M 72 150 Q 70 125 72 90" stroke="#221A1A" stroke-width="1" fill="none"/>


    
    <circle cx="70" cy="80" r="15" fill="url(#rustyIronGradient)" stroke="#221A1A" stroke-width="2"/>
    
    <circle cx="70" cy="80" r="10" fill="#221A1A" fill-opacity="0.3"/>

    
    
    <ellipse cx="70" cy="75" rx="8" ry="4" fill="#FFD700" fill-opacity="0.8"/>
    
    <path d="M 70 70 C 65 50, 75 50, 70 30 C 68 40, 72 40, 70 70 Z" fill="url(#flameGradient)" filter="url(#flameGlow)" />
    
    <path d="M 70 65 C 68 55, 72 55, 70 45 C 69 50, 71 50, 70 65 Z" fill="#FFFF00" opacity="0.9" />

  </g>
</svg>