<svg xmlns="http://www.w3.org/2000/svg" viewBox="0 0 512 512" width="512" height="512"><defs><linearGradient id="metalGrad" x1="0%" y1="0%" x2="0%" y2="100%"><stop offset="0%" stop-color="#5a6570" /><stop offset="10%" stop-color="#7a8590" /><stop offset="40%" stop-color="#4a5560" /><stop offset="90%" stop-color="#2a3035" /><stop offset="100%" stop-color="#1a2025" /></linearGradient><radialGradient id="screenGlow" cx="50%" cy="50%" r="50%"><stop offset="0%" stop-color="#003333" stop-opacity="1" /><stop offset="80%" stop-color="#001a1a" stop-opacity="1" /><stop offset="100%" stop-color="#000505" stop-opacity="1" /></radialGradient><linearGradient id="glassReflect" x1="0%" y1="0%" x2="100%" y2="100%"><stop offset="30%" stop-color="#ffffff" stop-opacity="0.05" /><stop offset="50%" stop-color="#ffffff" stop-opacity="0.2" /><stop offset="51%" stop-color="#ffffff" stop-opacity="0.05" /><stop offset="100%" stop-color="#ffffff" stop-opacity="0" /></linearGradient><pattern id="scanlines" x="0" y="0" width="4" height="4" patternUnits="userSpaceOnUse"><rect x="0" y="2" width="4" height="1" fill="#000000" fill-opacity="0.3" /></pattern></defs><path d="M60 120 L452 120 L462 420 L50 420 Z" fill="#000000" fill-opacity="0.6" filter="blur(4px)" transform="translate(0, 15)" /><g stroke="#1a1a1a" fill="none" stroke-width="6" stroke-linecap="round"><path d="M200 400 C 200 450, 180 480, 190 512" /><path d="M220 400 C 220 460, 240 470, 235 512" stroke="#222" /><path d="M300 400 C 300 440, 320 480, 310 512" /><path d="M200 400 C 200 450, 180 480, 190 512" stroke="#333" stroke-width="2" /></g><rect x="50" y="80" width="412" height="320" rx="16" ry="16" fill="url(#metalGrad)" stroke="#151a1e" stroke-width="2" /><path d="M66 82 L446 82 L440 95 L72 95 Z" fill="#8a95a0" fill-opacity="0.5" /><g fill="#222" fill-opacity="0.2"><circle cx="65" cy="95" r="4" /><circle cx="447" cy="95" r="4" /><circle cx="65" cy="385" r="4" /><circle cx="447" cy="385" r="4" /><path d="M100 85 L120 90 L105 92 Z" fill="#3a4550" /><path d="M380 390 L400 385" stroke="#000" stroke-width="1" opacity="0.4" /></g><rect x="75" y="105" width="362" height="270" rx="4" ry="4" fill="#050505" stroke="#3a4550" stroke-width="2" /><g transform="translate(80, 110)"><rect x="0" y="0" width="352" height="260" fill="url(#screenGlow)" /><g fill="#00ffff" fill-opacity="0.8"><g transform="translate(10, 20)"><rect x="0" y="0" width="100" height="4" opacity="0.3" rx="1"/><rect x="0" y="8" width="80" height="4" opacity="0.5" rx="1"/><rect x="0" y="16" width="110" height="4" opacity="0.7" rx="1"/><rect x="0" y="24" width="90" height="4" opacity="0.9" rx="1"/><rect x="0" y="32" width="60" height="4" opacity="0.6" rx="1"/><rect x="0" y="40" width="100" height="4" opacity="0.4" rx="1"/><rect x="0" y="60" width="120" height="1" opacity="0.3" /><rect x="0" y="70" width="40" height="4" opacity="0.5" rx="1"/><rect x="50" y="70" width="60" height="4" opacity="0.7" rx="1"/><rect x="0" y="78" width="90" height="4" opacity="0.6" rx="1"/><rect x="0" y="86" width="70" height="4" opacity="0.4" rx="1"/><g transform="translate(0, 110)" fill="#00ff99"><rect x="0" y="0" width="10" height="3" opacity="0.6"/><rect x="14" y="0" width="10" height="3" opacity="0.8"/><rect x="0" y="6" width="10" height="3" opacity="0.5"/><rect x="14" y="6" width="10" height="3" opacity="0.7"/><rect x="0" y="12" width="10" height="3" opacity="0.7"/><rect x="14" y="12" width="10" height="3" opacity="0.9"/><rect x="30" y="0" width="40" height="15" fill="none" stroke="#00ff99" stroke-width="1" opacity="0.5"/><path d="M35 10 L45 5 L55 8 L65 2" fill="none" stroke="#00ff99" stroke-width="1" /></g></g><g transform="translate(150, 20)"><rect x="0" y="0" width="180" height="120" fill="#001111" stroke="#00ffff" stroke-width="2" stroke-opacity="0.5" /><path d="M5 10 L30 10" stroke="#ff3333" stroke-width="3" /><rect x="35" y="7" width="20" height="4" fill="#ff3333" opacity="0.8" /><text x="5" y="110" font-family="monospace" font-size="10" fill="#00ffff" opacity="0.6" style="pointer-events: none;">CAM_04 [LIVE]</text><path d="M90 60 L40 90 L140 90 Z" fill="#003333" opacity="0.5" /><path d="M90 60 L40 30 L40 90 Z" fill="#002222" opacity="0.7" /><path d="M90 60 L140 30 L140 90 Z" fill="#002222" opacity="0.7" /><rect x="85" y="50" width="10" height="20" fill="#00ffff" opacity="0.4" /><path d="M50 40 L60 40 L60 50" fill="none" stroke="#ffcc00" stroke-width="1" opacity="0.8" /><path d="M130 80 L120 80 L120 70" fill="none" stroke="#ffcc00" stroke-width="1" opacity="0.8" /></g><g transform="translate(150, 160)"><rect x="0" y="0" width="180" height="80" fill="#000909" stroke="#005555" stroke-width="1" /><path d="M0 20 H180 M0 40 H180 M0 60 H180" stroke="#003333" stroke-width="1" /><path d="M45 0 V80 M90 0 V80 M135 0 V80" stroke="#003333" stroke-width="1" /><polyline points="0,60 20,55 40,65 60,30 80,45 100,20 120,40 140,35 160,50 180,45"                   fill="none" stroke="#00ff00" stroke-width="1.5" stroke-linejoin="round" /><path d="M0 60 L20 55 L40 65 L60 30 L80 45 L100 20 L120 40 L140 35 L160 50 L180 45 V80 H0 Z"               fill="#00ff00" fill-opacity="0.1" /></g></g><rect x="0" y="0" width="352" height="260" fill="url(#scanlines)" style="pointer-events: none;" /><rect x="0" y="0" width="352" height="260" fill="none" stroke="#000000" stroke-width="8" opacity="0.4" filter="blur(2px)" /><path d="M0 0 L200 0 L0 200 Z" fill="url(#glassReflect)" style="pointer-events: none;" /></g><g transform="translate(0, 0)"><rect x="420" y="150" width="8" height="150" fill="#111" rx="2" opacity="0.5" /><path d="M422 160 H426 M422 170 H426 M422 180 H426 M422 190 H426" stroke="#333" stroke-width="1" /><rect x="200" y="380" width="112" height="14" rx="2" fill="#222" stroke="#333" stroke-width="1" /><circle cx="220" cy="387" r="3" fill="#ff3333" opacity="0.8" /><circle cx="235" cy="387" r="3" fill="#333" /><circle cx="250" cy="387" r="3" fill="#333" /><rect x="270" y="384" width="30" height="6" fill="#00ff00" opacity="0.5" /></g><g opacity="0.3" pointer-events="none"><path d="M200 200 Q220 220 240 200 T280 210" fill="none" stroke="#fff" stroke-width="15" stroke-opacity="0.1" filter="blur(5px)" /><path d="M60 300 L70 310 M65 305 L55 315" stroke="#000" stroke-width="2" /></g><path d="M66 82 L446 82" stroke="#ffffff" stroke-width="1" stroke-opacity="0.4" /></svg>