<svg xmlns="http://www.w3.org/2000/svg" viewBox="0 0 512 512" shape-rendering="geometricPrecision" width="512" height="512"><defs><filter id="grit-filter" x="-20%" y="-20%" width="140%" height="140%"><feTurbulence type="fractalNoise" baseFrequency="0.04" numOctaves="3" result="noise" /><feColorMatrix type="matrix" values="1 0 0 0 0  0 1 0 0 0  0 0 1 0 0  0 0 0 16 -8" in="noise" result="coloredNoise" /><feComposite operator="in" in="coloredNoise" in2="SourceGraphic" result="composite" /></filter><mask id="wearMask"><rect x="0" y="0" width="512" height="512" fill="white" /><path d="M100,100 Q150,120 120,150 T180,200" fill="none" stroke="black" stroke-width="4" stroke-dasharray="10,5" /><path d="M400,400 Q350,380 380,350 T320,300" fill="none" stroke="black" stroke-width="5" stroke-dasharray="15,8" /><circle cx="150" cy="350" r="20" fill="black" fill-opacity="0.8" /><circle cx="380" cy="120" r="15" fill="black" fill-opacity="0.7" /><path d="M256,50 L260,80 L250,70 Z" fill="black" /><path d="M50,256 L80,260 L70,250 Z" fill="black" /><path d="M462,256 L432,250 L442,260 Z" fill="black" /><path d="M200,200 L312,312" stroke="black" stroke-width="2" /><path d="M312,200 L200,312" stroke="black" stroke-width="2" /><circle cx="256" cy="256" r="200" fill="none" stroke="black" stroke-width="40" stroke-dasharray="4, 20" opacity="0.5" /><circle cx="256" cy="256" r="150" fill="none" stroke="black" stroke-width="30" stroke-dasharray="2, 30" opacity="0.4" /></mask><radialGradient id="yellowBaseGrad" cx="50%" cy="50%" r="50%" fx="50%" fy="50%"><stop offset="0%" stop-color="#FFD700" /><stop offset="70%" stop-color="#E6C200" /><stop offset="100%" stop-color="#B8860B" /></radialGradient><linearGradient id="blackSymbolGrad" x1="0%" y1="0%" x2="100%" y2="100%"><stop offset="0%" stop-color="#333333" /><stop offset="100%" stop-color="#111111" /></linearGradient></defs><g mask="url(#wearMask)"><circle cx="256" cy="256" r="230" fill="#8B4513" opacity="0.3" transform="translate(2,2)" /><circle cx="256" cy="256" r="225" fill="url(#yellowBaseGrad)" stroke="#8B6914" stroke-width="2" /><circle cx="256" cy="256" r="220" fill="none" stroke="#5D4037" stroke-width="40" stroke-opacity="0.1" filter="url(#grit-filter)" /><g transform="translate(256, 256)"><circle cx="0" cy="0" r="40" fill="url(#blackSymbolGrad)" /><circle cx="0" cy="0" r="40" fill="none" stroke="#000" stroke-width="1" opacity="0.5"/><path d="M0,0 L-50,-86.6 A100,100 0 0,1 50,-86.6 Z"             transform="translate(0, -50) scale(1.6)"             fill="url(#blackSymbolGrad)" /><path d="M0,0 L-50,-86.6 A100,100 0 0,1 50,-86.6 Z"             transform="rotate(120) translate(0, -50) scale(1.6)"             fill="url(#blackSymbolGrad)" /><path d="M0,0 L-50,-86.6 A100,100 0 0,1 50,-86.6 Z"             transform="rotate(240) translate(0, -50) scale(1.6)"             fill="url(#blackSymbolGrad)" /><g stroke="#555" stroke-width="1" fill="none" opacity="0.4"><circle cx="0" cy="0" r="38" /><path d="M-10,-80 L10,-80" transform="translate(0, -50) scale(1.6)" stroke="#777" /><path d="M-10,-80 L10,-80" transform="rotate(120) translate(0, -50) scale(1.6)" stroke="#777" /><path d="M-10,-80 L10,-80" transform="rotate(240) translate(0, -50) scale(1.6)" stroke="#777" /></g></g><g stroke="#3E2723" stroke-width="1.5" fill="none" opacity="0.6" stroke-linecap="round"><path d="M100,400 L150,380 L180,410" /><path d="M400,100 L380,150 L410,130" /><path d="M256,20 L256,50" /><path d="M256,492 L256,460" /></g><g stroke="#FFFFE0" stroke-width="1" fill="none" opacity="0.3" stroke-linecap="round"><path d="M120,120 L140,140" /><path d="M380,380 L360,360" /><path d="M200,100 Q250,150 300,100" /></g><path d="M150,350 Q200,300 250,350 T350,350" stroke="#3E2723" stroke-width="30" stroke-opacity="0.15" fill="none" filter="url(#grit-filter)" /><circle cx="400" cy="200" r="40" fill="#3E2723" fill-opacity="0.1" filter="url(#grit-filter)" /><circle cx="100" cy="150" r="30" fill="#3E2723" fill-opacity="0.15" filter="url(#grit-filter)" /><circle cx="256" cy="256" r="224" fill="none" stroke="white" stroke-width="2" stroke-opacity="0.2" /></g><defs><radialGradient id="shadowGrad" cx="50%" cy="50%" r="50%"><stop offset="80%" stop-color="#000" stop-opacity="0.2"/><stop offset="100%" stop-color="#000" stop-opacity="0"/></radialGradient></defs><circle cx="256" cy="256" r="225" fill="url(#shadowGrad)" style="mix-blend-mode: multiply;" pointer-events="none"/></svg>