<svg xmlns="http://www.w3.org/2000/svg" viewBox="0 0 1024 512" width="1024" height="512">
  <defs>
    
    <linearGradient id="coldIron" x1="0%" y1="0%" x2="100%" y2="0%">
      <stop offset="0%" stop-color="#2a2f35" />
      <stop offset="20%" stop-color="#4a5059" />
      <stop offset="50%" stop-color="#2a2f35" />
      <stop offset="80%" stop-color="#4a5059" />
      <stop offset="100%" stop-color="#2a2f35" />
    </linearGradient>
    
    
    <radialGradient id="heatCore" cx="50%" cy="50%" r="50%" fx="50%" fy="50%">
      <stop offset="0%" stop-color="#fffeb0" />
      <stop offset="25%" stop-color="#ffaa00" />
      <stop offset="50%" stop-color="#ff4400" />
      <stop offset="75%" stop-color="#550000" />
      <stop offset="100%" stop-color="#2a2f35" stop-opacity="0" />
    </radialGradient>

    
    <radialGradient id="slagGradient" cx="50%" cy="50%" r="60%">
      <stop offset="0%" stop-color="#ff5500" />
      <stop offset="40%" stop-color="#331100" />
      <stop offset="80%" stop-color="#1a1a1a" />
      <stop offset="100%" stop-color="#0d0d0d" />
    </radialGradient>

    
    <filter id="pittedIron">
      <feTurbulence type="fractalNoise" baseFrequency="0.15" numOctaves="3" result="noise" />
      <feColorMatrix type="matrix" values="1 0 0 0 0  0 1 0 0 0  0 0 1 0 0  0 0 0 0.4 0" in="noise" result="coloredNoise" />
      <feComposite operator="in" in="coloredNoise" in2="SourceGraphic" result="composite" />
      <feBlend mode="multiply" in="composite" in2="SourceGraphic" />
    </filter>

    
    <filter id="glow" x="-50%" y="-50%" width="200%" height="200%">
      <feGaussianBlur stdDeviation="8" result="blur" />
      <feComposite in="SourceGraphic" in2="blur" operator="over" />
    </filter>
  </defs>

  
  
  <path d="M 80,280 L 940,280 C 940,280 920,320 800,320 L 220,320 C 100,320 80,280 80,280 Z" fill="#000000" fill-opacity="0.4" filter="url(#glow)" />
  
  <ellipse cx="512" cy="310" rx="150" ry="60" fill="#000000" fill-opacity="0.6" filter="url(#glow)" />

  
  <g transform="translate(0, 20)">
    
    <path d="M 450,320 Q 420,300 440,280 Q 460,260 490,290 Q 510,310 480,330 Q 460,340 450,320 Z" fill="url(#slagGradient)" stroke="#220000" stroke-width="2" />
    
    <path d="M 512,350 Q 560,360 580,330 Q 600,300 550,290 Q 520,280 490,300 Q 460,320 480,340 Q 500,360 512,350 Z" fill="url(#slagGradient)" stroke="#220000" stroke-width="2" />
    
    <circle cx="590" cy="310" r="15" fill="#331100" stroke="#110000" />
  </g>

  
  <g transform="translate(60, 200)">
    <rect x="0" y="0" width="60" height="60" rx="5" fill="#3a3f45" stroke="#1a1f25" stroke-width="4" filter="url(#pittedIron)" />
    
    <rect x="10" y="10" width="40" height="40" rx="2" fill="#4a5059" stroke="#2a2f35" stroke-width="2" />
    <path d="M 0,0 L 10,10 M 60,0 L 50,10 M 60,60 L 50,50 M 0,60 L 10,50" stroke="#1a1f25" stroke-width="2" />
  </g>

  
  <g transform="translate(904, 200)">
    <rect x="0" y="0" width="60" height="60" rx="5" fill="#3a3f45" stroke="#1a1f25" stroke-width="4" filter="url(#pittedIron)" />
    
    <rect x="10" y="10" width="40" height="40" rx="2" fill="#4a5059" stroke="#2a2f35" stroke-width="2" />
    <path d="M 0,0 L 10,10 M 60,0 L 50,10 M 60,60 L 50,50 M 0,60 L 10,50" stroke="#1a1f25" stroke-width="2" />
  </g>

  
  
  <path d="M 120,240 L 350,240 C 400,240 450,280 512,300 C 574,280 624,240 674,240 L 904,240" 
        stroke="#1a1a1a" stroke-width="16" fill="none" stroke-linecap="round" />

  
  
  <g fill="#2a2f35" stroke="#000" stroke-width="1">
    <rect x="160" y="225" width="12" height="20" rx="2" />
    <rect x="220" y="225" width="12" height="20" rx="2" />
    <rect x="280" y="225" width="12" height="20" rx="2" />
    <rect x="340" y="228" width="12" height="20" rx="2" transform="rotate(5 346 238)" /> 
  </g>
  
  
  <g fill="#2a2f35" stroke="#000" stroke-width="1">
    <rect x="852" y="225" width="12" height="20" rx="2" />
    <rect x="792" y="225" width="12" height="20" rx="2" />
    <rect x="732" y="225" width="12" height="20" rx="2" />
    <rect x="672" y="228" width="12" height="20" rx="2" transform="rotate(-5 678 238)" /> 
  </g>

  
  
  <path d="M 400,230 Q 410,260 420,290 Q 425,310 420,320" stroke="#441100" stroke-width="10" fill="none" stroke-linecap="round" />
  <path d="M 624,230 Q 614,260 604,290 Q 599,310 604,320" stroke="#441100" stroke-width="10" fill="none" stroke-linecap="round" />
  
  
  <path d="M 450,240 C 460,280 480,310 500,330 L 524,330 C 544,310 564,280 574,240" 
        fill="#ff3300" fill-opacity="0.6" stroke="none" filter="url(#glow)" />

  
  
  <g filter="url(#pittedIron)">
    
    <path d="M 120,210 L 320,210 L 320,250 L 120,250 Z" fill="url(#coldIron)" stroke="#000" stroke-width="2" />
    
    <path d="M 704,210 L 904,210 L 904,250 L 704,250 Z" fill="url(#coldIron)" stroke="#000" stroke-width="2" />
    
    
    
    <path d="M 320,210 
             C 380,210 420,230 460,250 
             C 480,260 490,280 512,285 
             C 534,280 544,260 564,250 
             C 604,230 644,210 704,210 
             L 704,250 
             C 650,250 600,270 560,290 
             C 540,300 530,315 512,315 
             C 494,315 484,300 464,290 
             C 424,270 374,250 320,250 Z" 
             fill="#333" stroke="#000" stroke-width="2" />
  </g>

  
  
  <path d="M 319,211 
             C 379,211 420,232 460,252 
             C 480,262 490,282 512,287 
             C 534,282 544,262 564,252 
             C 604,232 645,211 705,211 
             L 705,249 
             C 650,249 600,268 560,288 
             C 540,298 530,313 512,313 
             C 494,313 484,298 464,288 
             C 424,268 374,249 319,249 Z" 
             fill="url(#heatCore)" stroke="none" style="mix-blend-mode: screen;" />

  
  <g fill="#ff5500" stroke="#550000" stroke-width="1">
    <circle cx="480" cy="290" r="8" />
    <circle cx="544" cy="290" r="8" />
    <path d="M 500,300 Q 512,330 524,300 Z" fill="#ffaa00" /> 
  </g>

  
  
  <path d="M 120,212 L 320,212 M 704,212 L 904,212" stroke="#6a7079" stroke-width="2" stroke-opacity="0.8" />
  
  
  <g fill="#ffffff" fill-opacity="0.6">
    <ellipse cx="512" cy="285" rx="20" ry="5" transform="rotate(-5 512 285)" />
    <circle cx="480" cy="288" r="3" />
    <circle cx="544" cy="288" r="3" />
    
    <ellipse cx="500" cy="300" rx="10" ry="3" />
    <ellipse cx="550" cy="340" rx="8" ry="2" />
  </g>

  
  <circle cx="512" cy="280" r="60" fill="url(#heatCore)" fill-opacity="0.3" filter="url(#glow)" style="pointer-events:none;" />

</svg>