<svg width="512" height="512" xmlns="http://www.w3.org/2000/svg" viewBox="0 0 512 512">
  
  <g transform="translate(166, 186)">
    
    <ellipse cx="90" cy="125" rx="100" ry="25" fill="rgba(0,0,0,0.15)"/>

    
    
    <rect x="0" y="100" width="180" height="20" rx="5" ry="5" fill="#A0522D" stroke="#5A2D0C" stroke-width="3"/>
    
    <rect x="10" y="0" width="15" height="100" rx="3" ry="3" fill="#8B4513" stroke="#5A2D0C" stroke-width="3"/>
    <rect x="155" y="0" width="15" height="100" rx="3" ry="3" fill="#8B4513" stroke="#5A2D0C" stroke-width="3"/>
    
    <rect x="5" y="25" width="170" height="10" rx="2" ry="2" fill="#A0522D" stroke="#5A2D0C" stroke-width="2"/>
    <rect x="5" y="60" width="170" height="10" rx="2" ry="2" fill="#A0522D" stroke="#5A2D0C" stroke-width="2"/>

    

    
    <g transform="translate(30, -20) rotate(-10)">
      
      <path d="M 0,0 L 10,0 L 10,80 L 5,90 L 0,80 Z" fill="#696969" stroke="#36454F" stroke-width="2"/>
      
      <path d="M 2,10 L 8,10 L 8,70 L 5,78 L 2,70 Z" fill="#B22222" opacity="0.4"/>
      
      <rect x="0" y="-10" width="10" height="10" fill="#4F4F4F" stroke="#36454F" stroke-width="1"/>
      <rect x="-5" y="-5" width="20" height="5" fill="#4F4F4F" stroke="#36454F" stroke-width="1"/>
    </g>

    
    <g transform="translate(70, -10) rotate(5)">
      
      <rect x="0" y="0" width="8" height="80" rx="3" ry="3" fill="#A0522D" stroke="#5A2D0C" stroke-width="2"/>
      
      <path d="M -15,10 L 0,0 L 8,0 L 23,10 L 8,20 L 0,20 Z" fill="#696969" stroke="#36454F" stroke-width="2"/>
      
      <path d="M -10,12 L 2,2 L 6,2 L 18,12 L 6,18 L 2,18 Z" fill="#B22222" opacity="0.4"/>
    </g>

    
    <g transform="translate(100, -15) rotate(15)">
      
      <path d="M 0,0 L 10,0 L 10,70 L 5,80 L 0,70 Z" fill="#696969" stroke="#36454F" stroke-width="2"/>
      
      <path d="M 2,5 L 8,5 L 8,60 L 5,68 L 2,60 Z" fill="#B22222" opacity="0.4"/>
      
      <rect x="0" y="-10" width="10" height="10" fill="#4F4F4F" stroke="#36454F" stroke-width="1"/>
      <rect x="-5" y="-5" width="20" height="5" fill="#4F4F4F" stroke="#36454F" stroke-width="1"/>
    </g>

    
    <g transform="translate(140, -5) rotate(-5)">
      
      <rect x="0" y="0" width="8" height="70" rx="3" ry="3" fill="#A0522D" stroke="#5A2D0C" stroke-width="2"/>
      
      <path d="M -15,10 L 0,0 L 8,0 L 23,10 L 8,20 L 0,20 Z" fill="#696969" stroke="#36454F" stroke-width="2"/>
      
      <path d="M -10,12 L 2,2 L 6,2 L 18,12 L 6,18 L 2,18 Z" fill="#B22222" opacity="0.4"/>
    </g>

  </g>
</svg>