<svg xmlns="http://www.w3.org/2000/svg" viewBox="0 0 512 512" width="512" height="512">
  <defs>
    <linearGradient id="woodGradient" x1="0%" y1="0%" x2="0%" y2="100%">
      <stop offset="0%" stop-color="#5D4037" />
      <stop offset="50%" stop-color="#4E342E" />
      <stop offset="100%" stop-color="#3E2723" />
    </linearGradient>
    <linearGradient id="parchmentGradient" x1="0%" y1="0%" x2="100%" y2="100%">
      <stop offset="0%" stop-color="#FFF9C4" />
      <stop offset="100%" stop-color="#F0F4C3" />
    </linearGradient>
    <radialGradient id="inkGradient" cx="40%" cy="40%" r="50%">
      <stop offset="0%" stop-color="#424242" />
      <stop offset="100%" stop-color="#000000" />
    </radialGradient>
    <filter id="roughPaper">
      <feTurbulence type="fractalNoise" baseFrequency="0.04" numOctaves="3" result="noise" />
      <feDisplacementMap in="SourceGraphic" in2="noise" scale="2" />
    </filter>
  </defs>

  
  <rect x="60" y="130" width="392" height="260" rx="12" fill="#000000" fill-opacity="0.4" filter="blur(4px)" transform="translate(4, 8)" />

  
  
  <rect x="60" y="130" width="392" height="252" rx="8" fill="url(#woodGradient)" stroke="#281813" stroke-width="2" />

  
  <g opacity="0.4">
    <path d="M60 160 H452 M60 200 H452 M60 250 H452 M60 300 H452 M60 350 H452" stroke="#281813" stroke-width="2" stroke-linecap="round" />
    
    <path d="M80 140 C120 145, 160 135, 200 140" stroke="#3E2723" stroke-width="3" fill="none" />
    <path d="M300 360 C340 365, 380 355, 420 360" stroke="#3E2723" stroke-width="3" fill="none" />
    <path d="M100 280 Q150 290 200 280 T300 280" stroke="#3E2723" stroke-width="2" fill="none" />
    <path d="M350 180 Q400 170 440 180" stroke="#3E2723" stroke-width="2" fill="none" />
    
    <ellipse cx="150" cy="220" rx="15" ry="8" fill="#281813" opacity="0.6" />
    <ellipse cx="380" cy="320" rx="10" ry="5" fill="#281813" opacity="0.6" />
  </g>

  
  <path d="M68 132 H444 C448 132 450 134 450 138 V374" fill="none" stroke="#8D6E63" stroke-width="2" opacity="0.6" />
  <path d="M62 380 H450" fill="none" stroke="#1B100D" stroke-width="3" opacity="0.5" />

  
  <g transform="rotate(-15, 140, 180)">
    
    <rect x="100" y="165" width="100" height="24" rx="4" fill="#000000" fill-opacity="0.3" />
    
    <rect x="100" y="160" width="100" height="24" rx="4" fill="#FFF59D" stroke="#9E9D24" stroke-width="1" />
    
    <path d="M104 160 V184 M196 160 V184" stroke="#F9A825" stroke-width="1" />
    <rect x="145" y="160" width="10" height="24" fill="#B71C1C" /> 
  </g>

  <g transform="rotate(5, 140, 210)">
    
    <rect x="90" y="215" width="110" height="26" rx="5" fill="#000000" fill-opacity="0.3" />
    
    <rect x="90" y="210" width="110" height="26" rx="5" fill="#FFE082" stroke="#F57F17" stroke-width="1" />
    
    <ellipse cx="95" cy="223" rx="3" ry="8" fill="#FBC02D" />
    <rect x="130" y="210" width="8" height="26" fill="#1A237E" /> 
  </g>

  
  
  <path d="M180 200 L380 200 L390 340 L170 340 Z" fill="#000000" fill-opacity="0.3" transform="translate(2,4)" filter="blur(2px)" />

  
  <g transform="rotate(-2, 280, 270)">
    
    <path d="M180 200 Q280 195 380 200 L390 340 Q290 345 170 340 Z" fill="url(#parchmentGradient)" stroke="#D4E157" stroke-width="1" />
    
    
    <path d="M380 200 L370 215 L385 210 Z" fill="#DDD195" />
    <path d="M170 340 L185 325 L175 325 Z" fill="#DDD195" />

    
    <g stroke="#4E342E" stroke-width="2" fill="none" opacity="0.7" stroke-linecap="round">
      <path d="M200 220 H360 M200 235 H350 M200 250 H360 M200 265 H300" stroke-dasharray="10,4" />
      <path d="M200 290 H360 M200 305 H340" stroke-dasharray="8,5" />
      
      <circle cx="250" cy="290" r="15" stroke-width="1" />
      <path d="M250 275 L250 305 M235 290 L265 290" stroke-width="1" />
    </g>
    
    
    <circle cx="370" cy="320" r="12" fill="#546E7A" stroke="#263238" stroke-width="1" />
    <circle cx="368" cy="318" r="4" fill="#90A4AE" opacity="0.5" />
  </g>

  
  <g transform="translate(380, 160)">
    
    <ellipse cx="0" cy="0" rx="22" ry="22" fill="#000000" fill-opacity="0.4" transform="translate(4,4)" />
    
    <circle cx="0" cy="0" r="20" fill="#455A64" stroke="#263238" stroke-width="1" />
    <circle cx="0" cy="0" r="18" fill="none" stroke="#78909C" stroke-width="2" opacity="0.5" />
    
    <circle cx="0" cy="0" r="14" fill="url(#inkGradient)" />
    
    <path d="M-5 -5 Q0 -8 5 -5" stroke="#FFFFFF" stroke-width="2" opacity="0.6" fill="none" stroke-linecap="round" />
    <circle cx="4" cy="-4" r="2" fill="#FFFFFF" opacity="0.8" />
  </g>

  
  <g transform="translate(360, 180) rotate(-45)">
    
    <path d="M0 0 C20 -5, 60 -10, 100 0 C110 5, 110 -5, 120 0 L130 0" stroke="#000000" stroke-width="8" stroke-opacity="0.2" fill="none" transform="translate(4,4)" />
    
    
    <path d="M-10 0 L130 0" stroke="#F5F5F5" stroke-width="2" fill="none" />
    
    
    <path d="M10 0 C30 -15, 70 -20, 110 -5 L100 0 Z" fill="#ECEFF1" stroke="#CFD8DC" stroke-width="1" />
    
    <path d="M15 0 C35 15, 75 20, 115 5 L100 0 Z" fill="#CFD8DC" stroke="#B0BEC5" stroke-width="1" />
    
    
    <path d="M-10 0 L5 0" stroke="#212121" stroke-width="3" stroke-linecap="round" />
  </g>
  
  
  <g transform="translate(400, 300)">
    
    <path d="M0 0 Q10 -5 20 0 T40 0 Q45 10 35 20 T10 25 Q-5 20 0 0" fill="#B71C1C" stroke="#7F0000" stroke-width="1" />
    
    <path d="M10 5 Q15 2 20 5" stroke="#FFCDD2" stroke-width="2" fill="none" opacity="0.6" />
    
    <circle cx="50" cy="40" r="10" fill="#5D4037" stroke="#3E2723" stroke-width="1" />
    <circle cx="50" cy="40" r="6" fill="#8D6E63" />
    
    <circle cx="50" cy="40" r="11" fill="none" stroke="#FFD54F" stroke-width="2" />
  </g>

  
  
  <rect x="60" y="130" width="392" height="252" rx="8" fill="url(#woodGradient)" fill-opacity="0.1" style="mix-blend-mode: overlay;" pointer-events="none"/>
  
  
  <g opacity="0.3">
    <line x1="80" y1="150" x2="90" y2="155" stroke="#000" stroke-width="1" />
    <line x1="85" y1="145" x2="95" y2="148" stroke="#000" stroke-width="1" />
    <line x1="420" y1="360" x2="430" y2="355" stroke="#D7CCC8" stroke-width="1" />
  </g>

</svg>